G04 #@! TF.GenerationSoftware,KiCad,Pcbnew,(5.1.5-0-10_14)*
G04 #@! TF.CreationDate,2020-03-21T16:44:53+01:00*
G04 #@! TF.ProjectId,easypowerwall,65617379-706f-4776-9572-77616c6c2e6b,rev?*
G04 #@! TF.SameCoordinates,Original*
G04 #@! TF.FileFunction,Copper,L1,Top*
G04 #@! TF.FilePolarity,Positive*
%FSLAX46Y46*%
G04 Gerber Fmt 4.6, Leading zero omitted, Abs format (unit mm)*
G04 Created by KiCad (PCBNEW (5.1.5-0-10_14)) date 2020-03-21 16:44:53*
%MOMM*%
%LPD*%
G04 APERTURE LIST*
%ADD10C,0.100000*%
%ADD11C,0.010000*%
%ADD12C,0.304800*%
%ADD13C,0.203200*%
%ADD14C,0.900000*%
%ADD15C,10.600000*%
%ADD16R,1.250000X2.000000*%
%ADD17R,3.000000X3.000000*%
%ADD18R,1.524000X1.524000*%
%ADD19O,1.700000X1.700000*%
%ADD20R,1.700000X1.700000*%
%ADD21C,0.800000*%
%ADD22C,0.250000*%
%ADD23C,1.000000*%
%ADD24C,4.000000*%
%ADD25C,3.000000*%
G04 APERTURE END LIST*
D10*
G36*
X42000000Y-267750000D02*
G01*
X17000000Y-267750000D01*
X17000000Y-252750000D01*
X42000000Y-252750000D01*
X42000000Y-267750000D01*
G37*
X42000000Y-267750000D02*
X17000000Y-267750000D01*
X17000000Y-252750000D01*
X42000000Y-252750000D01*
X42000000Y-267750000D01*
D11*
G36*
X198103910Y-258742348D02*
G01*
X198182454Y-258742778D01*
X198239298Y-258743942D01*
X198278105Y-258746207D01*
X198302538Y-258749940D01*
X198316262Y-258755506D01*
X198322940Y-258763273D01*
X198326236Y-258773605D01*
X198326556Y-258774943D01*
X198331562Y-258799079D01*
X198340829Y-258846701D01*
X198353392Y-258912741D01*
X198368287Y-258992128D01*
X198384551Y-259079796D01*
X198385119Y-259082875D01*
X198401410Y-259168789D01*
X198416652Y-259244696D01*
X198429861Y-259306045D01*
X198440054Y-259348282D01*
X198446248Y-259366855D01*
X198446543Y-259367184D01*
X198464788Y-259376253D01*
X198502405Y-259391367D01*
X198551271Y-259409262D01*
X198551543Y-259409358D01*
X198613093Y-259432493D01*
X198685657Y-259461965D01*
X198754057Y-259491597D01*
X198757294Y-259493062D01*
X198868702Y-259543626D01*
X199115399Y-259375160D01*
X199191077Y-259323803D01*
X199259631Y-259277889D01*
X199317088Y-259240030D01*
X199359476Y-259212837D01*
X199382825Y-259198921D01*
X199385042Y-259197889D01*
X199402010Y-259202484D01*
X199433701Y-259224655D01*
X199481352Y-259265447D01*
X199546198Y-259325905D01*
X199612397Y-259390227D01*
X199676214Y-259453612D01*
X199733329Y-259511451D01*
X199780305Y-259560175D01*
X199813703Y-259596210D01*
X199830085Y-259615984D01*
X199830694Y-259617002D01*
X199832505Y-259630572D01*
X199825683Y-259652733D01*
X199808540Y-259686478D01*
X199779393Y-259734800D01*
X199736555Y-259800692D01*
X199679448Y-259885517D01*
X199628766Y-259960177D01*
X199583461Y-260027140D01*
X199546150Y-260082516D01*
X199519452Y-260122420D01*
X199505985Y-260142962D01*
X199505137Y-260144356D01*
X199506781Y-260164038D01*
X199519245Y-260202293D01*
X199540048Y-260251889D01*
X199547462Y-260267728D01*
X199579814Y-260338290D01*
X199614328Y-260418353D01*
X199642365Y-260487629D01*
X199662568Y-260539045D01*
X199678615Y-260578119D01*
X199687888Y-260598541D01*
X199689041Y-260600114D01*
X199706096Y-260602721D01*
X199746298Y-260609863D01*
X199804302Y-260620523D01*
X199874763Y-260633685D01*
X199952335Y-260648333D01*
X200031672Y-260663449D01*
X200107431Y-260678018D01*
X200174264Y-260691022D01*
X200226828Y-260701445D01*
X200259776Y-260708270D01*
X200267857Y-260710199D01*
X200276205Y-260714962D01*
X200282506Y-260725718D01*
X200287045Y-260746098D01*
X200290104Y-260779734D01*
X200291967Y-260830255D01*
X200292918Y-260901292D01*
X200293240Y-260996476D01*
X200293257Y-261035492D01*
X200293257Y-261352799D01*
X200217057Y-261367839D01*
X200174663Y-261375995D01*
X200111400Y-261387899D01*
X200034962Y-261402116D01*
X199953043Y-261417210D01*
X199930400Y-261421355D01*
X199854806Y-261436053D01*
X199788953Y-261450505D01*
X199738366Y-261463375D01*
X199708574Y-261473322D01*
X199703612Y-261476287D01*
X199691426Y-261497283D01*
X199673953Y-261537967D01*
X199654577Y-261590322D01*
X199650734Y-261601600D01*
X199625339Y-261671523D01*
X199593817Y-261750418D01*
X199562969Y-261821266D01*
X199562817Y-261821595D01*
X199511447Y-261932733D01*
X199680399Y-262181253D01*
X199849352Y-262429772D01*
X199632429Y-262647058D01*
X199566819Y-262711726D01*
X199506979Y-262768733D01*
X199456267Y-262815033D01*
X199418046Y-262847584D01*
X199395675Y-262863343D01*
X199392466Y-262864343D01*
X199373626Y-262856469D01*
X199335180Y-262834578D01*
X199281330Y-262801267D01*
X199216276Y-262759131D01*
X199145940Y-262711943D01*
X199074555Y-262663810D01*
X199010908Y-262621928D01*
X198959041Y-262588871D01*
X198922995Y-262567218D01*
X198906867Y-262559543D01*
X198887189Y-262566037D01*
X198849875Y-262583150D01*
X198802621Y-262607326D01*
X198797612Y-262610013D01*
X198733977Y-262641927D01*
X198690341Y-262657579D01*
X198663202Y-262657745D01*
X198649057Y-262643204D01*
X198648975Y-262643000D01*
X198641905Y-262625779D01*
X198625042Y-262584899D01*
X198599695Y-262523525D01*
X198567171Y-262444819D01*
X198528778Y-262351947D01*
X198485822Y-262248072D01*
X198444222Y-262147502D01*
X198398504Y-262036516D01*
X198356526Y-261933703D01*
X198319548Y-261842215D01*
X198288827Y-261765201D01*
X198265622Y-261705815D01*
X198251190Y-261667209D01*
X198246743Y-261652800D01*
X198257896Y-261636272D01*
X198287069Y-261609930D01*
X198325971Y-261580887D01*
X198436757Y-261489039D01*
X198523351Y-261383759D01*
X198584716Y-261267266D01*
X198619815Y-261141776D01*
X198627608Y-261009507D01*
X198621943Y-260948457D01*
X198591078Y-260821795D01*
X198537920Y-260709941D01*
X198465767Y-260614001D01*
X198377917Y-260535076D01*
X198277665Y-260474270D01*
X198168310Y-260432687D01*
X198053147Y-260411428D01*
X197935475Y-260411599D01*
X197818590Y-260434301D01*
X197705789Y-260480638D01*
X197600369Y-260551713D01*
X197556368Y-260591911D01*
X197471979Y-260695129D01*
X197413222Y-260807925D01*
X197379704Y-260927010D01*
X197371035Y-261049095D01*
X197386823Y-261170893D01*
X197426678Y-261289116D01*
X197490207Y-261400475D01*
X197577021Y-261501684D01*
X197674029Y-261580887D01*
X197714437Y-261611162D01*
X197742982Y-261637219D01*
X197753257Y-261652825D01*
X197747877Y-261669843D01*
X197732575Y-261710500D01*
X197708612Y-261771642D01*
X197677244Y-261850119D01*
X197639732Y-261942780D01*
X197597333Y-262046472D01*
X197555663Y-262147526D01*
X197509690Y-262258607D01*
X197467107Y-262361541D01*
X197429221Y-262453165D01*
X197397340Y-262530316D01*
X197372771Y-262589831D01*
X197356820Y-262628544D01*
X197350910Y-262643000D01*
X197336948Y-262657685D01*
X197309940Y-262657642D01*
X197266413Y-262642099D01*
X197202890Y-262610284D01*
X197202388Y-262610013D01*
X197154560Y-262585323D01*
X197115897Y-262567338D01*
X197094095Y-262559614D01*
X197093133Y-262559543D01*
X197076721Y-262567378D01*
X197040487Y-262589165D01*
X196988474Y-262622328D01*
X196924725Y-262664291D01*
X196854060Y-262711943D01*
X196782116Y-262760191D01*
X196717274Y-262802151D01*
X196663735Y-262835227D01*
X196625697Y-262856821D01*
X196607533Y-262864343D01*
X196590808Y-262854457D01*
X196557180Y-262826826D01*
X196510010Y-262784495D01*
X196452658Y-262730505D01*
X196388484Y-262667899D01*
X196367497Y-262646983D01*
X196150499Y-262429623D01*
X196315668Y-262187220D01*
X196365864Y-262112781D01*
X196409919Y-262045972D01*
X196445362Y-261990665D01*
X196469719Y-261950729D01*
X196480522Y-261930036D01*
X196480838Y-261928563D01*
X196475143Y-261909058D01*
X196459826Y-261869822D01*
X196437537Y-261817430D01*
X196421893Y-261782355D01*
X196392641Y-261715201D01*
X196365094Y-261647358D01*
X196343737Y-261590034D01*
X196337935Y-261572572D01*
X196321452Y-261525938D01*
X196305340Y-261489905D01*
X196296490Y-261476287D01*
X196276960Y-261467952D01*
X196234334Y-261456137D01*
X196174145Y-261442181D01*
X196101922Y-261427422D01*
X196069600Y-261421355D01*
X195987522Y-261406273D01*
X195908795Y-261391669D01*
X195841109Y-261378980D01*
X195792160Y-261369642D01*
X195782943Y-261367839D01*
X195706743Y-261352799D01*
X195706743Y-261035492D01*
X195706914Y-260931154D01*
X195707616Y-260852213D01*
X195709134Y-260795038D01*
X195711749Y-260755999D01*
X195715746Y-260731465D01*
X195721409Y-260717805D01*
X195729020Y-260711389D01*
X195732143Y-260710199D01*
X195750978Y-260705980D01*
X195792588Y-260697562D01*
X195851630Y-260685961D01*
X195922757Y-260672195D01*
X196000625Y-260657280D01*
X196079887Y-260642232D01*
X196155198Y-260628069D01*
X196221213Y-260615806D01*
X196272587Y-260606461D01*
X196303975Y-260601050D01*
X196310959Y-260600114D01*
X196317285Y-260587596D01*
X196331290Y-260554246D01*
X196350355Y-260506377D01*
X196357634Y-260487629D01*
X196386996Y-260415195D01*
X196421571Y-260335170D01*
X196452537Y-260267728D01*
X196475323Y-260216159D01*
X196490482Y-260173785D01*
X196495542Y-260147834D01*
X196494736Y-260144356D01*
X196484041Y-260127936D01*
X196459620Y-260091417D01*
X196424095Y-260038687D01*
X196380087Y-259973635D01*
X196330217Y-259900151D01*
X196320356Y-259885645D01*
X196262492Y-259799704D01*
X196219956Y-259734261D01*
X196191054Y-259686304D01*
X196174090Y-259652820D01*
X196167367Y-259630795D01*
X196169190Y-259617217D01*
X196169236Y-259617131D01*
X196183586Y-259599297D01*
X196215323Y-259564817D01*
X196261010Y-259517268D01*
X196317204Y-259460222D01*
X196380468Y-259397255D01*
X196387602Y-259390227D01*
X196467330Y-259313020D01*
X196528857Y-259256330D01*
X196573421Y-259219110D01*
X196602257Y-259200315D01*
X196614958Y-259197889D01*
X196633494Y-259208471D01*
X196671961Y-259232916D01*
X196726386Y-259268612D01*
X196792798Y-259312947D01*
X196867225Y-259363311D01*
X196884601Y-259375160D01*
X197131297Y-259543626D01*
X197242706Y-259493062D01*
X197310457Y-259463595D01*
X197383183Y-259433959D01*
X197445703Y-259410330D01*
X197448457Y-259409358D01*
X197497360Y-259391457D01*
X197535057Y-259376320D01*
X197553425Y-259367210D01*
X197553456Y-259367184D01*
X197559285Y-259350717D01*
X197569192Y-259310219D01*
X197582195Y-259250242D01*
X197597309Y-259175340D01*
X197613552Y-259090064D01*
X197614881Y-259082875D01*
X197631175Y-258995014D01*
X197646133Y-258915260D01*
X197658791Y-258848681D01*
X197668186Y-258800347D01*
X197673354Y-258775325D01*
X197673444Y-258774943D01*
X197676589Y-258764299D01*
X197682704Y-258756262D01*
X197695453Y-258750467D01*
X197718500Y-258746547D01*
X197755509Y-258744135D01*
X197810144Y-258742865D01*
X197886067Y-258742371D01*
X197986944Y-258742286D01*
X198000000Y-258742286D01*
X198103910Y-258742348D01*
G37*
X198103910Y-258742348D02*
X198182454Y-258742778D01*
X198239298Y-258743942D01*
X198278105Y-258746207D01*
X198302538Y-258749940D01*
X198316262Y-258755506D01*
X198322940Y-258763273D01*
X198326236Y-258773605D01*
X198326556Y-258774943D01*
X198331562Y-258799079D01*
X198340829Y-258846701D01*
X198353392Y-258912741D01*
X198368287Y-258992128D01*
X198384551Y-259079796D01*
X198385119Y-259082875D01*
X198401410Y-259168789D01*
X198416652Y-259244696D01*
X198429861Y-259306045D01*
X198440054Y-259348282D01*
X198446248Y-259366855D01*
X198446543Y-259367184D01*
X198464788Y-259376253D01*
X198502405Y-259391367D01*
X198551271Y-259409262D01*
X198551543Y-259409358D01*
X198613093Y-259432493D01*
X198685657Y-259461965D01*
X198754057Y-259491597D01*
X198757294Y-259493062D01*
X198868702Y-259543626D01*
X199115399Y-259375160D01*
X199191077Y-259323803D01*
X199259631Y-259277889D01*
X199317088Y-259240030D01*
X199359476Y-259212837D01*
X199382825Y-259198921D01*
X199385042Y-259197889D01*
X199402010Y-259202484D01*
X199433701Y-259224655D01*
X199481352Y-259265447D01*
X199546198Y-259325905D01*
X199612397Y-259390227D01*
X199676214Y-259453612D01*
X199733329Y-259511451D01*
X199780305Y-259560175D01*
X199813703Y-259596210D01*
X199830085Y-259615984D01*
X199830694Y-259617002D01*
X199832505Y-259630572D01*
X199825683Y-259652733D01*
X199808540Y-259686478D01*
X199779393Y-259734800D01*
X199736555Y-259800692D01*
X199679448Y-259885517D01*
X199628766Y-259960177D01*
X199583461Y-260027140D01*
X199546150Y-260082516D01*
X199519452Y-260122420D01*
X199505985Y-260142962D01*
X199505137Y-260144356D01*
X199506781Y-260164038D01*
X199519245Y-260202293D01*
X199540048Y-260251889D01*
X199547462Y-260267728D01*
X199579814Y-260338290D01*
X199614328Y-260418353D01*
X199642365Y-260487629D01*
X199662568Y-260539045D01*
X199678615Y-260578119D01*
X199687888Y-260598541D01*
X199689041Y-260600114D01*
X199706096Y-260602721D01*
X199746298Y-260609863D01*
X199804302Y-260620523D01*
X199874763Y-260633685D01*
X199952335Y-260648333D01*
X200031672Y-260663449D01*
X200107431Y-260678018D01*
X200174264Y-260691022D01*
X200226828Y-260701445D01*
X200259776Y-260708270D01*
X200267857Y-260710199D01*
X200276205Y-260714962D01*
X200282506Y-260725718D01*
X200287045Y-260746098D01*
X200290104Y-260779734D01*
X200291967Y-260830255D01*
X200292918Y-260901292D01*
X200293240Y-260996476D01*
X200293257Y-261035492D01*
X200293257Y-261352799D01*
X200217057Y-261367839D01*
X200174663Y-261375995D01*
X200111400Y-261387899D01*
X200034962Y-261402116D01*
X199953043Y-261417210D01*
X199930400Y-261421355D01*
X199854806Y-261436053D01*
X199788953Y-261450505D01*
X199738366Y-261463375D01*
X199708574Y-261473322D01*
X199703612Y-261476287D01*
X199691426Y-261497283D01*
X199673953Y-261537967D01*
X199654577Y-261590322D01*
X199650734Y-261601600D01*
X199625339Y-261671523D01*
X199593817Y-261750418D01*
X199562969Y-261821266D01*
X199562817Y-261821595D01*
X199511447Y-261932733D01*
X199680399Y-262181253D01*
X199849352Y-262429772D01*
X199632429Y-262647058D01*
X199566819Y-262711726D01*
X199506979Y-262768733D01*
X199456267Y-262815033D01*
X199418046Y-262847584D01*
X199395675Y-262863343D01*
X199392466Y-262864343D01*
X199373626Y-262856469D01*
X199335180Y-262834578D01*
X199281330Y-262801267D01*
X199216276Y-262759131D01*
X199145940Y-262711943D01*
X199074555Y-262663810D01*
X199010908Y-262621928D01*
X198959041Y-262588871D01*
X198922995Y-262567218D01*
X198906867Y-262559543D01*
X198887189Y-262566037D01*
X198849875Y-262583150D01*
X198802621Y-262607326D01*
X198797612Y-262610013D01*
X198733977Y-262641927D01*
X198690341Y-262657579D01*
X198663202Y-262657745D01*
X198649057Y-262643204D01*
X198648975Y-262643000D01*
X198641905Y-262625779D01*
X198625042Y-262584899D01*
X198599695Y-262523525D01*
X198567171Y-262444819D01*
X198528778Y-262351947D01*
X198485822Y-262248072D01*
X198444222Y-262147502D01*
X198398504Y-262036516D01*
X198356526Y-261933703D01*
X198319548Y-261842215D01*
X198288827Y-261765201D01*
X198265622Y-261705815D01*
X198251190Y-261667209D01*
X198246743Y-261652800D01*
X198257896Y-261636272D01*
X198287069Y-261609930D01*
X198325971Y-261580887D01*
X198436757Y-261489039D01*
X198523351Y-261383759D01*
X198584716Y-261267266D01*
X198619815Y-261141776D01*
X198627608Y-261009507D01*
X198621943Y-260948457D01*
X198591078Y-260821795D01*
X198537920Y-260709941D01*
X198465767Y-260614001D01*
X198377917Y-260535076D01*
X198277665Y-260474270D01*
X198168310Y-260432687D01*
X198053147Y-260411428D01*
X197935475Y-260411599D01*
X197818590Y-260434301D01*
X197705789Y-260480638D01*
X197600369Y-260551713D01*
X197556368Y-260591911D01*
X197471979Y-260695129D01*
X197413222Y-260807925D01*
X197379704Y-260927010D01*
X197371035Y-261049095D01*
X197386823Y-261170893D01*
X197426678Y-261289116D01*
X197490207Y-261400475D01*
X197577021Y-261501684D01*
X197674029Y-261580887D01*
X197714437Y-261611162D01*
X197742982Y-261637219D01*
X197753257Y-261652825D01*
X197747877Y-261669843D01*
X197732575Y-261710500D01*
X197708612Y-261771642D01*
X197677244Y-261850119D01*
X197639732Y-261942780D01*
X197597333Y-262046472D01*
X197555663Y-262147526D01*
X197509690Y-262258607D01*
X197467107Y-262361541D01*
X197429221Y-262453165D01*
X197397340Y-262530316D01*
X197372771Y-262589831D01*
X197356820Y-262628544D01*
X197350910Y-262643000D01*
X197336948Y-262657685D01*
X197309940Y-262657642D01*
X197266413Y-262642099D01*
X197202890Y-262610284D01*
X197202388Y-262610013D01*
X197154560Y-262585323D01*
X197115897Y-262567338D01*
X197094095Y-262559614D01*
X197093133Y-262559543D01*
X197076721Y-262567378D01*
X197040487Y-262589165D01*
X196988474Y-262622328D01*
X196924725Y-262664291D01*
X196854060Y-262711943D01*
X196782116Y-262760191D01*
X196717274Y-262802151D01*
X196663735Y-262835227D01*
X196625697Y-262856821D01*
X196607533Y-262864343D01*
X196590808Y-262854457D01*
X196557180Y-262826826D01*
X196510010Y-262784495D01*
X196452658Y-262730505D01*
X196388484Y-262667899D01*
X196367497Y-262646983D01*
X196150499Y-262429623D01*
X196315668Y-262187220D01*
X196365864Y-262112781D01*
X196409919Y-262045972D01*
X196445362Y-261990665D01*
X196469719Y-261950729D01*
X196480522Y-261930036D01*
X196480838Y-261928563D01*
X196475143Y-261909058D01*
X196459826Y-261869822D01*
X196437537Y-261817430D01*
X196421893Y-261782355D01*
X196392641Y-261715201D01*
X196365094Y-261647358D01*
X196343737Y-261590034D01*
X196337935Y-261572572D01*
X196321452Y-261525938D01*
X196305340Y-261489905D01*
X196296490Y-261476287D01*
X196276960Y-261467952D01*
X196234334Y-261456137D01*
X196174145Y-261442181D01*
X196101922Y-261427422D01*
X196069600Y-261421355D01*
X195987522Y-261406273D01*
X195908795Y-261391669D01*
X195841109Y-261378980D01*
X195792160Y-261369642D01*
X195782943Y-261367839D01*
X195706743Y-261352799D01*
X195706743Y-261035492D01*
X195706914Y-260931154D01*
X195707616Y-260852213D01*
X195709134Y-260795038D01*
X195711749Y-260755999D01*
X195715746Y-260731465D01*
X195721409Y-260717805D01*
X195729020Y-260711389D01*
X195732143Y-260710199D01*
X195750978Y-260705980D01*
X195792588Y-260697562D01*
X195851630Y-260685961D01*
X195922757Y-260672195D01*
X196000625Y-260657280D01*
X196079887Y-260642232D01*
X196155198Y-260628069D01*
X196221213Y-260615806D01*
X196272587Y-260606461D01*
X196303975Y-260601050D01*
X196310959Y-260600114D01*
X196317285Y-260587596D01*
X196331290Y-260554246D01*
X196350355Y-260506377D01*
X196357634Y-260487629D01*
X196386996Y-260415195D01*
X196421571Y-260335170D01*
X196452537Y-260267728D01*
X196475323Y-260216159D01*
X196490482Y-260173785D01*
X196495542Y-260147834D01*
X196494736Y-260144356D01*
X196484041Y-260127936D01*
X196459620Y-260091417D01*
X196424095Y-260038687D01*
X196380087Y-259973635D01*
X196330217Y-259900151D01*
X196320356Y-259885645D01*
X196262492Y-259799704D01*
X196219956Y-259734261D01*
X196191054Y-259686304D01*
X196174090Y-259652820D01*
X196167367Y-259630795D01*
X196169190Y-259617217D01*
X196169236Y-259617131D01*
X196183586Y-259599297D01*
X196215323Y-259564817D01*
X196261010Y-259517268D01*
X196317204Y-259460222D01*
X196380468Y-259397255D01*
X196387602Y-259390227D01*
X196467330Y-259313020D01*
X196528857Y-259256330D01*
X196573421Y-259219110D01*
X196602257Y-259200315D01*
X196614958Y-259197889D01*
X196633494Y-259208471D01*
X196671961Y-259232916D01*
X196726386Y-259268612D01*
X196792798Y-259312947D01*
X196867225Y-259363311D01*
X196884601Y-259375160D01*
X197131297Y-259543626D01*
X197242706Y-259493062D01*
X197310457Y-259463595D01*
X197383183Y-259433959D01*
X197445703Y-259410330D01*
X197448457Y-259409358D01*
X197497360Y-259391457D01*
X197535057Y-259376320D01*
X197553425Y-259367210D01*
X197553456Y-259367184D01*
X197559285Y-259350717D01*
X197569192Y-259310219D01*
X197582195Y-259250242D01*
X197597309Y-259175340D01*
X197613552Y-259090064D01*
X197614881Y-259082875D01*
X197631175Y-258995014D01*
X197646133Y-258915260D01*
X197658791Y-258848681D01*
X197668186Y-258800347D01*
X197673354Y-258775325D01*
X197673444Y-258774943D01*
X197676589Y-258764299D01*
X197682704Y-258756262D01*
X197695453Y-258750467D01*
X197718500Y-258746547D01*
X197755509Y-258744135D01*
X197810144Y-258742865D01*
X197886067Y-258742371D01*
X197986944Y-258742286D01*
X198000000Y-258742286D01*
X198103910Y-258742348D01*
G36*
X201153595Y-263466966D02*
G01*
X201211021Y-263504497D01*
X201238719Y-263538096D01*
X201260662Y-263599064D01*
X201262405Y-263647308D01*
X201258457Y-263711816D01*
X201109686Y-263776934D01*
X201037349Y-263810202D01*
X200990084Y-263836964D01*
X200965507Y-263860144D01*
X200961237Y-263882667D01*
X200974889Y-263907455D01*
X200989943Y-263923886D01*
X201033746Y-263950235D01*
X201081389Y-263952081D01*
X201125145Y-263931546D01*
X201157289Y-263890752D01*
X201163038Y-263876347D01*
X201190576Y-263831356D01*
X201222258Y-263812182D01*
X201265714Y-263795779D01*
X201265714Y-263857966D01*
X201261872Y-263900283D01*
X201246823Y-263935969D01*
X201215280Y-263976943D01*
X201210592Y-263982267D01*
X201175506Y-264018720D01*
X201145347Y-264038283D01*
X201107615Y-264047283D01*
X201076335Y-264050230D01*
X201020385Y-264050965D01*
X200980555Y-264041660D01*
X200955708Y-264027846D01*
X200916656Y-263997467D01*
X200889625Y-263964613D01*
X200872517Y-263923294D01*
X200863238Y-263867521D01*
X200859693Y-263791305D01*
X200859410Y-263752622D01*
X200860372Y-263706247D01*
X200948007Y-263706247D01*
X200949023Y-263731126D01*
X200951556Y-263735200D01*
X200968274Y-263729665D01*
X201004249Y-263715017D01*
X201052331Y-263694190D01*
X201062386Y-263689714D01*
X201123152Y-263658814D01*
X201156632Y-263631657D01*
X201163990Y-263606220D01*
X201146391Y-263580481D01*
X201131856Y-263569109D01*
X201079410Y-263546364D01*
X201030322Y-263550122D01*
X200989227Y-263577884D01*
X200960758Y-263627152D01*
X200951631Y-263666257D01*
X200948007Y-263706247D01*
X200860372Y-263706247D01*
X200861285Y-263662249D01*
X200868196Y-263595384D01*
X200881884Y-263546695D01*
X200904096Y-263510849D01*
X200936574Y-263482513D01*
X200950733Y-263473355D01*
X201015053Y-263449507D01*
X201085473Y-263448006D01*
X201153595Y-263466966D01*
G37*
X201153595Y-263466966D02*
X201211021Y-263504497D01*
X201238719Y-263538096D01*
X201260662Y-263599064D01*
X201262405Y-263647308D01*
X201258457Y-263711816D01*
X201109686Y-263776934D01*
X201037349Y-263810202D01*
X200990084Y-263836964D01*
X200965507Y-263860144D01*
X200961237Y-263882667D01*
X200974889Y-263907455D01*
X200989943Y-263923886D01*
X201033746Y-263950235D01*
X201081389Y-263952081D01*
X201125145Y-263931546D01*
X201157289Y-263890752D01*
X201163038Y-263876347D01*
X201190576Y-263831356D01*
X201222258Y-263812182D01*
X201265714Y-263795779D01*
X201265714Y-263857966D01*
X201261872Y-263900283D01*
X201246823Y-263935969D01*
X201215280Y-263976943D01*
X201210592Y-263982267D01*
X201175506Y-264018720D01*
X201145347Y-264038283D01*
X201107615Y-264047283D01*
X201076335Y-264050230D01*
X201020385Y-264050965D01*
X200980555Y-264041660D01*
X200955708Y-264027846D01*
X200916656Y-263997467D01*
X200889625Y-263964613D01*
X200872517Y-263923294D01*
X200863238Y-263867521D01*
X200859693Y-263791305D01*
X200859410Y-263752622D01*
X200860372Y-263706247D01*
X200948007Y-263706247D01*
X200949023Y-263731126D01*
X200951556Y-263735200D01*
X200968274Y-263729665D01*
X201004249Y-263715017D01*
X201052331Y-263694190D01*
X201062386Y-263689714D01*
X201123152Y-263658814D01*
X201156632Y-263631657D01*
X201163990Y-263606220D01*
X201146391Y-263580481D01*
X201131856Y-263569109D01*
X201079410Y-263546364D01*
X201030322Y-263550122D01*
X200989227Y-263577884D01*
X200960758Y-263627152D01*
X200951631Y-263666257D01*
X200948007Y-263706247D01*
X200860372Y-263706247D01*
X200861285Y-263662249D01*
X200868196Y-263595384D01*
X200881884Y-263546695D01*
X200904096Y-263510849D01*
X200936574Y-263482513D01*
X200950733Y-263473355D01*
X201015053Y-263449507D01*
X201085473Y-263448006D01*
X201153595Y-263466966D01*
G36*
X200652600Y-263458752D02*
G01*
X200669948Y-263466334D01*
X200711356Y-263499128D01*
X200746765Y-263546547D01*
X200768664Y-263597151D01*
X200772229Y-263622098D01*
X200760279Y-263656927D01*
X200734067Y-263675357D01*
X200705964Y-263686516D01*
X200693095Y-263688572D01*
X200686829Y-263673649D01*
X200674456Y-263641175D01*
X200669028Y-263626502D01*
X200638590Y-263575744D01*
X200594520Y-263550427D01*
X200538010Y-263551206D01*
X200533825Y-263552203D01*
X200503655Y-263566507D01*
X200481476Y-263594393D01*
X200466327Y-263639287D01*
X200457250Y-263704615D01*
X200453286Y-263793804D01*
X200452914Y-263841261D01*
X200452730Y-263916071D01*
X200451522Y-263967069D01*
X200448309Y-263999471D01*
X200442109Y-264018495D01*
X200431940Y-264029356D01*
X200416819Y-264037272D01*
X200415946Y-264037670D01*
X200386828Y-264049981D01*
X200372403Y-264054514D01*
X200370186Y-264040809D01*
X200368289Y-264002925D01*
X200366847Y-263945715D01*
X200365998Y-263874027D01*
X200365829Y-263821565D01*
X200366692Y-263720047D01*
X200370070Y-263643032D01*
X200377142Y-263586023D01*
X200389088Y-263544526D01*
X200407090Y-263514043D01*
X200432327Y-263490080D01*
X200457247Y-263473355D01*
X200517171Y-263451097D01*
X200586911Y-263446076D01*
X200652600Y-263458752D01*
G37*
X200652600Y-263458752D02*
X200669948Y-263466334D01*
X200711356Y-263499128D01*
X200746765Y-263546547D01*
X200768664Y-263597151D01*
X200772229Y-263622098D01*
X200760279Y-263656927D01*
X200734067Y-263675357D01*
X200705964Y-263686516D01*
X200693095Y-263688572D01*
X200686829Y-263673649D01*
X200674456Y-263641175D01*
X200669028Y-263626502D01*
X200638590Y-263575744D01*
X200594520Y-263550427D01*
X200538010Y-263551206D01*
X200533825Y-263552203D01*
X200503655Y-263566507D01*
X200481476Y-263594393D01*
X200466327Y-263639287D01*
X200457250Y-263704615D01*
X200453286Y-263793804D01*
X200452914Y-263841261D01*
X200452730Y-263916071D01*
X200451522Y-263967069D01*
X200448309Y-263999471D01*
X200442109Y-264018495D01*
X200431940Y-264029356D01*
X200416819Y-264037272D01*
X200415946Y-264037670D01*
X200386828Y-264049981D01*
X200372403Y-264054514D01*
X200370186Y-264040809D01*
X200368289Y-264002925D01*
X200366847Y-263945715D01*
X200365998Y-263874027D01*
X200365829Y-263821565D01*
X200366692Y-263720047D01*
X200370070Y-263643032D01*
X200377142Y-263586023D01*
X200389088Y-263544526D01*
X200407090Y-263514043D01*
X200432327Y-263490080D01*
X200457247Y-263473355D01*
X200517171Y-263451097D01*
X200586911Y-263446076D01*
X200652600Y-263458752D01*
G36*
X200144876Y-263456335D02*
G01*
X200186667Y-263475344D01*
X200219469Y-263498378D01*
X200243503Y-263524133D01*
X200260097Y-263557358D01*
X200270577Y-263602800D01*
X200276271Y-263665207D01*
X200278507Y-263749327D01*
X200278743Y-263804721D01*
X200278743Y-264020826D01*
X200241774Y-264037670D01*
X200212656Y-264049981D01*
X200198231Y-264054514D01*
X200195472Y-264041025D01*
X200193282Y-264004653D01*
X200191942Y-263951542D01*
X200191657Y-263909372D01*
X200190434Y-263848447D01*
X200187136Y-263800115D01*
X200182321Y-263770518D01*
X200178496Y-263764229D01*
X200152783Y-263770652D01*
X200112418Y-263787125D01*
X200065679Y-263809458D01*
X200020845Y-263833457D01*
X199986193Y-263854930D01*
X199970002Y-263869685D01*
X199969938Y-263869845D01*
X199971330Y-263897152D01*
X199983818Y-263923219D01*
X200005743Y-263944392D01*
X200037743Y-263951474D01*
X200065092Y-263950649D01*
X200103826Y-263950042D01*
X200124158Y-263959116D01*
X200136369Y-263983092D01*
X200137909Y-263987613D01*
X200143203Y-264021806D01*
X200129047Y-264042568D01*
X200092148Y-264052462D01*
X200052289Y-264054292D01*
X199980562Y-264040727D01*
X199943432Y-264021355D01*
X199897576Y-263975845D01*
X199873256Y-263919983D01*
X199871073Y-263860957D01*
X199891629Y-263805953D01*
X199922549Y-263771486D01*
X199953420Y-263752189D01*
X200001942Y-263727759D01*
X200058485Y-263702985D01*
X200067910Y-263699199D01*
X200130019Y-263671791D01*
X200165822Y-263647634D01*
X200177337Y-263623619D01*
X200166580Y-263596635D01*
X200148114Y-263575543D01*
X200104469Y-263549572D01*
X200056446Y-263547624D01*
X200012406Y-263567637D01*
X199980709Y-263607551D01*
X199976549Y-263617848D01*
X199952327Y-263655724D01*
X199916965Y-263683842D01*
X199872343Y-263706917D01*
X199872343Y-263641485D01*
X199874969Y-263601506D01*
X199886230Y-263569997D01*
X199911199Y-263536378D01*
X199935169Y-263510484D01*
X199972441Y-263473817D01*
X200001401Y-263454121D01*
X200032505Y-263446220D01*
X200067713Y-263444914D01*
X200144876Y-263456335D01*
G37*
X200144876Y-263456335D02*
X200186667Y-263475344D01*
X200219469Y-263498378D01*
X200243503Y-263524133D01*
X200260097Y-263557358D01*
X200270577Y-263602800D01*
X200276271Y-263665207D01*
X200278507Y-263749327D01*
X200278743Y-263804721D01*
X200278743Y-264020826D01*
X200241774Y-264037670D01*
X200212656Y-264049981D01*
X200198231Y-264054514D01*
X200195472Y-264041025D01*
X200193282Y-264004653D01*
X200191942Y-263951542D01*
X200191657Y-263909372D01*
X200190434Y-263848447D01*
X200187136Y-263800115D01*
X200182321Y-263770518D01*
X200178496Y-263764229D01*
X200152783Y-263770652D01*
X200112418Y-263787125D01*
X200065679Y-263809458D01*
X200020845Y-263833457D01*
X199986193Y-263854930D01*
X199970002Y-263869685D01*
X199969938Y-263869845D01*
X199971330Y-263897152D01*
X199983818Y-263923219D01*
X200005743Y-263944392D01*
X200037743Y-263951474D01*
X200065092Y-263950649D01*
X200103826Y-263950042D01*
X200124158Y-263959116D01*
X200136369Y-263983092D01*
X200137909Y-263987613D01*
X200143203Y-264021806D01*
X200129047Y-264042568D01*
X200092148Y-264052462D01*
X200052289Y-264054292D01*
X199980562Y-264040727D01*
X199943432Y-264021355D01*
X199897576Y-263975845D01*
X199873256Y-263919983D01*
X199871073Y-263860957D01*
X199891629Y-263805953D01*
X199922549Y-263771486D01*
X199953420Y-263752189D01*
X200001942Y-263727759D01*
X200058485Y-263702985D01*
X200067910Y-263699199D01*
X200130019Y-263671791D01*
X200165822Y-263647634D01*
X200177337Y-263623619D01*
X200166580Y-263596635D01*
X200148114Y-263575543D01*
X200104469Y-263549572D01*
X200056446Y-263547624D01*
X200012406Y-263567637D01*
X199980709Y-263607551D01*
X199976549Y-263617848D01*
X199952327Y-263655724D01*
X199916965Y-263683842D01*
X199872343Y-263706917D01*
X199872343Y-263641485D01*
X199874969Y-263601506D01*
X199886230Y-263569997D01*
X199911199Y-263536378D01*
X199935169Y-263510484D01*
X199972441Y-263473817D01*
X200001401Y-263454121D01*
X200032505Y-263446220D01*
X200067713Y-263444914D01*
X200144876Y-263456335D01*
G36*
X199779833Y-263458663D02*
G01*
X199782048Y-263496850D01*
X199783784Y-263554886D01*
X199784899Y-263628180D01*
X199785257Y-263705055D01*
X199785257Y-263965196D01*
X199739326Y-264011127D01*
X199707675Y-264039429D01*
X199679890Y-264050893D01*
X199641915Y-264050168D01*
X199626840Y-264048321D01*
X199579726Y-264042948D01*
X199540756Y-264039869D01*
X199531257Y-264039585D01*
X199499233Y-264041445D01*
X199453432Y-264046114D01*
X199435674Y-264048321D01*
X199392057Y-264051735D01*
X199362745Y-264044320D01*
X199333680Y-264021427D01*
X199323188Y-264011127D01*
X199277257Y-263965196D01*
X199277257Y-263478602D01*
X199314226Y-263461758D01*
X199346059Y-263449282D01*
X199364683Y-263444914D01*
X199369458Y-263458718D01*
X199373921Y-263497286D01*
X199377775Y-263556356D01*
X199380722Y-263631663D01*
X199382143Y-263695286D01*
X199386114Y-263945657D01*
X199420759Y-263950556D01*
X199452268Y-263947131D01*
X199467708Y-263936041D01*
X199472023Y-263915308D01*
X199475708Y-263871145D01*
X199478469Y-263809146D01*
X199480012Y-263734909D01*
X199480235Y-263696706D01*
X199480457Y-263476783D01*
X199526166Y-263460849D01*
X199558518Y-263450015D01*
X199576115Y-263444962D01*
X199576623Y-263444914D01*
X199578388Y-263458648D01*
X199580329Y-263496730D01*
X199582282Y-263554482D01*
X199584084Y-263627227D01*
X199585343Y-263695286D01*
X199589314Y-263945657D01*
X199676400Y-263945657D01*
X199680396Y-263717240D01*
X199684392Y-263488822D01*
X199726847Y-263466868D01*
X199758192Y-263451793D01*
X199776744Y-263444951D01*
X199777279Y-263444914D01*
X199779833Y-263458663D01*
G37*
X199779833Y-263458663D02*
X199782048Y-263496850D01*
X199783784Y-263554886D01*
X199784899Y-263628180D01*
X199785257Y-263705055D01*
X199785257Y-263965196D01*
X199739326Y-264011127D01*
X199707675Y-264039429D01*
X199679890Y-264050893D01*
X199641915Y-264050168D01*
X199626840Y-264048321D01*
X199579726Y-264042948D01*
X199540756Y-264039869D01*
X199531257Y-264039585D01*
X199499233Y-264041445D01*
X199453432Y-264046114D01*
X199435674Y-264048321D01*
X199392057Y-264051735D01*
X199362745Y-264044320D01*
X199333680Y-264021427D01*
X199323188Y-264011127D01*
X199277257Y-263965196D01*
X199277257Y-263478602D01*
X199314226Y-263461758D01*
X199346059Y-263449282D01*
X199364683Y-263444914D01*
X199369458Y-263458718D01*
X199373921Y-263497286D01*
X199377775Y-263556356D01*
X199380722Y-263631663D01*
X199382143Y-263695286D01*
X199386114Y-263945657D01*
X199420759Y-263950556D01*
X199452268Y-263947131D01*
X199467708Y-263936041D01*
X199472023Y-263915308D01*
X199475708Y-263871145D01*
X199478469Y-263809146D01*
X199480012Y-263734909D01*
X199480235Y-263696706D01*
X199480457Y-263476783D01*
X199526166Y-263460849D01*
X199558518Y-263450015D01*
X199576115Y-263444962D01*
X199576623Y-263444914D01*
X199578388Y-263458648D01*
X199580329Y-263496730D01*
X199582282Y-263554482D01*
X199584084Y-263627227D01*
X199585343Y-263695286D01*
X199589314Y-263945657D01*
X199676400Y-263945657D01*
X199680396Y-263717240D01*
X199684392Y-263488822D01*
X199726847Y-263466868D01*
X199758192Y-263451793D01*
X199776744Y-263444951D01*
X199777279Y-263444914D01*
X199779833Y-263458663D01*
G36*
X199190117Y-263565358D02*
G01*
X199189933Y-263673837D01*
X199189219Y-263757287D01*
X199187675Y-263819704D01*
X199185001Y-263865085D01*
X199180894Y-263897429D01*
X199175055Y-263920733D01*
X199167182Y-263938995D01*
X199161221Y-263949418D01*
X199111855Y-264005945D01*
X199049264Y-264041377D01*
X198980013Y-264054090D01*
X198910668Y-264042463D01*
X198869375Y-264021568D01*
X198826025Y-263985422D01*
X198796481Y-263941276D01*
X198778655Y-263883462D01*
X198770463Y-263806313D01*
X198769302Y-263749714D01*
X198769458Y-263745647D01*
X198870857Y-263745647D01*
X198871476Y-263810550D01*
X198874314Y-263853514D01*
X198880840Y-263881622D01*
X198892523Y-263901953D01*
X198906483Y-263917288D01*
X198953365Y-263946890D01*
X199003701Y-263949419D01*
X199051276Y-263924705D01*
X199054979Y-263921356D01*
X199070783Y-263903935D01*
X199080693Y-263883209D01*
X199086058Y-263852362D01*
X199088228Y-263804577D01*
X199088571Y-263751748D01*
X199087827Y-263685381D01*
X199084748Y-263641106D01*
X199078061Y-263612009D01*
X199066496Y-263591173D01*
X199057013Y-263580107D01*
X199012960Y-263552198D01*
X198962224Y-263548843D01*
X198913796Y-263570159D01*
X198904450Y-263578073D01*
X198888540Y-263595647D01*
X198878610Y-263616587D01*
X198873278Y-263647782D01*
X198871163Y-263696122D01*
X198870857Y-263745647D01*
X198769458Y-263745647D01*
X198772810Y-263658568D01*
X198784726Y-263590086D01*
X198807135Y-263538600D01*
X198842124Y-263498443D01*
X198869375Y-263477861D01*
X198918907Y-263455625D01*
X198976316Y-263445304D01*
X199029682Y-263448067D01*
X199059543Y-263459212D01*
X199071261Y-263462383D01*
X199079037Y-263450557D01*
X199084465Y-263418866D01*
X199088571Y-263370593D01*
X199093067Y-263316829D01*
X199099313Y-263284482D01*
X199110676Y-263265985D01*
X199130528Y-263253770D01*
X199143000Y-263248362D01*
X199190171Y-263228601D01*
X199190117Y-263565358D01*
G37*
X199190117Y-263565358D02*
X199189933Y-263673837D01*
X199189219Y-263757287D01*
X199187675Y-263819704D01*
X199185001Y-263865085D01*
X199180894Y-263897429D01*
X199175055Y-263920733D01*
X199167182Y-263938995D01*
X199161221Y-263949418D01*
X199111855Y-264005945D01*
X199049264Y-264041377D01*
X198980013Y-264054090D01*
X198910668Y-264042463D01*
X198869375Y-264021568D01*
X198826025Y-263985422D01*
X198796481Y-263941276D01*
X198778655Y-263883462D01*
X198770463Y-263806313D01*
X198769302Y-263749714D01*
X198769458Y-263745647D01*
X198870857Y-263745647D01*
X198871476Y-263810550D01*
X198874314Y-263853514D01*
X198880840Y-263881622D01*
X198892523Y-263901953D01*
X198906483Y-263917288D01*
X198953365Y-263946890D01*
X199003701Y-263949419D01*
X199051276Y-263924705D01*
X199054979Y-263921356D01*
X199070783Y-263903935D01*
X199080693Y-263883209D01*
X199086058Y-263852362D01*
X199088228Y-263804577D01*
X199088571Y-263751748D01*
X199087827Y-263685381D01*
X199084748Y-263641106D01*
X199078061Y-263612009D01*
X199066496Y-263591173D01*
X199057013Y-263580107D01*
X199012960Y-263552198D01*
X198962224Y-263548843D01*
X198913796Y-263570159D01*
X198904450Y-263578073D01*
X198888540Y-263595647D01*
X198878610Y-263616587D01*
X198873278Y-263647782D01*
X198871163Y-263696122D01*
X198870857Y-263745647D01*
X198769458Y-263745647D01*
X198772810Y-263658568D01*
X198784726Y-263590086D01*
X198807135Y-263538600D01*
X198842124Y-263498443D01*
X198869375Y-263477861D01*
X198918907Y-263455625D01*
X198976316Y-263445304D01*
X199029682Y-263448067D01*
X199059543Y-263459212D01*
X199071261Y-263462383D01*
X199079037Y-263450557D01*
X199084465Y-263418866D01*
X199088571Y-263370593D01*
X199093067Y-263316829D01*
X199099313Y-263284482D01*
X199110676Y-263265985D01*
X199130528Y-263253770D01*
X199143000Y-263248362D01*
X199190171Y-263228601D01*
X199190117Y-263565358D01*
G36*
X198529926Y-263449755D02*
G01*
X198595858Y-263474084D01*
X198649273Y-263517117D01*
X198670164Y-263547409D01*
X198692939Y-263602994D01*
X198692466Y-263643186D01*
X198668562Y-263670217D01*
X198659717Y-263674813D01*
X198621530Y-263689144D01*
X198602028Y-263685472D01*
X198595422Y-263661407D01*
X198595086Y-263648114D01*
X198582992Y-263599210D01*
X198551471Y-263564999D01*
X198507659Y-263548476D01*
X198458695Y-263552634D01*
X198418894Y-263574227D01*
X198405450Y-263586544D01*
X198395921Y-263601487D01*
X198389485Y-263624075D01*
X198385317Y-263659328D01*
X198382597Y-263712266D01*
X198380502Y-263787907D01*
X198379960Y-263811857D01*
X198377981Y-263893790D01*
X198375731Y-263951455D01*
X198372357Y-263989608D01*
X198367006Y-264013004D01*
X198358824Y-264026398D01*
X198346959Y-264034545D01*
X198339362Y-264038144D01*
X198307102Y-264050452D01*
X198288111Y-264054514D01*
X198281836Y-264040948D01*
X198278006Y-263999934D01*
X198276600Y-263930999D01*
X198277598Y-263833669D01*
X198277908Y-263818657D01*
X198280101Y-263729859D01*
X198282693Y-263665019D01*
X198286382Y-263619067D01*
X198291864Y-263586935D01*
X198299835Y-263563553D01*
X198310993Y-263543852D01*
X198316830Y-263535410D01*
X198350296Y-263498057D01*
X198387727Y-263469003D01*
X198392309Y-263466467D01*
X198459426Y-263446443D01*
X198529926Y-263449755D01*
G37*
X198529926Y-263449755D02*
X198595858Y-263474084D01*
X198649273Y-263517117D01*
X198670164Y-263547409D01*
X198692939Y-263602994D01*
X198692466Y-263643186D01*
X198668562Y-263670217D01*
X198659717Y-263674813D01*
X198621530Y-263689144D01*
X198602028Y-263685472D01*
X198595422Y-263661407D01*
X198595086Y-263648114D01*
X198582992Y-263599210D01*
X198551471Y-263564999D01*
X198507659Y-263548476D01*
X198458695Y-263552634D01*
X198418894Y-263574227D01*
X198405450Y-263586544D01*
X198395921Y-263601487D01*
X198389485Y-263624075D01*
X198385317Y-263659328D01*
X198382597Y-263712266D01*
X198380502Y-263787907D01*
X198379960Y-263811857D01*
X198377981Y-263893790D01*
X198375731Y-263951455D01*
X198372357Y-263989608D01*
X198367006Y-264013004D01*
X198358824Y-264026398D01*
X198346959Y-264034545D01*
X198339362Y-264038144D01*
X198307102Y-264050452D01*
X198288111Y-264054514D01*
X198281836Y-264040948D01*
X198278006Y-263999934D01*
X198276600Y-263930999D01*
X198277598Y-263833669D01*
X198277908Y-263818657D01*
X198280101Y-263729859D01*
X198282693Y-263665019D01*
X198286382Y-263619067D01*
X198291864Y-263586935D01*
X198299835Y-263563553D01*
X198310993Y-263543852D01*
X198316830Y-263535410D01*
X198350296Y-263498057D01*
X198387727Y-263469003D01*
X198392309Y-263466467D01*
X198459426Y-263446443D01*
X198529926Y-263449755D01*
G36*
X198039744Y-263450968D02*
G01*
X198096616Y-263472087D01*
X198097267Y-263472493D01*
X198132440Y-263498380D01*
X198158407Y-263528633D01*
X198176670Y-263568058D01*
X198188732Y-263621462D01*
X198196096Y-263693651D01*
X198200264Y-263789432D01*
X198200629Y-263803078D01*
X198205876Y-264008842D01*
X198161716Y-264031678D01*
X198129763Y-264047110D01*
X198110470Y-264054423D01*
X198109578Y-264054514D01*
X198106239Y-264041022D01*
X198103587Y-264004626D01*
X198101956Y-263951452D01*
X198101600Y-263908393D01*
X198101592Y-263838641D01*
X198098403Y-263794837D01*
X198087288Y-263773944D01*
X198063501Y-263772925D01*
X198022296Y-263788741D01*
X197960086Y-263817815D01*
X197914341Y-263841963D01*
X197890813Y-263862913D01*
X197883896Y-263885747D01*
X197883886Y-263886877D01*
X197895299Y-263926212D01*
X197929092Y-263947462D01*
X197980809Y-263950539D01*
X198018061Y-263950006D01*
X198037703Y-263960735D01*
X198049952Y-263986505D01*
X198057002Y-264019337D01*
X198046842Y-264037966D01*
X198043017Y-264040632D01*
X198007001Y-264051340D01*
X197956566Y-264052856D01*
X197904626Y-264045759D01*
X197867822Y-264032788D01*
X197816938Y-263989585D01*
X197788014Y-263929446D01*
X197782286Y-263882462D01*
X197786657Y-263840082D01*
X197802475Y-263805488D01*
X197833797Y-263774763D01*
X197884678Y-263743990D01*
X197959176Y-263709252D01*
X197963714Y-263707288D01*
X198030821Y-263676287D01*
X198072232Y-263650862D01*
X198089981Y-263628014D01*
X198086107Y-263604745D01*
X198062643Y-263578056D01*
X198055627Y-263571914D01*
X198008630Y-263548100D01*
X197959933Y-263549103D01*
X197917522Y-263572451D01*
X197889384Y-263615675D01*
X197886769Y-263624160D01*
X197861308Y-263665308D01*
X197829001Y-263685128D01*
X197782286Y-263704770D01*
X197782286Y-263653950D01*
X197796496Y-263580082D01*
X197838675Y-263512327D01*
X197860624Y-263489661D01*
X197910517Y-263460569D01*
X197973967Y-263447400D01*
X198039744Y-263450968D01*
G37*
X198039744Y-263450968D02*
X198096616Y-263472087D01*
X198097267Y-263472493D01*
X198132440Y-263498380D01*
X198158407Y-263528633D01*
X198176670Y-263568058D01*
X198188732Y-263621462D01*
X198196096Y-263693651D01*
X198200264Y-263789432D01*
X198200629Y-263803078D01*
X198205876Y-264008842D01*
X198161716Y-264031678D01*
X198129763Y-264047110D01*
X198110470Y-264054423D01*
X198109578Y-264054514D01*
X198106239Y-264041022D01*
X198103587Y-264004626D01*
X198101956Y-263951452D01*
X198101600Y-263908393D01*
X198101592Y-263838641D01*
X198098403Y-263794837D01*
X198087288Y-263773944D01*
X198063501Y-263772925D01*
X198022296Y-263788741D01*
X197960086Y-263817815D01*
X197914341Y-263841963D01*
X197890813Y-263862913D01*
X197883896Y-263885747D01*
X197883886Y-263886877D01*
X197895299Y-263926212D01*
X197929092Y-263947462D01*
X197980809Y-263950539D01*
X198018061Y-263950006D01*
X198037703Y-263960735D01*
X198049952Y-263986505D01*
X198057002Y-264019337D01*
X198046842Y-264037966D01*
X198043017Y-264040632D01*
X198007001Y-264051340D01*
X197956566Y-264052856D01*
X197904626Y-264045759D01*
X197867822Y-264032788D01*
X197816938Y-263989585D01*
X197788014Y-263929446D01*
X197782286Y-263882462D01*
X197786657Y-263840082D01*
X197802475Y-263805488D01*
X197833797Y-263774763D01*
X197884678Y-263743990D01*
X197959176Y-263709252D01*
X197963714Y-263707288D01*
X198030821Y-263676287D01*
X198072232Y-263650862D01*
X198089981Y-263628014D01*
X198086107Y-263604745D01*
X198062643Y-263578056D01*
X198055627Y-263571914D01*
X198008630Y-263548100D01*
X197959933Y-263549103D01*
X197917522Y-263572451D01*
X197889384Y-263615675D01*
X197886769Y-263624160D01*
X197861308Y-263665308D01*
X197829001Y-263685128D01*
X197782286Y-263704770D01*
X197782286Y-263653950D01*
X197796496Y-263580082D01*
X197838675Y-263512327D01*
X197860624Y-263489661D01*
X197910517Y-263460569D01*
X197973967Y-263447400D01*
X198039744Y-263450968D01*
G36*
X197375886Y-263351289D02*
G01*
X197380139Y-263410613D01*
X197385025Y-263445572D01*
X197391795Y-263460820D01*
X197401702Y-263461015D01*
X197404914Y-263459195D01*
X197447644Y-263446015D01*
X197503227Y-263446785D01*
X197559737Y-263460333D01*
X197595082Y-263477861D01*
X197631321Y-263505861D01*
X197657813Y-263537549D01*
X197675999Y-263577813D01*
X197687322Y-263631543D01*
X197693222Y-263703626D01*
X197695143Y-263798951D01*
X197695177Y-263817237D01*
X197695200Y-264022646D01*
X197649491Y-264038580D01*
X197617027Y-264049420D01*
X197599215Y-264054468D01*
X197598691Y-264054514D01*
X197596937Y-264040828D01*
X197595444Y-264003076D01*
X197594326Y-263946224D01*
X197593697Y-263875234D01*
X197593600Y-263832073D01*
X197593398Y-263746973D01*
X197592358Y-263685981D01*
X197589831Y-263644177D01*
X197585164Y-263616642D01*
X197577707Y-263598456D01*
X197566811Y-263584698D01*
X197560007Y-263578073D01*
X197513272Y-263551375D01*
X197462272Y-263549375D01*
X197416001Y-263571955D01*
X197407444Y-263580107D01*
X197394893Y-263595436D01*
X197386188Y-263613618D01*
X197380631Y-263639909D01*
X197377526Y-263679562D01*
X197376176Y-263737832D01*
X197375886Y-263818173D01*
X197375886Y-264022646D01*
X197330177Y-264038580D01*
X197297713Y-264049420D01*
X197279901Y-264054468D01*
X197279377Y-264054514D01*
X197278037Y-264040623D01*
X197276828Y-264001439D01*
X197275801Y-263940700D01*
X197275002Y-263862141D01*
X197274481Y-263769498D01*
X197274286Y-263666509D01*
X197274286Y-263269342D01*
X197321457Y-263249444D01*
X197368629Y-263229547D01*
X197375886Y-263351289D01*
G37*
X197375886Y-263351289D02*
X197380139Y-263410613D01*
X197385025Y-263445572D01*
X197391795Y-263460820D01*
X197401702Y-263461015D01*
X197404914Y-263459195D01*
X197447644Y-263446015D01*
X197503227Y-263446785D01*
X197559737Y-263460333D01*
X197595082Y-263477861D01*
X197631321Y-263505861D01*
X197657813Y-263537549D01*
X197675999Y-263577813D01*
X197687322Y-263631543D01*
X197693222Y-263703626D01*
X197695143Y-263798951D01*
X197695177Y-263817237D01*
X197695200Y-264022646D01*
X197649491Y-264038580D01*
X197617027Y-264049420D01*
X197599215Y-264054468D01*
X197598691Y-264054514D01*
X197596937Y-264040828D01*
X197595444Y-264003076D01*
X197594326Y-263946224D01*
X197593697Y-263875234D01*
X197593600Y-263832073D01*
X197593398Y-263746973D01*
X197592358Y-263685981D01*
X197589831Y-263644177D01*
X197585164Y-263616642D01*
X197577707Y-263598456D01*
X197566811Y-263584698D01*
X197560007Y-263578073D01*
X197513272Y-263551375D01*
X197462272Y-263549375D01*
X197416001Y-263571955D01*
X197407444Y-263580107D01*
X197394893Y-263595436D01*
X197386188Y-263613618D01*
X197380631Y-263639909D01*
X197377526Y-263679562D01*
X197376176Y-263737832D01*
X197375886Y-263818173D01*
X197375886Y-264022646D01*
X197330177Y-264038580D01*
X197297713Y-264049420D01*
X197279901Y-264054468D01*
X197279377Y-264054514D01*
X197278037Y-264040623D01*
X197276828Y-264001439D01*
X197275801Y-263940700D01*
X197275002Y-263862141D01*
X197274481Y-263769498D01*
X197274286Y-263666509D01*
X197274286Y-263269342D01*
X197321457Y-263249444D01*
X197368629Y-263229547D01*
X197375886Y-263351289D01*
G36*
X196168303Y-263431239D02*
G01*
X196225527Y-263469735D01*
X196269749Y-263525335D01*
X196296167Y-263596086D01*
X196301510Y-263648162D01*
X196300903Y-263669893D01*
X196295822Y-263686531D01*
X196281855Y-263701437D01*
X196254589Y-263717973D01*
X196209612Y-263739498D01*
X196142511Y-263769374D01*
X196142171Y-263769524D01*
X196080407Y-263797813D01*
X196029759Y-263822933D01*
X195995404Y-263842179D01*
X195982518Y-263852848D01*
X195982514Y-263852934D01*
X195993872Y-263876166D01*
X196020431Y-263901774D01*
X196050923Y-263920221D01*
X196066370Y-263923886D01*
X196108515Y-263911212D01*
X196144808Y-263879471D01*
X196162517Y-263844572D01*
X196179552Y-263818845D01*
X196212922Y-263789546D01*
X196252149Y-263764235D01*
X196286756Y-263750471D01*
X196293993Y-263749714D01*
X196302139Y-263762160D01*
X196302630Y-263793972D01*
X196296643Y-263836866D01*
X196285357Y-263882558D01*
X196269950Y-263922761D01*
X196269171Y-263924322D01*
X196222804Y-263989062D01*
X196162711Y-264033097D01*
X196094465Y-264054711D01*
X196023638Y-264052185D01*
X195955804Y-264023804D01*
X195952788Y-264021808D01*
X195899427Y-263973448D01*
X195864340Y-263910352D01*
X195844922Y-263827387D01*
X195842316Y-263804078D01*
X195837701Y-263694055D01*
X195843233Y-263642748D01*
X195982514Y-263642748D01*
X195984324Y-263674753D01*
X195994222Y-263684093D01*
X196018898Y-263677105D01*
X196057795Y-263660587D01*
X196101275Y-263639881D01*
X196102356Y-263639333D01*
X196139209Y-263619949D01*
X196154000Y-263607013D01*
X196150353Y-263593451D01*
X196134995Y-263575632D01*
X196095923Y-263549845D01*
X196053846Y-263547950D01*
X196016103Y-263566717D01*
X195990034Y-263602915D01*
X195982514Y-263642748D01*
X195843233Y-263642748D01*
X195847194Y-263606027D01*
X195871550Y-263536212D01*
X195905456Y-263487302D01*
X195966653Y-263437878D01*
X196034063Y-263413359D01*
X196102880Y-263411797D01*
X196168303Y-263431239D01*
G37*
X196168303Y-263431239D02*
X196225527Y-263469735D01*
X196269749Y-263525335D01*
X196296167Y-263596086D01*
X196301510Y-263648162D01*
X196300903Y-263669893D01*
X196295822Y-263686531D01*
X196281855Y-263701437D01*
X196254589Y-263717973D01*
X196209612Y-263739498D01*
X196142511Y-263769374D01*
X196142171Y-263769524D01*
X196080407Y-263797813D01*
X196029759Y-263822933D01*
X195995404Y-263842179D01*
X195982518Y-263852848D01*
X195982514Y-263852934D01*
X195993872Y-263876166D01*
X196020431Y-263901774D01*
X196050923Y-263920221D01*
X196066370Y-263923886D01*
X196108515Y-263911212D01*
X196144808Y-263879471D01*
X196162517Y-263844572D01*
X196179552Y-263818845D01*
X196212922Y-263789546D01*
X196252149Y-263764235D01*
X196286756Y-263750471D01*
X196293993Y-263749714D01*
X196302139Y-263762160D01*
X196302630Y-263793972D01*
X196296643Y-263836866D01*
X196285357Y-263882558D01*
X196269950Y-263922761D01*
X196269171Y-263924322D01*
X196222804Y-263989062D01*
X196162711Y-264033097D01*
X196094465Y-264054711D01*
X196023638Y-264052185D01*
X195955804Y-264023804D01*
X195952788Y-264021808D01*
X195899427Y-263973448D01*
X195864340Y-263910352D01*
X195844922Y-263827387D01*
X195842316Y-263804078D01*
X195837701Y-263694055D01*
X195843233Y-263642748D01*
X195982514Y-263642748D01*
X195984324Y-263674753D01*
X195994222Y-263684093D01*
X196018898Y-263677105D01*
X196057795Y-263660587D01*
X196101275Y-263639881D01*
X196102356Y-263639333D01*
X196139209Y-263619949D01*
X196154000Y-263607013D01*
X196150353Y-263593451D01*
X196134995Y-263575632D01*
X196095923Y-263549845D01*
X196053846Y-263547950D01*
X196016103Y-263566717D01*
X195990034Y-263602915D01*
X195982514Y-263642748D01*
X195843233Y-263642748D01*
X195847194Y-263606027D01*
X195871550Y-263536212D01*
X195905456Y-263487302D01*
X195966653Y-263437878D01*
X196034063Y-263413359D01*
X196102880Y-263411797D01*
X196168303Y-263431239D01*
G36*
X195041115Y-263421962D02*
G01*
X195109145Y-263457733D01*
X195159351Y-263515301D01*
X195177185Y-263552312D01*
X195191063Y-263607882D01*
X195198167Y-263678096D01*
X195198840Y-263754727D01*
X195193427Y-263829552D01*
X195182270Y-263894342D01*
X195165714Y-263940873D01*
X195160626Y-263948887D01*
X195100355Y-264008707D01*
X195028769Y-264044535D01*
X194951092Y-264055020D01*
X194872548Y-264038810D01*
X194850689Y-264029092D01*
X194808122Y-263999143D01*
X194770763Y-263959433D01*
X194767232Y-263954397D01*
X194752881Y-263930124D01*
X194743394Y-263904178D01*
X194737790Y-263870022D01*
X194735086Y-263821119D01*
X194734299Y-263750935D01*
X194734286Y-263735200D01*
X194734322Y-263730192D01*
X194879429Y-263730192D01*
X194880273Y-263796430D01*
X194883596Y-263840386D01*
X194890583Y-263868779D01*
X194902416Y-263888325D01*
X194908457Y-263894857D01*
X194943186Y-263919680D01*
X194976903Y-263918548D01*
X195010995Y-263897016D01*
X195031329Y-263874029D01*
X195043371Y-263840478D01*
X195050134Y-263787569D01*
X195050598Y-263781399D01*
X195051752Y-263685513D01*
X195039688Y-263614299D01*
X195014570Y-263568194D01*
X194976560Y-263547635D01*
X194962992Y-263546514D01*
X194927364Y-263552152D01*
X194902994Y-263571686D01*
X194888093Y-263609042D01*
X194880875Y-263668150D01*
X194879429Y-263730192D01*
X194734322Y-263730192D01*
X194734826Y-263660413D01*
X194737096Y-263608159D01*
X194742068Y-263571949D01*
X194750713Y-263545299D01*
X194764005Y-263521722D01*
X194766943Y-263517338D01*
X194816313Y-263458249D01*
X194870109Y-263423947D01*
X194935602Y-263410331D01*
X194957842Y-263409665D01*
X195041115Y-263421962D01*
G37*
X195041115Y-263421962D02*
X195109145Y-263457733D01*
X195159351Y-263515301D01*
X195177185Y-263552312D01*
X195191063Y-263607882D01*
X195198167Y-263678096D01*
X195198840Y-263754727D01*
X195193427Y-263829552D01*
X195182270Y-263894342D01*
X195165714Y-263940873D01*
X195160626Y-263948887D01*
X195100355Y-264008707D01*
X195028769Y-264044535D01*
X194951092Y-264055020D01*
X194872548Y-264038810D01*
X194850689Y-264029092D01*
X194808122Y-263999143D01*
X194770763Y-263959433D01*
X194767232Y-263954397D01*
X194752881Y-263930124D01*
X194743394Y-263904178D01*
X194737790Y-263870022D01*
X194735086Y-263821119D01*
X194734299Y-263750935D01*
X194734286Y-263735200D01*
X194734322Y-263730192D01*
X194879429Y-263730192D01*
X194880273Y-263796430D01*
X194883596Y-263840386D01*
X194890583Y-263868779D01*
X194902416Y-263888325D01*
X194908457Y-263894857D01*
X194943186Y-263919680D01*
X194976903Y-263918548D01*
X195010995Y-263897016D01*
X195031329Y-263874029D01*
X195043371Y-263840478D01*
X195050134Y-263787569D01*
X195050598Y-263781399D01*
X195051752Y-263685513D01*
X195039688Y-263614299D01*
X195014570Y-263568194D01*
X194976560Y-263547635D01*
X194962992Y-263546514D01*
X194927364Y-263552152D01*
X194902994Y-263571686D01*
X194888093Y-263609042D01*
X194880875Y-263668150D01*
X194879429Y-263730192D01*
X194734322Y-263730192D01*
X194734826Y-263660413D01*
X194737096Y-263608159D01*
X194742068Y-263571949D01*
X194750713Y-263545299D01*
X194764005Y-263521722D01*
X194766943Y-263517338D01*
X194816313Y-263458249D01*
X194870109Y-263423947D01*
X194935602Y-263410331D01*
X194957842Y-263409665D01*
X195041115Y-263421962D01*
G36*
X196716093Y-263427780D02*
G01*
X196762672Y-263454723D01*
X196795057Y-263481466D01*
X196818742Y-263509484D01*
X196835059Y-263543748D01*
X196845339Y-263589227D01*
X196850914Y-263650892D01*
X196853116Y-263733711D01*
X196853371Y-263793246D01*
X196853371Y-264012391D01*
X196791686Y-264040044D01*
X196730000Y-264067697D01*
X196722743Y-263827670D01*
X196719744Y-263738028D01*
X196716598Y-263672962D01*
X196712701Y-263628026D01*
X196707447Y-263598770D01*
X196700231Y-263580748D01*
X196690450Y-263569511D01*
X196687312Y-263567079D01*
X196639761Y-263548083D01*
X196591697Y-263555600D01*
X196563086Y-263575543D01*
X196551447Y-263589675D01*
X196543391Y-263608220D01*
X196538271Y-263636334D01*
X196535441Y-263679173D01*
X196534256Y-263741895D01*
X196534057Y-263807261D01*
X196534018Y-263889268D01*
X196532614Y-263947316D01*
X196527914Y-263986465D01*
X196517987Y-264011780D01*
X196500903Y-264028323D01*
X196474732Y-264041156D01*
X196439775Y-264054491D01*
X196401596Y-264069007D01*
X196406141Y-263811389D01*
X196407971Y-263718519D01*
X196410112Y-263649889D01*
X196413181Y-263600711D01*
X196417794Y-263566198D01*
X196424568Y-263541562D01*
X196434119Y-263522016D01*
X196445634Y-263504770D01*
X196501190Y-263449680D01*
X196568980Y-263417822D01*
X196642713Y-263410191D01*
X196716093Y-263427780D01*
G37*
X196716093Y-263427780D02*
X196762672Y-263454723D01*
X196795057Y-263481466D01*
X196818742Y-263509484D01*
X196835059Y-263543748D01*
X196845339Y-263589227D01*
X196850914Y-263650892D01*
X196853116Y-263733711D01*
X196853371Y-263793246D01*
X196853371Y-264012391D01*
X196791686Y-264040044D01*
X196730000Y-264067697D01*
X196722743Y-263827670D01*
X196719744Y-263738028D01*
X196716598Y-263672962D01*
X196712701Y-263628026D01*
X196707447Y-263598770D01*
X196700231Y-263580748D01*
X196690450Y-263569511D01*
X196687312Y-263567079D01*
X196639761Y-263548083D01*
X196591697Y-263555600D01*
X196563086Y-263575543D01*
X196551447Y-263589675D01*
X196543391Y-263608220D01*
X196538271Y-263636334D01*
X196535441Y-263679173D01*
X196534256Y-263741895D01*
X196534057Y-263807261D01*
X196534018Y-263889268D01*
X196532614Y-263947316D01*
X196527914Y-263986465D01*
X196517987Y-264011780D01*
X196500903Y-264028323D01*
X196474732Y-264041156D01*
X196439775Y-264054491D01*
X196401596Y-264069007D01*
X196406141Y-263811389D01*
X196407971Y-263718519D01*
X196410112Y-263649889D01*
X196413181Y-263600711D01*
X196417794Y-263566198D01*
X196424568Y-263541562D01*
X196434119Y-263522016D01*
X196445634Y-263504770D01*
X196501190Y-263449680D01*
X196568980Y-263417822D01*
X196642713Y-263410191D01*
X196716093Y-263427780D01*
G36*
X195599744Y-263419918D02*
G01*
X195655201Y-263447568D01*
X195704148Y-263498480D01*
X195717629Y-263517338D01*
X195732314Y-263542015D01*
X195741842Y-263568816D01*
X195747293Y-263604587D01*
X195749747Y-263656169D01*
X195750286Y-263724267D01*
X195747852Y-263817588D01*
X195739394Y-263887657D01*
X195723174Y-263939931D01*
X195697454Y-263979869D01*
X195660497Y-264012929D01*
X195657782Y-264014886D01*
X195621360Y-264034908D01*
X195577502Y-264044815D01*
X195521724Y-264047257D01*
X195431048Y-264047257D01*
X195431010Y-264135283D01*
X195430166Y-264184308D01*
X195425024Y-264213065D01*
X195411587Y-264230311D01*
X195385858Y-264244808D01*
X195379679Y-264247769D01*
X195350764Y-264261648D01*
X195328376Y-264270414D01*
X195311729Y-264271171D01*
X195300036Y-264261023D01*
X195292510Y-264237073D01*
X195288366Y-264196426D01*
X195286815Y-264136186D01*
X195287071Y-264053455D01*
X195288349Y-263945339D01*
X195288748Y-263913000D01*
X195290185Y-263801524D01*
X195291472Y-263728603D01*
X195430971Y-263728603D01*
X195431755Y-263790499D01*
X195435240Y-263830997D01*
X195443124Y-263857708D01*
X195457105Y-263878244D01*
X195466597Y-263888260D01*
X195505404Y-263917567D01*
X195539763Y-263919952D01*
X195575216Y-263895750D01*
X195576114Y-263894857D01*
X195590539Y-263876153D01*
X195599313Y-263850732D01*
X195603739Y-263811584D01*
X195605118Y-263751697D01*
X195605143Y-263738430D01*
X195601812Y-263655901D01*
X195590969Y-263598691D01*
X195571340Y-263563766D01*
X195541650Y-263548094D01*
X195524491Y-263546514D01*
X195483766Y-263553926D01*
X195455832Y-263578330D01*
X195439017Y-263622980D01*
X195431650Y-263691130D01*
X195430971Y-263728603D01*
X195291472Y-263728603D01*
X195291708Y-263715245D01*
X195293677Y-263650333D01*
X195296450Y-263602958D01*
X195300388Y-263569290D01*
X195305849Y-263545498D01*
X195313192Y-263527753D01*
X195322777Y-263512224D01*
X195326887Y-263506381D01*
X195381405Y-263451185D01*
X195450336Y-263419890D01*
X195530072Y-263411165D01*
X195599744Y-263419918D01*
G37*
X195599744Y-263419918D02*
X195655201Y-263447568D01*
X195704148Y-263498480D01*
X195717629Y-263517338D01*
X195732314Y-263542015D01*
X195741842Y-263568816D01*
X195747293Y-263604587D01*
X195749747Y-263656169D01*
X195750286Y-263724267D01*
X195747852Y-263817588D01*
X195739394Y-263887657D01*
X195723174Y-263939931D01*
X195697454Y-263979869D01*
X195660497Y-264012929D01*
X195657782Y-264014886D01*
X195621360Y-264034908D01*
X195577502Y-264044815D01*
X195521724Y-264047257D01*
X195431048Y-264047257D01*
X195431010Y-264135283D01*
X195430166Y-264184308D01*
X195425024Y-264213065D01*
X195411587Y-264230311D01*
X195385858Y-264244808D01*
X195379679Y-264247769D01*
X195350764Y-264261648D01*
X195328376Y-264270414D01*
X195311729Y-264271171D01*
X195300036Y-264261023D01*
X195292510Y-264237073D01*
X195288366Y-264196426D01*
X195286815Y-264136186D01*
X195287071Y-264053455D01*
X195288349Y-263945339D01*
X195288748Y-263913000D01*
X195290185Y-263801524D01*
X195291472Y-263728603D01*
X195430971Y-263728603D01*
X195431755Y-263790499D01*
X195435240Y-263830997D01*
X195443124Y-263857708D01*
X195457105Y-263878244D01*
X195466597Y-263888260D01*
X195505404Y-263917567D01*
X195539763Y-263919952D01*
X195575216Y-263895750D01*
X195576114Y-263894857D01*
X195590539Y-263876153D01*
X195599313Y-263850732D01*
X195603739Y-263811584D01*
X195605118Y-263751697D01*
X195605143Y-263738430D01*
X195601812Y-263655901D01*
X195590969Y-263598691D01*
X195571340Y-263563766D01*
X195541650Y-263548094D01*
X195524491Y-263546514D01*
X195483766Y-263553926D01*
X195455832Y-263578330D01*
X195439017Y-263622980D01*
X195431650Y-263691130D01*
X195430971Y-263728603D01*
X195291472Y-263728603D01*
X195291708Y-263715245D01*
X195293677Y-263650333D01*
X195296450Y-263602958D01*
X195300388Y-263569290D01*
X195305849Y-263545498D01*
X195313192Y-263527753D01*
X195322777Y-263512224D01*
X195326887Y-263506381D01*
X195381405Y-263451185D01*
X195450336Y-263419890D01*
X195530072Y-263411165D01*
X195599744Y-263419918D01*
D12*
X144000000Y-260524000D02*
X144000000Y-257450600D01*
X138500000Y-260564000D02*
X138500000Y-257490600D01*
X133500000Y-260524000D02*
X133500000Y-257450600D01*
X128500000Y-261024000D02*
X128500000Y-257950600D01*
X123000000Y-261024000D02*
X123000000Y-257950600D01*
X118000000Y-261024000D02*
X118000000Y-257950600D01*
X113000000Y-261024000D02*
X113000000Y-257950600D01*
D13*
X22822200Y-17589800D02*
X26886200Y-17589800D01*
D10*
G36*
X25082800Y-20028200D02*
G01*
X19799600Y-20028200D01*
X19799600Y-19139200D01*
X22771400Y-19139200D01*
X25082800Y-20028200D01*
G37*
G36*
X25946400Y-25844800D02*
G01*
X19850400Y-25844800D01*
X19850400Y-20028200D01*
X25946400Y-20028200D01*
X25946400Y-25844800D01*
G37*
X25946400Y-25844800D02*
X19850400Y-25844800D01*
X19850400Y-20028200D01*
X25946400Y-20028200D01*
X25946400Y-25844800D01*
D13*
X263177800Y-248410200D02*
X259113800Y-248410200D01*
D10*
G36*
X260917200Y-245971800D02*
G01*
X266200400Y-245971800D01*
X266200400Y-246860800D01*
X263228600Y-246860800D01*
X260917200Y-245971800D01*
G37*
G36*
X260053600Y-240155200D02*
G01*
X266149600Y-240155200D01*
X266149600Y-245971800D01*
X260053600Y-245971800D01*
X260053600Y-240155200D01*
G37*
X260053600Y-240155200D02*
X266149600Y-240155200D01*
X266149600Y-245971800D01*
X260053600Y-245971800D01*
X260053600Y-240155200D01*
D13*
X242822200Y-237589800D02*
X246886200Y-237589800D01*
D10*
G36*
X245082800Y-240028200D02*
G01*
X239799600Y-240028200D01*
X239799600Y-239139200D01*
X242771400Y-239139200D01*
X245082800Y-240028200D01*
G37*
G36*
X245946400Y-245844800D02*
G01*
X239850400Y-245844800D01*
X239850400Y-240028200D01*
X245946400Y-240028200D01*
X245946400Y-245844800D01*
G37*
X245946400Y-245844800D02*
X239850400Y-245844800D01*
X239850400Y-240028200D01*
X245946400Y-240028200D01*
X245946400Y-245844800D01*
D13*
X223177800Y-248410200D02*
X219113800Y-248410200D01*
D10*
G36*
X220917200Y-245971800D02*
G01*
X226200400Y-245971800D01*
X226200400Y-246860800D01*
X223228600Y-246860800D01*
X220917200Y-245971800D01*
G37*
G36*
X220053600Y-240155200D02*
G01*
X226149600Y-240155200D01*
X226149600Y-245971800D01*
X220053600Y-245971800D01*
X220053600Y-240155200D01*
G37*
X220053600Y-240155200D02*
X226149600Y-240155200D01*
X226149600Y-245971800D01*
X220053600Y-245971800D01*
X220053600Y-240155200D01*
D13*
X202822200Y-237589800D02*
X206886200Y-237589800D01*
D10*
G36*
X205082800Y-240028200D02*
G01*
X199799600Y-240028200D01*
X199799600Y-239139200D01*
X202771400Y-239139200D01*
X205082800Y-240028200D01*
G37*
G36*
X205946400Y-245844800D02*
G01*
X199850400Y-245844800D01*
X199850400Y-240028200D01*
X205946400Y-240028200D01*
X205946400Y-245844800D01*
G37*
X205946400Y-245844800D02*
X199850400Y-245844800D01*
X199850400Y-240028200D01*
X205946400Y-240028200D01*
X205946400Y-245844800D01*
D13*
X183177800Y-248410200D02*
X179113800Y-248410200D01*
D10*
G36*
X180917200Y-245971800D02*
G01*
X186200400Y-245971800D01*
X186200400Y-246860800D01*
X183228600Y-246860800D01*
X180917200Y-245971800D01*
G37*
G36*
X180053600Y-240155200D02*
G01*
X186149600Y-240155200D01*
X186149600Y-245971800D01*
X180053600Y-245971800D01*
X180053600Y-240155200D01*
G37*
X180053600Y-240155200D02*
X186149600Y-240155200D01*
X186149600Y-245971800D01*
X180053600Y-245971800D01*
X180053600Y-240155200D01*
D13*
X162822200Y-237589800D02*
X166886200Y-237589800D01*
D10*
G36*
X165082800Y-240028200D02*
G01*
X159799600Y-240028200D01*
X159799600Y-239139200D01*
X162771400Y-239139200D01*
X165082800Y-240028200D01*
G37*
G36*
X165946400Y-245844800D02*
G01*
X159850400Y-245844800D01*
X159850400Y-240028200D01*
X165946400Y-240028200D01*
X165946400Y-245844800D01*
G37*
X165946400Y-245844800D02*
X159850400Y-245844800D01*
X159850400Y-240028200D01*
X165946400Y-240028200D01*
X165946400Y-245844800D01*
D13*
X143177800Y-248410200D02*
X139113800Y-248410200D01*
D10*
G36*
X140917200Y-245971800D02*
G01*
X146200400Y-245971800D01*
X146200400Y-246860800D01*
X143228600Y-246860800D01*
X140917200Y-245971800D01*
G37*
G36*
X140053600Y-240155200D02*
G01*
X146149600Y-240155200D01*
X146149600Y-245971800D01*
X140053600Y-245971800D01*
X140053600Y-240155200D01*
G37*
X140053600Y-240155200D02*
X146149600Y-240155200D01*
X146149600Y-245971800D01*
X140053600Y-245971800D01*
X140053600Y-240155200D01*
D13*
X122822200Y-237589800D02*
X126886200Y-237589800D01*
D10*
G36*
X125082800Y-240028200D02*
G01*
X119799600Y-240028200D01*
X119799600Y-239139200D01*
X122771400Y-239139200D01*
X125082800Y-240028200D01*
G37*
G36*
X125946400Y-245844800D02*
G01*
X119850400Y-245844800D01*
X119850400Y-240028200D01*
X125946400Y-240028200D01*
X125946400Y-245844800D01*
G37*
X125946400Y-245844800D02*
X119850400Y-245844800D01*
X119850400Y-240028200D01*
X125946400Y-240028200D01*
X125946400Y-245844800D01*
D13*
X103177800Y-248410200D02*
X99113800Y-248410200D01*
D10*
G36*
X100917200Y-245971800D02*
G01*
X106200400Y-245971800D01*
X106200400Y-246860800D01*
X103228600Y-246860800D01*
X100917200Y-245971800D01*
G37*
G36*
X100053600Y-240155200D02*
G01*
X106149600Y-240155200D01*
X106149600Y-245971800D01*
X100053600Y-245971800D01*
X100053600Y-240155200D01*
G37*
X100053600Y-240155200D02*
X106149600Y-240155200D01*
X106149600Y-245971800D01*
X100053600Y-245971800D01*
X100053600Y-240155200D01*
D13*
X82822200Y-237589800D02*
X86886200Y-237589800D01*
D10*
G36*
X85082800Y-240028200D02*
G01*
X79799600Y-240028200D01*
X79799600Y-239139200D01*
X82771400Y-239139200D01*
X85082800Y-240028200D01*
G37*
G36*
X85946400Y-245844800D02*
G01*
X79850400Y-245844800D01*
X79850400Y-240028200D01*
X85946400Y-240028200D01*
X85946400Y-245844800D01*
G37*
X85946400Y-245844800D02*
X79850400Y-245844800D01*
X79850400Y-240028200D01*
X85946400Y-240028200D01*
X85946400Y-245844800D01*
D13*
X63177800Y-248410200D02*
X59113800Y-248410200D01*
D10*
G36*
X60917200Y-245971800D02*
G01*
X66200400Y-245971800D01*
X66200400Y-246860800D01*
X63228600Y-246860800D01*
X60917200Y-245971800D01*
G37*
G36*
X60053600Y-240155200D02*
G01*
X66149600Y-240155200D01*
X66149600Y-245971800D01*
X60053600Y-245971800D01*
X60053600Y-240155200D01*
G37*
X60053600Y-240155200D02*
X66149600Y-240155200D01*
X66149600Y-245971800D01*
X60053600Y-245971800D01*
X60053600Y-240155200D01*
D13*
X42822200Y-237589800D02*
X46886200Y-237589800D01*
D10*
G36*
X45082800Y-240028200D02*
G01*
X39799600Y-240028200D01*
X39799600Y-239139200D01*
X42771400Y-239139200D01*
X45082800Y-240028200D01*
G37*
G36*
X45946400Y-245844800D02*
G01*
X39850400Y-245844800D01*
X39850400Y-240028200D01*
X45946400Y-240028200D01*
X45946400Y-245844800D01*
G37*
X45946400Y-245844800D02*
X39850400Y-245844800D01*
X39850400Y-240028200D01*
X45946400Y-240028200D01*
X45946400Y-245844800D01*
D13*
X22822200Y-237589800D02*
X26886200Y-237589800D01*
D10*
G36*
X25082800Y-240028200D02*
G01*
X19799600Y-240028200D01*
X19799600Y-239139200D01*
X22771400Y-239139200D01*
X25082800Y-240028200D01*
G37*
G36*
X25946400Y-245844800D02*
G01*
X19850400Y-245844800D01*
X19850400Y-240028200D01*
X25946400Y-240028200D01*
X25946400Y-245844800D01*
G37*
X25946400Y-245844800D02*
X19850400Y-245844800D01*
X19850400Y-240028200D01*
X25946400Y-240028200D01*
X25946400Y-245844800D01*
D13*
X263177800Y-228410200D02*
X259113800Y-228410200D01*
D10*
G36*
X260917200Y-225971800D02*
G01*
X266200400Y-225971800D01*
X266200400Y-226860800D01*
X263228600Y-226860800D01*
X260917200Y-225971800D01*
G37*
G36*
X260053600Y-220155200D02*
G01*
X266149600Y-220155200D01*
X266149600Y-225971800D01*
X260053600Y-225971800D01*
X260053600Y-220155200D01*
G37*
X260053600Y-220155200D02*
X266149600Y-220155200D01*
X266149600Y-225971800D01*
X260053600Y-225971800D01*
X260053600Y-220155200D01*
D13*
X242822200Y-217589800D02*
X246886200Y-217589800D01*
D10*
G36*
X245082800Y-220028200D02*
G01*
X239799600Y-220028200D01*
X239799600Y-219139200D01*
X242771400Y-219139200D01*
X245082800Y-220028200D01*
G37*
G36*
X245946400Y-225844800D02*
G01*
X239850400Y-225844800D01*
X239850400Y-220028200D01*
X245946400Y-220028200D01*
X245946400Y-225844800D01*
G37*
X245946400Y-225844800D02*
X239850400Y-225844800D01*
X239850400Y-220028200D01*
X245946400Y-220028200D01*
X245946400Y-225844800D01*
D13*
X223177800Y-228410200D02*
X219113800Y-228410200D01*
D10*
G36*
X220917200Y-225971800D02*
G01*
X226200400Y-225971800D01*
X226200400Y-226860800D01*
X223228600Y-226860800D01*
X220917200Y-225971800D01*
G37*
G36*
X220053600Y-220155200D02*
G01*
X226149600Y-220155200D01*
X226149600Y-225971800D01*
X220053600Y-225971800D01*
X220053600Y-220155200D01*
G37*
X220053600Y-220155200D02*
X226149600Y-220155200D01*
X226149600Y-225971800D01*
X220053600Y-225971800D01*
X220053600Y-220155200D01*
D13*
X202822200Y-217589800D02*
X206886200Y-217589800D01*
D10*
G36*
X205082800Y-220028200D02*
G01*
X199799600Y-220028200D01*
X199799600Y-219139200D01*
X202771400Y-219139200D01*
X205082800Y-220028200D01*
G37*
G36*
X205946400Y-225844800D02*
G01*
X199850400Y-225844800D01*
X199850400Y-220028200D01*
X205946400Y-220028200D01*
X205946400Y-225844800D01*
G37*
X205946400Y-225844800D02*
X199850400Y-225844800D01*
X199850400Y-220028200D01*
X205946400Y-220028200D01*
X205946400Y-225844800D01*
D13*
X183177800Y-228410200D02*
X179113800Y-228410200D01*
D10*
G36*
X180917200Y-225971800D02*
G01*
X186200400Y-225971800D01*
X186200400Y-226860800D01*
X183228600Y-226860800D01*
X180917200Y-225971800D01*
G37*
G36*
X180053600Y-220155200D02*
G01*
X186149600Y-220155200D01*
X186149600Y-225971800D01*
X180053600Y-225971800D01*
X180053600Y-220155200D01*
G37*
X180053600Y-220155200D02*
X186149600Y-220155200D01*
X186149600Y-225971800D01*
X180053600Y-225971800D01*
X180053600Y-220155200D01*
D13*
X162822200Y-217589800D02*
X166886200Y-217589800D01*
D10*
G36*
X165082800Y-220028200D02*
G01*
X159799600Y-220028200D01*
X159799600Y-219139200D01*
X162771400Y-219139200D01*
X165082800Y-220028200D01*
G37*
G36*
X165946400Y-225844800D02*
G01*
X159850400Y-225844800D01*
X159850400Y-220028200D01*
X165946400Y-220028200D01*
X165946400Y-225844800D01*
G37*
X165946400Y-225844800D02*
X159850400Y-225844800D01*
X159850400Y-220028200D01*
X165946400Y-220028200D01*
X165946400Y-225844800D01*
D13*
X143177800Y-228410200D02*
X139113800Y-228410200D01*
D10*
G36*
X140917200Y-225971800D02*
G01*
X146200400Y-225971800D01*
X146200400Y-226860800D01*
X143228600Y-226860800D01*
X140917200Y-225971800D01*
G37*
G36*
X140053600Y-220155200D02*
G01*
X146149600Y-220155200D01*
X146149600Y-225971800D01*
X140053600Y-225971800D01*
X140053600Y-220155200D01*
G37*
X140053600Y-220155200D02*
X146149600Y-220155200D01*
X146149600Y-225971800D01*
X140053600Y-225971800D01*
X140053600Y-220155200D01*
D13*
X122822200Y-217589800D02*
X126886200Y-217589800D01*
D10*
G36*
X125082800Y-220028200D02*
G01*
X119799600Y-220028200D01*
X119799600Y-219139200D01*
X122771400Y-219139200D01*
X125082800Y-220028200D01*
G37*
G36*
X125946400Y-225844800D02*
G01*
X119850400Y-225844800D01*
X119850400Y-220028200D01*
X125946400Y-220028200D01*
X125946400Y-225844800D01*
G37*
X125946400Y-225844800D02*
X119850400Y-225844800D01*
X119850400Y-220028200D01*
X125946400Y-220028200D01*
X125946400Y-225844800D01*
D13*
X103177800Y-228410200D02*
X99113800Y-228410200D01*
D10*
G36*
X100917200Y-225971800D02*
G01*
X106200400Y-225971800D01*
X106200400Y-226860800D01*
X103228600Y-226860800D01*
X100917200Y-225971800D01*
G37*
G36*
X100053600Y-220155200D02*
G01*
X106149600Y-220155200D01*
X106149600Y-225971800D01*
X100053600Y-225971800D01*
X100053600Y-220155200D01*
G37*
X100053600Y-220155200D02*
X106149600Y-220155200D01*
X106149600Y-225971800D01*
X100053600Y-225971800D01*
X100053600Y-220155200D01*
D13*
X82822200Y-217589800D02*
X86886200Y-217589800D01*
D10*
G36*
X85082800Y-220028200D02*
G01*
X79799600Y-220028200D01*
X79799600Y-219139200D01*
X82771400Y-219139200D01*
X85082800Y-220028200D01*
G37*
G36*
X85946400Y-225844800D02*
G01*
X79850400Y-225844800D01*
X79850400Y-220028200D01*
X85946400Y-220028200D01*
X85946400Y-225844800D01*
G37*
X85946400Y-225844800D02*
X79850400Y-225844800D01*
X79850400Y-220028200D01*
X85946400Y-220028200D01*
X85946400Y-225844800D01*
D13*
X63177800Y-228410200D02*
X59113800Y-228410200D01*
D10*
G36*
X60917200Y-225971800D02*
G01*
X66200400Y-225971800D01*
X66200400Y-226860800D01*
X63228600Y-226860800D01*
X60917200Y-225971800D01*
G37*
G36*
X60053600Y-220155200D02*
G01*
X66149600Y-220155200D01*
X66149600Y-225971800D01*
X60053600Y-225971800D01*
X60053600Y-220155200D01*
G37*
X60053600Y-220155200D02*
X66149600Y-220155200D01*
X66149600Y-225971800D01*
X60053600Y-225971800D01*
X60053600Y-220155200D01*
D13*
X42822200Y-217589800D02*
X46886200Y-217589800D01*
D10*
G36*
X45082800Y-220028200D02*
G01*
X39799600Y-220028200D01*
X39799600Y-219139200D01*
X42771400Y-219139200D01*
X45082800Y-220028200D01*
G37*
G36*
X45946400Y-225844800D02*
G01*
X39850400Y-225844800D01*
X39850400Y-220028200D01*
X45946400Y-220028200D01*
X45946400Y-225844800D01*
G37*
X45946400Y-225844800D02*
X39850400Y-225844800D01*
X39850400Y-220028200D01*
X45946400Y-220028200D01*
X45946400Y-225844800D01*
D13*
X22822200Y-217589800D02*
X26886200Y-217589800D01*
D10*
G36*
X25082800Y-220028200D02*
G01*
X19799600Y-220028200D01*
X19799600Y-219139200D01*
X22771400Y-219139200D01*
X25082800Y-220028200D01*
G37*
G36*
X25946400Y-225844800D02*
G01*
X19850400Y-225844800D01*
X19850400Y-220028200D01*
X25946400Y-220028200D01*
X25946400Y-225844800D01*
G37*
X25946400Y-225844800D02*
X19850400Y-225844800D01*
X19850400Y-220028200D01*
X25946400Y-220028200D01*
X25946400Y-225844800D01*
D13*
X263177800Y-208410200D02*
X259113800Y-208410200D01*
D10*
G36*
X260917200Y-205971800D02*
G01*
X266200400Y-205971800D01*
X266200400Y-206860800D01*
X263228600Y-206860800D01*
X260917200Y-205971800D01*
G37*
G36*
X260053600Y-200155200D02*
G01*
X266149600Y-200155200D01*
X266149600Y-205971800D01*
X260053600Y-205971800D01*
X260053600Y-200155200D01*
G37*
X260053600Y-200155200D02*
X266149600Y-200155200D01*
X266149600Y-205971800D01*
X260053600Y-205971800D01*
X260053600Y-200155200D01*
D13*
X242822200Y-197589800D02*
X246886200Y-197589800D01*
D10*
G36*
X245082800Y-200028200D02*
G01*
X239799600Y-200028200D01*
X239799600Y-199139200D01*
X242771400Y-199139200D01*
X245082800Y-200028200D01*
G37*
G36*
X245946400Y-205844800D02*
G01*
X239850400Y-205844800D01*
X239850400Y-200028200D01*
X245946400Y-200028200D01*
X245946400Y-205844800D01*
G37*
X245946400Y-205844800D02*
X239850400Y-205844800D01*
X239850400Y-200028200D01*
X245946400Y-200028200D01*
X245946400Y-205844800D01*
D13*
X223177800Y-208410200D02*
X219113800Y-208410200D01*
D10*
G36*
X220917200Y-205971800D02*
G01*
X226200400Y-205971800D01*
X226200400Y-206860800D01*
X223228600Y-206860800D01*
X220917200Y-205971800D01*
G37*
G36*
X220053600Y-200155200D02*
G01*
X226149600Y-200155200D01*
X226149600Y-205971800D01*
X220053600Y-205971800D01*
X220053600Y-200155200D01*
G37*
X220053600Y-200155200D02*
X226149600Y-200155200D01*
X226149600Y-205971800D01*
X220053600Y-205971800D01*
X220053600Y-200155200D01*
D13*
X202822200Y-197589800D02*
X206886200Y-197589800D01*
D10*
G36*
X205082800Y-200028200D02*
G01*
X199799600Y-200028200D01*
X199799600Y-199139200D01*
X202771400Y-199139200D01*
X205082800Y-200028200D01*
G37*
G36*
X205946400Y-205844800D02*
G01*
X199850400Y-205844800D01*
X199850400Y-200028200D01*
X205946400Y-200028200D01*
X205946400Y-205844800D01*
G37*
X205946400Y-205844800D02*
X199850400Y-205844800D01*
X199850400Y-200028200D01*
X205946400Y-200028200D01*
X205946400Y-205844800D01*
D13*
X183177800Y-208410200D02*
X179113800Y-208410200D01*
D10*
G36*
X180917200Y-205971800D02*
G01*
X186200400Y-205971800D01*
X186200400Y-206860800D01*
X183228600Y-206860800D01*
X180917200Y-205971800D01*
G37*
G36*
X180053600Y-200155200D02*
G01*
X186149600Y-200155200D01*
X186149600Y-205971800D01*
X180053600Y-205971800D01*
X180053600Y-200155200D01*
G37*
X180053600Y-200155200D02*
X186149600Y-200155200D01*
X186149600Y-205971800D01*
X180053600Y-205971800D01*
X180053600Y-200155200D01*
D13*
X162636200Y-197535800D02*
X166700200Y-197535800D01*
D10*
G36*
X164896800Y-199974200D02*
G01*
X159613600Y-199974200D01*
X159613600Y-199085200D01*
X162585400Y-199085200D01*
X164896800Y-199974200D01*
G37*
G36*
X165760400Y-205790800D02*
G01*
X159664400Y-205790800D01*
X159664400Y-199974200D01*
X165760400Y-199974200D01*
X165760400Y-205790800D01*
G37*
X165760400Y-205790800D02*
X159664400Y-205790800D01*
X159664400Y-199974200D01*
X165760400Y-199974200D01*
X165760400Y-205790800D01*
D13*
X142925800Y-208102200D02*
X138861800Y-208102200D01*
D10*
G36*
X140665200Y-205663800D02*
G01*
X145948400Y-205663800D01*
X145948400Y-206552800D01*
X142976600Y-206552800D01*
X140665200Y-205663800D01*
G37*
G36*
X139801600Y-199847200D02*
G01*
X145897600Y-199847200D01*
X145897600Y-205663800D01*
X139801600Y-205663800D01*
X139801600Y-199847200D01*
G37*
X139801600Y-199847200D02*
X145897600Y-199847200D01*
X145897600Y-205663800D01*
X139801600Y-205663800D01*
X139801600Y-199847200D01*
D13*
X123012200Y-197789800D02*
X127076200Y-197789800D01*
D10*
G36*
X125272800Y-200228200D02*
G01*
X119989600Y-200228200D01*
X119989600Y-199339200D01*
X122961400Y-199339200D01*
X125272800Y-200228200D01*
G37*
G36*
X126136400Y-206044800D02*
G01*
X120040400Y-206044800D01*
X120040400Y-200228200D01*
X126136400Y-200228200D01*
X126136400Y-206044800D01*
G37*
X126136400Y-206044800D02*
X120040400Y-206044800D01*
X120040400Y-200228200D01*
X126136400Y-200228200D01*
X126136400Y-206044800D01*
D13*
X103177800Y-208410200D02*
X99113800Y-208410200D01*
D10*
G36*
X100917200Y-205971800D02*
G01*
X106200400Y-205971800D01*
X106200400Y-206860800D01*
X103228600Y-206860800D01*
X100917200Y-205971800D01*
G37*
G36*
X100053600Y-200155200D02*
G01*
X106149600Y-200155200D01*
X106149600Y-205971800D01*
X100053600Y-205971800D01*
X100053600Y-200155200D01*
G37*
X100053600Y-200155200D02*
X106149600Y-200155200D01*
X106149600Y-205971800D01*
X100053600Y-205971800D01*
X100053600Y-200155200D01*
D13*
X82822200Y-197589800D02*
X86886200Y-197589800D01*
D10*
G36*
X85082800Y-200028200D02*
G01*
X79799600Y-200028200D01*
X79799600Y-199139200D01*
X82771400Y-199139200D01*
X85082800Y-200028200D01*
G37*
G36*
X85946400Y-205844800D02*
G01*
X79850400Y-205844800D01*
X79850400Y-200028200D01*
X85946400Y-200028200D01*
X85946400Y-205844800D01*
G37*
X85946400Y-205844800D02*
X79850400Y-205844800D01*
X79850400Y-200028200D01*
X85946400Y-200028200D01*
X85946400Y-205844800D01*
D13*
X63177800Y-208410200D02*
X59113800Y-208410200D01*
D10*
G36*
X60917200Y-205971800D02*
G01*
X66200400Y-205971800D01*
X66200400Y-206860800D01*
X63228600Y-206860800D01*
X60917200Y-205971800D01*
G37*
G36*
X60053600Y-200155200D02*
G01*
X66149600Y-200155200D01*
X66149600Y-205971800D01*
X60053600Y-205971800D01*
X60053600Y-200155200D01*
G37*
X60053600Y-200155200D02*
X66149600Y-200155200D01*
X66149600Y-205971800D01*
X60053600Y-205971800D01*
X60053600Y-200155200D01*
D13*
X42494200Y-198043800D02*
X46558200Y-198043800D01*
D10*
G36*
X44754800Y-200482200D02*
G01*
X39471600Y-200482200D01*
X39471600Y-199593200D01*
X42443400Y-199593200D01*
X44754800Y-200482200D01*
G37*
G36*
X45618400Y-206298800D02*
G01*
X39522400Y-206298800D01*
X39522400Y-200482200D01*
X45618400Y-200482200D01*
X45618400Y-206298800D01*
G37*
X45618400Y-206298800D02*
X39522400Y-206298800D01*
X39522400Y-200482200D01*
X45618400Y-200482200D01*
X45618400Y-206298800D01*
D13*
X22822200Y-197589800D02*
X26886200Y-197589800D01*
D10*
G36*
X25082800Y-200028200D02*
G01*
X19799600Y-200028200D01*
X19799600Y-199139200D01*
X22771400Y-199139200D01*
X25082800Y-200028200D01*
G37*
G36*
X25946400Y-205844800D02*
G01*
X19850400Y-205844800D01*
X19850400Y-200028200D01*
X25946400Y-200028200D01*
X25946400Y-205844800D01*
G37*
X25946400Y-205844800D02*
X19850400Y-205844800D01*
X19850400Y-200028200D01*
X25946400Y-200028200D01*
X25946400Y-205844800D01*
D13*
X263177800Y-188410200D02*
X259113800Y-188410200D01*
D10*
G36*
X260917200Y-185971800D02*
G01*
X266200400Y-185971800D01*
X266200400Y-186860800D01*
X263228600Y-186860800D01*
X260917200Y-185971800D01*
G37*
G36*
X260053600Y-180155200D02*
G01*
X266149600Y-180155200D01*
X266149600Y-185971800D01*
X260053600Y-185971800D01*
X260053600Y-180155200D01*
G37*
X260053600Y-180155200D02*
X266149600Y-180155200D01*
X266149600Y-185971800D01*
X260053600Y-185971800D01*
X260053600Y-180155200D01*
D13*
X242646200Y-177723800D02*
X246710200Y-177723800D01*
D10*
G36*
X244906800Y-180162200D02*
G01*
X239623600Y-180162200D01*
X239623600Y-179273200D01*
X242595400Y-179273200D01*
X244906800Y-180162200D01*
G37*
G36*
X245770400Y-185978800D02*
G01*
X239674400Y-185978800D01*
X239674400Y-180162200D01*
X245770400Y-180162200D01*
X245770400Y-185978800D01*
G37*
X245770400Y-185978800D02*
X239674400Y-185978800D01*
X239674400Y-180162200D01*
X245770400Y-180162200D01*
X245770400Y-185978800D01*
D13*
X223177800Y-188410200D02*
X219113800Y-188410200D01*
D10*
G36*
X220917200Y-185971800D02*
G01*
X226200400Y-185971800D01*
X226200400Y-186860800D01*
X223228600Y-186860800D01*
X220917200Y-185971800D01*
G37*
G36*
X220053600Y-180155200D02*
G01*
X226149600Y-180155200D01*
X226149600Y-185971800D01*
X220053600Y-185971800D01*
X220053600Y-180155200D01*
G37*
X220053600Y-180155200D02*
X226149600Y-180155200D01*
X226149600Y-185971800D01*
X220053600Y-185971800D01*
X220053600Y-180155200D01*
D13*
X202514200Y-177723800D02*
X206578200Y-177723800D01*
D10*
G36*
X204774800Y-180162200D02*
G01*
X199491600Y-180162200D01*
X199491600Y-179273200D01*
X202463400Y-179273200D01*
X204774800Y-180162200D01*
G37*
G36*
X205638400Y-185978800D02*
G01*
X199542400Y-185978800D01*
X199542400Y-180162200D01*
X205638400Y-180162200D01*
X205638400Y-185978800D01*
G37*
X205638400Y-185978800D02*
X199542400Y-185978800D01*
X199542400Y-180162200D01*
X205638400Y-180162200D01*
X205638400Y-185978800D01*
D13*
X183177800Y-188410200D02*
X179113800Y-188410200D01*
D10*
G36*
X180917200Y-185971800D02*
G01*
X186200400Y-185971800D01*
X186200400Y-186860800D01*
X183228600Y-186860800D01*
X180917200Y-185971800D01*
G37*
G36*
X180053600Y-180155200D02*
G01*
X186149600Y-180155200D01*
X186149600Y-185971800D01*
X180053600Y-185971800D01*
X180053600Y-180155200D01*
G37*
X180053600Y-180155200D02*
X186149600Y-180155200D01*
X186149600Y-185971800D01*
X180053600Y-185971800D01*
X180053600Y-180155200D01*
D13*
X162822200Y-177589800D02*
X166886200Y-177589800D01*
D10*
G36*
X165082800Y-180028200D02*
G01*
X159799600Y-180028200D01*
X159799600Y-179139200D01*
X162771400Y-179139200D01*
X165082800Y-180028200D01*
G37*
G36*
X165946400Y-185844800D02*
G01*
X159850400Y-185844800D01*
X159850400Y-180028200D01*
X165946400Y-180028200D01*
X165946400Y-185844800D01*
G37*
X165946400Y-185844800D02*
X159850400Y-185844800D01*
X159850400Y-180028200D01*
X165946400Y-180028200D01*
X165946400Y-185844800D01*
D13*
X143177800Y-188410200D02*
X139113800Y-188410200D01*
D10*
G36*
X140917200Y-185971800D02*
G01*
X146200400Y-185971800D01*
X146200400Y-186860800D01*
X143228600Y-186860800D01*
X140917200Y-185971800D01*
G37*
G36*
X140053600Y-180155200D02*
G01*
X146149600Y-180155200D01*
X146149600Y-185971800D01*
X140053600Y-185971800D01*
X140053600Y-180155200D01*
G37*
X140053600Y-180155200D02*
X146149600Y-180155200D01*
X146149600Y-185971800D01*
X140053600Y-185971800D01*
X140053600Y-180155200D01*
D13*
X122822200Y-177589800D02*
X126886200Y-177589800D01*
D10*
G36*
X125082800Y-180028200D02*
G01*
X119799600Y-180028200D01*
X119799600Y-179139200D01*
X122771400Y-179139200D01*
X125082800Y-180028200D01*
G37*
G36*
X125946400Y-185844800D02*
G01*
X119850400Y-185844800D01*
X119850400Y-180028200D01*
X125946400Y-180028200D01*
X125946400Y-185844800D01*
G37*
X125946400Y-185844800D02*
X119850400Y-185844800D01*
X119850400Y-180028200D01*
X125946400Y-180028200D01*
X125946400Y-185844800D01*
D13*
X103177800Y-188410200D02*
X99113800Y-188410200D01*
D10*
G36*
X100917200Y-185971800D02*
G01*
X106200400Y-185971800D01*
X106200400Y-186860800D01*
X103228600Y-186860800D01*
X100917200Y-185971800D01*
G37*
G36*
X100053600Y-180155200D02*
G01*
X106149600Y-180155200D01*
X106149600Y-185971800D01*
X100053600Y-185971800D01*
X100053600Y-180155200D01*
G37*
X100053600Y-180155200D02*
X106149600Y-180155200D01*
X106149600Y-185971800D01*
X100053600Y-185971800D01*
X100053600Y-180155200D01*
D13*
X82822200Y-177589800D02*
X86886200Y-177589800D01*
D10*
G36*
X85082800Y-180028200D02*
G01*
X79799600Y-180028200D01*
X79799600Y-179139200D01*
X82771400Y-179139200D01*
X85082800Y-180028200D01*
G37*
G36*
X85946400Y-185844800D02*
G01*
X79850400Y-185844800D01*
X79850400Y-180028200D01*
X85946400Y-180028200D01*
X85946400Y-185844800D01*
G37*
X85946400Y-185844800D02*
X79850400Y-185844800D01*
X79850400Y-180028200D01*
X85946400Y-180028200D01*
X85946400Y-185844800D01*
D13*
X63177800Y-188410200D02*
X59113800Y-188410200D01*
D10*
G36*
X60917200Y-185971800D02*
G01*
X66200400Y-185971800D01*
X66200400Y-186860800D01*
X63228600Y-186860800D01*
X60917200Y-185971800D01*
G37*
G36*
X60053600Y-180155200D02*
G01*
X66149600Y-180155200D01*
X66149600Y-185971800D01*
X60053600Y-185971800D01*
X60053600Y-180155200D01*
G37*
X60053600Y-180155200D02*
X66149600Y-180155200D01*
X66149600Y-185971800D01*
X60053600Y-185971800D01*
X60053600Y-180155200D01*
D13*
X42822200Y-177589800D02*
X46886200Y-177589800D01*
D10*
G36*
X45082800Y-180028200D02*
G01*
X39799600Y-180028200D01*
X39799600Y-179139200D01*
X42771400Y-179139200D01*
X45082800Y-180028200D01*
G37*
G36*
X45946400Y-185844800D02*
G01*
X39850400Y-185844800D01*
X39850400Y-180028200D01*
X45946400Y-180028200D01*
X45946400Y-185844800D01*
G37*
X45946400Y-185844800D02*
X39850400Y-185844800D01*
X39850400Y-180028200D01*
X45946400Y-180028200D01*
X45946400Y-185844800D01*
D13*
X22822200Y-178089800D02*
X26886200Y-178089800D01*
D10*
G36*
X25082800Y-180528200D02*
G01*
X19799600Y-180528200D01*
X19799600Y-179639200D01*
X22771400Y-179639200D01*
X25082800Y-180528200D01*
G37*
G36*
X25946400Y-186344800D02*
G01*
X19850400Y-186344800D01*
X19850400Y-180528200D01*
X25946400Y-180528200D01*
X25946400Y-186344800D01*
G37*
X25946400Y-186344800D02*
X19850400Y-186344800D01*
X19850400Y-180528200D01*
X25946400Y-180528200D01*
X25946400Y-186344800D01*
D13*
X263177800Y-168410200D02*
X259113800Y-168410200D01*
D10*
G36*
X260917200Y-165971800D02*
G01*
X266200400Y-165971800D01*
X266200400Y-166860800D01*
X263228600Y-166860800D01*
X260917200Y-165971800D01*
G37*
G36*
X260053600Y-160155200D02*
G01*
X266149600Y-160155200D01*
X266149600Y-165971800D01*
X260053600Y-165971800D01*
X260053600Y-160155200D01*
G37*
X260053600Y-160155200D02*
X266149600Y-160155200D01*
X266149600Y-165971800D01*
X260053600Y-165971800D01*
X260053600Y-160155200D01*
D13*
X242822200Y-159089800D02*
X246886200Y-159089800D01*
D10*
G36*
X245082800Y-161528200D02*
G01*
X239799600Y-161528200D01*
X239799600Y-160639200D01*
X242771400Y-160639200D01*
X245082800Y-161528200D01*
G37*
G36*
X245946400Y-167344800D02*
G01*
X239850400Y-167344800D01*
X239850400Y-161528200D01*
X245946400Y-161528200D01*
X245946400Y-167344800D01*
G37*
X245946400Y-167344800D02*
X239850400Y-167344800D01*
X239850400Y-161528200D01*
X245946400Y-161528200D01*
X245946400Y-167344800D01*
D13*
X223177800Y-168410200D02*
X219113800Y-168410200D01*
D10*
G36*
X220917200Y-165971800D02*
G01*
X226200400Y-165971800D01*
X226200400Y-166860800D01*
X223228600Y-166860800D01*
X220917200Y-165971800D01*
G37*
G36*
X220053600Y-160155200D02*
G01*
X226149600Y-160155200D01*
X226149600Y-165971800D01*
X220053600Y-165971800D01*
X220053600Y-160155200D01*
G37*
X220053600Y-160155200D02*
X226149600Y-160155200D01*
X226149600Y-165971800D01*
X220053600Y-165971800D01*
X220053600Y-160155200D01*
D13*
X202822200Y-157589800D02*
X206886200Y-157589800D01*
D10*
G36*
X205082800Y-160028200D02*
G01*
X199799600Y-160028200D01*
X199799600Y-159139200D01*
X202771400Y-159139200D01*
X205082800Y-160028200D01*
G37*
G36*
X205946400Y-165844800D02*
G01*
X199850400Y-165844800D01*
X199850400Y-160028200D01*
X205946400Y-160028200D01*
X205946400Y-165844800D01*
G37*
X205946400Y-165844800D02*
X199850400Y-165844800D01*
X199850400Y-160028200D01*
X205946400Y-160028200D01*
X205946400Y-165844800D01*
D13*
X183177800Y-168410200D02*
X179113800Y-168410200D01*
D10*
G36*
X180917200Y-165971800D02*
G01*
X186200400Y-165971800D01*
X186200400Y-166860800D01*
X183228600Y-166860800D01*
X180917200Y-165971800D01*
G37*
G36*
X180053600Y-160155200D02*
G01*
X186149600Y-160155200D01*
X186149600Y-165971800D01*
X180053600Y-165971800D01*
X180053600Y-160155200D01*
G37*
X180053600Y-160155200D02*
X186149600Y-160155200D01*
X186149600Y-165971800D01*
X180053600Y-165971800D01*
X180053600Y-160155200D01*
D13*
X162822200Y-157589800D02*
X166886200Y-157589800D01*
D10*
G36*
X165082800Y-160028200D02*
G01*
X159799600Y-160028200D01*
X159799600Y-159139200D01*
X162771400Y-159139200D01*
X165082800Y-160028200D01*
G37*
G36*
X165946400Y-165844800D02*
G01*
X159850400Y-165844800D01*
X159850400Y-160028200D01*
X165946400Y-160028200D01*
X165946400Y-165844800D01*
G37*
X165946400Y-165844800D02*
X159850400Y-165844800D01*
X159850400Y-160028200D01*
X165946400Y-160028200D01*
X165946400Y-165844800D01*
D13*
X143177800Y-168410200D02*
X139113800Y-168410200D01*
D10*
G36*
X140917200Y-165971800D02*
G01*
X146200400Y-165971800D01*
X146200400Y-166860800D01*
X143228600Y-166860800D01*
X140917200Y-165971800D01*
G37*
G36*
X140053600Y-160155200D02*
G01*
X146149600Y-160155200D01*
X146149600Y-165971800D01*
X140053600Y-165971800D01*
X140053600Y-160155200D01*
G37*
X140053600Y-160155200D02*
X146149600Y-160155200D01*
X146149600Y-165971800D01*
X140053600Y-165971800D01*
X140053600Y-160155200D01*
D13*
X122822200Y-157589800D02*
X126886200Y-157589800D01*
D10*
G36*
X125082800Y-160028200D02*
G01*
X119799600Y-160028200D01*
X119799600Y-159139200D01*
X122771400Y-159139200D01*
X125082800Y-160028200D01*
G37*
G36*
X125946400Y-165844800D02*
G01*
X119850400Y-165844800D01*
X119850400Y-160028200D01*
X125946400Y-160028200D01*
X125946400Y-165844800D01*
G37*
X125946400Y-165844800D02*
X119850400Y-165844800D01*
X119850400Y-160028200D01*
X125946400Y-160028200D01*
X125946400Y-165844800D01*
D13*
X103177800Y-168410200D02*
X99113800Y-168410200D01*
D10*
G36*
X100917200Y-165971800D02*
G01*
X106200400Y-165971800D01*
X106200400Y-166860800D01*
X103228600Y-166860800D01*
X100917200Y-165971800D01*
G37*
G36*
X100053600Y-160155200D02*
G01*
X106149600Y-160155200D01*
X106149600Y-165971800D01*
X100053600Y-165971800D01*
X100053600Y-160155200D01*
G37*
X100053600Y-160155200D02*
X106149600Y-160155200D01*
X106149600Y-165971800D01*
X100053600Y-165971800D01*
X100053600Y-160155200D01*
D13*
X82822200Y-157589800D02*
X86886200Y-157589800D01*
D10*
G36*
X85082800Y-160028200D02*
G01*
X79799600Y-160028200D01*
X79799600Y-159139200D01*
X82771400Y-159139200D01*
X85082800Y-160028200D01*
G37*
G36*
X85946400Y-165844800D02*
G01*
X79850400Y-165844800D01*
X79850400Y-160028200D01*
X85946400Y-160028200D01*
X85946400Y-165844800D01*
G37*
X85946400Y-165844800D02*
X79850400Y-165844800D01*
X79850400Y-160028200D01*
X85946400Y-160028200D01*
X85946400Y-165844800D01*
D13*
X63177800Y-168410200D02*
X59113800Y-168410200D01*
D10*
G36*
X60917200Y-165971800D02*
G01*
X66200400Y-165971800D01*
X66200400Y-166860800D01*
X63228600Y-166860800D01*
X60917200Y-165971800D01*
G37*
G36*
X60053600Y-160155200D02*
G01*
X66149600Y-160155200D01*
X66149600Y-165971800D01*
X60053600Y-165971800D01*
X60053600Y-160155200D01*
G37*
X60053600Y-160155200D02*
X66149600Y-160155200D01*
X66149600Y-165971800D01*
X60053600Y-165971800D01*
X60053600Y-160155200D01*
D13*
X42822200Y-157589800D02*
X46886200Y-157589800D01*
D10*
G36*
X45082800Y-160028200D02*
G01*
X39799600Y-160028200D01*
X39799600Y-159139200D01*
X42771400Y-159139200D01*
X45082800Y-160028200D01*
G37*
G36*
X45946400Y-165844800D02*
G01*
X39850400Y-165844800D01*
X39850400Y-160028200D01*
X45946400Y-160028200D01*
X45946400Y-165844800D01*
G37*
X45946400Y-165844800D02*
X39850400Y-165844800D01*
X39850400Y-160028200D01*
X45946400Y-160028200D01*
X45946400Y-165844800D01*
D13*
X22822200Y-157589800D02*
X26886200Y-157589800D01*
D10*
G36*
X25082800Y-160028200D02*
G01*
X19799600Y-160028200D01*
X19799600Y-159139200D01*
X22771400Y-159139200D01*
X25082800Y-160028200D01*
G37*
G36*
X25946400Y-165844800D02*
G01*
X19850400Y-165844800D01*
X19850400Y-160028200D01*
X25946400Y-160028200D01*
X25946400Y-165844800D01*
G37*
X25946400Y-165844800D02*
X19850400Y-165844800D01*
X19850400Y-160028200D01*
X25946400Y-160028200D01*
X25946400Y-165844800D01*
D13*
X263177800Y-148410200D02*
X259113800Y-148410200D01*
D10*
G36*
X260917200Y-145971800D02*
G01*
X266200400Y-145971800D01*
X266200400Y-146860800D01*
X263228600Y-146860800D01*
X260917200Y-145971800D01*
G37*
G36*
X260053600Y-140155200D02*
G01*
X266149600Y-140155200D01*
X266149600Y-145971800D01*
X260053600Y-145971800D01*
X260053600Y-140155200D01*
G37*
X260053600Y-140155200D02*
X266149600Y-140155200D01*
X266149600Y-145971800D01*
X260053600Y-145971800D01*
X260053600Y-140155200D01*
D13*
X242822200Y-137589800D02*
X246886200Y-137589800D01*
D10*
G36*
X245082800Y-140028200D02*
G01*
X239799600Y-140028200D01*
X239799600Y-139139200D01*
X242771400Y-139139200D01*
X245082800Y-140028200D01*
G37*
G36*
X245946400Y-145844800D02*
G01*
X239850400Y-145844800D01*
X239850400Y-140028200D01*
X245946400Y-140028200D01*
X245946400Y-145844800D01*
G37*
X245946400Y-145844800D02*
X239850400Y-145844800D01*
X239850400Y-140028200D01*
X245946400Y-140028200D01*
X245946400Y-145844800D01*
D13*
X223177800Y-148410200D02*
X219113800Y-148410200D01*
D10*
G36*
X220917200Y-145971800D02*
G01*
X226200400Y-145971800D01*
X226200400Y-146860800D01*
X223228600Y-146860800D01*
X220917200Y-145971800D01*
G37*
G36*
X220053600Y-140155200D02*
G01*
X226149600Y-140155200D01*
X226149600Y-145971800D01*
X220053600Y-145971800D01*
X220053600Y-140155200D01*
G37*
X220053600Y-140155200D02*
X226149600Y-140155200D01*
X226149600Y-145971800D01*
X220053600Y-145971800D01*
X220053600Y-140155200D01*
D13*
X202822200Y-137589800D02*
X206886200Y-137589800D01*
D10*
G36*
X205082800Y-140028200D02*
G01*
X199799600Y-140028200D01*
X199799600Y-139139200D01*
X202771400Y-139139200D01*
X205082800Y-140028200D01*
G37*
G36*
X205946400Y-145844800D02*
G01*
X199850400Y-145844800D01*
X199850400Y-140028200D01*
X205946400Y-140028200D01*
X205946400Y-145844800D01*
G37*
X205946400Y-145844800D02*
X199850400Y-145844800D01*
X199850400Y-140028200D01*
X205946400Y-140028200D01*
X205946400Y-145844800D01*
D13*
X183177800Y-148410200D02*
X179113800Y-148410200D01*
D10*
G36*
X180917200Y-145971800D02*
G01*
X186200400Y-145971800D01*
X186200400Y-146860800D01*
X183228600Y-146860800D01*
X180917200Y-145971800D01*
G37*
G36*
X180053600Y-140155200D02*
G01*
X186149600Y-140155200D01*
X186149600Y-145971800D01*
X180053600Y-145971800D01*
X180053600Y-140155200D01*
G37*
X180053600Y-140155200D02*
X186149600Y-140155200D01*
X186149600Y-145971800D01*
X180053600Y-145971800D01*
X180053600Y-140155200D01*
D13*
X162822200Y-137589800D02*
X166886200Y-137589800D01*
D10*
G36*
X165082800Y-140028200D02*
G01*
X159799600Y-140028200D01*
X159799600Y-139139200D01*
X162771400Y-139139200D01*
X165082800Y-140028200D01*
G37*
G36*
X165946400Y-145844800D02*
G01*
X159850400Y-145844800D01*
X159850400Y-140028200D01*
X165946400Y-140028200D01*
X165946400Y-145844800D01*
G37*
X165946400Y-145844800D02*
X159850400Y-145844800D01*
X159850400Y-140028200D01*
X165946400Y-140028200D01*
X165946400Y-145844800D01*
D13*
X143177800Y-148410200D02*
X139113800Y-148410200D01*
D10*
G36*
X140917200Y-145971800D02*
G01*
X146200400Y-145971800D01*
X146200400Y-146860800D01*
X143228600Y-146860800D01*
X140917200Y-145971800D01*
G37*
G36*
X140053600Y-140155200D02*
G01*
X146149600Y-140155200D01*
X146149600Y-145971800D01*
X140053600Y-145971800D01*
X140053600Y-140155200D01*
G37*
X140053600Y-140155200D02*
X146149600Y-140155200D01*
X146149600Y-145971800D01*
X140053600Y-145971800D01*
X140053600Y-140155200D01*
D13*
X122822200Y-137589800D02*
X126886200Y-137589800D01*
D10*
G36*
X125082800Y-140028200D02*
G01*
X119799600Y-140028200D01*
X119799600Y-139139200D01*
X122771400Y-139139200D01*
X125082800Y-140028200D01*
G37*
G36*
X125946400Y-145844800D02*
G01*
X119850400Y-145844800D01*
X119850400Y-140028200D01*
X125946400Y-140028200D01*
X125946400Y-145844800D01*
G37*
X125946400Y-145844800D02*
X119850400Y-145844800D01*
X119850400Y-140028200D01*
X125946400Y-140028200D01*
X125946400Y-145844800D01*
D13*
X103177800Y-148410200D02*
X99113800Y-148410200D01*
D10*
G36*
X100917200Y-145971800D02*
G01*
X106200400Y-145971800D01*
X106200400Y-146860800D01*
X103228600Y-146860800D01*
X100917200Y-145971800D01*
G37*
G36*
X100053600Y-140155200D02*
G01*
X106149600Y-140155200D01*
X106149600Y-145971800D01*
X100053600Y-145971800D01*
X100053600Y-140155200D01*
G37*
X100053600Y-140155200D02*
X106149600Y-140155200D01*
X106149600Y-145971800D01*
X100053600Y-145971800D01*
X100053600Y-140155200D01*
D13*
X82822200Y-137589800D02*
X86886200Y-137589800D01*
D10*
G36*
X85082800Y-140028200D02*
G01*
X79799600Y-140028200D01*
X79799600Y-139139200D01*
X82771400Y-139139200D01*
X85082800Y-140028200D01*
G37*
G36*
X85946400Y-145844800D02*
G01*
X79850400Y-145844800D01*
X79850400Y-140028200D01*
X85946400Y-140028200D01*
X85946400Y-145844800D01*
G37*
X85946400Y-145844800D02*
X79850400Y-145844800D01*
X79850400Y-140028200D01*
X85946400Y-140028200D01*
X85946400Y-145844800D01*
D13*
X63177800Y-148410200D02*
X59113800Y-148410200D01*
D10*
G36*
X60917200Y-145971800D02*
G01*
X66200400Y-145971800D01*
X66200400Y-146860800D01*
X63228600Y-146860800D01*
X60917200Y-145971800D01*
G37*
G36*
X60053600Y-140155200D02*
G01*
X66149600Y-140155200D01*
X66149600Y-145971800D01*
X60053600Y-145971800D01*
X60053600Y-140155200D01*
G37*
X60053600Y-140155200D02*
X66149600Y-140155200D01*
X66149600Y-145971800D01*
X60053600Y-145971800D01*
X60053600Y-140155200D01*
D13*
X42822200Y-137589800D02*
X46886200Y-137589800D01*
D10*
G36*
X45082800Y-140028200D02*
G01*
X39799600Y-140028200D01*
X39799600Y-139139200D01*
X42771400Y-139139200D01*
X45082800Y-140028200D01*
G37*
G36*
X45946400Y-145844800D02*
G01*
X39850400Y-145844800D01*
X39850400Y-140028200D01*
X45946400Y-140028200D01*
X45946400Y-145844800D01*
G37*
X45946400Y-145844800D02*
X39850400Y-145844800D01*
X39850400Y-140028200D01*
X45946400Y-140028200D01*
X45946400Y-145844800D01*
D13*
X22822200Y-137589800D02*
X26886200Y-137589800D01*
D10*
G36*
X25082800Y-140028200D02*
G01*
X19799600Y-140028200D01*
X19799600Y-139139200D01*
X22771400Y-139139200D01*
X25082800Y-140028200D01*
G37*
G36*
X25946400Y-145844800D02*
G01*
X19850400Y-145844800D01*
X19850400Y-140028200D01*
X25946400Y-140028200D01*
X25946400Y-145844800D01*
G37*
X25946400Y-145844800D02*
X19850400Y-145844800D01*
X19850400Y-140028200D01*
X25946400Y-140028200D01*
X25946400Y-145844800D01*
D13*
X263177800Y-128410200D02*
X259113800Y-128410200D01*
D10*
G36*
X260917200Y-125971800D02*
G01*
X266200400Y-125971800D01*
X266200400Y-126860800D01*
X263228600Y-126860800D01*
X260917200Y-125971800D01*
G37*
G36*
X260053600Y-120155200D02*
G01*
X266149600Y-120155200D01*
X266149600Y-125971800D01*
X260053600Y-125971800D01*
X260053600Y-120155200D01*
G37*
X260053600Y-120155200D02*
X266149600Y-120155200D01*
X266149600Y-125971800D01*
X260053600Y-125971800D01*
X260053600Y-120155200D01*
D13*
X242822200Y-117589800D02*
X246886200Y-117589800D01*
D10*
G36*
X245082800Y-120028200D02*
G01*
X239799600Y-120028200D01*
X239799600Y-119139200D01*
X242771400Y-119139200D01*
X245082800Y-120028200D01*
G37*
G36*
X245946400Y-125844800D02*
G01*
X239850400Y-125844800D01*
X239850400Y-120028200D01*
X245946400Y-120028200D01*
X245946400Y-125844800D01*
G37*
X245946400Y-125844800D02*
X239850400Y-125844800D01*
X239850400Y-120028200D01*
X245946400Y-120028200D01*
X245946400Y-125844800D01*
D13*
X223177800Y-128410200D02*
X219113800Y-128410200D01*
D10*
G36*
X220917200Y-125971800D02*
G01*
X226200400Y-125971800D01*
X226200400Y-126860800D01*
X223228600Y-126860800D01*
X220917200Y-125971800D01*
G37*
G36*
X220053600Y-120155200D02*
G01*
X226149600Y-120155200D01*
X226149600Y-125971800D01*
X220053600Y-125971800D01*
X220053600Y-120155200D01*
G37*
X220053600Y-120155200D02*
X226149600Y-120155200D01*
X226149600Y-125971800D01*
X220053600Y-125971800D01*
X220053600Y-120155200D01*
D13*
X202822200Y-117589800D02*
X206886200Y-117589800D01*
D10*
G36*
X205082800Y-120028200D02*
G01*
X199799600Y-120028200D01*
X199799600Y-119139200D01*
X202771400Y-119139200D01*
X205082800Y-120028200D01*
G37*
G36*
X205946400Y-125844800D02*
G01*
X199850400Y-125844800D01*
X199850400Y-120028200D01*
X205946400Y-120028200D01*
X205946400Y-125844800D01*
G37*
X205946400Y-125844800D02*
X199850400Y-125844800D01*
X199850400Y-120028200D01*
X205946400Y-120028200D01*
X205946400Y-125844800D01*
D13*
X183177800Y-128410200D02*
X179113800Y-128410200D01*
D10*
G36*
X180917200Y-125971800D02*
G01*
X186200400Y-125971800D01*
X186200400Y-126860800D01*
X183228600Y-126860800D01*
X180917200Y-125971800D01*
G37*
G36*
X180053600Y-120155200D02*
G01*
X186149600Y-120155200D01*
X186149600Y-125971800D01*
X180053600Y-125971800D01*
X180053600Y-120155200D01*
G37*
X180053600Y-120155200D02*
X186149600Y-120155200D01*
X186149600Y-125971800D01*
X180053600Y-125971800D01*
X180053600Y-120155200D01*
D13*
X162822200Y-117589800D02*
X166886200Y-117589800D01*
D10*
G36*
X165082800Y-120028200D02*
G01*
X159799600Y-120028200D01*
X159799600Y-119139200D01*
X162771400Y-119139200D01*
X165082800Y-120028200D01*
G37*
G36*
X165946400Y-125844800D02*
G01*
X159850400Y-125844800D01*
X159850400Y-120028200D01*
X165946400Y-120028200D01*
X165946400Y-125844800D01*
G37*
X165946400Y-125844800D02*
X159850400Y-125844800D01*
X159850400Y-120028200D01*
X165946400Y-120028200D01*
X165946400Y-125844800D01*
D13*
X143177800Y-128410200D02*
X139113800Y-128410200D01*
D10*
G36*
X140917200Y-125971800D02*
G01*
X146200400Y-125971800D01*
X146200400Y-126860800D01*
X143228600Y-126860800D01*
X140917200Y-125971800D01*
G37*
G36*
X140053600Y-120155200D02*
G01*
X146149600Y-120155200D01*
X146149600Y-125971800D01*
X140053600Y-125971800D01*
X140053600Y-120155200D01*
G37*
X140053600Y-120155200D02*
X146149600Y-120155200D01*
X146149600Y-125971800D01*
X140053600Y-125971800D01*
X140053600Y-120155200D01*
D13*
X122822200Y-117589800D02*
X126886200Y-117589800D01*
D10*
G36*
X125082800Y-120028200D02*
G01*
X119799600Y-120028200D01*
X119799600Y-119139200D01*
X122771400Y-119139200D01*
X125082800Y-120028200D01*
G37*
G36*
X125946400Y-125844800D02*
G01*
X119850400Y-125844800D01*
X119850400Y-120028200D01*
X125946400Y-120028200D01*
X125946400Y-125844800D01*
G37*
X125946400Y-125844800D02*
X119850400Y-125844800D01*
X119850400Y-120028200D01*
X125946400Y-120028200D01*
X125946400Y-125844800D01*
D13*
X103177800Y-128410200D02*
X99113800Y-128410200D01*
D10*
G36*
X100917200Y-125971800D02*
G01*
X106200400Y-125971800D01*
X106200400Y-126860800D01*
X103228600Y-126860800D01*
X100917200Y-125971800D01*
G37*
G36*
X100053600Y-120155200D02*
G01*
X106149600Y-120155200D01*
X106149600Y-125971800D01*
X100053600Y-125971800D01*
X100053600Y-120155200D01*
G37*
X100053600Y-120155200D02*
X106149600Y-120155200D01*
X106149600Y-125971800D01*
X100053600Y-125971800D01*
X100053600Y-120155200D01*
D13*
X82822200Y-117589800D02*
X86886200Y-117589800D01*
D10*
G36*
X85082800Y-120028200D02*
G01*
X79799600Y-120028200D01*
X79799600Y-119139200D01*
X82771400Y-119139200D01*
X85082800Y-120028200D01*
G37*
G36*
X85946400Y-125844800D02*
G01*
X79850400Y-125844800D01*
X79850400Y-120028200D01*
X85946400Y-120028200D01*
X85946400Y-125844800D01*
G37*
X85946400Y-125844800D02*
X79850400Y-125844800D01*
X79850400Y-120028200D01*
X85946400Y-120028200D01*
X85946400Y-125844800D01*
D13*
X63177800Y-128410200D02*
X59113800Y-128410200D01*
D10*
G36*
X60917200Y-125971800D02*
G01*
X66200400Y-125971800D01*
X66200400Y-126860800D01*
X63228600Y-126860800D01*
X60917200Y-125971800D01*
G37*
G36*
X60053600Y-120155200D02*
G01*
X66149600Y-120155200D01*
X66149600Y-125971800D01*
X60053600Y-125971800D01*
X60053600Y-120155200D01*
G37*
X60053600Y-120155200D02*
X66149600Y-120155200D01*
X66149600Y-125971800D01*
X60053600Y-125971800D01*
X60053600Y-120155200D01*
D13*
X42822200Y-117589800D02*
X46886200Y-117589800D01*
D10*
G36*
X45082800Y-120028200D02*
G01*
X39799600Y-120028200D01*
X39799600Y-119139200D01*
X42771400Y-119139200D01*
X45082800Y-120028200D01*
G37*
G36*
X45946400Y-125844800D02*
G01*
X39850400Y-125844800D01*
X39850400Y-120028200D01*
X45946400Y-120028200D01*
X45946400Y-125844800D01*
G37*
X45946400Y-125844800D02*
X39850400Y-125844800D01*
X39850400Y-120028200D01*
X45946400Y-120028200D01*
X45946400Y-125844800D01*
D13*
X22822200Y-117589800D02*
X26886200Y-117589800D01*
D10*
G36*
X25082800Y-120028200D02*
G01*
X19799600Y-120028200D01*
X19799600Y-119139200D01*
X22771400Y-119139200D01*
X25082800Y-120028200D01*
G37*
G36*
X25946400Y-125844800D02*
G01*
X19850400Y-125844800D01*
X19850400Y-120028200D01*
X25946400Y-120028200D01*
X25946400Y-125844800D01*
G37*
X25946400Y-125844800D02*
X19850400Y-125844800D01*
X19850400Y-120028200D01*
X25946400Y-120028200D01*
X25946400Y-125844800D01*
D13*
X263177800Y-108410200D02*
X259113800Y-108410200D01*
D10*
G36*
X260917200Y-105971800D02*
G01*
X266200400Y-105971800D01*
X266200400Y-106860800D01*
X263228600Y-106860800D01*
X260917200Y-105971800D01*
G37*
G36*
X260053600Y-100155200D02*
G01*
X266149600Y-100155200D01*
X266149600Y-105971800D01*
X260053600Y-105971800D01*
X260053600Y-100155200D01*
G37*
X260053600Y-100155200D02*
X266149600Y-100155200D01*
X266149600Y-105971800D01*
X260053600Y-105971800D01*
X260053600Y-100155200D01*
D13*
X242822200Y-97589800D02*
X246886200Y-97589800D01*
D10*
G36*
X245082800Y-100028200D02*
G01*
X239799600Y-100028200D01*
X239799600Y-99139200D01*
X242771400Y-99139200D01*
X245082800Y-100028200D01*
G37*
G36*
X245946400Y-105844800D02*
G01*
X239850400Y-105844800D01*
X239850400Y-100028200D01*
X245946400Y-100028200D01*
X245946400Y-105844800D01*
G37*
X245946400Y-105844800D02*
X239850400Y-105844800D01*
X239850400Y-100028200D01*
X245946400Y-100028200D01*
X245946400Y-105844800D01*
D13*
X223177800Y-108410200D02*
X219113800Y-108410200D01*
D10*
G36*
X220917200Y-105971800D02*
G01*
X226200400Y-105971800D01*
X226200400Y-106860800D01*
X223228600Y-106860800D01*
X220917200Y-105971800D01*
G37*
G36*
X220053600Y-100155200D02*
G01*
X226149600Y-100155200D01*
X226149600Y-105971800D01*
X220053600Y-105971800D01*
X220053600Y-100155200D01*
G37*
X220053600Y-100155200D02*
X226149600Y-100155200D01*
X226149600Y-105971800D01*
X220053600Y-105971800D01*
X220053600Y-100155200D01*
D13*
X202822200Y-97589800D02*
X206886200Y-97589800D01*
D10*
G36*
X205082800Y-100028200D02*
G01*
X199799600Y-100028200D01*
X199799600Y-99139200D01*
X202771400Y-99139200D01*
X205082800Y-100028200D01*
G37*
G36*
X205946400Y-105844800D02*
G01*
X199850400Y-105844800D01*
X199850400Y-100028200D01*
X205946400Y-100028200D01*
X205946400Y-105844800D01*
G37*
X205946400Y-105844800D02*
X199850400Y-105844800D01*
X199850400Y-100028200D01*
X205946400Y-100028200D01*
X205946400Y-105844800D01*
D13*
X183177800Y-108410200D02*
X179113800Y-108410200D01*
D10*
G36*
X180917200Y-105971800D02*
G01*
X186200400Y-105971800D01*
X186200400Y-106860800D01*
X183228600Y-106860800D01*
X180917200Y-105971800D01*
G37*
G36*
X180053600Y-100155200D02*
G01*
X186149600Y-100155200D01*
X186149600Y-105971800D01*
X180053600Y-105971800D01*
X180053600Y-100155200D01*
G37*
X180053600Y-100155200D02*
X186149600Y-100155200D01*
X186149600Y-105971800D01*
X180053600Y-105971800D01*
X180053600Y-100155200D01*
D13*
X162822200Y-97589800D02*
X166886200Y-97589800D01*
D10*
G36*
X165082800Y-100028200D02*
G01*
X159799600Y-100028200D01*
X159799600Y-99139200D01*
X162771400Y-99139200D01*
X165082800Y-100028200D01*
G37*
G36*
X165946400Y-105844800D02*
G01*
X159850400Y-105844800D01*
X159850400Y-100028200D01*
X165946400Y-100028200D01*
X165946400Y-105844800D01*
G37*
X165946400Y-105844800D02*
X159850400Y-105844800D01*
X159850400Y-100028200D01*
X165946400Y-100028200D01*
X165946400Y-105844800D01*
D13*
X143177800Y-108410200D02*
X139113800Y-108410200D01*
D10*
G36*
X140917200Y-105971800D02*
G01*
X146200400Y-105971800D01*
X146200400Y-106860800D01*
X143228600Y-106860800D01*
X140917200Y-105971800D01*
G37*
G36*
X140053600Y-100155200D02*
G01*
X146149600Y-100155200D01*
X146149600Y-105971800D01*
X140053600Y-105971800D01*
X140053600Y-100155200D01*
G37*
X140053600Y-100155200D02*
X146149600Y-100155200D01*
X146149600Y-105971800D01*
X140053600Y-105971800D01*
X140053600Y-100155200D01*
D13*
X122322200Y-97589800D02*
X126386200Y-97589800D01*
D10*
G36*
X124582800Y-100028200D02*
G01*
X119299600Y-100028200D01*
X119299600Y-99139200D01*
X122271400Y-99139200D01*
X124582800Y-100028200D01*
G37*
G36*
X125446400Y-105844800D02*
G01*
X119350400Y-105844800D01*
X119350400Y-100028200D01*
X125446400Y-100028200D01*
X125446400Y-105844800D01*
G37*
X125446400Y-105844800D02*
X119350400Y-105844800D01*
X119350400Y-100028200D01*
X125446400Y-100028200D01*
X125446400Y-105844800D01*
D13*
X103177800Y-108410200D02*
X99113800Y-108410200D01*
D10*
G36*
X100917200Y-105971800D02*
G01*
X106200400Y-105971800D01*
X106200400Y-106860800D01*
X103228600Y-106860800D01*
X100917200Y-105971800D01*
G37*
G36*
X100053600Y-100155200D02*
G01*
X106149600Y-100155200D01*
X106149600Y-105971800D01*
X100053600Y-105971800D01*
X100053600Y-100155200D01*
G37*
X100053600Y-100155200D02*
X106149600Y-100155200D01*
X106149600Y-105971800D01*
X100053600Y-105971800D01*
X100053600Y-100155200D01*
D13*
X82822200Y-97589800D02*
X86886200Y-97589800D01*
D10*
G36*
X85082800Y-100028200D02*
G01*
X79799600Y-100028200D01*
X79799600Y-99139200D01*
X82771400Y-99139200D01*
X85082800Y-100028200D01*
G37*
G36*
X85946400Y-105844800D02*
G01*
X79850400Y-105844800D01*
X79850400Y-100028200D01*
X85946400Y-100028200D01*
X85946400Y-105844800D01*
G37*
X85946400Y-105844800D02*
X79850400Y-105844800D01*
X79850400Y-100028200D01*
X85946400Y-100028200D01*
X85946400Y-105844800D01*
D13*
X63177800Y-108410200D02*
X59113800Y-108410200D01*
D10*
G36*
X60917200Y-105971800D02*
G01*
X66200400Y-105971800D01*
X66200400Y-106860800D01*
X63228600Y-106860800D01*
X60917200Y-105971800D01*
G37*
G36*
X60053600Y-100155200D02*
G01*
X66149600Y-100155200D01*
X66149600Y-105971800D01*
X60053600Y-105971800D01*
X60053600Y-100155200D01*
G37*
X60053600Y-100155200D02*
X66149600Y-100155200D01*
X66149600Y-105971800D01*
X60053600Y-105971800D01*
X60053600Y-100155200D01*
D13*
X42822200Y-97589800D02*
X46886200Y-97589800D01*
D10*
G36*
X45082800Y-100028200D02*
G01*
X39799600Y-100028200D01*
X39799600Y-99139200D01*
X42771400Y-99139200D01*
X45082800Y-100028200D01*
G37*
G36*
X45946400Y-105844800D02*
G01*
X39850400Y-105844800D01*
X39850400Y-100028200D01*
X45946400Y-100028200D01*
X45946400Y-105844800D01*
G37*
X45946400Y-105844800D02*
X39850400Y-105844800D01*
X39850400Y-100028200D01*
X45946400Y-100028200D01*
X45946400Y-105844800D01*
D13*
X22822200Y-97589800D02*
X26886200Y-97589800D01*
D10*
G36*
X25082800Y-100028200D02*
G01*
X19799600Y-100028200D01*
X19799600Y-99139200D01*
X22771400Y-99139200D01*
X25082800Y-100028200D01*
G37*
G36*
X25946400Y-105844800D02*
G01*
X19850400Y-105844800D01*
X19850400Y-100028200D01*
X25946400Y-100028200D01*
X25946400Y-105844800D01*
G37*
X25946400Y-105844800D02*
X19850400Y-105844800D01*
X19850400Y-100028200D01*
X25946400Y-100028200D01*
X25946400Y-105844800D01*
D13*
X263177800Y-88410200D02*
X259113800Y-88410200D01*
D10*
G36*
X260917200Y-85971800D02*
G01*
X266200400Y-85971800D01*
X266200400Y-86860800D01*
X263228600Y-86860800D01*
X260917200Y-85971800D01*
G37*
G36*
X260053600Y-80155200D02*
G01*
X266149600Y-80155200D01*
X266149600Y-85971800D01*
X260053600Y-85971800D01*
X260053600Y-80155200D01*
G37*
X260053600Y-80155200D02*
X266149600Y-80155200D01*
X266149600Y-85971800D01*
X260053600Y-85971800D01*
X260053600Y-80155200D01*
D13*
X242822200Y-77589800D02*
X246886200Y-77589800D01*
D10*
G36*
X245082800Y-80028200D02*
G01*
X239799600Y-80028200D01*
X239799600Y-79139200D01*
X242771400Y-79139200D01*
X245082800Y-80028200D01*
G37*
G36*
X245946400Y-85844800D02*
G01*
X239850400Y-85844800D01*
X239850400Y-80028200D01*
X245946400Y-80028200D01*
X245946400Y-85844800D01*
G37*
X245946400Y-85844800D02*
X239850400Y-85844800D01*
X239850400Y-80028200D01*
X245946400Y-80028200D01*
X245946400Y-85844800D01*
D13*
X223177800Y-88410200D02*
X219113800Y-88410200D01*
D10*
G36*
X220917200Y-85971800D02*
G01*
X226200400Y-85971800D01*
X226200400Y-86860800D01*
X223228600Y-86860800D01*
X220917200Y-85971800D01*
G37*
G36*
X220053600Y-80155200D02*
G01*
X226149600Y-80155200D01*
X226149600Y-85971800D01*
X220053600Y-85971800D01*
X220053600Y-80155200D01*
G37*
X220053600Y-80155200D02*
X226149600Y-80155200D01*
X226149600Y-85971800D01*
X220053600Y-85971800D01*
X220053600Y-80155200D01*
D13*
X202822200Y-77589800D02*
X206886200Y-77589800D01*
D10*
G36*
X205082800Y-80028200D02*
G01*
X199799600Y-80028200D01*
X199799600Y-79139200D01*
X202771400Y-79139200D01*
X205082800Y-80028200D01*
G37*
G36*
X205946400Y-85844800D02*
G01*
X199850400Y-85844800D01*
X199850400Y-80028200D01*
X205946400Y-80028200D01*
X205946400Y-85844800D01*
G37*
X205946400Y-85844800D02*
X199850400Y-85844800D01*
X199850400Y-80028200D01*
X205946400Y-80028200D01*
X205946400Y-85844800D01*
D13*
X183177800Y-88410200D02*
X179113800Y-88410200D01*
D10*
G36*
X180917200Y-85971800D02*
G01*
X186200400Y-85971800D01*
X186200400Y-86860800D01*
X183228600Y-86860800D01*
X180917200Y-85971800D01*
G37*
G36*
X180053600Y-80155200D02*
G01*
X186149600Y-80155200D01*
X186149600Y-85971800D01*
X180053600Y-85971800D01*
X180053600Y-80155200D01*
G37*
X180053600Y-80155200D02*
X186149600Y-80155200D01*
X186149600Y-85971800D01*
X180053600Y-85971800D01*
X180053600Y-80155200D01*
D13*
X162822200Y-77589800D02*
X166886200Y-77589800D01*
D10*
G36*
X165082800Y-80028200D02*
G01*
X159799600Y-80028200D01*
X159799600Y-79139200D01*
X162771400Y-79139200D01*
X165082800Y-80028200D01*
G37*
G36*
X165946400Y-85844800D02*
G01*
X159850400Y-85844800D01*
X159850400Y-80028200D01*
X165946400Y-80028200D01*
X165946400Y-85844800D01*
G37*
X165946400Y-85844800D02*
X159850400Y-85844800D01*
X159850400Y-80028200D01*
X165946400Y-80028200D01*
X165946400Y-85844800D01*
D13*
X143177800Y-88410200D02*
X139113800Y-88410200D01*
D10*
G36*
X140917200Y-85971800D02*
G01*
X146200400Y-85971800D01*
X146200400Y-86860800D01*
X143228600Y-86860800D01*
X140917200Y-85971800D01*
G37*
G36*
X140053600Y-80155200D02*
G01*
X146149600Y-80155200D01*
X146149600Y-85971800D01*
X140053600Y-85971800D01*
X140053600Y-80155200D01*
G37*
X140053600Y-80155200D02*
X146149600Y-80155200D01*
X146149600Y-85971800D01*
X140053600Y-85971800D01*
X140053600Y-80155200D01*
D13*
X122822200Y-77589800D02*
X126886200Y-77589800D01*
D10*
G36*
X125082800Y-80028200D02*
G01*
X119799600Y-80028200D01*
X119799600Y-79139200D01*
X122771400Y-79139200D01*
X125082800Y-80028200D01*
G37*
G36*
X125946400Y-85844800D02*
G01*
X119850400Y-85844800D01*
X119850400Y-80028200D01*
X125946400Y-80028200D01*
X125946400Y-85844800D01*
G37*
X125946400Y-85844800D02*
X119850400Y-85844800D01*
X119850400Y-80028200D01*
X125946400Y-80028200D01*
X125946400Y-85844800D01*
D13*
X103177800Y-88410200D02*
X99113800Y-88410200D01*
D10*
G36*
X100917200Y-85971800D02*
G01*
X106200400Y-85971800D01*
X106200400Y-86860800D01*
X103228600Y-86860800D01*
X100917200Y-85971800D01*
G37*
G36*
X100053600Y-80155200D02*
G01*
X106149600Y-80155200D01*
X106149600Y-85971800D01*
X100053600Y-85971800D01*
X100053600Y-80155200D01*
G37*
X100053600Y-80155200D02*
X106149600Y-80155200D01*
X106149600Y-85971800D01*
X100053600Y-85971800D01*
X100053600Y-80155200D01*
D13*
X82822200Y-77589800D02*
X86886200Y-77589800D01*
D10*
G36*
X85082800Y-80028200D02*
G01*
X79799600Y-80028200D01*
X79799600Y-79139200D01*
X82771400Y-79139200D01*
X85082800Y-80028200D01*
G37*
G36*
X85946400Y-85844800D02*
G01*
X79850400Y-85844800D01*
X79850400Y-80028200D01*
X85946400Y-80028200D01*
X85946400Y-85844800D01*
G37*
X85946400Y-85844800D02*
X79850400Y-85844800D01*
X79850400Y-80028200D01*
X85946400Y-80028200D01*
X85946400Y-85844800D01*
D13*
X63177800Y-88410200D02*
X59113800Y-88410200D01*
D10*
G36*
X60917200Y-85971800D02*
G01*
X66200400Y-85971800D01*
X66200400Y-86860800D01*
X63228600Y-86860800D01*
X60917200Y-85971800D01*
G37*
G36*
X60053600Y-80155200D02*
G01*
X66149600Y-80155200D01*
X66149600Y-85971800D01*
X60053600Y-85971800D01*
X60053600Y-80155200D01*
G37*
X60053600Y-80155200D02*
X66149600Y-80155200D01*
X66149600Y-85971800D01*
X60053600Y-85971800D01*
X60053600Y-80155200D01*
D13*
X42822200Y-77589800D02*
X46886200Y-77589800D01*
D10*
G36*
X45082800Y-80028200D02*
G01*
X39799600Y-80028200D01*
X39799600Y-79139200D01*
X42771400Y-79139200D01*
X45082800Y-80028200D01*
G37*
G36*
X45946400Y-85844800D02*
G01*
X39850400Y-85844800D01*
X39850400Y-80028200D01*
X45946400Y-80028200D01*
X45946400Y-85844800D01*
G37*
X45946400Y-85844800D02*
X39850400Y-85844800D01*
X39850400Y-80028200D01*
X45946400Y-80028200D01*
X45946400Y-85844800D01*
D13*
X22936200Y-77647800D02*
X27000200Y-77647800D01*
D10*
G36*
X25196800Y-80086200D02*
G01*
X19913600Y-80086200D01*
X19913600Y-79197200D01*
X22885400Y-79197200D01*
X25196800Y-80086200D01*
G37*
G36*
X26060400Y-85902800D02*
G01*
X19964400Y-85902800D01*
X19964400Y-80086200D01*
X26060400Y-80086200D01*
X26060400Y-85902800D01*
G37*
X26060400Y-85902800D02*
X19964400Y-85902800D01*
X19964400Y-80086200D01*
X26060400Y-80086200D01*
X26060400Y-85902800D01*
D13*
X263177800Y-68410200D02*
X259113800Y-68410200D01*
D10*
G36*
X260917200Y-65971800D02*
G01*
X266200400Y-65971800D01*
X266200400Y-66860800D01*
X263228600Y-66860800D01*
X260917200Y-65971800D01*
G37*
G36*
X260053600Y-60155200D02*
G01*
X266149600Y-60155200D01*
X266149600Y-65971800D01*
X260053600Y-65971800D01*
X260053600Y-60155200D01*
G37*
X260053600Y-60155200D02*
X266149600Y-60155200D01*
X266149600Y-65971800D01*
X260053600Y-65971800D01*
X260053600Y-60155200D01*
D13*
X242822200Y-57589800D02*
X246886200Y-57589800D01*
D10*
G36*
X245082800Y-60028200D02*
G01*
X239799600Y-60028200D01*
X239799600Y-59139200D01*
X242771400Y-59139200D01*
X245082800Y-60028200D01*
G37*
G36*
X245946400Y-65844800D02*
G01*
X239850400Y-65844800D01*
X239850400Y-60028200D01*
X245946400Y-60028200D01*
X245946400Y-65844800D01*
G37*
X245946400Y-65844800D02*
X239850400Y-65844800D01*
X239850400Y-60028200D01*
X245946400Y-60028200D01*
X245946400Y-65844800D01*
D13*
X223177800Y-68410200D02*
X219113800Y-68410200D01*
D10*
G36*
X220917200Y-65971800D02*
G01*
X226200400Y-65971800D01*
X226200400Y-66860800D01*
X223228600Y-66860800D01*
X220917200Y-65971800D01*
G37*
G36*
X220053600Y-60155200D02*
G01*
X226149600Y-60155200D01*
X226149600Y-65971800D01*
X220053600Y-65971800D01*
X220053600Y-60155200D01*
G37*
X220053600Y-60155200D02*
X226149600Y-60155200D01*
X226149600Y-65971800D01*
X220053600Y-65971800D01*
X220053600Y-60155200D01*
D13*
X202822200Y-57589800D02*
X206886200Y-57589800D01*
D10*
G36*
X205082800Y-60028200D02*
G01*
X199799600Y-60028200D01*
X199799600Y-59139200D01*
X202771400Y-59139200D01*
X205082800Y-60028200D01*
G37*
G36*
X205946400Y-65844800D02*
G01*
X199850400Y-65844800D01*
X199850400Y-60028200D01*
X205946400Y-60028200D01*
X205946400Y-65844800D01*
G37*
X205946400Y-65844800D02*
X199850400Y-65844800D01*
X199850400Y-60028200D01*
X205946400Y-60028200D01*
X205946400Y-65844800D01*
D13*
X183177800Y-68410200D02*
X179113800Y-68410200D01*
D10*
G36*
X180917200Y-65971800D02*
G01*
X186200400Y-65971800D01*
X186200400Y-66860800D01*
X183228600Y-66860800D01*
X180917200Y-65971800D01*
G37*
G36*
X180053600Y-60155200D02*
G01*
X186149600Y-60155200D01*
X186149600Y-65971800D01*
X180053600Y-65971800D01*
X180053600Y-60155200D01*
G37*
X180053600Y-60155200D02*
X186149600Y-60155200D01*
X186149600Y-65971800D01*
X180053600Y-65971800D01*
X180053600Y-60155200D01*
D13*
X162822200Y-57589800D02*
X166886200Y-57589800D01*
D10*
G36*
X165082800Y-60028200D02*
G01*
X159799600Y-60028200D01*
X159799600Y-59139200D01*
X162771400Y-59139200D01*
X165082800Y-60028200D01*
G37*
G36*
X165946400Y-65844800D02*
G01*
X159850400Y-65844800D01*
X159850400Y-60028200D01*
X165946400Y-60028200D01*
X165946400Y-65844800D01*
G37*
X165946400Y-65844800D02*
X159850400Y-65844800D01*
X159850400Y-60028200D01*
X165946400Y-60028200D01*
X165946400Y-65844800D01*
D13*
X143177800Y-68410200D02*
X139113800Y-68410200D01*
D10*
G36*
X140917200Y-65971800D02*
G01*
X146200400Y-65971800D01*
X146200400Y-66860800D01*
X143228600Y-66860800D01*
X140917200Y-65971800D01*
G37*
G36*
X140053600Y-60155200D02*
G01*
X146149600Y-60155200D01*
X146149600Y-65971800D01*
X140053600Y-65971800D01*
X140053600Y-60155200D01*
G37*
X140053600Y-60155200D02*
X146149600Y-60155200D01*
X146149600Y-65971800D01*
X140053600Y-65971800D01*
X140053600Y-60155200D01*
D13*
X122822200Y-57589800D02*
X126886200Y-57589800D01*
D10*
G36*
X125082800Y-60028200D02*
G01*
X119799600Y-60028200D01*
X119799600Y-59139200D01*
X122771400Y-59139200D01*
X125082800Y-60028200D01*
G37*
G36*
X125946400Y-65844800D02*
G01*
X119850400Y-65844800D01*
X119850400Y-60028200D01*
X125946400Y-60028200D01*
X125946400Y-65844800D01*
G37*
X125946400Y-65844800D02*
X119850400Y-65844800D01*
X119850400Y-60028200D01*
X125946400Y-60028200D01*
X125946400Y-65844800D01*
D13*
X103177800Y-68410200D02*
X99113800Y-68410200D01*
D10*
G36*
X100917200Y-65971800D02*
G01*
X106200400Y-65971800D01*
X106200400Y-66860800D01*
X103228600Y-66860800D01*
X100917200Y-65971800D01*
G37*
G36*
X100053600Y-60155200D02*
G01*
X106149600Y-60155200D01*
X106149600Y-65971800D01*
X100053600Y-65971800D01*
X100053600Y-60155200D01*
G37*
X100053600Y-60155200D02*
X106149600Y-60155200D01*
X106149600Y-65971800D01*
X100053600Y-65971800D01*
X100053600Y-60155200D01*
D13*
X82822200Y-57589800D02*
X86886200Y-57589800D01*
D10*
G36*
X85082800Y-60028200D02*
G01*
X79799600Y-60028200D01*
X79799600Y-59139200D01*
X82771400Y-59139200D01*
X85082800Y-60028200D01*
G37*
G36*
X85946400Y-65844800D02*
G01*
X79850400Y-65844800D01*
X79850400Y-60028200D01*
X85946400Y-60028200D01*
X85946400Y-65844800D01*
G37*
X85946400Y-65844800D02*
X79850400Y-65844800D01*
X79850400Y-60028200D01*
X85946400Y-60028200D01*
X85946400Y-65844800D01*
D13*
X62857800Y-68340200D02*
X58793800Y-68340200D01*
D10*
G36*
X60597200Y-65901800D02*
G01*
X65880400Y-65901800D01*
X65880400Y-66790800D01*
X62908600Y-66790800D01*
X60597200Y-65901800D01*
G37*
G36*
X59733600Y-60085200D02*
G01*
X65829600Y-60085200D01*
X65829600Y-65901800D01*
X59733600Y-65901800D01*
X59733600Y-60085200D01*
G37*
X59733600Y-60085200D02*
X65829600Y-60085200D01*
X65829600Y-65901800D01*
X59733600Y-65901800D01*
X59733600Y-60085200D01*
D13*
X42822200Y-57589800D02*
X46886200Y-57589800D01*
D10*
G36*
X45082800Y-60028200D02*
G01*
X39799600Y-60028200D01*
X39799600Y-59139200D01*
X42771400Y-59139200D01*
X45082800Y-60028200D01*
G37*
G36*
X45946400Y-65844800D02*
G01*
X39850400Y-65844800D01*
X39850400Y-60028200D01*
X45946400Y-60028200D01*
X45946400Y-65844800D01*
G37*
X45946400Y-65844800D02*
X39850400Y-65844800D01*
X39850400Y-60028200D01*
X45946400Y-60028200D01*
X45946400Y-65844800D01*
D13*
X22822200Y-57589800D02*
X26886200Y-57589800D01*
D10*
G36*
X25082800Y-60028200D02*
G01*
X19799600Y-60028200D01*
X19799600Y-59139200D01*
X22771400Y-59139200D01*
X25082800Y-60028200D01*
G37*
G36*
X25946400Y-65844800D02*
G01*
X19850400Y-65844800D01*
X19850400Y-60028200D01*
X25946400Y-60028200D01*
X25946400Y-65844800D01*
G37*
X25946400Y-65844800D02*
X19850400Y-65844800D01*
X19850400Y-60028200D01*
X25946400Y-60028200D01*
X25946400Y-65844800D01*
D13*
X263177800Y-48410200D02*
X259113800Y-48410200D01*
D10*
G36*
X260917200Y-45971800D02*
G01*
X266200400Y-45971800D01*
X266200400Y-46860800D01*
X263228600Y-46860800D01*
X260917200Y-45971800D01*
G37*
G36*
X260053600Y-40155200D02*
G01*
X266149600Y-40155200D01*
X266149600Y-45971800D01*
X260053600Y-45971800D01*
X260053600Y-40155200D01*
G37*
X260053600Y-40155200D02*
X266149600Y-40155200D01*
X266149600Y-45971800D01*
X260053600Y-45971800D01*
X260053600Y-40155200D01*
D13*
X242822200Y-37589800D02*
X246886200Y-37589800D01*
D10*
G36*
X245082800Y-40028200D02*
G01*
X239799600Y-40028200D01*
X239799600Y-39139200D01*
X242771400Y-39139200D01*
X245082800Y-40028200D01*
G37*
G36*
X245946400Y-45844800D02*
G01*
X239850400Y-45844800D01*
X239850400Y-40028200D01*
X245946400Y-40028200D01*
X245946400Y-45844800D01*
G37*
X245946400Y-45844800D02*
X239850400Y-45844800D01*
X239850400Y-40028200D01*
X245946400Y-40028200D01*
X245946400Y-45844800D01*
D13*
X223177800Y-48410200D02*
X219113800Y-48410200D01*
D10*
G36*
X220917200Y-45971800D02*
G01*
X226200400Y-45971800D01*
X226200400Y-46860800D01*
X223228600Y-46860800D01*
X220917200Y-45971800D01*
G37*
G36*
X220053600Y-40155200D02*
G01*
X226149600Y-40155200D01*
X226149600Y-45971800D01*
X220053600Y-45971800D01*
X220053600Y-40155200D01*
G37*
X220053600Y-40155200D02*
X226149600Y-40155200D01*
X226149600Y-45971800D01*
X220053600Y-45971800D01*
X220053600Y-40155200D01*
D13*
X202822200Y-37589800D02*
X206886200Y-37589800D01*
D10*
G36*
X205082800Y-40028200D02*
G01*
X199799600Y-40028200D01*
X199799600Y-39139200D01*
X202771400Y-39139200D01*
X205082800Y-40028200D01*
G37*
G36*
X205946400Y-45844800D02*
G01*
X199850400Y-45844800D01*
X199850400Y-40028200D01*
X205946400Y-40028200D01*
X205946400Y-45844800D01*
G37*
X205946400Y-45844800D02*
X199850400Y-45844800D01*
X199850400Y-40028200D01*
X205946400Y-40028200D01*
X205946400Y-45844800D01*
D13*
X183177800Y-48410200D02*
X179113800Y-48410200D01*
D10*
G36*
X180917200Y-45971800D02*
G01*
X186200400Y-45971800D01*
X186200400Y-46860800D01*
X183228600Y-46860800D01*
X180917200Y-45971800D01*
G37*
G36*
X180053600Y-40155200D02*
G01*
X186149600Y-40155200D01*
X186149600Y-45971800D01*
X180053600Y-45971800D01*
X180053600Y-40155200D01*
G37*
X180053600Y-40155200D02*
X186149600Y-40155200D01*
X186149600Y-45971800D01*
X180053600Y-45971800D01*
X180053600Y-40155200D01*
D13*
X162822200Y-37589800D02*
X166886200Y-37589800D01*
D10*
G36*
X165082800Y-40028200D02*
G01*
X159799600Y-40028200D01*
X159799600Y-39139200D01*
X162771400Y-39139200D01*
X165082800Y-40028200D01*
G37*
G36*
X165946400Y-45844800D02*
G01*
X159850400Y-45844800D01*
X159850400Y-40028200D01*
X165946400Y-40028200D01*
X165946400Y-45844800D01*
G37*
X165946400Y-45844800D02*
X159850400Y-45844800D01*
X159850400Y-40028200D01*
X165946400Y-40028200D01*
X165946400Y-45844800D01*
D13*
X143177800Y-48410200D02*
X139113800Y-48410200D01*
D10*
G36*
X140917200Y-45971800D02*
G01*
X146200400Y-45971800D01*
X146200400Y-46860800D01*
X143228600Y-46860800D01*
X140917200Y-45971800D01*
G37*
G36*
X140053600Y-40155200D02*
G01*
X146149600Y-40155200D01*
X146149600Y-45971800D01*
X140053600Y-45971800D01*
X140053600Y-40155200D01*
G37*
X140053600Y-40155200D02*
X146149600Y-40155200D01*
X146149600Y-45971800D01*
X140053600Y-45971800D01*
X140053600Y-40155200D01*
D13*
X122822200Y-37589800D02*
X126886200Y-37589800D01*
D10*
G36*
X125082800Y-40028200D02*
G01*
X119799600Y-40028200D01*
X119799600Y-39139200D01*
X122771400Y-39139200D01*
X125082800Y-40028200D01*
G37*
G36*
X125946400Y-45844800D02*
G01*
X119850400Y-45844800D01*
X119850400Y-40028200D01*
X125946400Y-40028200D01*
X125946400Y-45844800D01*
G37*
X125946400Y-45844800D02*
X119850400Y-45844800D01*
X119850400Y-40028200D01*
X125946400Y-40028200D01*
X125946400Y-45844800D01*
D13*
X103177800Y-48410200D02*
X99113800Y-48410200D01*
D10*
G36*
X100917200Y-45971800D02*
G01*
X106200400Y-45971800D01*
X106200400Y-46860800D01*
X103228600Y-46860800D01*
X100917200Y-45971800D01*
G37*
G36*
X100053600Y-40155200D02*
G01*
X106149600Y-40155200D01*
X106149600Y-45971800D01*
X100053600Y-45971800D01*
X100053600Y-40155200D01*
G37*
X100053600Y-40155200D02*
X106149600Y-40155200D01*
X106149600Y-45971800D01*
X100053600Y-45971800D01*
X100053600Y-40155200D01*
D13*
X82822200Y-37589800D02*
X86886200Y-37589800D01*
D10*
G36*
X85082800Y-40028200D02*
G01*
X79799600Y-40028200D01*
X79799600Y-39139200D01*
X82771400Y-39139200D01*
X85082800Y-40028200D01*
G37*
G36*
X85946400Y-45844800D02*
G01*
X79850400Y-45844800D01*
X79850400Y-40028200D01*
X85946400Y-40028200D01*
X85946400Y-45844800D01*
G37*
X85946400Y-45844800D02*
X79850400Y-45844800D01*
X79850400Y-40028200D01*
X85946400Y-40028200D01*
X85946400Y-45844800D01*
D13*
X62857800Y-49290200D02*
X58793800Y-49290200D01*
D10*
G36*
X60597200Y-46851800D02*
G01*
X65880400Y-46851800D01*
X65880400Y-47740800D01*
X62908600Y-47740800D01*
X60597200Y-46851800D01*
G37*
G36*
X59733600Y-41035200D02*
G01*
X65829600Y-41035200D01*
X65829600Y-46851800D01*
X59733600Y-46851800D01*
X59733600Y-41035200D01*
G37*
X59733600Y-41035200D02*
X65829600Y-41035200D01*
X65829600Y-46851800D01*
X59733600Y-46851800D01*
X59733600Y-41035200D01*
D13*
X42822200Y-37589800D02*
X46886200Y-37589800D01*
D10*
G36*
X45082800Y-40028200D02*
G01*
X39799600Y-40028200D01*
X39799600Y-39139200D01*
X42771400Y-39139200D01*
X45082800Y-40028200D01*
G37*
G36*
X45946400Y-45844800D02*
G01*
X39850400Y-45844800D01*
X39850400Y-40028200D01*
X45946400Y-40028200D01*
X45946400Y-45844800D01*
G37*
X45946400Y-45844800D02*
X39850400Y-45844800D01*
X39850400Y-40028200D01*
X45946400Y-40028200D01*
X45946400Y-45844800D01*
D13*
X22822200Y-37589800D02*
X26886200Y-37589800D01*
D10*
G36*
X25082800Y-40028200D02*
G01*
X19799600Y-40028200D01*
X19799600Y-39139200D01*
X22771400Y-39139200D01*
X25082800Y-40028200D01*
G37*
G36*
X25946400Y-45844800D02*
G01*
X19850400Y-45844800D01*
X19850400Y-40028200D01*
X25946400Y-40028200D01*
X25946400Y-45844800D01*
G37*
X25946400Y-45844800D02*
X19850400Y-45844800D01*
X19850400Y-40028200D01*
X25946400Y-40028200D01*
X25946400Y-45844800D01*
D13*
X263177800Y-28410200D02*
X259113800Y-28410200D01*
D10*
G36*
X260917200Y-25971800D02*
G01*
X266200400Y-25971800D01*
X266200400Y-26860800D01*
X263228600Y-26860800D01*
X260917200Y-25971800D01*
G37*
G36*
X260053600Y-20155200D02*
G01*
X266149600Y-20155200D01*
X266149600Y-25971800D01*
X260053600Y-25971800D01*
X260053600Y-20155200D01*
G37*
X260053600Y-20155200D02*
X266149600Y-20155200D01*
X266149600Y-25971800D01*
X260053600Y-25971800D01*
X260053600Y-20155200D01*
D13*
X242822200Y-17589800D02*
X246886200Y-17589800D01*
D10*
G36*
X245082800Y-20028200D02*
G01*
X239799600Y-20028200D01*
X239799600Y-19139200D01*
X242771400Y-19139200D01*
X245082800Y-20028200D01*
G37*
G36*
X245946400Y-25844800D02*
G01*
X239850400Y-25844800D01*
X239850400Y-20028200D01*
X245946400Y-20028200D01*
X245946400Y-25844800D01*
G37*
X245946400Y-25844800D02*
X239850400Y-25844800D01*
X239850400Y-20028200D01*
X245946400Y-20028200D01*
X245946400Y-25844800D01*
D13*
X223177800Y-28410200D02*
X219113800Y-28410200D01*
D10*
G36*
X220917200Y-25971800D02*
G01*
X226200400Y-25971800D01*
X226200400Y-26860800D01*
X223228600Y-26860800D01*
X220917200Y-25971800D01*
G37*
G36*
X220053600Y-20155200D02*
G01*
X226149600Y-20155200D01*
X226149600Y-25971800D01*
X220053600Y-25971800D01*
X220053600Y-20155200D01*
G37*
X220053600Y-20155200D02*
X226149600Y-20155200D01*
X226149600Y-25971800D01*
X220053600Y-25971800D01*
X220053600Y-20155200D01*
D13*
X202822200Y-17589800D02*
X206886200Y-17589800D01*
D10*
G36*
X205082800Y-20028200D02*
G01*
X199799600Y-20028200D01*
X199799600Y-19139200D01*
X202771400Y-19139200D01*
X205082800Y-20028200D01*
G37*
G36*
X205946400Y-25844800D02*
G01*
X199850400Y-25844800D01*
X199850400Y-20028200D01*
X205946400Y-20028200D01*
X205946400Y-25844800D01*
G37*
X205946400Y-25844800D02*
X199850400Y-25844800D01*
X199850400Y-20028200D01*
X205946400Y-20028200D01*
X205946400Y-25844800D01*
D13*
X183177800Y-28410200D02*
X179113800Y-28410200D01*
D10*
G36*
X180917200Y-25971800D02*
G01*
X186200400Y-25971800D01*
X186200400Y-26860800D01*
X183228600Y-26860800D01*
X180917200Y-25971800D01*
G37*
G36*
X180053600Y-20155200D02*
G01*
X186149600Y-20155200D01*
X186149600Y-25971800D01*
X180053600Y-25971800D01*
X180053600Y-20155200D01*
G37*
X180053600Y-20155200D02*
X186149600Y-20155200D01*
X186149600Y-25971800D01*
X180053600Y-25971800D01*
X180053600Y-20155200D01*
D13*
X162822200Y-17589800D02*
X166886200Y-17589800D01*
D10*
G36*
X165082800Y-20028200D02*
G01*
X159799600Y-20028200D01*
X159799600Y-19139200D01*
X162771400Y-19139200D01*
X165082800Y-20028200D01*
G37*
G36*
X165946400Y-25844800D02*
G01*
X159850400Y-25844800D01*
X159850400Y-20028200D01*
X165946400Y-20028200D01*
X165946400Y-25844800D01*
G37*
X165946400Y-25844800D02*
X159850400Y-25844800D01*
X159850400Y-20028200D01*
X165946400Y-20028200D01*
X165946400Y-25844800D01*
D13*
X143177800Y-28410200D02*
X139113800Y-28410200D01*
D10*
G36*
X140917200Y-25971800D02*
G01*
X146200400Y-25971800D01*
X146200400Y-26860800D01*
X143228600Y-26860800D01*
X140917200Y-25971800D01*
G37*
G36*
X140053600Y-20155200D02*
G01*
X146149600Y-20155200D01*
X146149600Y-25971800D01*
X140053600Y-25971800D01*
X140053600Y-20155200D01*
G37*
X140053600Y-20155200D02*
X146149600Y-20155200D01*
X146149600Y-25971800D01*
X140053600Y-25971800D01*
X140053600Y-20155200D01*
D13*
X122822200Y-17589800D02*
X126886200Y-17589800D01*
D10*
G36*
X125082800Y-20028200D02*
G01*
X119799600Y-20028200D01*
X119799600Y-19139200D01*
X122771400Y-19139200D01*
X125082800Y-20028200D01*
G37*
G36*
X125946400Y-25844800D02*
G01*
X119850400Y-25844800D01*
X119850400Y-20028200D01*
X125946400Y-20028200D01*
X125946400Y-25844800D01*
G37*
X125946400Y-25844800D02*
X119850400Y-25844800D01*
X119850400Y-20028200D01*
X125946400Y-20028200D01*
X125946400Y-25844800D01*
D13*
X103177800Y-28410200D02*
X99113800Y-28410200D01*
D10*
G36*
X100917200Y-25971800D02*
G01*
X106200400Y-25971800D01*
X106200400Y-26860800D01*
X103228600Y-26860800D01*
X100917200Y-25971800D01*
G37*
G36*
X100053600Y-20155200D02*
G01*
X106149600Y-20155200D01*
X106149600Y-25971800D01*
X100053600Y-25971800D01*
X100053600Y-20155200D01*
G37*
X100053600Y-20155200D02*
X106149600Y-20155200D01*
X106149600Y-25971800D01*
X100053600Y-25971800D01*
X100053600Y-20155200D01*
D13*
X82822200Y-17589800D02*
X86886200Y-17589800D01*
D10*
G36*
X85082800Y-20028200D02*
G01*
X79799600Y-20028200D01*
X79799600Y-19139200D01*
X82771400Y-19139200D01*
X85082800Y-20028200D01*
G37*
G36*
X85946400Y-25844800D02*
G01*
X79850400Y-25844800D01*
X79850400Y-20028200D01*
X85946400Y-20028200D01*
X85946400Y-25844800D01*
G37*
X85946400Y-25844800D02*
X79850400Y-25844800D01*
X79850400Y-20028200D01*
X85946400Y-20028200D01*
X85946400Y-25844800D01*
D13*
X63177800Y-28410200D02*
X59113800Y-28410200D01*
D10*
G36*
X60917200Y-25971800D02*
G01*
X66200400Y-25971800D01*
X66200400Y-26860800D01*
X63228600Y-26860800D01*
X60917200Y-25971800D01*
G37*
G36*
X60053600Y-20155200D02*
G01*
X66149600Y-20155200D01*
X66149600Y-25971800D01*
X60053600Y-25971800D01*
X60053600Y-20155200D01*
G37*
X60053600Y-20155200D02*
X66149600Y-20155200D01*
X66149600Y-25971800D01*
X60053600Y-25971800D01*
X60053600Y-20155200D01*
D13*
X42822200Y-17589800D02*
X46886200Y-17589800D01*
D10*
G36*
X45082800Y-20028200D02*
G01*
X39799600Y-20028200D01*
X39799600Y-19139200D01*
X42771400Y-19139200D01*
X45082800Y-20028200D01*
G37*
G36*
X45946400Y-25844800D02*
G01*
X39850400Y-25844800D01*
X39850400Y-20028200D01*
X45946400Y-20028200D01*
X45946400Y-25844800D01*
G37*
X45946400Y-25844800D02*
X39850400Y-25844800D01*
X39850400Y-20028200D01*
X45946400Y-20028200D01*
X45946400Y-25844800D01*
D14*
X27060749Y-257439251D03*
X24250000Y-256275000D03*
X21439251Y-257439251D03*
X20275000Y-260250000D03*
X21439251Y-263060749D03*
X24250000Y-264225000D03*
X27060749Y-263060749D03*
X28225000Y-260250000D03*
D15*
X24250000Y-260250000D03*
D16*
X144000000Y-261540000D03*
X144000000Y-256460000D03*
X138500000Y-261580000D03*
X138500000Y-256500000D03*
X133500000Y-261540000D03*
X133500000Y-256460000D03*
X128500000Y-262040000D03*
X128500000Y-256960000D03*
X123000000Y-262040000D03*
X123000000Y-256960000D03*
X118000000Y-262040000D03*
X118000000Y-256960000D03*
X113000000Y-262040000D03*
X113000000Y-256960000D03*
D17*
X21323600Y-17666000D03*
X28384800Y-17691400D03*
D18*
X20790200Y-25032000D03*
X22974600Y-25032000D03*
X25159000Y-25057400D03*
X25184400Y-23076200D03*
X20714000Y-22974600D03*
X22974600Y-23000000D03*
X25159000Y-20917200D03*
X22974600Y-20891800D03*
X20764800Y-20891800D03*
D17*
X264676400Y-248334000D03*
X257615200Y-248308600D03*
D18*
X265209800Y-240968000D03*
X263025400Y-240968000D03*
X260841000Y-240942600D03*
X260815600Y-242923800D03*
X265286000Y-243025400D03*
X263025400Y-243000000D03*
X260841000Y-245082800D03*
X263025400Y-245108200D03*
X265235200Y-245108200D03*
D17*
X241323600Y-237666000D03*
X248384800Y-237691400D03*
D18*
X240790200Y-245032000D03*
X242974600Y-245032000D03*
X245159000Y-245057400D03*
X245184400Y-243076200D03*
X240714000Y-242974600D03*
X242974600Y-243000000D03*
X245159000Y-240917200D03*
X242974600Y-240891800D03*
X240764800Y-240891800D03*
D17*
X224676400Y-248334000D03*
X217615200Y-248308600D03*
D18*
X225209800Y-240968000D03*
X223025400Y-240968000D03*
X220841000Y-240942600D03*
X220815600Y-242923800D03*
X225286000Y-243025400D03*
X223025400Y-243000000D03*
X220841000Y-245082800D03*
X223025400Y-245108200D03*
X225235200Y-245108200D03*
D17*
X201323600Y-237666000D03*
X208384800Y-237691400D03*
D18*
X200790200Y-245032000D03*
X202974600Y-245032000D03*
X205159000Y-245057400D03*
X205184400Y-243076200D03*
X200714000Y-242974600D03*
X202974600Y-243000000D03*
X205159000Y-240917200D03*
X202974600Y-240891800D03*
X200764800Y-240891800D03*
D17*
X184676400Y-248334000D03*
X177615200Y-248308600D03*
D18*
X185209800Y-240968000D03*
X183025400Y-240968000D03*
X180841000Y-240942600D03*
X180815600Y-242923800D03*
X185286000Y-243025400D03*
X183025400Y-243000000D03*
X180841000Y-245082800D03*
X183025400Y-245108200D03*
X185235200Y-245108200D03*
D17*
X161323600Y-237666000D03*
X168384800Y-237691400D03*
D18*
X160790200Y-245032000D03*
X162974600Y-245032000D03*
X165159000Y-245057400D03*
X165184400Y-243076200D03*
X160714000Y-242974600D03*
X162974600Y-243000000D03*
X165159000Y-240917200D03*
X162974600Y-240891800D03*
X160764800Y-240891800D03*
D17*
X144676400Y-248334000D03*
X137615200Y-248308600D03*
D18*
X145209800Y-240968000D03*
X143025400Y-240968000D03*
X140841000Y-240942600D03*
X140815600Y-242923800D03*
X145286000Y-243025400D03*
X143025400Y-243000000D03*
X140841000Y-245082800D03*
X143025400Y-245108200D03*
X145235200Y-245108200D03*
D17*
X121323600Y-237666000D03*
X128384800Y-237691400D03*
D18*
X120790200Y-245032000D03*
X122974600Y-245032000D03*
X125159000Y-245057400D03*
X125184400Y-243076200D03*
X120714000Y-242974600D03*
X122974600Y-243000000D03*
X125159000Y-240917200D03*
X122974600Y-240891800D03*
X120764800Y-240891800D03*
D17*
X104676400Y-248334000D03*
X97615200Y-248308600D03*
D18*
X105209800Y-240968000D03*
X103025400Y-240968000D03*
X100841000Y-240942600D03*
X100815600Y-242923800D03*
X105286000Y-243025400D03*
X103025400Y-243000000D03*
X100841000Y-245082800D03*
X103025400Y-245108200D03*
X105235200Y-245108200D03*
D17*
X81323600Y-237666000D03*
X88384800Y-237691400D03*
D18*
X80790200Y-245032000D03*
X82974600Y-245032000D03*
X85159000Y-245057400D03*
X85184400Y-243076200D03*
X80714000Y-242974600D03*
X82974600Y-243000000D03*
X85159000Y-240917200D03*
X82974600Y-240891800D03*
X80764800Y-240891800D03*
D17*
X64676400Y-248334000D03*
X57615200Y-248308600D03*
D18*
X65209800Y-240968000D03*
X63025400Y-240968000D03*
X60841000Y-240942600D03*
X60815600Y-242923800D03*
X65286000Y-243025400D03*
X63025400Y-243000000D03*
X60841000Y-245082800D03*
X63025400Y-245108200D03*
X65235200Y-245108200D03*
D17*
X41323600Y-237666000D03*
X48384800Y-237691400D03*
D18*
X40790200Y-245032000D03*
X42974600Y-245032000D03*
X45159000Y-245057400D03*
X45184400Y-243076200D03*
X40714000Y-242974600D03*
X42974600Y-243000000D03*
X45159000Y-240917200D03*
X42974600Y-240891800D03*
X40764800Y-240891800D03*
D17*
X21323600Y-237666000D03*
X28384800Y-237691400D03*
D18*
X20790200Y-245032000D03*
X22974600Y-245032000D03*
X25159000Y-245057400D03*
X25184400Y-243076200D03*
X20714000Y-242974600D03*
X22974600Y-243000000D03*
X25159000Y-240917200D03*
X22974600Y-240891800D03*
X20764800Y-240891800D03*
D17*
X264676400Y-228334000D03*
X257615200Y-228308600D03*
D18*
X265209800Y-220968000D03*
X263025400Y-220968000D03*
X260841000Y-220942600D03*
X260815600Y-222923800D03*
X265286000Y-223025400D03*
X263025400Y-223000000D03*
X260841000Y-225082800D03*
X263025400Y-225108200D03*
X265235200Y-225108200D03*
D17*
X241323600Y-217666000D03*
X248384800Y-217691400D03*
D18*
X240790200Y-225032000D03*
X242974600Y-225032000D03*
X245159000Y-225057400D03*
X245184400Y-223076200D03*
X240714000Y-222974600D03*
X242974600Y-223000000D03*
X245159000Y-220917200D03*
X242974600Y-220891800D03*
X240764800Y-220891800D03*
D17*
X224676400Y-228334000D03*
X217615200Y-228308600D03*
D18*
X225209800Y-220968000D03*
X223025400Y-220968000D03*
X220841000Y-220942600D03*
X220815600Y-222923800D03*
X225286000Y-223025400D03*
X223025400Y-223000000D03*
X220841000Y-225082800D03*
X223025400Y-225108200D03*
X225235200Y-225108200D03*
D17*
X201323600Y-217666000D03*
X208384800Y-217691400D03*
D18*
X200790200Y-225032000D03*
X202974600Y-225032000D03*
X205159000Y-225057400D03*
X205184400Y-223076200D03*
X200714000Y-222974600D03*
X202974600Y-223000000D03*
X205159000Y-220917200D03*
X202974600Y-220891800D03*
X200764800Y-220891800D03*
D17*
X184676400Y-228334000D03*
X177615200Y-228308600D03*
D18*
X185209800Y-220968000D03*
X183025400Y-220968000D03*
X180841000Y-220942600D03*
X180815600Y-222923800D03*
X185286000Y-223025400D03*
X183025400Y-223000000D03*
X180841000Y-225082800D03*
X183025400Y-225108200D03*
X185235200Y-225108200D03*
D17*
X161323600Y-217666000D03*
X168384800Y-217691400D03*
D18*
X160790200Y-225032000D03*
X162974600Y-225032000D03*
X165159000Y-225057400D03*
X165184400Y-223076200D03*
X160714000Y-222974600D03*
X162974600Y-223000000D03*
X165159000Y-220917200D03*
X162974600Y-220891800D03*
X160764800Y-220891800D03*
D17*
X144676400Y-228334000D03*
X137615200Y-228308600D03*
D18*
X145209800Y-220968000D03*
X143025400Y-220968000D03*
X140841000Y-220942600D03*
X140815600Y-222923800D03*
X145286000Y-223025400D03*
X143025400Y-223000000D03*
X140841000Y-225082800D03*
X143025400Y-225108200D03*
X145235200Y-225108200D03*
D17*
X121323600Y-217666000D03*
X128384800Y-217691400D03*
D18*
X120790200Y-225032000D03*
X122974600Y-225032000D03*
X125159000Y-225057400D03*
X125184400Y-223076200D03*
X120714000Y-222974600D03*
X122974600Y-223000000D03*
X125159000Y-220917200D03*
X122974600Y-220891800D03*
X120764800Y-220891800D03*
D17*
X104676400Y-228334000D03*
X97615200Y-228308600D03*
D18*
X105209800Y-220968000D03*
X103025400Y-220968000D03*
X100841000Y-220942600D03*
X100815600Y-222923800D03*
X105286000Y-223025400D03*
X103025400Y-223000000D03*
X100841000Y-225082800D03*
X103025400Y-225108200D03*
X105235200Y-225108200D03*
D17*
X81323600Y-217666000D03*
X88384800Y-217691400D03*
D18*
X80790200Y-225032000D03*
X82974600Y-225032000D03*
X85159000Y-225057400D03*
X85184400Y-223076200D03*
X80714000Y-222974600D03*
X82974600Y-223000000D03*
X85159000Y-220917200D03*
X82974600Y-220891800D03*
X80764800Y-220891800D03*
D17*
X64676400Y-228334000D03*
X57615200Y-228308600D03*
D18*
X65209800Y-220968000D03*
X63025400Y-220968000D03*
X60841000Y-220942600D03*
X60815600Y-222923800D03*
X65286000Y-223025400D03*
X63025400Y-223000000D03*
X60841000Y-225082800D03*
X63025400Y-225108200D03*
X65235200Y-225108200D03*
D17*
X41323600Y-217666000D03*
X48384800Y-217691400D03*
D18*
X40790200Y-225032000D03*
X42974600Y-225032000D03*
X45159000Y-225057400D03*
X45184400Y-223076200D03*
X40714000Y-222974600D03*
X42974600Y-223000000D03*
X45159000Y-220917200D03*
X42974600Y-220891800D03*
X40764800Y-220891800D03*
D17*
X21323600Y-217666000D03*
X28384800Y-217691400D03*
D18*
X20790200Y-225032000D03*
X22974600Y-225032000D03*
X25159000Y-225057400D03*
X25184400Y-223076200D03*
X20714000Y-222974600D03*
X22974600Y-223000000D03*
X25159000Y-220917200D03*
X22974600Y-220891800D03*
X20764800Y-220891800D03*
D17*
X264676400Y-208334000D03*
X257615200Y-208308600D03*
D18*
X265209800Y-200968000D03*
X263025400Y-200968000D03*
X260841000Y-200942600D03*
X260815600Y-202923800D03*
X265286000Y-203025400D03*
X263025400Y-203000000D03*
X260841000Y-205082800D03*
X263025400Y-205108200D03*
X265235200Y-205108200D03*
D17*
X241323600Y-197666000D03*
X248384800Y-197691400D03*
D18*
X240790200Y-205032000D03*
X242974600Y-205032000D03*
X245159000Y-205057400D03*
X245184400Y-203076200D03*
X240714000Y-202974600D03*
X242974600Y-203000000D03*
X245159000Y-200917200D03*
X242974600Y-200891800D03*
X240764800Y-200891800D03*
D17*
X224676400Y-208334000D03*
X217615200Y-208308600D03*
D18*
X225209800Y-200968000D03*
X223025400Y-200968000D03*
X220841000Y-200942600D03*
X220815600Y-202923800D03*
X225286000Y-203025400D03*
X223025400Y-203000000D03*
X220841000Y-205082800D03*
X223025400Y-205108200D03*
X225235200Y-205108200D03*
D17*
X201323600Y-197666000D03*
X208384800Y-197691400D03*
D18*
X200790200Y-205032000D03*
X202974600Y-205032000D03*
X205159000Y-205057400D03*
X205184400Y-203076200D03*
X200714000Y-202974600D03*
X202974600Y-203000000D03*
X205159000Y-200917200D03*
X202974600Y-200891800D03*
X200764800Y-200891800D03*
D17*
X184676400Y-208334000D03*
X177615200Y-208308600D03*
D18*
X185209800Y-200968000D03*
X183025400Y-200968000D03*
X180841000Y-200942600D03*
X180815600Y-202923800D03*
X185286000Y-203025400D03*
X183025400Y-203000000D03*
X180841000Y-205082800D03*
X183025400Y-205108200D03*
X185235200Y-205108200D03*
D17*
X161137600Y-197612000D03*
X168198800Y-197637400D03*
D18*
X160604200Y-204978000D03*
X162788600Y-204978000D03*
X164973000Y-205003400D03*
X164998400Y-203022200D03*
X160528000Y-202920600D03*
X162788600Y-202946000D03*
X164973000Y-200863200D03*
X162788600Y-200837800D03*
X160578800Y-200837800D03*
D17*
X144424400Y-208026000D03*
X137363200Y-208000600D03*
D18*
X144957800Y-200660000D03*
X142773400Y-200660000D03*
X140589000Y-200634600D03*
X140563600Y-202615800D03*
X145034000Y-202717400D03*
X142773400Y-202692000D03*
X140589000Y-204774800D03*
X142773400Y-204800200D03*
X144983200Y-204800200D03*
D17*
X121513600Y-197866000D03*
X128574800Y-197891400D03*
D18*
X120980200Y-205232000D03*
X123164600Y-205232000D03*
X125349000Y-205257400D03*
X125374400Y-203276200D03*
X120904000Y-203174600D03*
X123164600Y-203200000D03*
X125349000Y-201117200D03*
X123164600Y-201091800D03*
X120954800Y-201091800D03*
D17*
X104676400Y-208334000D03*
X97615200Y-208308600D03*
D18*
X105209800Y-200968000D03*
X103025400Y-200968000D03*
X100841000Y-200942600D03*
X100815600Y-202923800D03*
X105286000Y-203025400D03*
X103025400Y-203000000D03*
X100841000Y-205082800D03*
X103025400Y-205108200D03*
X105235200Y-205108200D03*
D17*
X81323600Y-197666000D03*
X88384800Y-197691400D03*
D18*
X80790200Y-205032000D03*
X82974600Y-205032000D03*
X85159000Y-205057400D03*
X85184400Y-203076200D03*
X80714000Y-202974600D03*
X82974600Y-203000000D03*
X85159000Y-200917200D03*
X82974600Y-200891800D03*
X80764800Y-200891800D03*
D17*
X64676400Y-208334000D03*
X57615200Y-208308600D03*
D18*
X65209800Y-200968000D03*
X63025400Y-200968000D03*
X60841000Y-200942600D03*
X60815600Y-202923800D03*
X65286000Y-203025400D03*
X63025400Y-203000000D03*
X60841000Y-205082800D03*
X63025400Y-205108200D03*
X65235200Y-205108200D03*
D17*
X40995600Y-198120000D03*
X48056800Y-198145400D03*
D18*
X40462200Y-205486000D03*
X42646600Y-205486000D03*
X44831000Y-205511400D03*
X44856400Y-203530200D03*
X40386000Y-203428600D03*
X42646600Y-203454000D03*
X44831000Y-201371200D03*
X42646600Y-201345800D03*
X40436800Y-201345800D03*
D17*
X21323600Y-197666000D03*
X28384800Y-197691400D03*
D18*
X20790200Y-205032000D03*
X22974600Y-205032000D03*
X25159000Y-205057400D03*
X25184400Y-203076200D03*
X20714000Y-202974600D03*
X22974600Y-203000000D03*
X25159000Y-200917200D03*
X22974600Y-200891800D03*
X20764800Y-200891800D03*
D17*
X264676400Y-188334000D03*
X257615200Y-188308600D03*
D18*
X265209800Y-180968000D03*
X263025400Y-180968000D03*
X260841000Y-180942600D03*
X260815600Y-182923800D03*
X265286000Y-183025400D03*
X263025400Y-183000000D03*
X260841000Y-185082800D03*
X263025400Y-185108200D03*
X265235200Y-185108200D03*
D17*
X241147600Y-177800000D03*
X248208800Y-177825400D03*
D18*
X240614200Y-185166000D03*
X242798600Y-185166000D03*
X244983000Y-185191400D03*
X245008400Y-183210200D03*
X240538000Y-183108600D03*
X242798600Y-183134000D03*
X244983000Y-181051200D03*
X242798600Y-181025800D03*
X240588800Y-181025800D03*
D17*
X224676400Y-188334000D03*
X217615200Y-188308600D03*
D18*
X225209800Y-180968000D03*
X223025400Y-180968000D03*
X220841000Y-180942600D03*
X220815600Y-182923800D03*
X225286000Y-183025400D03*
X223025400Y-183000000D03*
X220841000Y-185082800D03*
X223025400Y-185108200D03*
X225235200Y-185108200D03*
D17*
X201015600Y-177800000D03*
X208076800Y-177825400D03*
D18*
X200482200Y-185166000D03*
X202666600Y-185166000D03*
X204851000Y-185191400D03*
X204876400Y-183210200D03*
X200406000Y-183108600D03*
X202666600Y-183134000D03*
X204851000Y-181051200D03*
X202666600Y-181025800D03*
X200456800Y-181025800D03*
D17*
X184676400Y-188334000D03*
X177615200Y-188308600D03*
D18*
X185209800Y-180968000D03*
X183025400Y-180968000D03*
X180841000Y-180942600D03*
X180815600Y-182923800D03*
X185286000Y-183025400D03*
X183025400Y-183000000D03*
X180841000Y-185082800D03*
X183025400Y-185108200D03*
X185235200Y-185108200D03*
D17*
X161323600Y-177666000D03*
X168384800Y-177691400D03*
D18*
X160790200Y-185032000D03*
X162974600Y-185032000D03*
X165159000Y-185057400D03*
X165184400Y-183076200D03*
X160714000Y-182974600D03*
X162974600Y-183000000D03*
X165159000Y-180917200D03*
X162974600Y-180891800D03*
X160764800Y-180891800D03*
D17*
X144676400Y-188334000D03*
X137615200Y-188308600D03*
D18*
X145209800Y-180968000D03*
X143025400Y-180968000D03*
X140841000Y-180942600D03*
X140815600Y-182923800D03*
X145286000Y-183025400D03*
X143025400Y-183000000D03*
X140841000Y-185082800D03*
X143025400Y-185108200D03*
X145235200Y-185108200D03*
D17*
X121323600Y-177666000D03*
X128384800Y-177691400D03*
D18*
X120790200Y-185032000D03*
X122974600Y-185032000D03*
X125159000Y-185057400D03*
X125184400Y-183076200D03*
X120714000Y-182974600D03*
X122974600Y-183000000D03*
X125159000Y-180917200D03*
X122974600Y-180891800D03*
X120764800Y-180891800D03*
D17*
X104676400Y-188334000D03*
X97615200Y-188308600D03*
D18*
X105209800Y-180968000D03*
X103025400Y-180968000D03*
X100841000Y-180942600D03*
X100815600Y-182923800D03*
X105286000Y-183025400D03*
X103025400Y-183000000D03*
X100841000Y-185082800D03*
X103025400Y-185108200D03*
X105235200Y-185108200D03*
D17*
X81323600Y-177666000D03*
X88384800Y-177691400D03*
D18*
X80790200Y-185032000D03*
X82974600Y-185032000D03*
X85159000Y-185057400D03*
X85184400Y-183076200D03*
X80714000Y-182974600D03*
X82974600Y-183000000D03*
X85159000Y-180917200D03*
X82974600Y-180891800D03*
X80764800Y-180891800D03*
D17*
X64676400Y-188334000D03*
X57615200Y-188308600D03*
D18*
X65209800Y-180968000D03*
X63025400Y-180968000D03*
X60841000Y-180942600D03*
X60815600Y-182923800D03*
X65286000Y-183025400D03*
X63025400Y-183000000D03*
X60841000Y-185082800D03*
X63025400Y-185108200D03*
X65235200Y-185108200D03*
D17*
X41323600Y-177666000D03*
X48384800Y-177691400D03*
D18*
X40790200Y-185032000D03*
X42974600Y-185032000D03*
X45159000Y-185057400D03*
X45184400Y-183076200D03*
X40714000Y-182974600D03*
X42974600Y-183000000D03*
X45159000Y-180917200D03*
X42974600Y-180891800D03*
X40764800Y-180891800D03*
D17*
X21323600Y-178166000D03*
X28384800Y-178191400D03*
D18*
X20790200Y-185532000D03*
X22974600Y-185532000D03*
X25159000Y-185557400D03*
X25184400Y-183576200D03*
X20714000Y-183474600D03*
X22974600Y-183500000D03*
X25159000Y-181417200D03*
X22974600Y-181391800D03*
X20764800Y-181391800D03*
D17*
X264676400Y-168334000D03*
X257615200Y-168308600D03*
D18*
X265209800Y-160968000D03*
X263025400Y-160968000D03*
X260841000Y-160942600D03*
X260815600Y-162923800D03*
X265286000Y-163025400D03*
X263025400Y-163000000D03*
X260841000Y-165082800D03*
X263025400Y-165108200D03*
X265235200Y-165108200D03*
D17*
X241323600Y-159166000D03*
X248384800Y-159191400D03*
D18*
X240790200Y-166532000D03*
X242974600Y-166532000D03*
X245159000Y-166557400D03*
X245184400Y-164576200D03*
X240714000Y-164474600D03*
X242974600Y-164500000D03*
X245159000Y-162417200D03*
X242974600Y-162391800D03*
X240764800Y-162391800D03*
D17*
X224676400Y-168334000D03*
X217615200Y-168308600D03*
D18*
X225209800Y-160968000D03*
X223025400Y-160968000D03*
X220841000Y-160942600D03*
X220815600Y-162923800D03*
X225286000Y-163025400D03*
X223025400Y-163000000D03*
X220841000Y-165082800D03*
X223025400Y-165108200D03*
X225235200Y-165108200D03*
D17*
X201323600Y-157666000D03*
X208384800Y-157691400D03*
D18*
X200790200Y-165032000D03*
X202974600Y-165032000D03*
X205159000Y-165057400D03*
X205184400Y-163076200D03*
X200714000Y-162974600D03*
X202974600Y-163000000D03*
X205159000Y-160917200D03*
X202974600Y-160891800D03*
X200764800Y-160891800D03*
D17*
X184676400Y-168334000D03*
X177615200Y-168308600D03*
D18*
X185209800Y-160968000D03*
X183025400Y-160968000D03*
X180841000Y-160942600D03*
X180815600Y-162923800D03*
X185286000Y-163025400D03*
X183025400Y-163000000D03*
X180841000Y-165082800D03*
X183025400Y-165108200D03*
X185235200Y-165108200D03*
D17*
X161323600Y-157666000D03*
X168384800Y-157691400D03*
D18*
X160790200Y-165032000D03*
X162974600Y-165032000D03*
X165159000Y-165057400D03*
X165184400Y-163076200D03*
X160714000Y-162974600D03*
X162974600Y-163000000D03*
X165159000Y-160917200D03*
X162974600Y-160891800D03*
X160764800Y-160891800D03*
D17*
X144676400Y-168334000D03*
X137615200Y-168308600D03*
D18*
X145209800Y-160968000D03*
X143025400Y-160968000D03*
X140841000Y-160942600D03*
X140815600Y-162923800D03*
X145286000Y-163025400D03*
X143025400Y-163000000D03*
X140841000Y-165082800D03*
X143025400Y-165108200D03*
X145235200Y-165108200D03*
D17*
X121323600Y-157666000D03*
X128384800Y-157691400D03*
D18*
X120790200Y-165032000D03*
X122974600Y-165032000D03*
X125159000Y-165057400D03*
X125184400Y-163076200D03*
X120714000Y-162974600D03*
X122974600Y-163000000D03*
X125159000Y-160917200D03*
X122974600Y-160891800D03*
X120764800Y-160891800D03*
D17*
X104676400Y-168334000D03*
X97615200Y-168308600D03*
D18*
X105209800Y-160968000D03*
X103025400Y-160968000D03*
X100841000Y-160942600D03*
X100815600Y-162923800D03*
X105286000Y-163025400D03*
X103025400Y-163000000D03*
X100841000Y-165082800D03*
X103025400Y-165108200D03*
X105235200Y-165108200D03*
D17*
X81323600Y-157666000D03*
X88384800Y-157691400D03*
D18*
X80790200Y-165032000D03*
X82974600Y-165032000D03*
X85159000Y-165057400D03*
X85184400Y-163076200D03*
X80714000Y-162974600D03*
X82974600Y-163000000D03*
X85159000Y-160917200D03*
X82974600Y-160891800D03*
X80764800Y-160891800D03*
D17*
X64676400Y-168334000D03*
X57615200Y-168308600D03*
D18*
X65209800Y-160968000D03*
X63025400Y-160968000D03*
X60841000Y-160942600D03*
X60815600Y-162923800D03*
X65286000Y-163025400D03*
X63025400Y-163000000D03*
X60841000Y-165082800D03*
X63025400Y-165108200D03*
X65235200Y-165108200D03*
D17*
X41323600Y-157666000D03*
X48384800Y-157691400D03*
D18*
X40790200Y-165032000D03*
X42974600Y-165032000D03*
X45159000Y-165057400D03*
X45184400Y-163076200D03*
X40714000Y-162974600D03*
X42974600Y-163000000D03*
X45159000Y-160917200D03*
X42974600Y-160891800D03*
X40764800Y-160891800D03*
D17*
X21323600Y-157666000D03*
X28384800Y-157691400D03*
D18*
X20790200Y-165032000D03*
X22974600Y-165032000D03*
X25159000Y-165057400D03*
X25184400Y-163076200D03*
X20714000Y-162974600D03*
X22974600Y-163000000D03*
X25159000Y-160917200D03*
X22974600Y-160891800D03*
X20764800Y-160891800D03*
D17*
X264676400Y-148334000D03*
X257615200Y-148308600D03*
D18*
X265209800Y-140968000D03*
X263025400Y-140968000D03*
X260841000Y-140942600D03*
X260815600Y-142923800D03*
X265286000Y-143025400D03*
X263025400Y-143000000D03*
X260841000Y-145082800D03*
X263025400Y-145108200D03*
X265235200Y-145108200D03*
D17*
X241323600Y-137666000D03*
X248384800Y-137691400D03*
D18*
X240790200Y-145032000D03*
X242974600Y-145032000D03*
X245159000Y-145057400D03*
X245184400Y-143076200D03*
X240714000Y-142974600D03*
X242974600Y-143000000D03*
X245159000Y-140917200D03*
X242974600Y-140891800D03*
X240764800Y-140891800D03*
D17*
X224676400Y-148334000D03*
X217615200Y-148308600D03*
D18*
X225209800Y-140968000D03*
X223025400Y-140968000D03*
X220841000Y-140942600D03*
X220815600Y-142923800D03*
X225286000Y-143025400D03*
X223025400Y-143000000D03*
X220841000Y-145082800D03*
X223025400Y-145108200D03*
X225235200Y-145108200D03*
D17*
X201323600Y-137666000D03*
X208384800Y-137691400D03*
D18*
X200790200Y-145032000D03*
X202974600Y-145032000D03*
X205159000Y-145057400D03*
X205184400Y-143076200D03*
X200714000Y-142974600D03*
X202974600Y-143000000D03*
X205159000Y-140917200D03*
X202974600Y-140891800D03*
X200764800Y-140891800D03*
D17*
X184676400Y-148334000D03*
X177615200Y-148308600D03*
D18*
X185209800Y-140968000D03*
X183025400Y-140968000D03*
X180841000Y-140942600D03*
X180815600Y-142923800D03*
X185286000Y-143025400D03*
X183025400Y-143000000D03*
X180841000Y-145082800D03*
X183025400Y-145108200D03*
X185235200Y-145108200D03*
D17*
X161323600Y-137666000D03*
X168384800Y-137691400D03*
D18*
X160790200Y-145032000D03*
X162974600Y-145032000D03*
X165159000Y-145057400D03*
X165184400Y-143076200D03*
X160714000Y-142974600D03*
X162974600Y-143000000D03*
X165159000Y-140917200D03*
X162974600Y-140891800D03*
X160764800Y-140891800D03*
D17*
X144676400Y-148334000D03*
X137615200Y-148308600D03*
D18*
X145209800Y-140968000D03*
X143025400Y-140968000D03*
X140841000Y-140942600D03*
X140815600Y-142923800D03*
X145286000Y-143025400D03*
X143025400Y-143000000D03*
X140841000Y-145082800D03*
X143025400Y-145108200D03*
X145235200Y-145108200D03*
D17*
X121323600Y-137666000D03*
X128384800Y-137691400D03*
D18*
X120790200Y-145032000D03*
X122974600Y-145032000D03*
X125159000Y-145057400D03*
X125184400Y-143076200D03*
X120714000Y-142974600D03*
X122974600Y-143000000D03*
X125159000Y-140917200D03*
X122974600Y-140891800D03*
X120764800Y-140891800D03*
D17*
X104676400Y-148334000D03*
X97615200Y-148308600D03*
D18*
X105209800Y-140968000D03*
X103025400Y-140968000D03*
X100841000Y-140942600D03*
X100815600Y-142923800D03*
X105286000Y-143025400D03*
X103025400Y-143000000D03*
X100841000Y-145082800D03*
X103025400Y-145108200D03*
X105235200Y-145108200D03*
D17*
X81323600Y-137666000D03*
X88384800Y-137691400D03*
D18*
X80790200Y-145032000D03*
X82974600Y-145032000D03*
X85159000Y-145057400D03*
X85184400Y-143076200D03*
X80714000Y-142974600D03*
X82974600Y-143000000D03*
X85159000Y-140917200D03*
X82974600Y-140891800D03*
X80764800Y-140891800D03*
D17*
X64676400Y-148334000D03*
X57615200Y-148308600D03*
D18*
X65209800Y-140968000D03*
X63025400Y-140968000D03*
X60841000Y-140942600D03*
X60815600Y-142923800D03*
X65286000Y-143025400D03*
X63025400Y-143000000D03*
X60841000Y-145082800D03*
X63025400Y-145108200D03*
X65235200Y-145108200D03*
D17*
X41323600Y-137666000D03*
X48384800Y-137691400D03*
D18*
X40790200Y-145032000D03*
X42974600Y-145032000D03*
X45159000Y-145057400D03*
X45184400Y-143076200D03*
X40714000Y-142974600D03*
X42974600Y-143000000D03*
X45159000Y-140917200D03*
X42974600Y-140891800D03*
X40764800Y-140891800D03*
D17*
X21323600Y-137666000D03*
X28384800Y-137691400D03*
D18*
X20790200Y-145032000D03*
X22974600Y-145032000D03*
X25159000Y-145057400D03*
X25184400Y-143076200D03*
X20714000Y-142974600D03*
X22974600Y-143000000D03*
X25159000Y-140917200D03*
X22974600Y-140891800D03*
X20764800Y-140891800D03*
D17*
X264676400Y-128334000D03*
X257615200Y-128308600D03*
D18*
X265209800Y-120968000D03*
X263025400Y-120968000D03*
X260841000Y-120942600D03*
X260815600Y-122923800D03*
X265286000Y-123025400D03*
X263025400Y-123000000D03*
X260841000Y-125082800D03*
X263025400Y-125108200D03*
X265235200Y-125108200D03*
D17*
X241323600Y-117666000D03*
X248384800Y-117691400D03*
D18*
X240790200Y-125032000D03*
X242974600Y-125032000D03*
X245159000Y-125057400D03*
X245184400Y-123076200D03*
X240714000Y-122974600D03*
X242974600Y-123000000D03*
X245159000Y-120917200D03*
X242974600Y-120891800D03*
X240764800Y-120891800D03*
D17*
X224676400Y-128334000D03*
X217615200Y-128308600D03*
D18*
X225209800Y-120968000D03*
X223025400Y-120968000D03*
X220841000Y-120942600D03*
X220815600Y-122923800D03*
X225286000Y-123025400D03*
X223025400Y-123000000D03*
X220841000Y-125082800D03*
X223025400Y-125108200D03*
X225235200Y-125108200D03*
D17*
X201323600Y-117666000D03*
X208384800Y-117691400D03*
D18*
X200790200Y-125032000D03*
X202974600Y-125032000D03*
X205159000Y-125057400D03*
X205184400Y-123076200D03*
X200714000Y-122974600D03*
X202974600Y-123000000D03*
X205159000Y-120917200D03*
X202974600Y-120891800D03*
X200764800Y-120891800D03*
D17*
X184676400Y-128334000D03*
X177615200Y-128308600D03*
D18*
X185209800Y-120968000D03*
X183025400Y-120968000D03*
X180841000Y-120942600D03*
X180815600Y-122923800D03*
X185286000Y-123025400D03*
X183025400Y-123000000D03*
X180841000Y-125082800D03*
X183025400Y-125108200D03*
X185235200Y-125108200D03*
D17*
X161323600Y-117666000D03*
X168384800Y-117691400D03*
D18*
X160790200Y-125032000D03*
X162974600Y-125032000D03*
X165159000Y-125057400D03*
X165184400Y-123076200D03*
X160714000Y-122974600D03*
X162974600Y-123000000D03*
X165159000Y-120917200D03*
X162974600Y-120891800D03*
X160764800Y-120891800D03*
D17*
X144676400Y-128334000D03*
X137615200Y-128308600D03*
D18*
X145209800Y-120968000D03*
X143025400Y-120968000D03*
X140841000Y-120942600D03*
X140815600Y-122923800D03*
X145286000Y-123025400D03*
X143025400Y-123000000D03*
X140841000Y-125082800D03*
X143025400Y-125108200D03*
X145235200Y-125108200D03*
D17*
X121323600Y-117666000D03*
X128384800Y-117691400D03*
D18*
X120790200Y-125032000D03*
X122974600Y-125032000D03*
X125159000Y-125057400D03*
X125184400Y-123076200D03*
X120714000Y-122974600D03*
X122974600Y-123000000D03*
X125159000Y-120917200D03*
X122974600Y-120891800D03*
X120764800Y-120891800D03*
D17*
X104676400Y-128334000D03*
X97615200Y-128308600D03*
D18*
X105209800Y-120968000D03*
X103025400Y-120968000D03*
X100841000Y-120942600D03*
X100815600Y-122923800D03*
X105286000Y-123025400D03*
X103025400Y-123000000D03*
X100841000Y-125082800D03*
X103025400Y-125108200D03*
X105235200Y-125108200D03*
D17*
X81323600Y-117666000D03*
X88384800Y-117691400D03*
D18*
X80790200Y-125032000D03*
X82974600Y-125032000D03*
X85159000Y-125057400D03*
X85184400Y-123076200D03*
X80714000Y-122974600D03*
X82974600Y-123000000D03*
X85159000Y-120917200D03*
X82974600Y-120891800D03*
X80764800Y-120891800D03*
D17*
X64676400Y-128334000D03*
X57615200Y-128308600D03*
D18*
X65209800Y-120968000D03*
X63025400Y-120968000D03*
X60841000Y-120942600D03*
X60815600Y-122923800D03*
X65286000Y-123025400D03*
X63025400Y-123000000D03*
X60841000Y-125082800D03*
X63025400Y-125108200D03*
X65235200Y-125108200D03*
D17*
X41323600Y-117666000D03*
X48384800Y-117691400D03*
D18*
X40790200Y-125032000D03*
X42974600Y-125032000D03*
X45159000Y-125057400D03*
X45184400Y-123076200D03*
X40714000Y-122974600D03*
X42974600Y-123000000D03*
X45159000Y-120917200D03*
X42974600Y-120891800D03*
X40764800Y-120891800D03*
D17*
X21323600Y-117666000D03*
X28384800Y-117691400D03*
D18*
X20790200Y-125032000D03*
X22974600Y-125032000D03*
X25159000Y-125057400D03*
X25184400Y-123076200D03*
X20714000Y-122974600D03*
X22974600Y-123000000D03*
X25159000Y-120917200D03*
X22974600Y-120891800D03*
X20764800Y-120891800D03*
D17*
X264676400Y-108334000D03*
X257615200Y-108308600D03*
D18*
X265209800Y-100968000D03*
X263025400Y-100968000D03*
X260841000Y-100942600D03*
X260815600Y-102923800D03*
X265286000Y-103025400D03*
X263025400Y-103000000D03*
X260841000Y-105082800D03*
X263025400Y-105108200D03*
X265235200Y-105108200D03*
D17*
X241323600Y-97666000D03*
X248384800Y-97691400D03*
D18*
X240790200Y-105032000D03*
X242974600Y-105032000D03*
X245159000Y-105057400D03*
X245184400Y-103076200D03*
X240714000Y-102974600D03*
X242974600Y-103000000D03*
X245159000Y-100917200D03*
X242974600Y-100891800D03*
X240764800Y-100891800D03*
D17*
X224676400Y-108334000D03*
X217615200Y-108308600D03*
D18*
X225209800Y-100968000D03*
X223025400Y-100968000D03*
X220841000Y-100942600D03*
X220815600Y-102923800D03*
X225286000Y-103025400D03*
X223025400Y-103000000D03*
X220841000Y-105082800D03*
X223025400Y-105108200D03*
X225235200Y-105108200D03*
D17*
X201323600Y-97666000D03*
X208384800Y-97691400D03*
D18*
X200790200Y-105032000D03*
X202974600Y-105032000D03*
X205159000Y-105057400D03*
X205184400Y-103076200D03*
X200714000Y-102974600D03*
X202974600Y-103000000D03*
X205159000Y-100917200D03*
X202974600Y-100891800D03*
X200764800Y-100891800D03*
D17*
X184676400Y-108334000D03*
X177615200Y-108308600D03*
D18*
X185209800Y-100968000D03*
X183025400Y-100968000D03*
X180841000Y-100942600D03*
X180815600Y-102923800D03*
X185286000Y-103025400D03*
X183025400Y-103000000D03*
X180841000Y-105082800D03*
X183025400Y-105108200D03*
X185235200Y-105108200D03*
D17*
X161323600Y-97666000D03*
X168384800Y-97691400D03*
D18*
X160790200Y-105032000D03*
X162974600Y-105032000D03*
X165159000Y-105057400D03*
X165184400Y-103076200D03*
X160714000Y-102974600D03*
X162974600Y-103000000D03*
X165159000Y-100917200D03*
X162974600Y-100891800D03*
X160764800Y-100891800D03*
D17*
X144676400Y-108334000D03*
X137615200Y-108308600D03*
D18*
X145209800Y-100968000D03*
X143025400Y-100968000D03*
X140841000Y-100942600D03*
X140815600Y-102923800D03*
X145286000Y-103025400D03*
X143025400Y-103000000D03*
X140841000Y-105082800D03*
X143025400Y-105108200D03*
X145235200Y-105108200D03*
D17*
X120823600Y-97666000D03*
X127884800Y-97691400D03*
D18*
X120290200Y-105032000D03*
X122474600Y-105032000D03*
X124659000Y-105057400D03*
X124684400Y-103076200D03*
X120214000Y-102974600D03*
X122474600Y-103000000D03*
X124659000Y-100917200D03*
X122474600Y-100891800D03*
X120264800Y-100891800D03*
D17*
X104676400Y-108334000D03*
X97615200Y-108308600D03*
D18*
X105209800Y-100968000D03*
X103025400Y-100968000D03*
X100841000Y-100942600D03*
X100815600Y-102923800D03*
X105286000Y-103025400D03*
X103025400Y-103000000D03*
X100841000Y-105082800D03*
X103025400Y-105108200D03*
X105235200Y-105108200D03*
D17*
X81323600Y-97666000D03*
X88384800Y-97691400D03*
D18*
X80790200Y-105032000D03*
X82974600Y-105032000D03*
X85159000Y-105057400D03*
X85184400Y-103076200D03*
X80714000Y-102974600D03*
X82974600Y-103000000D03*
X85159000Y-100917200D03*
X82974600Y-100891800D03*
X80764800Y-100891800D03*
D17*
X64676400Y-108334000D03*
X57615200Y-108308600D03*
D18*
X65209800Y-100968000D03*
X63025400Y-100968000D03*
X60841000Y-100942600D03*
X60815600Y-102923800D03*
X65286000Y-103025400D03*
X63025400Y-103000000D03*
X60841000Y-105082800D03*
X63025400Y-105108200D03*
X65235200Y-105108200D03*
D17*
X41323600Y-97666000D03*
X48384800Y-97691400D03*
D18*
X40790200Y-105032000D03*
X42974600Y-105032000D03*
X45159000Y-105057400D03*
X45184400Y-103076200D03*
X40714000Y-102974600D03*
X42974600Y-103000000D03*
X45159000Y-100917200D03*
X42974600Y-100891800D03*
X40764800Y-100891800D03*
D17*
X21323600Y-97666000D03*
X28384800Y-97691400D03*
D18*
X20790200Y-105032000D03*
X22974600Y-105032000D03*
X25159000Y-105057400D03*
X25184400Y-103076200D03*
X20714000Y-102974600D03*
X22974600Y-103000000D03*
X25159000Y-100917200D03*
X22974600Y-100891800D03*
X20764800Y-100891800D03*
D17*
X264676400Y-88334000D03*
X257615200Y-88308600D03*
D18*
X265209800Y-80968000D03*
X263025400Y-80968000D03*
X260841000Y-80942600D03*
X260815600Y-82923800D03*
X265286000Y-83025400D03*
X263025400Y-83000000D03*
X260841000Y-85082800D03*
X263025400Y-85108200D03*
X265235200Y-85108200D03*
D17*
X241323600Y-77666000D03*
X248384800Y-77691400D03*
D18*
X240790200Y-85032000D03*
X242974600Y-85032000D03*
X245159000Y-85057400D03*
X245184400Y-83076200D03*
X240714000Y-82974600D03*
X242974600Y-83000000D03*
X245159000Y-80917200D03*
X242974600Y-80891800D03*
X240764800Y-80891800D03*
D17*
X224676400Y-88334000D03*
X217615200Y-88308600D03*
D18*
X225209800Y-80968000D03*
X223025400Y-80968000D03*
X220841000Y-80942600D03*
X220815600Y-82923800D03*
X225286000Y-83025400D03*
X223025400Y-83000000D03*
X220841000Y-85082800D03*
X223025400Y-85108200D03*
X225235200Y-85108200D03*
D17*
X201323600Y-77666000D03*
X208384800Y-77691400D03*
D18*
X200790200Y-85032000D03*
X202974600Y-85032000D03*
X205159000Y-85057400D03*
X205184400Y-83076200D03*
X200714000Y-82974600D03*
X202974600Y-83000000D03*
X205159000Y-80917200D03*
X202974600Y-80891800D03*
X200764800Y-80891800D03*
D17*
X184676400Y-88334000D03*
X177615200Y-88308600D03*
D18*
X185209800Y-80968000D03*
X183025400Y-80968000D03*
X180841000Y-80942600D03*
X180815600Y-82923800D03*
X185286000Y-83025400D03*
X183025400Y-83000000D03*
X180841000Y-85082800D03*
X183025400Y-85108200D03*
X185235200Y-85108200D03*
D17*
X161323600Y-77666000D03*
X168384800Y-77691400D03*
D18*
X160790200Y-85032000D03*
X162974600Y-85032000D03*
X165159000Y-85057400D03*
X165184400Y-83076200D03*
X160714000Y-82974600D03*
X162974600Y-83000000D03*
X165159000Y-80917200D03*
X162974600Y-80891800D03*
X160764800Y-80891800D03*
D17*
X144676400Y-88334000D03*
X137615200Y-88308600D03*
D18*
X145209800Y-80968000D03*
X143025400Y-80968000D03*
X140841000Y-80942600D03*
X140815600Y-82923800D03*
X145286000Y-83025400D03*
X143025400Y-83000000D03*
X140841000Y-85082800D03*
X143025400Y-85108200D03*
X145235200Y-85108200D03*
D17*
X121323600Y-77666000D03*
X128384800Y-77691400D03*
D18*
X120790200Y-85032000D03*
X122974600Y-85032000D03*
X125159000Y-85057400D03*
X125184400Y-83076200D03*
X120714000Y-82974600D03*
X122974600Y-83000000D03*
X125159000Y-80917200D03*
X122974600Y-80891800D03*
X120764800Y-80891800D03*
D17*
X104676400Y-88334000D03*
X97615200Y-88308600D03*
D18*
X105209800Y-80968000D03*
X103025400Y-80968000D03*
X100841000Y-80942600D03*
X100815600Y-82923800D03*
X105286000Y-83025400D03*
X103025400Y-83000000D03*
X100841000Y-85082800D03*
X103025400Y-85108200D03*
X105235200Y-85108200D03*
D17*
X81323600Y-77666000D03*
X88384800Y-77691400D03*
D18*
X80790200Y-85032000D03*
X82974600Y-85032000D03*
X85159000Y-85057400D03*
X85184400Y-83076200D03*
X80714000Y-82974600D03*
X82974600Y-83000000D03*
X85159000Y-80917200D03*
X82974600Y-80891800D03*
X80764800Y-80891800D03*
D17*
X64676400Y-88334000D03*
X57615200Y-88308600D03*
D18*
X65209800Y-80968000D03*
X63025400Y-80968000D03*
X60841000Y-80942600D03*
X60815600Y-82923800D03*
X65286000Y-83025400D03*
X63025400Y-83000000D03*
X60841000Y-85082800D03*
X63025400Y-85108200D03*
X65235200Y-85108200D03*
D17*
X41323600Y-77666000D03*
X48384800Y-77691400D03*
D18*
X40790200Y-85032000D03*
X42974600Y-85032000D03*
X45159000Y-85057400D03*
X45184400Y-83076200D03*
X40714000Y-82974600D03*
X42974600Y-83000000D03*
X45159000Y-80917200D03*
X42974600Y-80891800D03*
X40764800Y-80891800D03*
D17*
X21437600Y-77724000D03*
X28498800Y-77749400D03*
D18*
X20904200Y-85090000D03*
X23088600Y-85090000D03*
X25273000Y-85115400D03*
X25298400Y-83134200D03*
X20828000Y-83032600D03*
X23088600Y-83058000D03*
X25273000Y-80975200D03*
X23088600Y-80949800D03*
X20878800Y-80949800D03*
D19*
X174260000Y-271000000D03*
X176800000Y-271000000D03*
X179340000Y-271000000D03*
X181880000Y-271000000D03*
X184420000Y-271000000D03*
X186960000Y-271000000D03*
D20*
X189500000Y-271000000D03*
D19*
X145980000Y-271050000D03*
X143440000Y-271050000D03*
X140900000Y-271050000D03*
X138360000Y-271050000D03*
X135820000Y-271050000D03*
X133280000Y-271050000D03*
X130740000Y-271050000D03*
X128200000Y-271050000D03*
X125660000Y-271050000D03*
X123120000Y-271050000D03*
X120580000Y-271050000D03*
X118040000Y-271050000D03*
X115500000Y-271050000D03*
D20*
X112960000Y-271050000D03*
D17*
X264676400Y-68334000D03*
X257615200Y-68308600D03*
D18*
X265209800Y-60968000D03*
X263025400Y-60968000D03*
X260841000Y-60942600D03*
X260815600Y-62923800D03*
X265286000Y-63025400D03*
X263025400Y-63000000D03*
X260841000Y-65082800D03*
X263025400Y-65108200D03*
X265235200Y-65108200D03*
D17*
X241323600Y-57666000D03*
X248384800Y-57691400D03*
D18*
X240790200Y-65032000D03*
X242974600Y-65032000D03*
X245159000Y-65057400D03*
X245184400Y-63076200D03*
X240714000Y-62974600D03*
X242974600Y-63000000D03*
X245159000Y-60917200D03*
X242974600Y-60891800D03*
X240764800Y-60891800D03*
D17*
X224676400Y-68334000D03*
X217615200Y-68308600D03*
D18*
X225209800Y-60968000D03*
X223025400Y-60968000D03*
X220841000Y-60942600D03*
X220815600Y-62923800D03*
X225286000Y-63025400D03*
X223025400Y-63000000D03*
X220841000Y-65082800D03*
X223025400Y-65108200D03*
X225235200Y-65108200D03*
D17*
X201323600Y-57666000D03*
X208384800Y-57691400D03*
D18*
X200790200Y-65032000D03*
X202974600Y-65032000D03*
X205159000Y-65057400D03*
X205184400Y-63076200D03*
X200714000Y-62974600D03*
X202974600Y-63000000D03*
X205159000Y-60917200D03*
X202974600Y-60891800D03*
X200764800Y-60891800D03*
D17*
X184676400Y-68334000D03*
X177615200Y-68308600D03*
D18*
X185209800Y-60968000D03*
X183025400Y-60968000D03*
X180841000Y-60942600D03*
X180815600Y-62923800D03*
X185286000Y-63025400D03*
X183025400Y-63000000D03*
X180841000Y-65082800D03*
X183025400Y-65108200D03*
X185235200Y-65108200D03*
D17*
X161323600Y-57666000D03*
X168384800Y-57691400D03*
D18*
X160790200Y-65032000D03*
X162974600Y-65032000D03*
X165159000Y-65057400D03*
X165184400Y-63076200D03*
X160714000Y-62974600D03*
X162974600Y-63000000D03*
X165159000Y-60917200D03*
X162974600Y-60891800D03*
X160764800Y-60891800D03*
D17*
X144676400Y-68334000D03*
X137615200Y-68308600D03*
D18*
X145209800Y-60968000D03*
X143025400Y-60968000D03*
X140841000Y-60942600D03*
X140815600Y-62923800D03*
X145286000Y-63025400D03*
X143025400Y-63000000D03*
X140841000Y-65082800D03*
X143025400Y-65108200D03*
X145235200Y-65108200D03*
D17*
X121323600Y-57666000D03*
X128384800Y-57691400D03*
D18*
X120790200Y-65032000D03*
X122974600Y-65032000D03*
X125159000Y-65057400D03*
X125184400Y-63076200D03*
X120714000Y-62974600D03*
X122974600Y-63000000D03*
X125159000Y-60917200D03*
X122974600Y-60891800D03*
X120764800Y-60891800D03*
D17*
X104676400Y-68334000D03*
X97615200Y-68308600D03*
D18*
X105209800Y-60968000D03*
X103025400Y-60968000D03*
X100841000Y-60942600D03*
X100815600Y-62923800D03*
X105286000Y-63025400D03*
X103025400Y-63000000D03*
X100841000Y-65082800D03*
X103025400Y-65108200D03*
X105235200Y-65108200D03*
D17*
X81323600Y-57666000D03*
X88384800Y-57691400D03*
D18*
X80790200Y-65032000D03*
X82974600Y-65032000D03*
X85159000Y-65057400D03*
X85184400Y-63076200D03*
X80714000Y-62974600D03*
X82974600Y-63000000D03*
X85159000Y-60917200D03*
X82974600Y-60891800D03*
X80764800Y-60891800D03*
D17*
X64356400Y-68264000D03*
X57295200Y-68238600D03*
D18*
X64889800Y-60898000D03*
X62705400Y-60898000D03*
X60521000Y-60872600D03*
X60495600Y-62853800D03*
X64966000Y-62955400D03*
X62705400Y-62930000D03*
X60521000Y-65012800D03*
X62705400Y-65038200D03*
X64915200Y-65038200D03*
D17*
X41323600Y-57666000D03*
X48384800Y-57691400D03*
D18*
X40790200Y-65032000D03*
X42974600Y-65032000D03*
X45159000Y-65057400D03*
X45184400Y-63076200D03*
X40714000Y-62974600D03*
X42974600Y-63000000D03*
X45159000Y-60917200D03*
X42974600Y-60891800D03*
X40764800Y-60891800D03*
D17*
X21323600Y-57666000D03*
X28384800Y-57691400D03*
D18*
X20790200Y-65032000D03*
X22974600Y-65032000D03*
X25159000Y-65057400D03*
X25184400Y-63076200D03*
X20714000Y-62974600D03*
X22974600Y-63000000D03*
X25159000Y-60917200D03*
X22974600Y-60891800D03*
X20764800Y-60891800D03*
D17*
X264676400Y-48334000D03*
X257615200Y-48308600D03*
D18*
X265209800Y-40968000D03*
X263025400Y-40968000D03*
X260841000Y-40942600D03*
X260815600Y-42923800D03*
X265286000Y-43025400D03*
X263025400Y-43000000D03*
X260841000Y-45082800D03*
X263025400Y-45108200D03*
X265235200Y-45108200D03*
D17*
X241323600Y-37666000D03*
X248384800Y-37691400D03*
D18*
X240790200Y-45032000D03*
X242974600Y-45032000D03*
X245159000Y-45057400D03*
X245184400Y-43076200D03*
X240714000Y-42974600D03*
X242974600Y-43000000D03*
X245159000Y-40917200D03*
X242974600Y-40891800D03*
X240764800Y-40891800D03*
D17*
X224676400Y-48334000D03*
X217615200Y-48308600D03*
D18*
X225209800Y-40968000D03*
X223025400Y-40968000D03*
X220841000Y-40942600D03*
X220815600Y-42923800D03*
X225286000Y-43025400D03*
X223025400Y-43000000D03*
X220841000Y-45082800D03*
X223025400Y-45108200D03*
X225235200Y-45108200D03*
D17*
X201323600Y-37666000D03*
X208384800Y-37691400D03*
D18*
X200790200Y-45032000D03*
X202974600Y-45032000D03*
X205159000Y-45057400D03*
X205184400Y-43076200D03*
X200714000Y-42974600D03*
X202974600Y-43000000D03*
X205159000Y-40917200D03*
X202974600Y-40891800D03*
X200764800Y-40891800D03*
D17*
X184676400Y-48334000D03*
X177615200Y-48308600D03*
D18*
X185209800Y-40968000D03*
X183025400Y-40968000D03*
X180841000Y-40942600D03*
X180815600Y-42923800D03*
X185286000Y-43025400D03*
X183025400Y-43000000D03*
X180841000Y-45082800D03*
X183025400Y-45108200D03*
X185235200Y-45108200D03*
D17*
X161323600Y-37666000D03*
X168384800Y-37691400D03*
D18*
X160790200Y-45032000D03*
X162974600Y-45032000D03*
X165159000Y-45057400D03*
X165184400Y-43076200D03*
X160714000Y-42974600D03*
X162974600Y-43000000D03*
X165159000Y-40917200D03*
X162974600Y-40891800D03*
X160764800Y-40891800D03*
D17*
X144676400Y-48334000D03*
X137615200Y-48308600D03*
D18*
X145209800Y-40968000D03*
X143025400Y-40968000D03*
X140841000Y-40942600D03*
X140815600Y-42923800D03*
X145286000Y-43025400D03*
X143025400Y-43000000D03*
X140841000Y-45082800D03*
X143025400Y-45108200D03*
X145235200Y-45108200D03*
D17*
X121323600Y-37666000D03*
X128384800Y-37691400D03*
D18*
X120790200Y-45032000D03*
X122974600Y-45032000D03*
X125159000Y-45057400D03*
X125184400Y-43076200D03*
X120714000Y-42974600D03*
X122974600Y-43000000D03*
X125159000Y-40917200D03*
X122974600Y-40891800D03*
X120764800Y-40891800D03*
D17*
X104676400Y-48334000D03*
X97615200Y-48308600D03*
D18*
X105209800Y-40968000D03*
X103025400Y-40968000D03*
X100841000Y-40942600D03*
X100815600Y-42923800D03*
X105286000Y-43025400D03*
X103025400Y-43000000D03*
X100841000Y-45082800D03*
X103025400Y-45108200D03*
X105235200Y-45108200D03*
D17*
X81323600Y-37666000D03*
X88384800Y-37691400D03*
D18*
X80790200Y-45032000D03*
X82974600Y-45032000D03*
X85159000Y-45057400D03*
X85184400Y-43076200D03*
X80714000Y-42974600D03*
X82974600Y-43000000D03*
X85159000Y-40917200D03*
X82974600Y-40891800D03*
X80764800Y-40891800D03*
D17*
X64356400Y-49214000D03*
X57295200Y-49188600D03*
D18*
X64889800Y-41848000D03*
X62705400Y-41848000D03*
X60521000Y-41822600D03*
X60495600Y-43803800D03*
X64966000Y-43905400D03*
X62705400Y-43880000D03*
X60521000Y-45962800D03*
X62705400Y-45988200D03*
X64915200Y-45988200D03*
D17*
X41323600Y-37666000D03*
X48384800Y-37691400D03*
D18*
X40790200Y-45032000D03*
X42974600Y-45032000D03*
X45159000Y-45057400D03*
X45184400Y-43076200D03*
X40714000Y-42974600D03*
X42974600Y-43000000D03*
X45159000Y-40917200D03*
X42974600Y-40891800D03*
X40764800Y-40891800D03*
D17*
X21323600Y-37666000D03*
X28384800Y-37691400D03*
D18*
X20790200Y-45032000D03*
X22974600Y-45032000D03*
X25159000Y-45057400D03*
X25184400Y-43076200D03*
X20714000Y-42974600D03*
X22974600Y-43000000D03*
X25159000Y-40917200D03*
X22974600Y-40891800D03*
X20764800Y-40891800D03*
D17*
X264676400Y-28334000D03*
X257615200Y-28308600D03*
D18*
X265209800Y-20968000D03*
X263025400Y-20968000D03*
X260841000Y-20942600D03*
X260815600Y-22923800D03*
X265286000Y-23025400D03*
X263025400Y-23000000D03*
X260841000Y-25082800D03*
X263025400Y-25108200D03*
X265235200Y-25108200D03*
D17*
X241323600Y-17666000D03*
X248384800Y-17691400D03*
D18*
X240790200Y-25032000D03*
X242974600Y-25032000D03*
X245159000Y-25057400D03*
X245184400Y-23076200D03*
X240714000Y-22974600D03*
X242974600Y-23000000D03*
X245159000Y-20917200D03*
X242974600Y-20891800D03*
X240764800Y-20891800D03*
D17*
X224676400Y-28334000D03*
X217615200Y-28308600D03*
D18*
X225209800Y-20968000D03*
X223025400Y-20968000D03*
X220841000Y-20942600D03*
X220815600Y-22923800D03*
X225286000Y-23025400D03*
X223025400Y-23000000D03*
X220841000Y-25082800D03*
X223025400Y-25108200D03*
X225235200Y-25108200D03*
D17*
X201323600Y-17666000D03*
X208384800Y-17691400D03*
D18*
X200790200Y-25032000D03*
X202974600Y-25032000D03*
X205159000Y-25057400D03*
X205184400Y-23076200D03*
X200714000Y-22974600D03*
X202974600Y-23000000D03*
X205159000Y-20917200D03*
X202974600Y-20891800D03*
X200764800Y-20891800D03*
D17*
X184676400Y-28334000D03*
X177615200Y-28308600D03*
D18*
X185209800Y-20968000D03*
X183025400Y-20968000D03*
X180841000Y-20942600D03*
X180815600Y-22923800D03*
X185286000Y-23025400D03*
X183025400Y-23000000D03*
X180841000Y-25082800D03*
X183025400Y-25108200D03*
X185235200Y-25108200D03*
D17*
X161323600Y-17666000D03*
X168384800Y-17691400D03*
D18*
X160790200Y-25032000D03*
X162974600Y-25032000D03*
X165159000Y-25057400D03*
X165184400Y-23076200D03*
X160714000Y-22974600D03*
X162974600Y-23000000D03*
X165159000Y-20917200D03*
X162974600Y-20891800D03*
X160764800Y-20891800D03*
D17*
X144676400Y-28334000D03*
X137615200Y-28308600D03*
D18*
X145209800Y-20968000D03*
X143025400Y-20968000D03*
X140841000Y-20942600D03*
X140815600Y-22923800D03*
X145286000Y-23025400D03*
X143025400Y-23000000D03*
X140841000Y-25082800D03*
X143025400Y-25108200D03*
X145235200Y-25108200D03*
D17*
X121323600Y-17666000D03*
X128384800Y-17691400D03*
D18*
X120790200Y-25032000D03*
X122974600Y-25032000D03*
X125159000Y-25057400D03*
X125184400Y-23076200D03*
X120714000Y-22974600D03*
X122974600Y-23000000D03*
X125159000Y-20917200D03*
X122974600Y-20891800D03*
X120764800Y-20891800D03*
D17*
X104676400Y-28334000D03*
X97615200Y-28308600D03*
D18*
X105209800Y-20968000D03*
X103025400Y-20968000D03*
X100841000Y-20942600D03*
X100815600Y-22923800D03*
X105286000Y-23025400D03*
X103025400Y-23000000D03*
X100841000Y-25082800D03*
X103025400Y-25108200D03*
X105235200Y-25108200D03*
D17*
X81323600Y-17666000D03*
X88384800Y-17691400D03*
D18*
X80790200Y-25032000D03*
X82974600Y-25032000D03*
X85159000Y-25057400D03*
X85184400Y-23076200D03*
X80714000Y-22974600D03*
X82974600Y-23000000D03*
X85159000Y-20917200D03*
X82974600Y-20891800D03*
X80764800Y-20891800D03*
D17*
X64676400Y-28334000D03*
X57615200Y-28308600D03*
D18*
X65209800Y-20968000D03*
X63025400Y-20968000D03*
X60841000Y-20942600D03*
X60815600Y-22923800D03*
X65286000Y-23025400D03*
X63025400Y-23000000D03*
X60841000Y-25082800D03*
X63025400Y-25108200D03*
X65235200Y-25108200D03*
D17*
X41323600Y-17666000D03*
X48384800Y-17691400D03*
D18*
X40790200Y-25032000D03*
X42974600Y-25032000D03*
X45159000Y-25057400D03*
X45184400Y-23076200D03*
X40714000Y-22974600D03*
X42974600Y-23000000D03*
X45159000Y-20917200D03*
X42974600Y-20891800D03*
X40764800Y-20891800D03*
D21*
X33250000Y-259250000D03*
X33250000Y-261500000D03*
X33250000Y-263750000D03*
X33250000Y-266000000D03*
X33250000Y-254250000D03*
X33239990Y-256739990D03*
D22*
X112960000Y-262080000D02*
X113000000Y-262040000D01*
D23*
X112960000Y-262300010D02*
X113000000Y-262260010D01*
X112960000Y-271050000D02*
X112960000Y-262300010D01*
D24*
X33000000Y-57500000D02*
X33000000Y-122000000D01*
X33000000Y-38000000D02*
X33000000Y-57500000D01*
X33000000Y-19000000D02*
X33000000Y-38000000D01*
X32691400Y-37691400D02*
X33000000Y-38000000D01*
D25*
X28943400Y-37691400D02*
X33250000Y-37691400D01*
X28826200Y-57691400D02*
X33250000Y-57691400D01*
X28498800Y-77749400D02*
X33000000Y-77749400D01*
X28384800Y-97691400D02*
X33000000Y-97691400D01*
X28384800Y-117691400D02*
X33000000Y-117691400D01*
X28384800Y-137691400D02*
X33000000Y-137691400D01*
X28384800Y-157691400D02*
X33000000Y-157691400D01*
X28384800Y-178191400D02*
X33000000Y-178191400D01*
X28384800Y-197691400D02*
X33000000Y-197691400D01*
X28384800Y-217691400D02*
X33000000Y-217691400D01*
X28384800Y-237691400D02*
X33000000Y-237691400D01*
D23*
X33000000Y-250000000D02*
X33000000Y-256500000D01*
X33239990Y-256739990D02*
X33239990Y-256739990D01*
D24*
X33250000Y-115750000D02*
X33250000Y-254250000D01*
D25*
X33000000Y-19000000D02*
X33000000Y-18750000D01*
X31941400Y-17691400D02*
X28687810Y-17691400D01*
X33000000Y-18750000D02*
X31941400Y-17691400D01*
D24*
X33250000Y-254250000D02*
X33250000Y-254250000D01*
D23*
X33239990Y-256739990D02*
X113000000Y-256739990D01*
D25*
X208384800Y-17691400D02*
X210191400Y-17691400D01*
X210191400Y-17691400D02*
X213000000Y-20500000D01*
X217615200Y-28308600D02*
X213191400Y-28308600D01*
X213191400Y-28308600D02*
X213000000Y-28500000D01*
D24*
X213000000Y-20500000D02*
X213000000Y-28500000D01*
D25*
X208384800Y-37691400D02*
X213000000Y-37691400D01*
X217615200Y-48308600D02*
X213000000Y-48308600D01*
D24*
X213000000Y-28500000D02*
X213000000Y-48308600D01*
D25*
X208384800Y-57691400D02*
X213000000Y-57691400D01*
X217615200Y-88308600D02*
X213000000Y-88308600D01*
X217615200Y-108308600D02*
X213000000Y-108308600D01*
X208384800Y-117691400D02*
X213000000Y-117691400D01*
X217615200Y-128308600D02*
X213000000Y-128308600D01*
X217615200Y-148308600D02*
X213000000Y-148308600D01*
X208384800Y-137691400D02*
X213000000Y-137691400D01*
X208384800Y-157691400D02*
X213000000Y-157691400D01*
X217615200Y-168308600D02*
X213000000Y-168308600D01*
X217615200Y-208308600D02*
X213000000Y-208308600D01*
X217615200Y-248308600D02*
X213000000Y-248308600D01*
X208384800Y-237691400D02*
X213000000Y-237691400D01*
X217615200Y-228308600D02*
X213000000Y-228308600D01*
X208384800Y-217691400D02*
X213000000Y-217691400D01*
D24*
X212750000Y-250250000D02*
X212750000Y-251250000D01*
D23*
X212750000Y-251250000D02*
X209750000Y-254250000D01*
X138720010Y-256279990D02*
X138500000Y-256279990D01*
X140750000Y-254250000D02*
X138720010Y-256279990D01*
X209750000Y-254250000D02*
X140750000Y-254250000D01*
D25*
X217615200Y-68308600D02*
X216308600Y-68308600D01*
D24*
X213000000Y-65000000D02*
X213000000Y-57691400D01*
D25*
X216308600Y-68308600D02*
X213000000Y-65000000D01*
D24*
X213000000Y-48308600D02*
X213000000Y-52500000D01*
X213000000Y-52500000D02*
X196750000Y-52500000D01*
X213000000Y-52500000D02*
X213000000Y-57691400D01*
X196750000Y-52500000D02*
X193750000Y-55500000D01*
X193750000Y-55500000D02*
X193750000Y-90500000D01*
X193750000Y-90500000D02*
X196000000Y-92750000D01*
X196000000Y-92750000D02*
X212500000Y-92750000D01*
X213000000Y-82250000D02*
X213000000Y-108308600D01*
D25*
X208441400Y-77691400D02*
X213000000Y-82250000D01*
X208384800Y-97691400D02*
X213000000Y-97691400D01*
X217308600Y-188308600D02*
X213000000Y-184000000D01*
X217615200Y-188308600D02*
X217308600Y-188308600D01*
X208441400Y-197691400D02*
X213000000Y-202250000D01*
D24*
X213000000Y-172750000D02*
X196000000Y-172750000D01*
X213000000Y-108308600D02*
X213000000Y-172750000D01*
X196000000Y-172750000D02*
X193500000Y-175250000D01*
X193500000Y-175250000D02*
X193500000Y-210000000D01*
X196500000Y-213000000D02*
X213000000Y-213000000D01*
X193500000Y-210000000D02*
X196500000Y-213000000D01*
X213000000Y-213000000D02*
X213000000Y-237691400D01*
X213000000Y-202250000D02*
X213000000Y-213000000D01*
X213000000Y-248308600D02*
X213000000Y-237691400D01*
D25*
X208379810Y-177750000D02*
X208379810Y-177825400D01*
X213000000Y-177750000D02*
X208379810Y-177750000D01*
D24*
X213000000Y-172750000D02*
X213000000Y-177750000D01*
X213000000Y-177750000D02*
X213000000Y-184000000D01*
D25*
X128384800Y-17691400D02*
X131691400Y-17691400D01*
X131691400Y-17691400D02*
X133000000Y-19000000D01*
X128384800Y-37691400D02*
X133000000Y-37691400D01*
X137615200Y-28308600D02*
X133000000Y-28308600D01*
X137615200Y-48308600D02*
X133000000Y-48308600D01*
X128384800Y-57691400D02*
X133000000Y-57691400D01*
D24*
X133000000Y-19000000D02*
X133000000Y-57691400D01*
D25*
X137615200Y-68308600D02*
X133000000Y-68308600D01*
X128384800Y-78191400D02*
X132808600Y-78191400D01*
X132808600Y-78191400D02*
X133000000Y-78000000D01*
D24*
X133000000Y-57691400D02*
X133000000Y-78000000D01*
D25*
X133308600Y-88308600D02*
X133000000Y-88000000D01*
X137615200Y-88308600D02*
X133308600Y-88308600D01*
D24*
X133000000Y-88000000D02*
X133000000Y-251500000D01*
X133000000Y-78000000D02*
X133000000Y-88000000D01*
D25*
X127884800Y-97691400D02*
X133000000Y-97691400D01*
X137615200Y-108308600D02*
X133000000Y-108308600D01*
X128384800Y-117691400D02*
X133000000Y-117691400D01*
X137615200Y-128308600D02*
X133000000Y-128308600D01*
X128384800Y-137691400D02*
X133000000Y-137691400D01*
X137615200Y-148308600D02*
X133000000Y-148308600D01*
X128384800Y-157691400D02*
X133000000Y-157691400D01*
X137615200Y-168308600D02*
X133000000Y-168308600D01*
X128384800Y-177691400D02*
X133000000Y-177691400D01*
X137615200Y-188308600D02*
X133000000Y-188308600D01*
X128574800Y-197891400D02*
X133000000Y-197891400D01*
X137363200Y-208000600D02*
X133000000Y-208000600D01*
X128384800Y-217691400D02*
X133000000Y-217691400D01*
X137615200Y-228308600D02*
X133000000Y-228308600D01*
X128384800Y-237691400D02*
X133000000Y-237691400D01*
X137615200Y-248308600D02*
X133000000Y-248308600D01*
D23*
X133000000Y-251500000D02*
X129750000Y-251500000D01*
X128500000Y-252750000D02*
X128500000Y-256739990D01*
X129750000Y-251500000D02*
X128500000Y-252750000D01*
D25*
X168384800Y-17691400D02*
X171691400Y-17691400D01*
X171691400Y-17691400D02*
X173000000Y-19000000D01*
X177615200Y-68308600D02*
X173000000Y-68308600D01*
X168384800Y-57691400D02*
X173000000Y-57691400D01*
X177615200Y-48308600D02*
X173000000Y-48308600D01*
X168384800Y-37691400D02*
X173000000Y-37691400D01*
X177615200Y-28308600D02*
X173000000Y-28308600D01*
X168384800Y-77691400D02*
X171308600Y-77691400D01*
X171308600Y-77691400D02*
X172000000Y-77000000D01*
D24*
X172000000Y-73250000D02*
X173000000Y-249250000D01*
X173000000Y-19000000D02*
X172000000Y-77000000D01*
D25*
X177615200Y-88308600D02*
X172057143Y-88308600D01*
X168384800Y-97691400D02*
X172120000Y-97691400D01*
X177615200Y-108308600D02*
X172177142Y-108308600D01*
X168384800Y-117691400D02*
X172234285Y-117691400D01*
X177615200Y-128308600D02*
X172288135Y-128308600D01*
X168384800Y-137691400D02*
X172333333Y-137691400D01*
X177615200Y-148308600D02*
X172395480Y-148308600D01*
X168384800Y-157691400D02*
X172457627Y-157691400D01*
X177615200Y-168308600D02*
X172514285Y-168308600D01*
X168384800Y-177691400D02*
X172571428Y-177691400D01*
X177615200Y-188308600D02*
X172628571Y-188308600D01*
X168198800Y-197637400D02*
X172683616Y-197637400D01*
X177615200Y-208308600D02*
X172742858Y-208308600D01*
X168384800Y-217691400D02*
X172796610Y-217691400D01*
X177615200Y-228308600D02*
X172847457Y-228308600D01*
X168384800Y-237691400D02*
X172908572Y-237691400D01*
X177615200Y-248308600D02*
X172971752Y-248308600D01*
D23*
X135010010Y-256239990D02*
X133500000Y-256239990D01*
X138250000Y-253000000D02*
X135010010Y-256239990D01*
X168280352Y-253000000D02*
X172971752Y-248308600D01*
X138250000Y-253000000D02*
X168280352Y-253000000D01*
D25*
X248384800Y-17691400D02*
X252191400Y-17691400D01*
X252191400Y-17691400D02*
X253000000Y-18500000D01*
X257615200Y-68308600D02*
X253000000Y-68308600D01*
X248384800Y-57691400D02*
X253000000Y-57691400D01*
X257615200Y-48308600D02*
X253000000Y-48308600D01*
X248384800Y-37691400D02*
X253000000Y-37691400D01*
X257615200Y-28308600D02*
X253000000Y-28308600D01*
X248384800Y-77691400D02*
X253000000Y-77691400D01*
X257615200Y-88308600D02*
X253000000Y-88308600D01*
X248384800Y-97691400D02*
X253000000Y-97691400D01*
X257615200Y-108308600D02*
X253000000Y-108308600D01*
X248384800Y-117691400D02*
X253000000Y-117691400D01*
X257615200Y-128308600D02*
X253000000Y-128308600D01*
X248384800Y-137691400D02*
X253000000Y-137691400D01*
X257615200Y-148308600D02*
X253000000Y-148308600D01*
X248384800Y-159191400D02*
X253000000Y-159191400D01*
X257615200Y-168308600D02*
X253000000Y-168308600D01*
X248208800Y-177825400D02*
X253000000Y-177825400D01*
X257615200Y-188308600D02*
X253000000Y-188308600D01*
X248384800Y-197691400D02*
X253000000Y-197691400D01*
X257615200Y-208308600D02*
X253000000Y-208308600D01*
X248384800Y-217691400D02*
X253000000Y-217691400D01*
D24*
X253000000Y-248308600D02*
X253000000Y-252000000D01*
D23*
X248760010Y-256239990D02*
X144000000Y-256239990D01*
D24*
X253000000Y-252000000D02*
X248760010Y-256239990D01*
D25*
X253000000Y-248308600D02*
X257312190Y-248308600D01*
X248687810Y-237750000D02*
X248687810Y-237691400D01*
X253000000Y-237750000D02*
X248687810Y-237750000D01*
D24*
X253000000Y-237750000D02*
X253000000Y-249000000D01*
D25*
X257312190Y-228250000D02*
X257312190Y-228308600D01*
D24*
X253000000Y-17750000D02*
X253000000Y-228250000D01*
D25*
X253000000Y-228250000D02*
X257312190Y-228250000D01*
D24*
X253000000Y-228250000D02*
X253000000Y-237750000D01*
D25*
X48384800Y-17691400D02*
X50691400Y-17691400D01*
D24*
X53191400Y-28308600D02*
X53000000Y-28500000D01*
D25*
X57615200Y-28308600D02*
X53191400Y-28308600D01*
D24*
X53000000Y-20000000D02*
X53000000Y-28500000D01*
X52691400Y-37691400D02*
X53000000Y-38000000D01*
D25*
X48384800Y-37691400D02*
X52691400Y-37691400D01*
D24*
X53000000Y-28500000D02*
X53000000Y-38000000D01*
X53311400Y-49188600D02*
X53000000Y-49500000D01*
D25*
X57295200Y-49188600D02*
X53311400Y-49188600D01*
D24*
X53000000Y-38000000D02*
X53000000Y-49500000D01*
X52691400Y-57691400D02*
X53000000Y-58000000D01*
D25*
X48384800Y-57691400D02*
X52691400Y-57691400D01*
D24*
X53000000Y-49500000D02*
X53000000Y-58000000D01*
X53261400Y-68238600D02*
X53000000Y-68500000D01*
D25*
X57295200Y-68238600D02*
X53261400Y-68238600D01*
D24*
X53000000Y-58000000D02*
X53000000Y-68500000D01*
D25*
X48384800Y-77691400D02*
X53000000Y-77691400D01*
X57615200Y-88308600D02*
X53000000Y-88308600D01*
D24*
X53000000Y-89191400D02*
X53000000Y-250000000D01*
D25*
X48384800Y-97691400D02*
X53000000Y-97691400D01*
D24*
X53000000Y-68500000D02*
X53000000Y-97691400D01*
D25*
X57615200Y-108308600D02*
X53000000Y-108308600D01*
X48384800Y-117691400D02*
X53000000Y-117691400D01*
X57615200Y-128308600D02*
X53000000Y-128308600D01*
X48384800Y-137691400D02*
X53000000Y-137691400D01*
X48384800Y-237691400D02*
X53000000Y-237691400D01*
X57615200Y-228308600D02*
X53000000Y-228308600D01*
X48384800Y-217691400D02*
X53000000Y-217691400D01*
X57615200Y-208308600D02*
X53000000Y-208308600D01*
X48056800Y-198145400D02*
X53000000Y-198145400D01*
X57615200Y-188308600D02*
X53000000Y-188308600D01*
X48384800Y-177691400D02*
X53000000Y-177691400D01*
X57615200Y-168308600D02*
X53000000Y-168308600D01*
X48384800Y-157691400D02*
X53000000Y-157691400D01*
X57615200Y-148308600D02*
X53000000Y-148308600D01*
X57615200Y-248308600D02*
X53000000Y-248308600D01*
D23*
X53000000Y-250000000D02*
X53000000Y-253500000D01*
X53000000Y-253500000D02*
X54250000Y-254750000D01*
X117779990Y-256739990D02*
X118000000Y-256739990D01*
X115790000Y-254750000D02*
X117779990Y-256739990D01*
X54250000Y-254750000D02*
X115790000Y-254750000D01*
D25*
X50691400Y-17691400D02*
X53000000Y-20000000D01*
X88384800Y-17691400D02*
X92191400Y-17691400D01*
X92191400Y-17691400D02*
X93000000Y-18500000D01*
X93191400Y-28308600D02*
X93000000Y-28500000D01*
X97615200Y-28308600D02*
X93191400Y-28308600D01*
D24*
X93000000Y-18500000D02*
X93000000Y-28500000D01*
D25*
X93308600Y-68308600D02*
X93000000Y-68000000D01*
X97615200Y-68308600D02*
X93308600Y-68308600D01*
D24*
X93000000Y-28500000D02*
X93000000Y-68000000D01*
D25*
X88384800Y-57691400D02*
X93000000Y-57691400D01*
X97615200Y-48308600D02*
X93000000Y-48308600D01*
X88384800Y-37691400D02*
X93000000Y-37691400D01*
X91691400Y-77691400D02*
X93000000Y-79000000D01*
X88384800Y-77691400D02*
X91691400Y-77691400D01*
D24*
X93000000Y-68000000D02*
X93000000Y-79000000D01*
D25*
X93308600Y-88308600D02*
X93000000Y-88000000D01*
X97615200Y-88308600D02*
X93308600Y-88308600D01*
D24*
X93000000Y-80000000D02*
X93000000Y-250000000D01*
D25*
X93000000Y-79000000D02*
X93000000Y-88000000D01*
X97615200Y-248308600D02*
X93000000Y-248308600D01*
X88384800Y-237691400D02*
X93000000Y-237691400D01*
X97615200Y-228308600D02*
X93000000Y-228308600D01*
X88384800Y-217691400D02*
X93000000Y-217691400D01*
X97615200Y-208308600D02*
X93000000Y-208308600D01*
X88384800Y-197691400D02*
X93000000Y-197691400D01*
X97615200Y-188308600D02*
X93000000Y-188308600D01*
X88384800Y-177691400D02*
X93000000Y-177691400D01*
X97615200Y-168308600D02*
X93000000Y-168308600D01*
X88384800Y-157691400D02*
X93000000Y-157691400D01*
X97615200Y-148308600D02*
X93000000Y-148308600D01*
X88384800Y-137691400D02*
X93000000Y-137691400D01*
X97615200Y-128308600D02*
X93000000Y-128308600D01*
X88384800Y-117691400D02*
X93000000Y-117691400D01*
X97615200Y-108308600D02*
X93000000Y-108308600D01*
X88384800Y-97691400D02*
X93000000Y-97691400D01*
D23*
X93000000Y-250000000D02*
X93000000Y-252000000D01*
X93000000Y-252000000D02*
X94000000Y-253000000D01*
X119040000Y-253000000D02*
X122779990Y-256739990D01*
X122779990Y-256739990D02*
X123000000Y-256739990D01*
X94000000Y-253000000D02*
X119040000Y-253000000D01*
X118000000Y-269807919D02*
X118000000Y-262260010D01*
X118040000Y-269847919D02*
X118000000Y-269807919D01*
X118040000Y-271050000D02*
X118040000Y-269847919D01*
X123120000Y-262380010D02*
X123000000Y-262260010D01*
X123120000Y-271050000D02*
X123120000Y-262380010D01*
X128200000Y-262560010D02*
X128500000Y-262260010D01*
X128200000Y-271050000D02*
X128200000Y-262560010D01*
X133280000Y-261980010D02*
X133500000Y-261760010D01*
X133280000Y-271050000D02*
X133280000Y-261980010D01*
X138360000Y-269847919D02*
X138500000Y-269707919D01*
X138500000Y-269707919D02*
X138500000Y-261800010D01*
X138360000Y-271050000D02*
X138360000Y-269847919D01*
X143440000Y-262320010D02*
X144000000Y-261760010D01*
X143440000Y-271050000D02*
X143440000Y-262320010D01*
M02*
