M48
; DRILL file {KiCad (5.1.5-0-10_14)} date 2020 March 21, Saturday 16:44:48
; FORMAT={-:-/ absolute / metric / decimal}
; #@! TF.CreationDate,2020-03-21T16:44:48+01:00
; #@! TF.GenerationSoftware,Kicad,Pcbnew,(5.1.5-0-10_14)
; #@! TF.FileFunction,Plated,1,2,PTH
FMAT,2
METRIC
T1C0.400
T2C0.600
T3C0.762
T4C1.000
T5C5.300
%
G90
G05
T1
X33.24Y-256.74
X33.25Y-254.25
X33.25Y-259.25
X33.25Y-261.5
X33.25Y-263.75
X33.25Y-266.0
T2
X20.275Y-260.25
X21.439Y-257.439
X21.439Y-263.061
X24.25Y-256.275
X24.25Y-264.225
X27.061Y-257.439
X27.061Y-263.061
X28.225Y-260.25
T3
X240.714Y-242.975
X240.765Y-240.892
X240.79Y-245.032
X242.975Y-240.892
X242.975Y-243.0
X242.975Y-245.032
X245.159Y-240.917
X245.159Y-245.057
X245.184Y-243.076
X40.714Y-222.975
X40.765Y-220.892
X40.79Y-225.032
X42.975Y-220.892
X42.975Y-223.0
X42.975Y-225.032
X45.159Y-220.917
X45.159Y-225.057
X45.184Y-223.076
X40.714Y-82.975
X40.765Y-80.892
X40.79Y-85.032
X42.975Y-80.892
X42.975Y-83.0
X42.975Y-85.032
X45.159Y-80.917
X45.159Y-85.057
X45.184Y-83.076
X140.816Y-42.924
X140.841Y-40.943
X140.841Y-45.083
X143.025Y-40.968
X143.025Y-43.0
X143.025Y-45.108
X145.21Y-40.968
X145.235Y-45.108
X145.286Y-43.025
X240.714Y-62.975
X240.765Y-60.892
X240.79Y-65.032
X242.975Y-60.892
X242.975Y-63.0
X242.975Y-65.032
X245.159Y-60.917
X245.159Y-65.057
X245.184Y-63.076
X20.714Y-162.975
X20.765Y-160.892
X20.79Y-165.032
X22.975Y-160.892
X22.975Y-163.0
X22.975Y-165.032
X25.159Y-160.917
X25.159Y-165.057
X25.184Y-163.076
X100.816Y-42.924
X100.841Y-40.943
X100.841Y-45.083
X103.025Y-40.968
X103.025Y-43.0
X103.025Y-45.108
X105.21Y-40.968
X105.235Y-45.108
X105.286Y-43.025
X240.714Y-142.975
X240.765Y-140.892
X240.79Y-145.032
X242.975Y-140.892
X242.975Y-143.0
X242.975Y-145.032
X245.159Y-140.917
X245.159Y-145.057
X245.184Y-143.076
X220.816Y-202.924
X220.841Y-200.943
X220.841Y-205.083
X223.025Y-200.968
X223.025Y-203.0
X223.025Y-205.108
X225.21Y-200.968
X225.235Y-205.108
X225.286Y-203.025
X160.528Y-202.921
X160.579Y-200.838
X160.604Y-204.978
X162.789Y-200.838
X162.789Y-202.946
X162.789Y-204.978
X164.973Y-200.863
X164.973Y-205.003
X164.998Y-203.022
X40.386Y-203.429
X40.437Y-201.346
X40.462Y-205.486
X42.647Y-201.346
X42.647Y-203.454
X42.647Y-205.486
X44.831Y-201.371
X44.831Y-205.511
X44.856Y-203.53
X260.816Y-22.924
X260.841Y-20.943
X260.841Y-25.083
X263.025Y-20.968
X263.025Y-23.0
X263.025Y-25.108
X265.21Y-20.968
X265.235Y-25.108
X265.286Y-23.025
X180.816Y-22.924
X180.841Y-20.943
X180.841Y-25.083
X183.025Y-20.968
X183.025Y-23.0
X183.025Y-25.108
X185.21Y-20.968
X185.235Y-25.108
X185.286Y-23.025
X160.714Y-122.975
X160.765Y-120.892
X160.79Y-125.032
X162.975Y-120.892
X162.975Y-123.0
X162.975Y-125.032
X165.159Y-120.917
X165.159Y-125.057
X165.184Y-123.076
X260.816Y-182.924
X260.841Y-180.943
X260.841Y-185.083
X263.025Y-180.968
X263.025Y-183.0
X263.025Y-185.108
X265.21Y-180.968
X265.235Y-185.108
X265.286Y-183.025
X60.496Y-62.854
X60.521Y-60.873
X60.521Y-65.013
X62.705Y-60.898
X62.705Y-62.93
X62.705Y-65.038
X64.89Y-60.898
X64.915Y-65.038
X64.966Y-62.955
X40.714Y-142.975
X40.765Y-140.892
X40.79Y-145.032
X42.975Y-140.892
X42.975Y-143.0
X42.975Y-145.032
X45.159Y-140.917
X45.159Y-145.057
X45.184Y-143.076
X160.714Y-182.975
X160.765Y-180.892
X160.79Y-185.032
X162.975Y-180.892
X162.975Y-183.0
X162.975Y-185.032
X165.159Y-180.917
X165.159Y-185.057
X165.184Y-183.076
X40.714Y-182.975
X40.765Y-180.892
X40.79Y-185.032
X42.975Y-180.892
X42.975Y-183.0
X42.975Y-185.032
X45.159Y-180.917
X45.159Y-185.057
X45.184Y-183.076
X180.816Y-222.924
X180.841Y-220.943
X180.841Y-225.083
X183.025Y-220.968
X183.025Y-223.0
X183.025Y-225.108
X185.21Y-220.968
X185.235Y-225.108
X185.286Y-223.025
X120.714Y-222.975
X120.765Y-220.892
X120.79Y-225.032
X122.975Y-220.892
X122.975Y-223.0
X122.975Y-225.032
X125.159Y-220.917
X125.159Y-225.057
X125.184Y-223.076
X220.816Y-102.924
X220.841Y-100.943
X220.841Y-105.083
X223.025Y-100.968
X223.025Y-103.0
X223.025Y-105.108
X225.21Y-100.968
X225.235Y-105.108
X225.286Y-103.025
X160.714Y-102.975
X160.765Y-100.892
X160.79Y-105.032
X162.975Y-100.892
X162.975Y-103.0
X162.975Y-105.032
X165.159Y-100.917
X165.159Y-105.057
X165.184Y-103.076
X20.714Y-62.975
X20.765Y-60.892
X20.79Y-65.032
X22.975Y-60.892
X22.975Y-63.0
X22.975Y-65.032
X25.159Y-60.917
X25.159Y-65.057
X25.184Y-63.076
X140.816Y-162.924
X140.841Y-160.943
X140.841Y-165.083
X143.025Y-160.968
X143.025Y-163.0
X143.025Y-165.108
X145.21Y-160.968
X145.235Y-165.108
X145.286Y-163.025
X80.714Y-222.975
X80.765Y-220.892
X80.79Y-225.032
X82.975Y-220.892
X82.975Y-223.0
X82.975Y-225.032
X85.159Y-220.917
X85.159Y-225.057
X85.184Y-223.076
X240.714Y-42.975
X240.765Y-40.892
X240.79Y-45.032
X242.975Y-40.892
X242.975Y-43.0
X242.975Y-45.032
X245.159Y-40.917
X245.159Y-45.057
X245.184Y-43.076
X180.816Y-42.924
X180.841Y-40.943
X180.841Y-45.083
X183.025Y-40.968
X183.025Y-43.0
X183.025Y-45.108
X185.21Y-40.968
X185.235Y-45.108
X185.286Y-43.025
X60.816Y-162.924
X60.841Y-160.943
X60.841Y-165.083
X63.025Y-160.968
X63.025Y-163.0
X63.025Y-165.108
X65.21Y-160.968
X65.235Y-165.108
X65.286Y-163.025
X20.714Y-102.975
X20.765Y-100.892
X20.79Y-105.032
X22.975Y-100.892
X22.975Y-103.0
X22.975Y-105.032
X25.159Y-100.917
X25.159Y-105.057
X25.184Y-103.076
X220.816Y-82.924
X220.841Y-80.943
X220.841Y-85.083
X223.025Y-80.968
X223.025Y-83.0
X223.025Y-85.108
X225.21Y-80.968
X225.235Y-85.108
X225.286Y-83.025
X100.816Y-82.924
X100.841Y-80.943
X100.841Y-85.083
X103.025Y-80.968
X103.025Y-83.0
X103.025Y-85.108
X105.21Y-80.968
X105.235Y-85.108
X105.286Y-83.025
X200.714Y-202.975
X200.765Y-200.892
X200.79Y-205.032
X202.975Y-200.892
X202.975Y-203.0
X202.975Y-205.032
X205.159Y-200.917
X205.159Y-205.057
X205.184Y-203.076
X180.816Y-82.924
X180.841Y-80.943
X180.841Y-85.083
X183.025Y-80.968
X183.025Y-83.0
X183.025Y-85.108
X185.21Y-80.968
X185.235Y-85.108
X185.286Y-83.025
X40.714Y-42.975
X40.765Y-40.892
X40.79Y-45.032
X42.975Y-40.892
X42.975Y-43.0
X42.975Y-45.032
X45.159Y-40.917
X45.159Y-45.057
X45.184Y-43.076
X100.816Y-242.924
X100.841Y-240.943
X100.841Y-245.083
X103.025Y-240.968
X103.025Y-243.0
X103.025Y-245.108
X105.21Y-240.968
X105.235Y-245.108
X105.286Y-243.025
X220.816Y-22.924
X220.841Y-20.943
X220.841Y-25.083
X223.025Y-20.968
X223.025Y-23.0
X223.025Y-25.108
X225.21Y-20.968
X225.235Y-25.108
X225.286Y-23.025
X140.816Y-62.924
X140.841Y-60.943
X140.841Y-65.083
X143.025Y-60.968
X143.025Y-63.0
X143.025Y-65.108
X145.21Y-60.968
X145.235Y-65.108
X145.286Y-63.025
X180.816Y-142.924
X180.841Y-140.943
X180.841Y-145.083
X183.025Y-140.968
X183.025Y-143.0
X183.025Y-145.108
X185.21Y-140.968
X185.235Y-145.108
X185.286Y-143.025
X120.714Y-142.975
X120.765Y-140.892
X120.79Y-145.032
X122.975Y-140.892
X122.975Y-143.0
X122.975Y-145.032
X125.159Y-140.917
X125.159Y-145.057
X125.184Y-143.076
X260.816Y-222.924
X260.841Y-220.943
X260.841Y-225.083
X263.025Y-220.968
X263.025Y-223.0
X263.025Y-225.108
X265.21Y-220.968
X265.235Y-225.108
X265.286Y-223.025
X100.816Y-122.924
X100.841Y-120.943
X100.841Y-125.083
X103.025Y-120.968
X103.025Y-123.0
X103.025Y-125.108
X105.21Y-120.968
X105.235Y-125.108
X105.286Y-123.025
X100.816Y-62.924
X100.841Y-60.943
X100.841Y-65.083
X103.025Y-60.968
X103.025Y-63.0
X103.025Y-65.108
X105.21Y-60.968
X105.235Y-65.108
X105.286Y-63.025
X80.714Y-142.975
X80.765Y-140.892
X80.79Y-145.032
X82.975Y-140.892
X82.975Y-143.0
X82.975Y-145.032
X85.159Y-140.917
X85.159Y-145.057
X85.184Y-143.076
X140.816Y-182.924
X140.841Y-180.943
X140.841Y-185.083
X143.025Y-180.968
X143.025Y-183.0
X143.025Y-185.108
X145.21Y-180.968
X145.235Y-185.108
X145.286Y-183.025
X80.714Y-182.975
X80.765Y-180.892
X80.79Y-185.032
X82.975Y-180.892
X82.975Y-183.0
X82.975Y-185.032
X85.159Y-180.917
X85.159Y-185.057
X85.184Y-183.076
X260.816Y-102.924
X260.841Y-100.943
X260.841Y-105.083
X263.025Y-100.968
X263.025Y-103.0
X263.025Y-105.108
X265.21Y-100.968
X265.235Y-105.108
X265.286Y-103.025
X200.714Y-102.975
X200.765Y-100.892
X200.79Y-105.032
X202.975Y-100.892
X202.975Y-103.0
X202.975Y-105.032
X205.159Y-100.917
X205.159Y-105.057
X205.184Y-103.076
X240.714Y-122.975
X240.765Y-120.892
X240.79Y-125.032
X242.975Y-120.892
X242.975Y-123.0
X242.975Y-125.032
X245.159Y-120.917
X245.159Y-125.057
X245.184Y-123.076
X180.816Y-162.924
X180.841Y-160.943
X180.841Y-165.083
X183.025Y-160.968
X183.025Y-163.0
X183.025Y-165.108
X185.21Y-160.968
X185.235Y-165.108
X185.286Y-163.025
X220.816Y-242.924
X220.841Y-240.943
X220.841Y-245.083
X223.025Y-240.968
X223.025Y-243.0
X223.025Y-245.108
X225.21Y-240.968
X225.235Y-245.108
X225.286Y-243.025
X100.816Y-102.924
X100.841Y-100.943
X100.841Y-105.083
X103.025Y-100.968
X103.025Y-103.0
X103.025Y-105.108
X105.21Y-100.968
X105.235Y-105.108
X105.286Y-103.025
X100.816Y-162.924
X100.841Y-160.943
X100.841Y-165.083
X103.025Y-160.968
X103.025Y-163.0
X103.025Y-165.108
X105.21Y-160.968
X105.235Y-165.108
X105.286Y-163.025
X180.816Y-242.924
X180.841Y-240.943
X180.841Y-245.083
X183.025Y-240.968
X183.025Y-243.0
X183.025Y-245.108
X185.21Y-240.968
X185.235Y-245.108
X185.286Y-243.025
X60.816Y-102.924
X60.841Y-100.943
X60.841Y-105.083
X63.025Y-100.968
X63.025Y-103.0
X63.025Y-105.108
X65.21Y-100.968
X65.235Y-105.108
X65.286Y-103.025
X260.816Y-82.924
X260.841Y-80.943
X260.841Y-85.083
X263.025Y-80.968
X263.025Y-83.0
X263.025Y-85.108
X265.21Y-80.968
X265.235Y-85.108
X265.286Y-83.025
X80.714Y-82.975
X80.765Y-80.892
X80.79Y-85.032
X82.975Y-80.892
X82.975Y-83.0
X82.975Y-85.032
X85.159Y-80.917
X85.159Y-85.057
X85.184Y-83.076
X20.828Y-83.033
X20.879Y-80.95
X20.904Y-85.09
X23.089Y-80.95
X23.089Y-83.058
X23.089Y-85.09
X25.273Y-80.975
X25.273Y-85.115
X25.298Y-83.134
X140.816Y-242.924
X140.841Y-240.943
X140.841Y-245.083
X143.025Y-240.968
X143.025Y-243.0
X143.025Y-245.108
X145.21Y-240.968
X145.235Y-245.108
X145.286Y-243.025
X240.714Y-202.975
X240.765Y-200.892
X240.79Y-205.032
X242.975Y-200.892
X242.975Y-203.0
X242.975Y-205.032
X245.159Y-200.917
X245.159Y-205.057
X245.184Y-203.076
X80.714Y-42.975
X80.765Y-40.892
X80.79Y-45.032
X82.975Y-40.892
X82.975Y-43.0
X82.975Y-45.032
X85.159Y-40.917
X85.159Y-45.057
X85.184Y-43.076
X180.816Y-62.924
X180.841Y-60.943
X180.841Y-65.083
X183.025Y-60.968
X183.025Y-63.0
X183.025Y-65.108
X185.21Y-60.968
X185.235Y-65.108
X185.286Y-63.025
X220.816Y-142.924
X220.841Y-140.943
X220.841Y-145.083
X223.025Y-140.968
X223.025Y-143.0
X223.025Y-145.108
X225.21Y-140.968
X225.235Y-145.108
X225.286Y-143.025
X160.714Y-142.975
X160.765Y-140.892
X160.79Y-145.032
X162.975Y-140.892
X162.975Y-143.0
X162.975Y-145.032
X165.159Y-140.917
X165.159Y-145.057
X165.184Y-143.076
X120.714Y-162.975
X120.765Y-160.892
X120.79Y-165.032
X122.975Y-160.892
X122.975Y-163.0
X122.975Y-165.032
X125.159Y-160.917
X125.159Y-165.057
X125.184Y-163.076
X200.714Y-122.975
X200.765Y-120.892
X200.79Y-125.032
X202.975Y-120.892
X202.975Y-123.0
X202.975Y-125.032
X205.159Y-120.917
X205.159Y-125.057
X205.184Y-123.076
X120.714Y-82.975
X120.765Y-80.892
X120.79Y-85.032
X122.975Y-80.892
X122.975Y-83.0
X122.975Y-85.032
X125.159Y-80.917
X125.159Y-85.057
X125.184Y-83.076
X40.714Y-242.975
X40.765Y-240.892
X40.79Y-245.032
X42.975Y-240.892
X42.975Y-243.0
X42.975Y-245.032
X45.159Y-240.917
X45.159Y-245.057
X45.184Y-243.076
X100.816Y-202.924
X100.841Y-200.943
X100.841Y-205.083
X103.025Y-200.968
X103.025Y-203.0
X103.025Y-205.108
X105.21Y-200.968
X105.235Y-205.108
X105.286Y-203.025
X240.538Y-183.109
X240.589Y-181.026
X240.614Y-185.166
X242.799Y-181.026
X242.799Y-183.134
X242.799Y-185.166
X244.983Y-181.051
X244.983Y-185.191
X245.008Y-183.21
X120.714Y-182.975
X120.765Y-180.892
X120.79Y-185.032
X122.975Y-180.892
X122.975Y-183.0
X122.975Y-185.032
X125.159Y-180.917
X125.159Y-185.057
X125.184Y-183.076
X120.714Y-22.975
X120.765Y-20.892
X120.79Y-25.032
X122.975Y-20.892
X122.975Y-23.0
X122.975Y-25.032
X125.159Y-20.917
X125.159Y-25.057
X125.184Y-23.076
X60.816Y-22.924
X60.841Y-20.943
X60.841Y-25.083
X63.025Y-20.968
X63.025Y-23.0
X63.025Y-25.108
X65.21Y-20.968
X65.235Y-25.108
X65.286Y-23.025
X40.714Y-122.975
X40.765Y-120.892
X40.79Y-125.032
X42.975Y-120.892
X42.975Y-123.0
X42.975Y-125.032
X45.159Y-120.917
X45.159Y-125.057
X45.184Y-123.076
X20.714Y-142.975
X20.765Y-140.892
X20.79Y-145.032
X22.975Y-140.892
X22.975Y-143.0
X22.975Y-145.032
X25.159Y-140.917
X25.159Y-145.057
X25.184Y-143.076
X200.406Y-183.109
X200.457Y-181.026
X200.482Y-185.166
X202.667Y-181.026
X202.667Y-183.134
X202.667Y-185.166
X204.851Y-181.051
X204.851Y-185.191
X204.876Y-183.21
X220.816Y-162.924
X220.841Y-160.943
X220.841Y-165.083
X223.025Y-160.968
X223.025Y-163.0
X223.025Y-165.108
X225.21Y-160.968
X225.235Y-165.108
X225.286Y-163.025
X60.816Y-82.924
X60.841Y-80.943
X60.841Y-85.083
X63.025Y-80.968
X63.025Y-83.0
X63.025Y-85.108
X65.21Y-80.968
X65.235Y-85.108
X65.286Y-83.025
X220.816Y-42.924
X220.841Y-40.943
X220.841Y-45.083
X223.025Y-40.968
X223.025Y-43.0
X223.025Y-45.108
X225.21Y-40.968
X225.235Y-45.108
X225.286Y-43.025
X160.714Y-42.975
X160.765Y-40.892
X160.79Y-45.032
X162.975Y-40.892
X162.975Y-43.0
X162.975Y-45.032
X165.159Y-40.917
X165.159Y-45.057
X165.184Y-43.076
X260.816Y-62.924
X260.841Y-60.943
X260.841Y-65.083
X263.025Y-60.968
X263.025Y-63.0
X263.025Y-65.108
X265.21Y-60.968
X265.235Y-65.108
X265.286Y-63.025
X20.714Y-222.975
X20.765Y-220.892
X20.79Y-225.032
X22.975Y-220.892
X22.975Y-223.0
X22.975Y-225.032
X25.159Y-220.917
X25.159Y-225.057
X25.184Y-223.076
X220.816Y-122.924
X220.841Y-120.943
X220.841Y-125.083
X223.025Y-120.968
X223.025Y-123.0
X223.025Y-125.108
X225.21Y-120.968
X225.235Y-125.108
X225.286Y-123.025
X120.714Y-42.975
X120.765Y-40.892
X120.79Y-45.032
X122.975Y-40.892
X122.975Y-43.0
X122.975Y-45.032
X125.159Y-40.917
X125.159Y-45.057
X125.184Y-43.076
X220.816Y-62.924
X220.841Y-60.943
X220.841Y-65.083
X223.025Y-60.968
X223.025Y-63.0
X223.025Y-65.108
X225.21Y-60.968
X225.235Y-65.108
X225.286Y-63.025
X260.816Y-142.924
X260.841Y-140.943
X260.841Y-145.083
X263.025Y-140.968
X263.025Y-143.0
X263.025Y-145.108
X265.21Y-140.968
X265.235Y-145.108
X265.286Y-143.025
X160.714Y-22.975
X160.765Y-20.892
X160.79Y-25.032
X162.975Y-20.892
X162.975Y-23.0
X162.975Y-25.032
X165.159Y-20.917
X165.159Y-25.057
X165.184Y-23.076
X100.816Y-22.924
X100.841Y-20.943
X100.841Y-25.083
X103.025Y-20.968
X103.025Y-23.0
X103.025Y-25.108
X105.21Y-20.968
X105.235Y-25.108
X105.286Y-23.025
X140.816Y-122.924
X140.841Y-120.943
X140.841Y-125.083
X143.025Y-120.968
X143.025Y-123.0
X143.025Y-125.108
X145.21Y-120.968
X145.235Y-125.108
X145.286Y-123.025
X80.714Y-62.975
X80.765Y-60.892
X80.79Y-65.032
X82.975Y-60.892
X82.975Y-63.0
X82.975Y-65.032
X85.159Y-60.917
X85.159Y-65.057
X85.184Y-63.076
X60.816Y-142.924
X60.841Y-140.943
X60.841Y-145.083
X63.025Y-140.968
X63.025Y-143.0
X63.025Y-145.108
X65.21Y-140.968
X65.235Y-145.108
X65.286Y-143.025
X260.816Y-162.924
X260.841Y-160.943
X260.841Y-165.083
X263.025Y-160.968
X263.025Y-163.0
X263.025Y-165.108
X265.21Y-160.968
X265.235Y-165.108
X265.286Y-163.025
X200.714Y-222.975
X200.765Y-220.892
X200.79Y-225.032
X202.975Y-220.892
X202.975Y-223.0
X202.975Y-225.032
X205.159Y-220.917
X205.159Y-225.057
X205.184Y-223.076
X140.816Y-222.924
X140.841Y-220.943
X140.841Y-225.083
X143.025Y-220.968
X143.025Y-223.0
X143.025Y-225.108
X145.21Y-220.968
X145.235Y-225.108
X145.286Y-223.025
X240.714Y-102.975
X240.765Y-100.892
X240.79Y-105.032
X242.975Y-100.892
X242.975Y-103.0
X242.975Y-105.032
X245.159Y-100.917
X245.159Y-105.057
X245.184Y-103.076
X40.714Y-62.975
X40.765Y-60.892
X40.79Y-65.032
X42.975Y-60.892
X42.975Y-63.0
X42.975Y-65.032
X45.159Y-60.917
X45.159Y-65.057
X45.184Y-63.076
X20.714Y-183.475
X20.765Y-181.392
X20.79Y-185.532
X22.975Y-181.392
X22.975Y-183.5
X22.975Y-185.532
X25.159Y-181.417
X25.159Y-185.557
X25.184Y-183.576
X160.714Y-162.975
X160.765Y-160.892
X160.79Y-165.032
X162.975Y-160.892
X162.975Y-163.0
X162.975Y-165.032
X165.159Y-160.917
X165.159Y-165.057
X165.184Y-163.076
X160.714Y-222.975
X160.765Y-220.892
X160.79Y-225.032
X162.975Y-220.892
X162.975Y-223.0
X162.975Y-225.032
X165.159Y-220.917
X165.159Y-225.057
X165.184Y-223.076
X100.816Y-222.924
X100.841Y-220.943
X100.841Y-225.083
X103.025Y-220.968
X103.025Y-223.0
X103.025Y-225.108
X105.21Y-220.968
X105.235Y-225.108
X105.286Y-223.025
X140.816Y-102.924
X140.841Y-100.943
X140.841Y-105.083
X143.025Y-100.968
X143.025Y-103.0
X143.025Y-105.108
X145.21Y-100.968
X145.235Y-105.108
X145.286Y-103.025
X260.816Y-42.924
X260.841Y-40.943
X260.841Y-45.083
X263.025Y-40.968
X263.025Y-43.0
X263.025Y-45.108
X265.21Y-40.968
X265.235Y-45.108
X265.286Y-43.025
X200.714Y-42.975
X200.765Y-40.892
X200.79Y-45.032
X202.975Y-40.892
X202.975Y-43.0
X202.975Y-45.032
X205.159Y-40.917
X205.159Y-45.057
X205.184Y-43.076
X60.816Y-222.924
X60.841Y-220.943
X60.841Y-225.083
X63.025Y-220.968
X63.025Y-223.0
X63.025Y-225.108
X65.21Y-220.968
X65.235Y-225.108
X65.286Y-223.025
X40.714Y-162.975
X40.765Y-160.892
X40.79Y-165.032
X42.975Y-160.892
X42.975Y-163.0
X42.975Y-165.032
X45.159Y-160.917
X45.159Y-165.057
X45.184Y-163.076
X200.714Y-82.975
X200.765Y-80.892
X200.79Y-85.032
X202.975Y-80.892
X202.975Y-83.0
X202.975Y-85.032
X205.159Y-80.917
X205.159Y-85.057
X205.184Y-83.076
X240.714Y-22.975
X240.765Y-20.892
X240.79Y-25.032
X242.975Y-20.892
X242.975Y-23.0
X242.975Y-25.032
X245.159Y-20.917
X245.159Y-25.057
X245.184Y-23.076
X160.714Y-62.975
X160.765Y-60.892
X160.79Y-65.032
X162.975Y-60.892
X162.975Y-63.0
X162.975Y-65.032
X165.159Y-60.917
X165.159Y-65.057
X165.184Y-63.076
X180.816Y-202.924
X180.841Y-200.943
X180.841Y-205.083
X183.025Y-200.968
X183.025Y-203.0
X183.025Y-205.108
X185.21Y-200.968
X185.235Y-205.108
X185.286Y-203.025
X60.816Y-202.924
X60.841Y-200.943
X60.841Y-205.083
X63.025Y-200.968
X63.025Y-203.0
X63.025Y-205.108
X65.21Y-200.968
X65.235Y-205.108
X65.286Y-203.025
X160.714Y-82.975
X160.765Y-80.892
X160.79Y-85.032
X162.975Y-80.892
X162.975Y-83.0
X162.975Y-85.032
X165.159Y-80.917
X165.159Y-85.057
X165.184Y-83.076
X20.714Y-42.975
X20.765Y-40.892
X20.79Y-45.032
X22.975Y-40.892
X22.975Y-43.0
X22.975Y-45.032
X25.159Y-40.917
X25.159Y-45.057
X25.184Y-43.076
X80.714Y-242.975
X80.765Y-240.892
X80.79Y-245.032
X82.975Y-240.892
X82.975Y-243.0
X82.975Y-245.032
X85.159Y-240.917
X85.159Y-245.057
X85.184Y-243.076
X200.714Y-22.975
X200.765Y-20.892
X200.79Y-25.032
X202.975Y-20.892
X202.975Y-23.0
X202.975Y-25.032
X205.159Y-20.917
X205.159Y-25.057
X205.184Y-23.076
X120.714Y-122.975
X120.765Y-120.892
X120.79Y-125.032
X122.975Y-120.892
X122.975Y-123.0
X122.975Y-125.032
X125.159Y-120.917
X125.159Y-125.057
X125.184Y-123.076
X120.714Y-62.975
X120.765Y-60.892
X120.79Y-65.032
X122.975Y-60.892
X122.975Y-63.0
X122.975Y-65.032
X125.159Y-60.917
X125.159Y-65.057
X125.184Y-63.076
X260.816Y-242.924
X260.841Y-240.943
X260.841Y-245.083
X263.025Y-240.968
X263.025Y-243.0
X263.025Y-245.108
X265.21Y-240.968
X265.235Y-245.108
X265.286Y-243.025
X100.816Y-142.924
X100.841Y-140.943
X100.841Y-145.083
X103.025Y-140.968
X103.025Y-143.0
X103.025Y-145.108
X105.21Y-140.968
X105.235Y-145.108
X105.286Y-143.025
X140.564Y-202.616
X140.589Y-200.635
X140.589Y-204.775
X142.773Y-200.66
X142.773Y-202.692
X142.773Y-204.8
X144.958Y-200.66
X144.983Y-204.8
X145.034Y-202.717
X80.714Y-202.975
X80.765Y-200.892
X80.79Y-205.032
X82.975Y-200.892
X82.975Y-203.0
X82.975Y-205.032
X85.159Y-200.917
X85.159Y-205.057
X85.184Y-203.076
X20.714Y-202.975
X20.765Y-200.892
X20.79Y-205.032
X22.975Y-200.892
X22.975Y-203.0
X22.975Y-205.032
X25.159Y-200.917
X25.159Y-205.057
X25.184Y-203.076
X100.816Y-182.924
X100.841Y-180.943
X100.841Y-185.083
X103.025Y-180.968
X103.025Y-183.0
X103.025Y-185.108
X105.21Y-180.968
X105.235Y-185.108
X105.286Y-183.025
X240.714Y-222.975
X240.765Y-220.892
X240.79Y-225.032
X242.975Y-220.892
X242.975Y-223.0
X242.975Y-225.032
X245.159Y-220.917
X245.159Y-225.057
X245.184Y-223.076
X40.714Y-22.975
X40.765Y-20.892
X40.79Y-25.032
X42.975Y-20.892
X42.975Y-23.0
X42.975Y-25.032
X45.159Y-20.917
X45.159Y-25.057
X45.184Y-23.076
X80.714Y-122.975
X80.765Y-120.892
X80.79Y-125.032
X82.975Y-120.892
X82.975Y-123.0
X82.975Y-125.032
X85.159Y-120.917
X85.159Y-125.057
X85.184Y-123.076
X20.714Y-122.975
X20.765Y-120.892
X20.79Y-125.032
X22.975Y-120.892
X22.975Y-123.0
X22.975Y-125.032
X25.159Y-120.917
X25.159Y-125.057
X25.184Y-123.076
X20.714Y-22.975
X20.765Y-20.892
X20.79Y-25.032
X22.975Y-20.892
X22.975Y-23.0
X22.975Y-25.032
X25.159Y-20.917
X25.159Y-25.057
X25.184Y-23.076
X260.816Y-122.924
X260.841Y-120.943
X260.841Y-125.083
X263.025Y-120.968
X263.025Y-123.0
X263.025Y-125.108
X265.21Y-120.968
X265.235Y-125.108
X265.286Y-123.025
X180.816Y-182.924
X180.841Y-180.943
X180.841Y-185.083
X183.025Y-180.968
X183.025Y-183.0
X183.025Y-185.108
X185.21Y-180.968
X185.235Y-185.108
X185.286Y-183.025
X60.816Y-182.924
X60.841Y-180.943
X60.841Y-185.083
X63.025Y-180.968
X63.025Y-183.0
X63.025Y-185.108
X65.21Y-180.968
X65.235Y-185.108
X65.286Y-183.025
X200.714Y-162.975
X200.765Y-160.892
X200.79Y-165.032
X202.975Y-160.892
X202.975Y-163.0
X202.975Y-165.032
X205.159Y-160.917
X205.159Y-165.057
X205.184Y-163.076
X180.816Y-102.924
X180.841Y-100.943
X180.841Y-105.083
X183.025Y-100.968
X183.025Y-103.0
X183.025Y-105.108
X185.21Y-100.968
X185.235Y-105.108
X185.286Y-103.025
X120.214Y-102.975
X120.265Y-100.892
X120.29Y-105.032
X122.475Y-100.892
X122.475Y-103.0
X122.475Y-105.032
X124.659Y-100.917
X124.659Y-105.057
X124.684Y-103.076
X200.714Y-242.975
X200.765Y-240.892
X200.79Y-245.032
X202.975Y-240.892
X202.975Y-243.0
X202.975Y-245.032
X205.159Y-240.917
X205.159Y-245.057
X205.184Y-243.076
X80.714Y-102.975
X80.765Y-100.892
X80.79Y-105.032
X82.975Y-100.892
X82.975Y-103.0
X82.975Y-105.032
X85.159Y-100.917
X85.159Y-105.057
X85.184Y-103.076
X80.714Y-162.975
X80.765Y-160.892
X80.79Y-165.032
X82.975Y-160.892
X82.975Y-163.0
X82.975Y-165.032
X85.159Y-160.917
X85.159Y-165.057
X85.184Y-163.076
X160.714Y-242.975
X160.765Y-240.892
X160.79Y-245.032
X162.975Y-240.892
X162.975Y-243.0
X162.975Y-245.032
X165.159Y-240.917
X165.159Y-245.057
X165.184Y-243.076
X260.816Y-202.924
X260.841Y-200.943
X260.841Y-205.083
X263.025Y-200.968
X263.025Y-203.0
X263.025Y-205.108
X265.21Y-200.968
X265.235Y-205.108
X265.286Y-203.025
X40.714Y-102.975
X40.765Y-100.892
X40.79Y-105.032
X42.975Y-100.892
X42.975Y-103.0
X42.975Y-105.032
X45.159Y-100.917
X45.159Y-105.057
X45.184Y-103.076
X240.714Y-82.975
X240.765Y-80.892
X240.79Y-85.032
X242.975Y-80.892
X242.975Y-83.0
X242.975Y-85.032
X245.159Y-80.917
X245.159Y-85.057
X245.184Y-83.076
X200.714Y-62.975
X200.765Y-60.892
X200.79Y-65.032
X202.975Y-60.892
X202.975Y-63.0
X202.975Y-65.032
X205.159Y-60.917
X205.159Y-65.057
X205.184Y-63.076
X140.816Y-82.924
X140.841Y-80.943
X140.841Y-85.083
X143.025Y-80.968
X143.025Y-83.0
X143.025Y-85.108
X145.21Y-80.968
X145.235Y-85.108
X145.286Y-83.025
X60.496Y-43.804
X60.521Y-41.823
X60.521Y-45.963
X62.705Y-41.848
X62.705Y-43.88
X62.705Y-45.988
X64.89Y-41.848
X64.915Y-45.988
X64.966Y-43.905
X120.714Y-242.975
X120.765Y-240.892
X120.79Y-245.032
X122.975Y-240.892
X122.975Y-243.0
X122.975Y-245.032
X125.159Y-240.917
X125.159Y-245.057
X125.184Y-243.076
X60.816Y-242.924
X60.841Y-240.943
X60.841Y-245.083
X63.025Y-240.968
X63.025Y-243.0
X63.025Y-245.108
X65.21Y-240.968
X65.235Y-245.108
X65.286Y-243.025
X200.714Y-142.975
X200.765Y-140.892
X200.79Y-145.032
X202.975Y-140.892
X202.975Y-143.0
X202.975Y-145.032
X205.159Y-140.917
X205.159Y-145.057
X205.184Y-143.076
X140.816Y-142.924
X140.841Y-140.943
X140.841Y-145.083
X143.025Y-140.968
X143.025Y-143.0
X143.025Y-145.108
X145.21Y-140.968
X145.235Y-145.108
X145.286Y-143.025
X120.904Y-203.175
X120.955Y-201.092
X120.98Y-205.232
X123.165Y-201.092
X123.165Y-203.2
X123.165Y-205.232
X125.349Y-201.117
X125.349Y-205.257
X125.374Y-203.276
X20.714Y-242.975
X20.765Y-240.892
X20.79Y-245.032
X22.975Y-240.892
X22.975Y-243.0
X22.975Y-245.032
X25.159Y-240.917
X25.159Y-245.057
X25.184Y-243.076
X220.816Y-222.924
X220.841Y-220.943
X220.841Y-225.083
X223.025Y-220.968
X223.025Y-223.0
X223.025Y-225.108
X225.21Y-220.968
X225.235Y-225.108
X225.286Y-223.025
X140.816Y-22.924
X140.841Y-20.943
X140.841Y-25.083
X143.025Y-20.968
X143.025Y-23.0
X143.025Y-25.108
X145.21Y-20.968
X145.235Y-25.108
X145.286Y-23.025
X80.714Y-22.975
X80.765Y-20.892
X80.79Y-25.032
X82.975Y-20.892
X82.975Y-23.0
X82.975Y-25.032
X85.159Y-20.917
X85.159Y-25.057
X85.184Y-23.076
X180.816Y-122.924
X180.841Y-120.943
X180.841Y-125.083
X183.025Y-120.968
X183.025Y-123.0
X183.025Y-125.108
X185.21Y-120.968
X185.235Y-125.108
X185.286Y-123.025
X60.816Y-122.924
X60.841Y-120.943
X60.841Y-125.083
X63.025Y-120.968
X63.025Y-123.0
X63.025Y-125.108
X65.21Y-120.968
X65.235Y-125.108
X65.286Y-123.025
X220.816Y-182.924
X220.841Y-180.943
X220.841Y-185.083
X223.025Y-180.968
X223.025Y-183.0
X223.025Y-185.108
X225.21Y-180.968
X225.235Y-185.108
X225.286Y-183.025
X240.714Y-164.475
X240.765Y-162.392
X240.79Y-166.532
X242.975Y-162.392
X242.975Y-164.5
X242.975Y-166.532
X245.159Y-162.417
X245.159Y-166.557
X245.184Y-164.576
T4
X112.96Y-271.05
X115.5Y-271.05
X118.04Y-271.05
X120.58Y-271.05
X123.12Y-271.05
X125.66Y-271.05
X128.2Y-271.05
X130.74Y-271.05
X133.28Y-271.05
X135.82Y-271.05
X138.36Y-271.05
X140.9Y-271.05
X143.44Y-271.05
X145.98Y-271.05
X174.26Y-271.0
X176.8Y-271.0
X179.34Y-271.0
X181.88Y-271.0
X184.42Y-271.0
X186.96Y-271.0
X189.5Y-271.0
T5
X24.25Y-260.25
T0
M30
