G04 #@! TF.GenerationSoftware,KiCad,Pcbnew,(5.1.5-0-10_14)*
G04 #@! TF.CreationDate,2020-03-21T16:44:53+01:00*
G04 #@! TF.ProjectId,easypowerwall,65617379-706f-4776-9572-77616c6c2e6b,rev?*
G04 #@! TF.SameCoordinates,Original*
G04 #@! TF.FileFunction,Copper,L2,Bot*
G04 #@! TF.FilePolarity,Positive*
%FSLAX46Y46*%
G04 Gerber Fmt 4.6, Leading zero omitted, Abs format (unit mm)*
G04 Created by KiCad (PCBNEW (5.1.5-0-10_14)) date 2020-03-21 16:44:53*
%MOMM*%
%LPD*%
G04 APERTURE LIST*
%ADD10C,0.100000*%
%ADD11C,0.010000*%
%ADD12C,0.900000*%
%ADD13C,10.600000*%
%ADD14R,1.524000X1.524000*%
%ADD15O,1.700000X1.700000*%
%ADD16R,1.700000X1.700000*%
%ADD17C,0.800000*%
%ADD18C,2.000000*%
G04 APERTURE END LIST*
D10*
G36*
X42000000Y-267750000D02*
G01*
X17000000Y-267750000D01*
X17000000Y-252750000D01*
X42000000Y-252750000D01*
X42000000Y-267750000D01*
G37*
X42000000Y-267750000D02*
X17000000Y-267750000D01*
X17000000Y-252750000D01*
X42000000Y-252750000D01*
X42000000Y-267750000D01*
D11*
G36*
X200400256Y-263419918D02*
G01*
X200344799Y-263447568D01*
X200295852Y-263498480D01*
X200282371Y-263517338D01*
X200267686Y-263542015D01*
X200258158Y-263568816D01*
X200252707Y-263604587D01*
X200250253Y-263656169D01*
X200249714Y-263724267D01*
X200252148Y-263817588D01*
X200260606Y-263887657D01*
X200276826Y-263939931D01*
X200302546Y-263979869D01*
X200339503Y-264012929D01*
X200342218Y-264014886D01*
X200378640Y-264034908D01*
X200422498Y-264044815D01*
X200478276Y-264047257D01*
X200568952Y-264047257D01*
X200568990Y-264135283D01*
X200569834Y-264184308D01*
X200574976Y-264213065D01*
X200588413Y-264230311D01*
X200614142Y-264244808D01*
X200620321Y-264247769D01*
X200649236Y-264261648D01*
X200671624Y-264270414D01*
X200688271Y-264271171D01*
X200699964Y-264261023D01*
X200707490Y-264237073D01*
X200711634Y-264196426D01*
X200713185Y-264136186D01*
X200712929Y-264053455D01*
X200711651Y-263945339D01*
X200711252Y-263913000D01*
X200709815Y-263801524D01*
X200708528Y-263728603D01*
X200569029Y-263728603D01*
X200568245Y-263790499D01*
X200564760Y-263830997D01*
X200556876Y-263857708D01*
X200542895Y-263878244D01*
X200533403Y-263888260D01*
X200494596Y-263917567D01*
X200460237Y-263919952D01*
X200424784Y-263895750D01*
X200423886Y-263894857D01*
X200409461Y-263876153D01*
X200400687Y-263850732D01*
X200396261Y-263811584D01*
X200394882Y-263751697D01*
X200394857Y-263738430D01*
X200398188Y-263655901D01*
X200409031Y-263598691D01*
X200428660Y-263563766D01*
X200458350Y-263548094D01*
X200475509Y-263546514D01*
X200516234Y-263553926D01*
X200544168Y-263578330D01*
X200560983Y-263622980D01*
X200568350Y-263691130D01*
X200569029Y-263728603D01*
X200708528Y-263728603D01*
X200708292Y-263715245D01*
X200706323Y-263650333D01*
X200703550Y-263602958D01*
X200699612Y-263569290D01*
X200694151Y-263545498D01*
X200686808Y-263527753D01*
X200677223Y-263512224D01*
X200673113Y-263506381D01*
X200618595Y-263451185D01*
X200549664Y-263419890D01*
X200469928Y-263411165D01*
X200400256Y-263419918D01*
G37*
X200400256Y-263419918D02*
X200344799Y-263447568D01*
X200295852Y-263498480D01*
X200282371Y-263517338D01*
X200267686Y-263542015D01*
X200258158Y-263568816D01*
X200252707Y-263604587D01*
X200250253Y-263656169D01*
X200249714Y-263724267D01*
X200252148Y-263817588D01*
X200260606Y-263887657D01*
X200276826Y-263939931D01*
X200302546Y-263979869D01*
X200339503Y-264012929D01*
X200342218Y-264014886D01*
X200378640Y-264034908D01*
X200422498Y-264044815D01*
X200478276Y-264047257D01*
X200568952Y-264047257D01*
X200568990Y-264135283D01*
X200569834Y-264184308D01*
X200574976Y-264213065D01*
X200588413Y-264230311D01*
X200614142Y-264244808D01*
X200620321Y-264247769D01*
X200649236Y-264261648D01*
X200671624Y-264270414D01*
X200688271Y-264271171D01*
X200699964Y-264261023D01*
X200707490Y-264237073D01*
X200711634Y-264196426D01*
X200713185Y-264136186D01*
X200712929Y-264053455D01*
X200711651Y-263945339D01*
X200711252Y-263913000D01*
X200709815Y-263801524D01*
X200708528Y-263728603D01*
X200569029Y-263728603D01*
X200568245Y-263790499D01*
X200564760Y-263830997D01*
X200556876Y-263857708D01*
X200542895Y-263878244D01*
X200533403Y-263888260D01*
X200494596Y-263917567D01*
X200460237Y-263919952D01*
X200424784Y-263895750D01*
X200423886Y-263894857D01*
X200409461Y-263876153D01*
X200400687Y-263850732D01*
X200396261Y-263811584D01*
X200394882Y-263751697D01*
X200394857Y-263738430D01*
X200398188Y-263655901D01*
X200409031Y-263598691D01*
X200428660Y-263563766D01*
X200458350Y-263548094D01*
X200475509Y-263546514D01*
X200516234Y-263553926D01*
X200544168Y-263578330D01*
X200560983Y-263622980D01*
X200568350Y-263691130D01*
X200569029Y-263728603D01*
X200708528Y-263728603D01*
X200708292Y-263715245D01*
X200706323Y-263650333D01*
X200703550Y-263602958D01*
X200699612Y-263569290D01*
X200694151Y-263545498D01*
X200686808Y-263527753D01*
X200677223Y-263512224D01*
X200673113Y-263506381D01*
X200618595Y-263451185D01*
X200549664Y-263419890D01*
X200469928Y-263411165D01*
X200400256Y-263419918D01*
G36*
X199283907Y-263427780D02*
G01*
X199237328Y-263454723D01*
X199204943Y-263481466D01*
X199181258Y-263509484D01*
X199164941Y-263543748D01*
X199154661Y-263589227D01*
X199149086Y-263650892D01*
X199146884Y-263733711D01*
X199146629Y-263793246D01*
X199146629Y-264012391D01*
X199208314Y-264040044D01*
X199270000Y-264067697D01*
X199277257Y-263827670D01*
X199280256Y-263738028D01*
X199283402Y-263672962D01*
X199287299Y-263628026D01*
X199292553Y-263598770D01*
X199299769Y-263580748D01*
X199309550Y-263569511D01*
X199312688Y-263567079D01*
X199360239Y-263548083D01*
X199408303Y-263555600D01*
X199436914Y-263575543D01*
X199448553Y-263589675D01*
X199456609Y-263608220D01*
X199461729Y-263636334D01*
X199464559Y-263679173D01*
X199465744Y-263741895D01*
X199465943Y-263807261D01*
X199465982Y-263889268D01*
X199467386Y-263947316D01*
X199472086Y-263986465D01*
X199482013Y-264011780D01*
X199499097Y-264028323D01*
X199525268Y-264041156D01*
X199560225Y-264054491D01*
X199598404Y-264069007D01*
X199593859Y-263811389D01*
X199592029Y-263718519D01*
X199589888Y-263649889D01*
X199586819Y-263600711D01*
X199582206Y-263566198D01*
X199575432Y-263541562D01*
X199565881Y-263522016D01*
X199554366Y-263504770D01*
X199498810Y-263449680D01*
X199431020Y-263417822D01*
X199357287Y-263410191D01*
X199283907Y-263427780D01*
G37*
X199283907Y-263427780D02*
X199237328Y-263454723D01*
X199204943Y-263481466D01*
X199181258Y-263509484D01*
X199164941Y-263543748D01*
X199154661Y-263589227D01*
X199149086Y-263650892D01*
X199146884Y-263733711D01*
X199146629Y-263793246D01*
X199146629Y-264012391D01*
X199208314Y-264040044D01*
X199270000Y-264067697D01*
X199277257Y-263827670D01*
X199280256Y-263738028D01*
X199283402Y-263672962D01*
X199287299Y-263628026D01*
X199292553Y-263598770D01*
X199299769Y-263580748D01*
X199309550Y-263569511D01*
X199312688Y-263567079D01*
X199360239Y-263548083D01*
X199408303Y-263555600D01*
X199436914Y-263575543D01*
X199448553Y-263589675D01*
X199456609Y-263608220D01*
X199461729Y-263636334D01*
X199464559Y-263679173D01*
X199465744Y-263741895D01*
X199465943Y-263807261D01*
X199465982Y-263889268D01*
X199467386Y-263947316D01*
X199472086Y-263986465D01*
X199482013Y-264011780D01*
X199499097Y-264028323D01*
X199525268Y-264041156D01*
X199560225Y-264054491D01*
X199598404Y-264069007D01*
X199593859Y-263811389D01*
X199592029Y-263718519D01*
X199589888Y-263649889D01*
X199586819Y-263600711D01*
X199582206Y-263566198D01*
X199575432Y-263541562D01*
X199565881Y-263522016D01*
X199554366Y-263504770D01*
X199498810Y-263449680D01*
X199431020Y-263417822D01*
X199357287Y-263410191D01*
X199283907Y-263427780D01*
G36*
X200958885Y-263421962D02*
G01*
X200890855Y-263457733D01*
X200840649Y-263515301D01*
X200822815Y-263552312D01*
X200808937Y-263607882D01*
X200801833Y-263678096D01*
X200801160Y-263754727D01*
X200806573Y-263829552D01*
X200817730Y-263894342D01*
X200834286Y-263940873D01*
X200839374Y-263948887D01*
X200899645Y-264008707D01*
X200971231Y-264044535D01*
X201048908Y-264055020D01*
X201127452Y-264038810D01*
X201149311Y-264029092D01*
X201191878Y-263999143D01*
X201229237Y-263959433D01*
X201232768Y-263954397D01*
X201247119Y-263930124D01*
X201256606Y-263904178D01*
X201262210Y-263870022D01*
X201264914Y-263821119D01*
X201265701Y-263750935D01*
X201265714Y-263735200D01*
X201265678Y-263730192D01*
X201120571Y-263730192D01*
X201119727Y-263796430D01*
X201116404Y-263840386D01*
X201109417Y-263868779D01*
X201097584Y-263888325D01*
X201091543Y-263894857D01*
X201056814Y-263919680D01*
X201023097Y-263918548D01*
X200989005Y-263897016D01*
X200968671Y-263874029D01*
X200956629Y-263840478D01*
X200949866Y-263787569D01*
X200949402Y-263781399D01*
X200948248Y-263685513D01*
X200960312Y-263614299D01*
X200985430Y-263568194D01*
X201023440Y-263547635D01*
X201037008Y-263546514D01*
X201072636Y-263552152D01*
X201097006Y-263571686D01*
X201111907Y-263609042D01*
X201119125Y-263668150D01*
X201120571Y-263730192D01*
X201265678Y-263730192D01*
X201265174Y-263660413D01*
X201262904Y-263608159D01*
X201257932Y-263571949D01*
X201249287Y-263545299D01*
X201235995Y-263521722D01*
X201233057Y-263517338D01*
X201183687Y-263458249D01*
X201129891Y-263423947D01*
X201064398Y-263410331D01*
X201042158Y-263409665D01*
X200958885Y-263421962D01*
G37*
X200958885Y-263421962D02*
X200890855Y-263457733D01*
X200840649Y-263515301D01*
X200822815Y-263552312D01*
X200808937Y-263607882D01*
X200801833Y-263678096D01*
X200801160Y-263754727D01*
X200806573Y-263829552D01*
X200817730Y-263894342D01*
X200834286Y-263940873D01*
X200839374Y-263948887D01*
X200899645Y-264008707D01*
X200971231Y-264044535D01*
X201048908Y-264055020D01*
X201127452Y-264038810D01*
X201149311Y-264029092D01*
X201191878Y-263999143D01*
X201229237Y-263959433D01*
X201232768Y-263954397D01*
X201247119Y-263930124D01*
X201256606Y-263904178D01*
X201262210Y-263870022D01*
X201264914Y-263821119D01*
X201265701Y-263750935D01*
X201265714Y-263735200D01*
X201265678Y-263730192D01*
X201120571Y-263730192D01*
X201119727Y-263796430D01*
X201116404Y-263840386D01*
X201109417Y-263868779D01*
X201097584Y-263888325D01*
X201091543Y-263894857D01*
X201056814Y-263919680D01*
X201023097Y-263918548D01*
X200989005Y-263897016D01*
X200968671Y-263874029D01*
X200956629Y-263840478D01*
X200949866Y-263787569D01*
X200949402Y-263781399D01*
X200948248Y-263685513D01*
X200960312Y-263614299D01*
X200985430Y-263568194D01*
X201023440Y-263547635D01*
X201037008Y-263546514D01*
X201072636Y-263552152D01*
X201097006Y-263571686D01*
X201111907Y-263609042D01*
X201119125Y-263668150D01*
X201120571Y-263730192D01*
X201265678Y-263730192D01*
X201265174Y-263660413D01*
X201262904Y-263608159D01*
X201257932Y-263571949D01*
X201249287Y-263545299D01*
X201235995Y-263521722D01*
X201233057Y-263517338D01*
X201183687Y-263458249D01*
X201129891Y-263423947D01*
X201064398Y-263410331D01*
X201042158Y-263409665D01*
X200958885Y-263421962D01*
G36*
X199831697Y-263431239D02*
G01*
X199774473Y-263469735D01*
X199730251Y-263525335D01*
X199703833Y-263596086D01*
X199698490Y-263648162D01*
X199699097Y-263669893D01*
X199704178Y-263686531D01*
X199718145Y-263701437D01*
X199745411Y-263717973D01*
X199790388Y-263739498D01*
X199857489Y-263769374D01*
X199857829Y-263769524D01*
X199919593Y-263797813D01*
X199970241Y-263822933D01*
X200004596Y-263842179D01*
X200017482Y-263852848D01*
X200017486Y-263852934D01*
X200006128Y-263876166D01*
X199979569Y-263901774D01*
X199949077Y-263920221D01*
X199933630Y-263923886D01*
X199891485Y-263911212D01*
X199855192Y-263879471D01*
X199837483Y-263844572D01*
X199820448Y-263818845D01*
X199787078Y-263789546D01*
X199747851Y-263764235D01*
X199713244Y-263750471D01*
X199706007Y-263749714D01*
X199697861Y-263762160D01*
X199697370Y-263793972D01*
X199703357Y-263836866D01*
X199714643Y-263882558D01*
X199730050Y-263922761D01*
X199730829Y-263924322D01*
X199777196Y-263989062D01*
X199837289Y-264033097D01*
X199905535Y-264054711D01*
X199976362Y-264052185D01*
X200044196Y-264023804D01*
X200047212Y-264021808D01*
X200100573Y-263973448D01*
X200135660Y-263910352D01*
X200155078Y-263827387D01*
X200157684Y-263804078D01*
X200162299Y-263694055D01*
X200156767Y-263642748D01*
X200017486Y-263642748D01*
X200015676Y-263674753D01*
X200005778Y-263684093D01*
X199981102Y-263677105D01*
X199942205Y-263660587D01*
X199898725Y-263639881D01*
X199897644Y-263639333D01*
X199860791Y-263619949D01*
X199846000Y-263607013D01*
X199849647Y-263593451D01*
X199865005Y-263575632D01*
X199904077Y-263549845D01*
X199946154Y-263547950D01*
X199983897Y-263566717D01*
X200009966Y-263602915D01*
X200017486Y-263642748D01*
X200156767Y-263642748D01*
X200152806Y-263606027D01*
X200128450Y-263536212D01*
X200094544Y-263487302D01*
X200033347Y-263437878D01*
X199965937Y-263413359D01*
X199897120Y-263411797D01*
X199831697Y-263431239D01*
G37*
X199831697Y-263431239D02*
X199774473Y-263469735D01*
X199730251Y-263525335D01*
X199703833Y-263596086D01*
X199698490Y-263648162D01*
X199699097Y-263669893D01*
X199704178Y-263686531D01*
X199718145Y-263701437D01*
X199745411Y-263717973D01*
X199790388Y-263739498D01*
X199857489Y-263769374D01*
X199857829Y-263769524D01*
X199919593Y-263797813D01*
X199970241Y-263822933D01*
X200004596Y-263842179D01*
X200017482Y-263852848D01*
X200017486Y-263852934D01*
X200006128Y-263876166D01*
X199979569Y-263901774D01*
X199949077Y-263920221D01*
X199933630Y-263923886D01*
X199891485Y-263911212D01*
X199855192Y-263879471D01*
X199837483Y-263844572D01*
X199820448Y-263818845D01*
X199787078Y-263789546D01*
X199747851Y-263764235D01*
X199713244Y-263750471D01*
X199706007Y-263749714D01*
X199697861Y-263762160D01*
X199697370Y-263793972D01*
X199703357Y-263836866D01*
X199714643Y-263882558D01*
X199730050Y-263922761D01*
X199730829Y-263924322D01*
X199777196Y-263989062D01*
X199837289Y-264033097D01*
X199905535Y-264054711D01*
X199976362Y-264052185D01*
X200044196Y-264023804D01*
X200047212Y-264021808D01*
X200100573Y-263973448D01*
X200135660Y-263910352D01*
X200155078Y-263827387D01*
X200157684Y-263804078D01*
X200162299Y-263694055D01*
X200156767Y-263642748D01*
X200017486Y-263642748D01*
X200015676Y-263674753D01*
X200005778Y-263684093D01*
X199981102Y-263677105D01*
X199942205Y-263660587D01*
X199898725Y-263639881D01*
X199897644Y-263639333D01*
X199860791Y-263619949D01*
X199846000Y-263607013D01*
X199849647Y-263593451D01*
X199865005Y-263575632D01*
X199904077Y-263549845D01*
X199946154Y-263547950D01*
X199983897Y-263566717D01*
X200009966Y-263602915D01*
X200017486Y-263642748D01*
X200156767Y-263642748D01*
X200152806Y-263606027D01*
X200128450Y-263536212D01*
X200094544Y-263487302D01*
X200033347Y-263437878D01*
X199965937Y-263413359D01*
X199897120Y-263411797D01*
X199831697Y-263431239D01*
G36*
X198624114Y-263351289D02*
G01*
X198619861Y-263410613D01*
X198614975Y-263445572D01*
X198608205Y-263460820D01*
X198598298Y-263461015D01*
X198595086Y-263459195D01*
X198552356Y-263446015D01*
X198496773Y-263446785D01*
X198440263Y-263460333D01*
X198404918Y-263477861D01*
X198368679Y-263505861D01*
X198342187Y-263537549D01*
X198324001Y-263577813D01*
X198312678Y-263631543D01*
X198306778Y-263703626D01*
X198304857Y-263798951D01*
X198304823Y-263817237D01*
X198304800Y-264022646D01*
X198350509Y-264038580D01*
X198382973Y-264049420D01*
X198400785Y-264054468D01*
X198401309Y-264054514D01*
X198403063Y-264040828D01*
X198404556Y-264003076D01*
X198405674Y-263946224D01*
X198406303Y-263875234D01*
X198406400Y-263832073D01*
X198406602Y-263746973D01*
X198407642Y-263685981D01*
X198410169Y-263644177D01*
X198414836Y-263616642D01*
X198422293Y-263598456D01*
X198433189Y-263584698D01*
X198439993Y-263578073D01*
X198486728Y-263551375D01*
X198537728Y-263549375D01*
X198583999Y-263571955D01*
X198592556Y-263580107D01*
X198605107Y-263595436D01*
X198613812Y-263613618D01*
X198619369Y-263639909D01*
X198622474Y-263679562D01*
X198623824Y-263737832D01*
X198624114Y-263818173D01*
X198624114Y-264022646D01*
X198669823Y-264038580D01*
X198702287Y-264049420D01*
X198720099Y-264054468D01*
X198720623Y-264054514D01*
X198721963Y-264040623D01*
X198723172Y-264001439D01*
X198724199Y-263940700D01*
X198724998Y-263862141D01*
X198725519Y-263769498D01*
X198725714Y-263666509D01*
X198725714Y-263269342D01*
X198678543Y-263249444D01*
X198631371Y-263229547D01*
X198624114Y-263351289D01*
G37*
X198624114Y-263351289D02*
X198619861Y-263410613D01*
X198614975Y-263445572D01*
X198608205Y-263460820D01*
X198598298Y-263461015D01*
X198595086Y-263459195D01*
X198552356Y-263446015D01*
X198496773Y-263446785D01*
X198440263Y-263460333D01*
X198404918Y-263477861D01*
X198368679Y-263505861D01*
X198342187Y-263537549D01*
X198324001Y-263577813D01*
X198312678Y-263631543D01*
X198306778Y-263703626D01*
X198304857Y-263798951D01*
X198304823Y-263817237D01*
X198304800Y-264022646D01*
X198350509Y-264038580D01*
X198382973Y-264049420D01*
X198400785Y-264054468D01*
X198401309Y-264054514D01*
X198403063Y-264040828D01*
X198404556Y-264003076D01*
X198405674Y-263946224D01*
X198406303Y-263875234D01*
X198406400Y-263832073D01*
X198406602Y-263746973D01*
X198407642Y-263685981D01*
X198410169Y-263644177D01*
X198414836Y-263616642D01*
X198422293Y-263598456D01*
X198433189Y-263584698D01*
X198439993Y-263578073D01*
X198486728Y-263551375D01*
X198537728Y-263549375D01*
X198583999Y-263571955D01*
X198592556Y-263580107D01*
X198605107Y-263595436D01*
X198613812Y-263613618D01*
X198619369Y-263639909D01*
X198622474Y-263679562D01*
X198623824Y-263737832D01*
X198624114Y-263818173D01*
X198624114Y-264022646D01*
X198669823Y-264038580D01*
X198702287Y-264049420D01*
X198720099Y-264054468D01*
X198720623Y-264054514D01*
X198721963Y-264040623D01*
X198723172Y-264001439D01*
X198724199Y-263940700D01*
X198724998Y-263862141D01*
X198725519Y-263769498D01*
X198725714Y-263666509D01*
X198725714Y-263269342D01*
X198678543Y-263249444D01*
X198631371Y-263229547D01*
X198624114Y-263351289D01*
G36*
X197960256Y-263450968D02*
G01*
X197903384Y-263472087D01*
X197902733Y-263472493D01*
X197867560Y-263498380D01*
X197841593Y-263528633D01*
X197823330Y-263568058D01*
X197811268Y-263621462D01*
X197803904Y-263693651D01*
X197799736Y-263789432D01*
X197799371Y-263803078D01*
X197794124Y-264008842D01*
X197838284Y-264031678D01*
X197870237Y-264047110D01*
X197889530Y-264054423D01*
X197890422Y-264054514D01*
X197893761Y-264041022D01*
X197896413Y-264004626D01*
X197898044Y-263951452D01*
X197898400Y-263908393D01*
X197898408Y-263838641D01*
X197901597Y-263794837D01*
X197912712Y-263773944D01*
X197936499Y-263772925D01*
X197977704Y-263788741D01*
X198039914Y-263817815D01*
X198085659Y-263841963D01*
X198109187Y-263862913D01*
X198116104Y-263885747D01*
X198116114Y-263886877D01*
X198104701Y-263926212D01*
X198070908Y-263947462D01*
X198019191Y-263950539D01*
X197981939Y-263950006D01*
X197962297Y-263960735D01*
X197950048Y-263986505D01*
X197942998Y-264019337D01*
X197953158Y-264037966D01*
X197956983Y-264040632D01*
X197992999Y-264051340D01*
X198043434Y-264052856D01*
X198095374Y-264045759D01*
X198132178Y-264032788D01*
X198183062Y-263989585D01*
X198211986Y-263929446D01*
X198217714Y-263882462D01*
X198213343Y-263840082D01*
X198197525Y-263805488D01*
X198166203Y-263774763D01*
X198115322Y-263743990D01*
X198040824Y-263709252D01*
X198036286Y-263707288D01*
X197969179Y-263676287D01*
X197927768Y-263650862D01*
X197910019Y-263628014D01*
X197913893Y-263604745D01*
X197937357Y-263578056D01*
X197944373Y-263571914D01*
X197991370Y-263548100D01*
X198040067Y-263549103D01*
X198082478Y-263572451D01*
X198110616Y-263615675D01*
X198113231Y-263624160D01*
X198138692Y-263665308D01*
X198170999Y-263685128D01*
X198217714Y-263704770D01*
X198217714Y-263653950D01*
X198203504Y-263580082D01*
X198161325Y-263512327D01*
X198139376Y-263489661D01*
X198089483Y-263460569D01*
X198026033Y-263447400D01*
X197960256Y-263450968D01*
G37*
X197960256Y-263450968D02*
X197903384Y-263472087D01*
X197902733Y-263472493D01*
X197867560Y-263498380D01*
X197841593Y-263528633D01*
X197823330Y-263568058D01*
X197811268Y-263621462D01*
X197803904Y-263693651D01*
X197799736Y-263789432D01*
X197799371Y-263803078D01*
X197794124Y-264008842D01*
X197838284Y-264031678D01*
X197870237Y-264047110D01*
X197889530Y-264054423D01*
X197890422Y-264054514D01*
X197893761Y-264041022D01*
X197896413Y-264004626D01*
X197898044Y-263951452D01*
X197898400Y-263908393D01*
X197898408Y-263838641D01*
X197901597Y-263794837D01*
X197912712Y-263773944D01*
X197936499Y-263772925D01*
X197977704Y-263788741D01*
X198039914Y-263817815D01*
X198085659Y-263841963D01*
X198109187Y-263862913D01*
X198116104Y-263885747D01*
X198116114Y-263886877D01*
X198104701Y-263926212D01*
X198070908Y-263947462D01*
X198019191Y-263950539D01*
X197981939Y-263950006D01*
X197962297Y-263960735D01*
X197950048Y-263986505D01*
X197942998Y-264019337D01*
X197953158Y-264037966D01*
X197956983Y-264040632D01*
X197992999Y-264051340D01*
X198043434Y-264052856D01*
X198095374Y-264045759D01*
X198132178Y-264032788D01*
X198183062Y-263989585D01*
X198211986Y-263929446D01*
X198217714Y-263882462D01*
X198213343Y-263840082D01*
X198197525Y-263805488D01*
X198166203Y-263774763D01*
X198115322Y-263743990D01*
X198040824Y-263709252D01*
X198036286Y-263707288D01*
X197969179Y-263676287D01*
X197927768Y-263650862D01*
X197910019Y-263628014D01*
X197913893Y-263604745D01*
X197937357Y-263578056D01*
X197944373Y-263571914D01*
X197991370Y-263548100D01*
X198040067Y-263549103D01*
X198082478Y-263572451D01*
X198110616Y-263615675D01*
X198113231Y-263624160D01*
X198138692Y-263665308D01*
X198170999Y-263685128D01*
X198217714Y-263704770D01*
X198217714Y-263653950D01*
X198203504Y-263580082D01*
X198161325Y-263512327D01*
X198139376Y-263489661D01*
X198089483Y-263460569D01*
X198026033Y-263447400D01*
X197960256Y-263450968D01*
G36*
X197470074Y-263449755D02*
G01*
X197404142Y-263474084D01*
X197350727Y-263517117D01*
X197329836Y-263547409D01*
X197307061Y-263602994D01*
X197307534Y-263643186D01*
X197331438Y-263670217D01*
X197340283Y-263674813D01*
X197378470Y-263689144D01*
X197397972Y-263685472D01*
X197404578Y-263661407D01*
X197404914Y-263648114D01*
X197417008Y-263599210D01*
X197448529Y-263564999D01*
X197492341Y-263548476D01*
X197541305Y-263552634D01*
X197581106Y-263574227D01*
X197594550Y-263586544D01*
X197604079Y-263601487D01*
X197610515Y-263624075D01*
X197614683Y-263659328D01*
X197617403Y-263712266D01*
X197619498Y-263787907D01*
X197620040Y-263811857D01*
X197622019Y-263893790D01*
X197624269Y-263951455D01*
X197627643Y-263989608D01*
X197632994Y-264013004D01*
X197641176Y-264026398D01*
X197653041Y-264034545D01*
X197660638Y-264038144D01*
X197692898Y-264050452D01*
X197711889Y-264054514D01*
X197718164Y-264040948D01*
X197721994Y-263999934D01*
X197723400Y-263930999D01*
X197722402Y-263833669D01*
X197722092Y-263818657D01*
X197719899Y-263729859D01*
X197717307Y-263665019D01*
X197713618Y-263619067D01*
X197708136Y-263586935D01*
X197700165Y-263563553D01*
X197689007Y-263543852D01*
X197683170Y-263535410D01*
X197649704Y-263498057D01*
X197612273Y-263469003D01*
X197607691Y-263466467D01*
X197540574Y-263446443D01*
X197470074Y-263449755D01*
G37*
X197470074Y-263449755D02*
X197404142Y-263474084D01*
X197350727Y-263517117D01*
X197329836Y-263547409D01*
X197307061Y-263602994D01*
X197307534Y-263643186D01*
X197331438Y-263670217D01*
X197340283Y-263674813D01*
X197378470Y-263689144D01*
X197397972Y-263685472D01*
X197404578Y-263661407D01*
X197404914Y-263648114D01*
X197417008Y-263599210D01*
X197448529Y-263564999D01*
X197492341Y-263548476D01*
X197541305Y-263552634D01*
X197581106Y-263574227D01*
X197594550Y-263586544D01*
X197604079Y-263601487D01*
X197610515Y-263624075D01*
X197614683Y-263659328D01*
X197617403Y-263712266D01*
X197619498Y-263787907D01*
X197620040Y-263811857D01*
X197622019Y-263893790D01*
X197624269Y-263951455D01*
X197627643Y-263989608D01*
X197632994Y-264013004D01*
X197641176Y-264026398D01*
X197653041Y-264034545D01*
X197660638Y-264038144D01*
X197692898Y-264050452D01*
X197711889Y-264054514D01*
X197718164Y-264040948D01*
X197721994Y-263999934D01*
X197723400Y-263930999D01*
X197722402Y-263833669D01*
X197722092Y-263818657D01*
X197719899Y-263729859D01*
X197717307Y-263665019D01*
X197713618Y-263619067D01*
X197708136Y-263586935D01*
X197700165Y-263563553D01*
X197689007Y-263543852D01*
X197683170Y-263535410D01*
X197649704Y-263498057D01*
X197612273Y-263469003D01*
X197607691Y-263466467D01*
X197540574Y-263446443D01*
X197470074Y-263449755D01*
G36*
X196809883Y-263565358D02*
G01*
X196810067Y-263673837D01*
X196810781Y-263757287D01*
X196812325Y-263819704D01*
X196814999Y-263865085D01*
X196819106Y-263897429D01*
X196824945Y-263920733D01*
X196832818Y-263938995D01*
X196838779Y-263949418D01*
X196888145Y-264005945D01*
X196950736Y-264041377D01*
X197019987Y-264054090D01*
X197089332Y-264042463D01*
X197130625Y-264021568D01*
X197173975Y-263985422D01*
X197203519Y-263941276D01*
X197221345Y-263883462D01*
X197229537Y-263806313D01*
X197230698Y-263749714D01*
X197230542Y-263745647D01*
X197129143Y-263745647D01*
X197128524Y-263810550D01*
X197125686Y-263853514D01*
X197119160Y-263881622D01*
X197107477Y-263901953D01*
X197093517Y-263917288D01*
X197046635Y-263946890D01*
X196996299Y-263949419D01*
X196948724Y-263924705D01*
X196945021Y-263921356D01*
X196929217Y-263903935D01*
X196919307Y-263883209D01*
X196913942Y-263852362D01*
X196911772Y-263804577D01*
X196911429Y-263751748D01*
X196912173Y-263685381D01*
X196915252Y-263641106D01*
X196921939Y-263612009D01*
X196933504Y-263591173D01*
X196942987Y-263580107D01*
X196987040Y-263552198D01*
X197037776Y-263548843D01*
X197086204Y-263570159D01*
X197095550Y-263578073D01*
X197111460Y-263595647D01*
X197121390Y-263616587D01*
X197126722Y-263647782D01*
X197128837Y-263696122D01*
X197129143Y-263745647D01*
X197230542Y-263745647D01*
X197227190Y-263658568D01*
X197215274Y-263590086D01*
X197192865Y-263538600D01*
X197157876Y-263498443D01*
X197130625Y-263477861D01*
X197081093Y-263455625D01*
X197023684Y-263445304D01*
X196970318Y-263448067D01*
X196940457Y-263459212D01*
X196928739Y-263462383D01*
X196920963Y-263450557D01*
X196915535Y-263418866D01*
X196911429Y-263370593D01*
X196906933Y-263316829D01*
X196900687Y-263284482D01*
X196889324Y-263265985D01*
X196869472Y-263253770D01*
X196857000Y-263248362D01*
X196809829Y-263228601D01*
X196809883Y-263565358D01*
G37*
X196809883Y-263565358D02*
X196810067Y-263673837D01*
X196810781Y-263757287D01*
X196812325Y-263819704D01*
X196814999Y-263865085D01*
X196819106Y-263897429D01*
X196824945Y-263920733D01*
X196832818Y-263938995D01*
X196838779Y-263949418D01*
X196888145Y-264005945D01*
X196950736Y-264041377D01*
X197019987Y-264054090D01*
X197089332Y-264042463D01*
X197130625Y-264021568D01*
X197173975Y-263985422D01*
X197203519Y-263941276D01*
X197221345Y-263883462D01*
X197229537Y-263806313D01*
X197230698Y-263749714D01*
X197230542Y-263745647D01*
X197129143Y-263745647D01*
X197128524Y-263810550D01*
X197125686Y-263853514D01*
X197119160Y-263881622D01*
X197107477Y-263901953D01*
X197093517Y-263917288D01*
X197046635Y-263946890D01*
X196996299Y-263949419D01*
X196948724Y-263924705D01*
X196945021Y-263921356D01*
X196929217Y-263903935D01*
X196919307Y-263883209D01*
X196913942Y-263852362D01*
X196911772Y-263804577D01*
X196911429Y-263751748D01*
X196912173Y-263685381D01*
X196915252Y-263641106D01*
X196921939Y-263612009D01*
X196933504Y-263591173D01*
X196942987Y-263580107D01*
X196987040Y-263552198D01*
X197037776Y-263548843D01*
X197086204Y-263570159D01*
X197095550Y-263578073D01*
X197111460Y-263595647D01*
X197121390Y-263616587D01*
X197126722Y-263647782D01*
X197128837Y-263696122D01*
X197129143Y-263745647D01*
X197230542Y-263745647D01*
X197227190Y-263658568D01*
X197215274Y-263590086D01*
X197192865Y-263538600D01*
X197157876Y-263498443D01*
X197130625Y-263477861D01*
X197081093Y-263455625D01*
X197023684Y-263445304D01*
X196970318Y-263448067D01*
X196940457Y-263459212D01*
X196928739Y-263462383D01*
X196920963Y-263450557D01*
X196915535Y-263418866D01*
X196911429Y-263370593D01*
X196906933Y-263316829D01*
X196900687Y-263284482D01*
X196889324Y-263265985D01*
X196869472Y-263253770D01*
X196857000Y-263248362D01*
X196809829Y-263228601D01*
X196809883Y-263565358D01*
G36*
X196220167Y-263458663D02*
G01*
X196217952Y-263496850D01*
X196216216Y-263554886D01*
X196215101Y-263628180D01*
X196214743Y-263705055D01*
X196214743Y-263965196D01*
X196260674Y-264011127D01*
X196292325Y-264039429D01*
X196320110Y-264050893D01*
X196358085Y-264050168D01*
X196373160Y-264048321D01*
X196420274Y-264042948D01*
X196459244Y-264039869D01*
X196468743Y-264039585D01*
X196500767Y-264041445D01*
X196546568Y-264046114D01*
X196564326Y-264048321D01*
X196607943Y-264051735D01*
X196637255Y-264044320D01*
X196666320Y-264021427D01*
X196676812Y-264011127D01*
X196722743Y-263965196D01*
X196722743Y-263478602D01*
X196685774Y-263461758D01*
X196653941Y-263449282D01*
X196635317Y-263444914D01*
X196630542Y-263458718D01*
X196626079Y-263497286D01*
X196622225Y-263556356D01*
X196619278Y-263631663D01*
X196617857Y-263695286D01*
X196613886Y-263945657D01*
X196579241Y-263950556D01*
X196547732Y-263947131D01*
X196532292Y-263936041D01*
X196527977Y-263915308D01*
X196524292Y-263871145D01*
X196521531Y-263809146D01*
X196519988Y-263734909D01*
X196519765Y-263696706D01*
X196519543Y-263476783D01*
X196473834Y-263460849D01*
X196441482Y-263450015D01*
X196423885Y-263444962D01*
X196423377Y-263444914D01*
X196421612Y-263458648D01*
X196419671Y-263496730D01*
X196417718Y-263554482D01*
X196415916Y-263627227D01*
X196414657Y-263695286D01*
X196410686Y-263945657D01*
X196323600Y-263945657D01*
X196319604Y-263717240D01*
X196315608Y-263488822D01*
X196273153Y-263466868D01*
X196241808Y-263451793D01*
X196223256Y-263444951D01*
X196222721Y-263444914D01*
X196220167Y-263458663D01*
G37*
X196220167Y-263458663D02*
X196217952Y-263496850D01*
X196216216Y-263554886D01*
X196215101Y-263628180D01*
X196214743Y-263705055D01*
X196214743Y-263965196D01*
X196260674Y-264011127D01*
X196292325Y-264039429D01*
X196320110Y-264050893D01*
X196358085Y-264050168D01*
X196373160Y-264048321D01*
X196420274Y-264042948D01*
X196459244Y-264039869D01*
X196468743Y-264039585D01*
X196500767Y-264041445D01*
X196546568Y-264046114D01*
X196564326Y-264048321D01*
X196607943Y-264051735D01*
X196637255Y-264044320D01*
X196666320Y-264021427D01*
X196676812Y-264011127D01*
X196722743Y-263965196D01*
X196722743Y-263478602D01*
X196685774Y-263461758D01*
X196653941Y-263449282D01*
X196635317Y-263444914D01*
X196630542Y-263458718D01*
X196626079Y-263497286D01*
X196622225Y-263556356D01*
X196619278Y-263631663D01*
X196617857Y-263695286D01*
X196613886Y-263945657D01*
X196579241Y-263950556D01*
X196547732Y-263947131D01*
X196532292Y-263936041D01*
X196527977Y-263915308D01*
X196524292Y-263871145D01*
X196521531Y-263809146D01*
X196519988Y-263734909D01*
X196519765Y-263696706D01*
X196519543Y-263476783D01*
X196473834Y-263460849D01*
X196441482Y-263450015D01*
X196423885Y-263444962D01*
X196423377Y-263444914D01*
X196421612Y-263458648D01*
X196419671Y-263496730D01*
X196417718Y-263554482D01*
X196415916Y-263627227D01*
X196414657Y-263695286D01*
X196410686Y-263945657D01*
X196323600Y-263945657D01*
X196319604Y-263717240D01*
X196315608Y-263488822D01*
X196273153Y-263466868D01*
X196241808Y-263451793D01*
X196223256Y-263444951D01*
X196222721Y-263444914D01*
X196220167Y-263458663D01*
G36*
X195855124Y-263456335D02*
G01*
X195813333Y-263475344D01*
X195780531Y-263498378D01*
X195756497Y-263524133D01*
X195739903Y-263557358D01*
X195729423Y-263602800D01*
X195723729Y-263665207D01*
X195721493Y-263749327D01*
X195721257Y-263804721D01*
X195721257Y-264020826D01*
X195758226Y-264037670D01*
X195787344Y-264049981D01*
X195801769Y-264054514D01*
X195804528Y-264041025D01*
X195806718Y-264004653D01*
X195808058Y-263951542D01*
X195808343Y-263909372D01*
X195809566Y-263848447D01*
X195812864Y-263800115D01*
X195817679Y-263770518D01*
X195821504Y-263764229D01*
X195847217Y-263770652D01*
X195887582Y-263787125D01*
X195934321Y-263809458D01*
X195979155Y-263833457D01*
X196013807Y-263854930D01*
X196029998Y-263869685D01*
X196030062Y-263869845D01*
X196028670Y-263897152D01*
X196016182Y-263923219D01*
X195994257Y-263944392D01*
X195962257Y-263951474D01*
X195934908Y-263950649D01*
X195896174Y-263950042D01*
X195875842Y-263959116D01*
X195863631Y-263983092D01*
X195862091Y-263987613D01*
X195856797Y-264021806D01*
X195870953Y-264042568D01*
X195907852Y-264052462D01*
X195947711Y-264054292D01*
X196019438Y-264040727D01*
X196056568Y-264021355D01*
X196102424Y-263975845D01*
X196126744Y-263919983D01*
X196128927Y-263860957D01*
X196108371Y-263805953D01*
X196077451Y-263771486D01*
X196046580Y-263752189D01*
X195998058Y-263727759D01*
X195941515Y-263702985D01*
X195932090Y-263699199D01*
X195869981Y-263671791D01*
X195834178Y-263647634D01*
X195822663Y-263623619D01*
X195833420Y-263596635D01*
X195851886Y-263575543D01*
X195895531Y-263549572D01*
X195943554Y-263547624D01*
X195987594Y-263567637D01*
X196019291Y-263607551D01*
X196023451Y-263617848D01*
X196047673Y-263655724D01*
X196083035Y-263683842D01*
X196127657Y-263706917D01*
X196127657Y-263641485D01*
X196125031Y-263601506D01*
X196113770Y-263569997D01*
X196088801Y-263536378D01*
X196064831Y-263510484D01*
X196027559Y-263473817D01*
X195998599Y-263454121D01*
X195967495Y-263446220D01*
X195932287Y-263444914D01*
X195855124Y-263456335D01*
G37*
X195855124Y-263456335D02*
X195813333Y-263475344D01*
X195780531Y-263498378D01*
X195756497Y-263524133D01*
X195739903Y-263557358D01*
X195729423Y-263602800D01*
X195723729Y-263665207D01*
X195721493Y-263749327D01*
X195721257Y-263804721D01*
X195721257Y-264020826D01*
X195758226Y-264037670D01*
X195787344Y-264049981D01*
X195801769Y-264054514D01*
X195804528Y-264041025D01*
X195806718Y-264004653D01*
X195808058Y-263951542D01*
X195808343Y-263909372D01*
X195809566Y-263848447D01*
X195812864Y-263800115D01*
X195817679Y-263770518D01*
X195821504Y-263764229D01*
X195847217Y-263770652D01*
X195887582Y-263787125D01*
X195934321Y-263809458D01*
X195979155Y-263833457D01*
X196013807Y-263854930D01*
X196029998Y-263869685D01*
X196030062Y-263869845D01*
X196028670Y-263897152D01*
X196016182Y-263923219D01*
X195994257Y-263944392D01*
X195962257Y-263951474D01*
X195934908Y-263950649D01*
X195896174Y-263950042D01*
X195875842Y-263959116D01*
X195863631Y-263983092D01*
X195862091Y-263987613D01*
X195856797Y-264021806D01*
X195870953Y-264042568D01*
X195907852Y-264052462D01*
X195947711Y-264054292D01*
X196019438Y-264040727D01*
X196056568Y-264021355D01*
X196102424Y-263975845D01*
X196126744Y-263919983D01*
X196128927Y-263860957D01*
X196108371Y-263805953D01*
X196077451Y-263771486D01*
X196046580Y-263752189D01*
X195998058Y-263727759D01*
X195941515Y-263702985D01*
X195932090Y-263699199D01*
X195869981Y-263671791D01*
X195834178Y-263647634D01*
X195822663Y-263623619D01*
X195833420Y-263596635D01*
X195851886Y-263575543D01*
X195895531Y-263549572D01*
X195943554Y-263547624D01*
X195987594Y-263567637D01*
X196019291Y-263607551D01*
X196023451Y-263617848D01*
X196047673Y-263655724D01*
X196083035Y-263683842D01*
X196127657Y-263706917D01*
X196127657Y-263641485D01*
X196125031Y-263601506D01*
X196113770Y-263569997D01*
X196088801Y-263536378D01*
X196064831Y-263510484D01*
X196027559Y-263473817D01*
X195998599Y-263454121D01*
X195967495Y-263446220D01*
X195932287Y-263444914D01*
X195855124Y-263456335D01*
G36*
X195347400Y-263458752D02*
G01*
X195330052Y-263466334D01*
X195288644Y-263499128D01*
X195253235Y-263546547D01*
X195231336Y-263597151D01*
X195227771Y-263622098D01*
X195239721Y-263656927D01*
X195265933Y-263675357D01*
X195294036Y-263686516D01*
X195306905Y-263688572D01*
X195313171Y-263673649D01*
X195325544Y-263641175D01*
X195330972Y-263626502D01*
X195361410Y-263575744D01*
X195405480Y-263550427D01*
X195461990Y-263551206D01*
X195466175Y-263552203D01*
X195496345Y-263566507D01*
X195518524Y-263594393D01*
X195533673Y-263639287D01*
X195542750Y-263704615D01*
X195546714Y-263793804D01*
X195547086Y-263841261D01*
X195547270Y-263916071D01*
X195548478Y-263967069D01*
X195551691Y-263999471D01*
X195557891Y-264018495D01*
X195568060Y-264029356D01*
X195583181Y-264037272D01*
X195584054Y-264037670D01*
X195613172Y-264049981D01*
X195627597Y-264054514D01*
X195629814Y-264040809D01*
X195631711Y-264002925D01*
X195633153Y-263945715D01*
X195634002Y-263874027D01*
X195634171Y-263821565D01*
X195633308Y-263720047D01*
X195629930Y-263643032D01*
X195622858Y-263586023D01*
X195610912Y-263544526D01*
X195592910Y-263514043D01*
X195567673Y-263490080D01*
X195542753Y-263473355D01*
X195482829Y-263451097D01*
X195413089Y-263446076D01*
X195347400Y-263458752D01*
G37*
X195347400Y-263458752D02*
X195330052Y-263466334D01*
X195288644Y-263499128D01*
X195253235Y-263546547D01*
X195231336Y-263597151D01*
X195227771Y-263622098D01*
X195239721Y-263656927D01*
X195265933Y-263675357D01*
X195294036Y-263686516D01*
X195306905Y-263688572D01*
X195313171Y-263673649D01*
X195325544Y-263641175D01*
X195330972Y-263626502D01*
X195361410Y-263575744D01*
X195405480Y-263550427D01*
X195461990Y-263551206D01*
X195466175Y-263552203D01*
X195496345Y-263566507D01*
X195518524Y-263594393D01*
X195533673Y-263639287D01*
X195542750Y-263704615D01*
X195546714Y-263793804D01*
X195547086Y-263841261D01*
X195547270Y-263916071D01*
X195548478Y-263967069D01*
X195551691Y-263999471D01*
X195557891Y-264018495D01*
X195568060Y-264029356D01*
X195583181Y-264037272D01*
X195584054Y-264037670D01*
X195613172Y-264049981D01*
X195627597Y-264054514D01*
X195629814Y-264040809D01*
X195631711Y-264002925D01*
X195633153Y-263945715D01*
X195634002Y-263874027D01*
X195634171Y-263821565D01*
X195633308Y-263720047D01*
X195629930Y-263643032D01*
X195622858Y-263586023D01*
X195610912Y-263544526D01*
X195592910Y-263514043D01*
X195567673Y-263490080D01*
X195542753Y-263473355D01*
X195482829Y-263451097D01*
X195413089Y-263446076D01*
X195347400Y-263458752D01*
G36*
X194846405Y-263466966D02*
G01*
X194788979Y-263504497D01*
X194761281Y-263538096D01*
X194739338Y-263599064D01*
X194737595Y-263647308D01*
X194741543Y-263711816D01*
X194890314Y-263776934D01*
X194962651Y-263810202D01*
X195009916Y-263836964D01*
X195034493Y-263860144D01*
X195038763Y-263882667D01*
X195025111Y-263907455D01*
X195010057Y-263923886D01*
X194966254Y-263950235D01*
X194918611Y-263952081D01*
X194874855Y-263931546D01*
X194842711Y-263890752D01*
X194836962Y-263876347D01*
X194809424Y-263831356D01*
X194777742Y-263812182D01*
X194734286Y-263795779D01*
X194734286Y-263857966D01*
X194738128Y-263900283D01*
X194753177Y-263935969D01*
X194784720Y-263976943D01*
X194789408Y-263982267D01*
X194824494Y-264018720D01*
X194854653Y-264038283D01*
X194892385Y-264047283D01*
X194923665Y-264050230D01*
X194979615Y-264050965D01*
X195019445Y-264041660D01*
X195044292Y-264027846D01*
X195083344Y-263997467D01*
X195110375Y-263964613D01*
X195127483Y-263923294D01*
X195136762Y-263867521D01*
X195140307Y-263791305D01*
X195140590Y-263752622D01*
X195139628Y-263706247D01*
X195051993Y-263706247D01*
X195050977Y-263731126D01*
X195048444Y-263735200D01*
X195031726Y-263729665D01*
X194995751Y-263715017D01*
X194947669Y-263694190D01*
X194937614Y-263689714D01*
X194876848Y-263658814D01*
X194843368Y-263631657D01*
X194836010Y-263606220D01*
X194853609Y-263580481D01*
X194868144Y-263569109D01*
X194920590Y-263546364D01*
X194969678Y-263550122D01*
X195010773Y-263577884D01*
X195039242Y-263627152D01*
X195048369Y-263666257D01*
X195051993Y-263706247D01*
X195139628Y-263706247D01*
X195138715Y-263662249D01*
X195131804Y-263595384D01*
X195118116Y-263546695D01*
X195095904Y-263510849D01*
X195063426Y-263482513D01*
X195049267Y-263473355D01*
X194984947Y-263449507D01*
X194914527Y-263448006D01*
X194846405Y-263466966D01*
G37*
X194846405Y-263466966D02*
X194788979Y-263504497D01*
X194761281Y-263538096D01*
X194739338Y-263599064D01*
X194737595Y-263647308D01*
X194741543Y-263711816D01*
X194890314Y-263776934D01*
X194962651Y-263810202D01*
X195009916Y-263836964D01*
X195034493Y-263860144D01*
X195038763Y-263882667D01*
X195025111Y-263907455D01*
X195010057Y-263923886D01*
X194966254Y-263950235D01*
X194918611Y-263952081D01*
X194874855Y-263931546D01*
X194842711Y-263890752D01*
X194836962Y-263876347D01*
X194809424Y-263831356D01*
X194777742Y-263812182D01*
X194734286Y-263795779D01*
X194734286Y-263857966D01*
X194738128Y-263900283D01*
X194753177Y-263935969D01*
X194784720Y-263976943D01*
X194789408Y-263982267D01*
X194824494Y-264018720D01*
X194854653Y-264038283D01*
X194892385Y-264047283D01*
X194923665Y-264050230D01*
X194979615Y-264050965D01*
X195019445Y-264041660D01*
X195044292Y-264027846D01*
X195083344Y-263997467D01*
X195110375Y-263964613D01*
X195127483Y-263923294D01*
X195136762Y-263867521D01*
X195140307Y-263791305D01*
X195140590Y-263752622D01*
X195139628Y-263706247D01*
X195051993Y-263706247D01*
X195050977Y-263731126D01*
X195048444Y-263735200D01*
X195031726Y-263729665D01*
X194995751Y-263715017D01*
X194947669Y-263694190D01*
X194937614Y-263689714D01*
X194876848Y-263658814D01*
X194843368Y-263631657D01*
X194836010Y-263606220D01*
X194853609Y-263580481D01*
X194868144Y-263569109D01*
X194920590Y-263546364D01*
X194969678Y-263550122D01*
X195010773Y-263577884D01*
X195039242Y-263627152D01*
X195048369Y-263666257D01*
X195051993Y-263706247D01*
X195139628Y-263706247D01*
X195138715Y-263662249D01*
X195131804Y-263595384D01*
X195118116Y-263546695D01*
X195095904Y-263510849D01*
X195063426Y-263482513D01*
X195049267Y-263473355D01*
X194984947Y-263449507D01*
X194914527Y-263448006D01*
X194846405Y-263466966D01*
G36*
X197896090Y-258742348D02*
G01*
X197817546Y-258742778D01*
X197760702Y-258743942D01*
X197721895Y-258746207D01*
X197697462Y-258749940D01*
X197683738Y-258755506D01*
X197677060Y-258763273D01*
X197673764Y-258773605D01*
X197673444Y-258774943D01*
X197668438Y-258799079D01*
X197659171Y-258846701D01*
X197646608Y-258912741D01*
X197631713Y-258992128D01*
X197615449Y-259079796D01*
X197614881Y-259082875D01*
X197598590Y-259168789D01*
X197583348Y-259244696D01*
X197570139Y-259306045D01*
X197559946Y-259348282D01*
X197553752Y-259366855D01*
X197553457Y-259367184D01*
X197535212Y-259376253D01*
X197497595Y-259391367D01*
X197448729Y-259409262D01*
X197448457Y-259409358D01*
X197386907Y-259432493D01*
X197314343Y-259461965D01*
X197245943Y-259491597D01*
X197242706Y-259493062D01*
X197131298Y-259543626D01*
X196884601Y-259375160D01*
X196808923Y-259323803D01*
X196740369Y-259277889D01*
X196682912Y-259240030D01*
X196640524Y-259212837D01*
X196617175Y-259198921D01*
X196614958Y-259197889D01*
X196597990Y-259202484D01*
X196566299Y-259224655D01*
X196518648Y-259265447D01*
X196453802Y-259325905D01*
X196387603Y-259390227D01*
X196323786Y-259453612D01*
X196266671Y-259511451D01*
X196219695Y-259560175D01*
X196186297Y-259596210D01*
X196169915Y-259615984D01*
X196169306Y-259617002D01*
X196167495Y-259630572D01*
X196174317Y-259652733D01*
X196191460Y-259686478D01*
X196220607Y-259734800D01*
X196263445Y-259800692D01*
X196320552Y-259885517D01*
X196371234Y-259960177D01*
X196416539Y-260027140D01*
X196453850Y-260082516D01*
X196480548Y-260122420D01*
X196494015Y-260142962D01*
X196494863Y-260144356D01*
X196493219Y-260164038D01*
X196480755Y-260202293D01*
X196459952Y-260251889D01*
X196452538Y-260267728D01*
X196420186Y-260338290D01*
X196385672Y-260418353D01*
X196357635Y-260487629D01*
X196337432Y-260539045D01*
X196321385Y-260578119D01*
X196312112Y-260598541D01*
X196310959Y-260600114D01*
X196293904Y-260602721D01*
X196253702Y-260609863D01*
X196195698Y-260620523D01*
X196125237Y-260633685D01*
X196047665Y-260648333D01*
X195968328Y-260663449D01*
X195892569Y-260678018D01*
X195825736Y-260691022D01*
X195773172Y-260701445D01*
X195740224Y-260708270D01*
X195732143Y-260710199D01*
X195723795Y-260714962D01*
X195717494Y-260725718D01*
X195712955Y-260746098D01*
X195709896Y-260779734D01*
X195708033Y-260830255D01*
X195707082Y-260901292D01*
X195706760Y-260996476D01*
X195706743Y-261035492D01*
X195706743Y-261352799D01*
X195782943Y-261367839D01*
X195825337Y-261375995D01*
X195888600Y-261387899D01*
X195965038Y-261402116D01*
X196046957Y-261417210D01*
X196069600Y-261421355D01*
X196145194Y-261436053D01*
X196211047Y-261450505D01*
X196261634Y-261463375D01*
X196291426Y-261473322D01*
X196296388Y-261476287D01*
X196308574Y-261497283D01*
X196326047Y-261537967D01*
X196345423Y-261590322D01*
X196349266Y-261601600D01*
X196374661Y-261671523D01*
X196406183Y-261750418D01*
X196437031Y-261821266D01*
X196437183Y-261821595D01*
X196488553Y-261932733D01*
X196319601Y-262181253D01*
X196150648Y-262429772D01*
X196367571Y-262647058D01*
X196433181Y-262711726D01*
X196493021Y-262768733D01*
X196543733Y-262815033D01*
X196581954Y-262847584D01*
X196604325Y-262863343D01*
X196607534Y-262864343D01*
X196626374Y-262856469D01*
X196664820Y-262834578D01*
X196718670Y-262801267D01*
X196783724Y-262759131D01*
X196854060Y-262711943D01*
X196925445Y-262663810D01*
X196989092Y-262621928D01*
X197040959Y-262588871D01*
X197077005Y-262567218D01*
X197093133Y-262559543D01*
X197112811Y-262566037D01*
X197150125Y-262583150D01*
X197197379Y-262607326D01*
X197202388Y-262610013D01*
X197266023Y-262641927D01*
X197309659Y-262657579D01*
X197336798Y-262657745D01*
X197350943Y-262643204D01*
X197351025Y-262643000D01*
X197358095Y-262625779D01*
X197374958Y-262584899D01*
X197400305Y-262523525D01*
X197432829Y-262444819D01*
X197471222Y-262351947D01*
X197514178Y-262248072D01*
X197555778Y-262147502D01*
X197601496Y-262036516D01*
X197643474Y-261933703D01*
X197680452Y-261842215D01*
X197711173Y-261765201D01*
X197734378Y-261705815D01*
X197748810Y-261667209D01*
X197753257Y-261652800D01*
X197742104Y-261636272D01*
X197712931Y-261609930D01*
X197674029Y-261580887D01*
X197563243Y-261489039D01*
X197476649Y-261383759D01*
X197415284Y-261267266D01*
X197380185Y-261141776D01*
X197372392Y-261009507D01*
X197378057Y-260948457D01*
X197408922Y-260821795D01*
X197462080Y-260709941D01*
X197534233Y-260614001D01*
X197622083Y-260535076D01*
X197722335Y-260474270D01*
X197831690Y-260432687D01*
X197946853Y-260411428D01*
X198064525Y-260411599D01*
X198181410Y-260434301D01*
X198294211Y-260480638D01*
X198399631Y-260551713D01*
X198443632Y-260591911D01*
X198528021Y-260695129D01*
X198586778Y-260807925D01*
X198620296Y-260927010D01*
X198628965Y-261049095D01*
X198613177Y-261170893D01*
X198573322Y-261289116D01*
X198509793Y-261400475D01*
X198422979Y-261501684D01*
X198325971Y-261580887D01*
X198285563Y-261611162D01*
X198257018Y-261637219D01*
X198246743Y-261652825D01*
X198252123Y-261669843D01*
X198267425Y-261710500D01*
X198291388Y-261771642D01*
X198322756Y-261850119D01*
X198360268Y-261942780D01*
X198402667Y-262046472D01*
X198444337Y-262147526D01*
X198490310Y-262258607D01*
X198532893Y-262361541D01*
X198570779Y-262453165D01*
X198602660Y-262530316D01*
X198627229Y-262589831D01*
X198643180Y-262628544D01*
X198649090Y-262643000D01*
X198663052Y-262657685D01*
X198690060Y-262657642D01*
X198733587Y-262642099D01*
X198797110Y-262610284D01*
X198797612Y-262610013D01*
X198845440Y-262585323D01*
X198884103Y-262567338D01*
X198905905Y-262559614D01*
X198906867Y-262559543D01*
X198923279Y-262567378D01*
X198959513Y-262589165D01*
X199011526Y-262622328D01*
X199075275Y-262664291D01*
X199145940Y-262711943D01*
X199217884Y-262760191D01*
X199282726Y-262802151D01*
X199336265Y-262835227D01*
X199374303Y-262856821D01*
X199392467Y-262864343D01*
X199409192Y-262854457D01*
X199442820Y-262826826D01*
X199489990Y-262784495D01*
X199547342Y-262730505D01*
X199611516Y-262667899D01*
X199632503Y-262646983D01*
X199849501Y-262429623D01*
X199684332Y-262187220D01*
X199634136Y-262112781D01*
X199590081Y-262045972D01*
X199554638Y-261990665D01*
X199530281Y-261950729D01*
X199519478Y-261930036D01*
X199519162Y-261928563D01*
X199524857Y-261909058D01*
X199540174Y-261869822D01*
X199562463Y-261817430D01*
X199578107Y-261782355D01*
X199607359Y-261715201D01*
X199634906Y-261647358D01*
X199656263Y-261590034D01*
X199662065Y-261572572D01*
X199678548Y-261525938D01*
X199694660Y-261489905D01*
X199703510Y-261476287D01*
X199723040Y-261467952D01*
X199765666Y-261456137D01*
X199825855Y-261442181D01*
X199898078Y-261427422D01*
X199930400Y-261421355D01*
X200012478Y-261406273D01*
X200091205Y-261391669D01*
X200158891Y-261378980D01*
X200207840Y-261369642D01*
X200217057Y-261367839D01*
X200293257Y-261352799D01*
X200293257Y-261035492D01*
X200293086Y-260931154D01*
X200292384Y-260852213D01*
X200290866Y-260795038D01*
X200288251Y-260755999D01*
X200284254Y-260731465D01*
X200278591Y-260717805D01*
X200270980Y-260711389D01*
X200267857Y-260710199D01*
X200249022Y-260705980D01*
X200207412Y-260697562D01*
X200148370Y-260685961D01*
X200077243Y-260672195D01*
X199999375Y-260657280D01*
X199920113Y-260642232D01*
X199844802Y-260628069D01*
X199778787Y-260615806D01*
X199727413Y-260606461D01*
X199696025Y-260601050D01*
X199689041Y-260600114D01*
X199682715Y-260587596D01*
X199668710Y-260554246D01*
X199649645Y-260506377D01*
X199642366Y-260487629D01*
X199613004Y-260415195D01*
X199578429Y-260335170D01*
X199547463Y-260267728D01*
X199524677Y-260216159D01*
X199509518Y-260173785D01*
X199504458Y-260147834D01*
X199505264Y-260144356D01*
X199515959Y-260127936D01*
X199540380Y-260091417D01*
X199575905Y-260038687D01*
X199619913Y-259973635D01*
X199669783Y-259900151D01*
X199679644Y-259885645D01*
X199737508Y-259799704D01*
X199780044Y-259734261D01*
X199808946Y-259686304D01*
X199825910Y-259652820D01*
X199832633Y-259630795D01*
X199830810Y-259617217D01*
X199830764Y-259617131D01*
X199816414Y-259599297D01*
X199784677Y-259564817D01*
X199738990Y-259517268D01*
X199682796Y-259460222D01*
X199619532Y-259397255D01*
X199612398Y-259390227D01*
X199532670Y-259313020D01*
X199471143Y-259256330D01*
X199426579Y-259219110D01*
X199397743Y-259200315D01*
X199385042Y-259197889D01*
X199366506Y-259208471D01*
X199328039Y-259232916D01*
X199273614Y-259268612D01*
X199207202Y-259312947D01*
X199132775Y-259363311D01*
X199115399Y-259375160D01*
X198868703Y-259543626D01*
X198757294Y-259493062D01*
X198689543Y-259463595D01*
X198616817Y-259433959D01*
X198554297Y-259410330D01*
X198551543Y-259409358D01*
X198502640Y-259391457D01*
X198464943Y-259376320D01*
X198446575Y-259367210D01*
X198446544Y-259367184D01*
X198440715Y-259350717D01*
X198430808Y-259310219D01*
X198417805Y-259250242D01*
X198402691Y-259175340D01*
X198386448Y-259090064D01*
X198385119Y-259082875D01*
X198368825Y-258995014D01*
X198353867Y-258915260D01*
X198341209Y-258848681D01*
X198331814Y-258800347D01*
X198326646Y-258775325D01*
X198326556Y-258774943D01*
X198323411Y-258764299D01*
X198317296Y-258756262D01*
X198304547Y-258750467D01*
X198281500Y-258746547D01*
X198244491Y-258744135D01*
X198189856Y-258742865D01*
X198113933Y-258742371D01*
X198013056Y-258742286D01*
X198000000Y-258742286D01*
X197896090Y-258742348D01*
G37*
X197896090Y-258742348D02*
X197817546Y-258742778D01*
X197760702Y-258743942D01*
X197721895Y-258746207D01*
X197697462Y-258749940D01*
X197683738Y-258755506D01*
X197677060Y-258763273D01*
X197673764Y-258773605D01*
X197673444Y-258774943D01*
X197668438Y-258799079D01*
X197659171Y-258846701D01*
X197646608Y-258912741D01*
X197631713Y-258992128D01*
X197615449Y-259079796D01*
X197614881Y-259082875D01*
X197598590Y-259168789D01*
X197583348Y-259244696D01*
X197570139Y-259306045D01*
X197559946Y-259348282D01*
X197553752Y-259366855D01*
X197553457Y-259367184D01*
X197535212Y-259376253D01*
X197497595Y-259391367D01*
X197448729Y-259409262D01*
X197448457Y-259409358D01*
X197386907Y-259432493D01*
X197314343Y-259461965D01*
X197245943Y-259491597D01*
X197242706Y-259493062D01*
X197131298Y-259543626D01*
X196884601Y-259375160D01*
X196808923Y-259323803D01*
X196740369Y-259277889D01*
X196682912Y-259240030D01*
X196640524Y-259212837D01*
X196617175Y-259198921D01*
X196614958Y-259197889D01*
X196597990Y-259202484D01*
X196566299Y-259224655D01*
X196518648Y-259265447D01*
X196453802Y-259325905D01*
X196387603Y-259390227D01*
X196323786Y-259453612D01*
X196266671Y-259511451D01*
X196219695Y-259560175D01*
X196186297Y-259596210D01*
X196169915Y-259615984D01*
X196169306Y-259617002D01*
X196167495Y-259630572D01*
X196174317Y-259652733D01*
X196191460Y-259686478D01*
X196220607Y-259734800D01*
X196263445Y-259800692D01*
X196320552Y-259885517D01*
X196371234Y-259960177D01*
X196416539Y-260027140D01*
X196453850Y-260082516D01*
X196480548Y-260122420D01*
X196494015Y-260142962D01*
X196494863Y-260144356D01*
X196493219Y-260164038D01*
X196480755Y-260202293D01*
X196459952Y-260251889D01*
X196452538Y-260267728D01*
X196420186Y-260338290D01*
X196385672Y-260418353D01*
X196357635Y-260487629D01*
X196337432Y-260539045D01*
X196321385Y-260578119D01*
X196312112Y-260598541D01*
X196310959Y-260600114D01*
X196293904Y-260602721D01*
X196253702Y-260609863D01*
X196195698Y-260620523D01*
X196125237Y-260633685D01*
X196047665Y-260648333D01*
X195968328Y-260663449D01*
X195892569Y-260678018D01*
X195825736Y-260691022D01*
X195773172Y-260701445D01*
X195740224Y-260708270D01*
X195732143Y-260710199D01*
X195723795Y-260714962D01*
X195717494Y-260725718D01*
X195712955Y-260746098D01*
X195709896Y-260779734D01*
X195708033Y-260830255D01*
X195707082Y-260901292D01*
X195706760Y-260996476D01*
X195706743Y-261035492D01*
X195706743Y-261352799D01*
X195782943Y-261367839D01*
X195825337Y-261375995D01*
X195888600Y-261387899D01*
X195965038Y-261402116D01*
X196046957Y-261417210D01*
X196069600Y-261421355D01*
X196145194Y-261436053D01*
X196211047Y-261450505D01*
X196261634Y-261463375D01*
X196291426Y-261473322D01*
X196296388Y-261476287D01*
X196308574Y-261497283D01*
X196326047Y-261537967D01*
X196345423Y-261590322D01*
X196349266Y-261601600D01*
X196374661Y-261671523D01*
X196406183Y-261750418D01*
X196437031Y-261821266D01*
X196437183Y-261821595D01*
X196488553Y-261932733D01*
X196319601Y-262181253D01*
X196150648Y-262429772D01*
X196367571Y-262647058D01*
X196433181Y-262711726D01*
X196493021Y-262768733D01*
X196543733Y-262815033D01*
X196581954Y-262847584D01*
X196604325Y-262863343D01*
X196607534Y-262864343D01*
X196626374Y-262856469D01*
X196664820Y-262834578D01*
X196718670Y-262801267D01*
X196783724Y-262759131D01*
X196854060Y-262711943D01*
X196925445Y-262663810D01*
X196989092Y-262621928D01*
X197040959Y-262588871D01*
X197077005Y-262567218D01*
X197093133Y-262559543D01*
X197112811Y-262566037D01*
X197150125Y-262583150D01*
X197197379Y-262607326D01*
X197202388Y-262610013D01*
X197266023Y-262641927D01*
X197309659Y-262657579D01*
X197336798Y-262657745D01*
X197350943Y-262643204D01*
X197351025Y-262643000D01*
X197358095Y-262625779D01*
X197374958Y-262584899D01*
X197400305Y-262523525D01*
X197432829Y-262444819D01*
X197471222Y-262351947D01*
X197514178Y-262248072D01*
X197555778Y-262147502D01*
X197601496Y-262036516D01*
X197643474Y-261933703D01*
X197680452Y-261842215D01*
X197711173Y-261765201D01*
X197734378Y-261705815D01*
X197748810Y-261667209D01*
X197753257Y-261652800D01*
X197742104Y-261636272D01*
X197712931Y-261609930D01*
X197674029Y-261580887D01*
X197563243Y-261489039D01*
X197476649Y-261383759D01*
X197415284Y-261267266D01*
X197380185Y-261141776D01*
X197372392Y-261009507D01*
X197378057Y-260948457D01*
X197408922Y-260821795D01*
X197462080Y-260709941D01*
X197534233Y-260614001D01*
X197622083Y-260535076D01*
X197722335Y-260474270D01*
X197831690Y-260432687D01*
X197946853Y-260411428D01*
X198064525Y-260411599D01*
X198181410Y-260434301D01*
X198294211Y-260480638D01*
X198399631Y-260551713D01*
X198443632Y-260591911D01*
X198528021Y-260695129D01*
X198586778Y-260807925D01*
X198620296Y-260927010D01*
X198628965Y-261049095D01*
X198613177Y-261170893D01*
X198573322Y-261289116D01*
X198509793Y-261400475D01*
X198422979Y-261501684D01*
X198325971Y-261580887D01*
X198285563Y-261611162D01*
X198257018Y-261637219D01*
X198246743Y-261652825D01*
X198252123Y-261669843D01*
X198267425Y-261710500D01*
X198291388Y-261771642D01*
X198322756Y-261850119D01*
X198360268Y-261942780D01*
X198402667Y-262046472D01*
X198444337Y-262147526D01*
X198490310Y-262258607D01*
X198532893Y-262361541D01*
X198570779Y-262453165D01*
X198602660Y-262530316D01*
X198627229Y-262589831D01*
X198643180Y-262628544D01*
X198649090Y-262643000D01*
X198663052Y-262657685D01*
X198690060Y-262657642D01*
X198733587Y-262642099D01*
X198797110Y-262610284D01*
X198797612Y-262610013D01*
X198845440Y-262585323D01*
X198884103Y-262567338D01*
X198905905Y-262559614D01*
X198906867Y-262559543D01*
X198923279Y-262567378D01*
X198959513Y-262589165D01*
X199011526Y-262622328D01*
X199075275Y-262664291D01*
X199145940Y-262711943D01*
X199217884Y-262760191D01*
X199282726Y-262802151D01*
X199336265Y-262835227D01*
X199374303Y-262856821D01*
X199392467Y-262864343D01*
X199409192Y-262854457D01*
X199442820Y-262826826D01*
X199489990Y-262784495D01*
X199547342Y-262730505D01*
X199611516Y-262667899D01*
X199632503Y-262646983D01*
X199849501Y-262429623D01*
X199684332Y-262187220D01*
X199634136Y-262112781D01*
X199590081Y-262045972D01*
X199554638Y-261990665D01*
X199530281Y-261950729D01*
X199519478Y-261930036D01*
X199519162Y-261928563D01*
X199524857Y-261909058D01*
X199540174Y-261869822D01*
X199562463Y-261817430D01*
X199578107Y-261782355D01*
X199607359Y-261715201D01*
X199634906Y-261647358D01*
X199656263Y-261590034D01*
X199662065Y-261572572D01*
X199678548Y-261525938D01*
X199694660Y-261489905D01*
X199703510Y-261476287D01*
X199723040Y-261467952D01*
X199765666Y-261456137D01*
X199825855Y-261442181D01*
X199898078Y-261427422D01*
X199930400Y-261421355D01*
X200012478Y-261406273D01*
X200091205Y-261391669D01*
X200158891Y-261378980D01*
X200207840Y-261369642D01*
X200217057Y-261367839D01*
X200293257Y-261352799D01*
X200293257Y-261035492D01*
X200293086Y-260931154D01*
X200292384Y-260852213D01*
X200290866Y-260795038D01*
X200288251Y-260755999D01*
X200284254Y-260731465D01*
X200278591Y-260717805D01*
X200270980Y-260711389D01*
X200267857Y-260710199D01*
X200249022Y-260705980D01*
X200207412Y-260697562D01*
X200148370Y-260685961D01*
X200077243Y-260672195D01*
X199999375Y-260657280D01*
X199920113Y-260642232D01*
X199844802Y-260628069D01*
X199778787Y-260615806D01*
X199727413Y-260606461D01*
X199696025Y-260601050D01*
X199689041Y-260600114D01*
X199682715Y-260587596D01*
X199668710Y-260554246D01*
X199649645Y-260506377D01*
X199642366Y-260487629D01*
X199613004Y-260415195D01*
X199578429Y-260335170D01*
X199547463Y-260267728D01*
X199524677Y-260216159D01*
X199509518Y-260173785D01*
X199504458Y-260147834D01*
X199505264Y-260144356D01*
X199515959Y-260127936D01*
X199540380Y-260091417D01*
X199575905Y-260038687D01*
X199619913Y-259973635D01*
X199669783Y-259900151D01*
X199679644Y-259885645D01*
X199737508Y-259799704D01*
X199780044Y-259734261D01*
X199808946Y-259686304D01*
X199825910Y-259652820D01*
X199832633Y-259630795D01*
X199830810Y-259617217D01*
X199830764Y-259617131D01*
X199816414Y-259599297D01*
X199784677Y-259564817D01*
X199738990Y-259517268D01*
X199682796Y-259460222D01*
X199619532Y-259397255D01*
X199612398Y-259390227D01*
X199532670Y-259313020D01*
X199471143Y-259256330D01*
X199426579Y-259219110D01*
X199397743Y-259200315D01*
X199385042Y-259197889D01*
X199366506Y-259208471D01*
X199328039Y-259232916D01*
X199273614Y-259268612D01*
X199207202Y-259312947D01*
X199132775Y-259363311D01*
X199115399Y-259375160D01*
X198868703Y-259543626D01*
X198757294Y-259493062D01*
X198689543Y-259463595D01*
X198616817Y-259433959D01*
X198554297Y-259410330D01*
X198551543Y-259409358D01*
X198502640Y-259391457D01*
X198464943Y-259376320D01*
X198446575Y-259367210D01*
X198446544Y-259367184D01*
X198440715Y-259350717D01*
X198430808Y-259310219D01*
X198417805Y-259250242D01*
X198402691Y-259175340D01*
X198386448Y-259090064D01*
X198385119Y-259082875D01*
X198368825Y-258995014D01*
X198353867Y-258915260D01*
X198341209Y-258848681D01*
X198331814Y-258800347D01*
X198326646Y-258775325D01*
X198326556Y-258774943D01*
X198323411Y-258764299D01*
X198317296Y-258756262D01*
X198304547Y-258750467D01*
X198281500Y-258746547D01*
X198244491Y-258744135D01*
X198189856Y-258742865D01*
X198113933Y-258742371D01*
X198013056Y-258742286D01*
X198000000Y-258742286D01*
X197896090Y-258742348D01*
D10*
G36*
X28740400Y-29731000D02*
G01*
X17234200Y-29731000D01*
X17234200Y-16218200D01*
X28740400Y-16192800D01*
X28740400Y-29731000D01*
G37*
X28740400Y-29731000D02*
X17234200Y-29731000D01*
X17234200Y-16218200D01*
X28740400Y-16192800D01*
X28740400Y-29731000D01*
G36*
X257259600Y-236269000D02*
G01*
X268765800Y-236269000D01*
X268765800Y-249781800D01*
X257259600Y-249807200D01*
X257259600Y-236269000D01*
G37*
X257259600Y-236269000D02*
X268765800Y-236269000D01*
X268765800Y-249781800D01*
X257259600Y-249807200D01*
X257259600Y-236269000D01*
G36*
X248740400Y-249731000D02*
G01*
X237234200Y-249731000D01*
X237234200Y-236218200D01*
X248740400Y-236192800D01*
X248740400Y-249731000D01*
G37*
X248740400Y-249731000D02*
X237234200Y-249731000D01*
X237234200Y-236218200D01*
X248740400Y-236192800D01*
X248740400Y-249731000D01*
G36*
X217259600Y-236269000D02*
G01*
X228765800Y-236269000D01*
X228765800Y-249781800D01*
X217259600Y-249807200D01*
X217259600Y-236269000D01*
G37*
X217259600Y-236269000D02*
X228765800Y-236269000D01*
X228765800Y-249781800D01*
X217259600Y-249807200D01*
X217259600Y-236269000D01*
G36*
X208740400Y-249731000D02*
G01*
X197234200Y-249731000D01*
X197234200Y-236218200D01*
X208740400Y-236192800D01*
X208740400Y-249731000D01*
G37*
X208740400Y-249731000D02*
X197234200Y-249731000D01*
X197234200Y-236218200D01*
X208740400Y-236192800D01*
X208740400Y-249731000D01*
G36*
X177259600Y-236269000D02*
G01*
X188765800Y-236269000D01*
X188765800Y-249781800D01*
X177259600Y-249807200D01*
X177259600Y-236269000D01*
G37*
X177259600Y-236269000D02*
X188765800Y-236269000D01*
X188765800Y-249781800D01*
X177259600Y-249807200D01*
X177259600Y-236269000D01*
G36*
X168740400Y-249731000D02*
G01*
X157234200Y-249731000D01*
X157234200Y-236218200D01*
X168740400Y-236192800D01*
X168740400Y-249731000D01*
G37*
X168740400Y-249731000D02*
X157234200Y-249731000D01*
X157234200Y-236218200D01*
X168740400Y-236192800D01*
X168740400Y-249731000D01*
G36*
X137259600Y-236269000D02*
G01*
X148765800Y-236269000D01*
X148765800Y-249781800D01*
X137259600Y-249807200D01*
X137259600Y-236269000D01*
G37*
X137259600Y-236269000D02*
X148765800Y-236269000D01*
X148765800Y-249781800D01*
X137259600Y-249807200D01*
X137259600Y-236269000D01*
G36*
X128740400Y-249731000D02*
G01*
X117234200Y-249731000D01*
X117234200Y-236218200D01*
X128740400Y-236192800D01*
X128740400Y-249731000D01*
G37*
X128740400Y-249731000D02*
X117234200Y-249731000D01*
X117234200Y-236218200D01*
X128740400Y-236192800D01*
X128740400Y-249731000D01*
G36*
X97259600Y-236269000D02*
G01*
X108765800Y-236269000D01*
X108765800Y-249781800D01*
X97259600Y-249807200D01*
X97259600Y-236269000D01*
G37*
X97259600Y-236269000D02*
X108765800Y-236269000D01*
X108765800Y-249781800D01*
X97259600Y-249807200D01*
X97259600Y-236269000D01*
G36*
X88740400Y-249731000D02*
G01*
X77234200Y-249731000D01*
X77234200Y-236218200D01*
X88740400Y-236192800D01*
X88740400Y-249731000D01*
G37*
X88740400Y-249731000D02*
X77234200Y-249731000D01*
X77234200Y-236218200D01*
X88740400Y-236192800D01*
X88740400Y-249731000D01*
G36*
X57259600Y-236269000D02*
G01*
X68765800Y-236269000D01*
X68765800Y-249781800D01*
X57259600Y-249807200D01*
X57259600Y-236269000D01*
G37*
X57259600Y-236269000D02*
X68765800Y-236269000D01*
X68765800Y-249781800D01*
X57259600Y-249807200D01*
X57259600Y-236269000D01*
G36*
X48740400Y-249731000D02*
G01*
X37234200Y-249731000D01*
X37234200Y-236218200D01*
X48740400Y-236192800D01*
X48740400Y-249731000D01*
G37*
X48740400Y-249731000D02*
X37234200Y-249731000D01*
X37234200Y-236218200D01*
X48740400Y-236192800D01*
X48740400Y-249731000D01*
G36*
X28740400Y-249731000D02*
G01*
X17234200Y-249731000D01*
X17234200Y-236218200D01*
X28740400Y-236192800D01*
X28740400Y-249731000D01*
G37*
X28740400Y-249731000D02*
X17234200Y-249731000D01*
X17234200Y-236218200D01*
X28740400Y-236192800D01*
X28740400Y-249731000D01*
G36*
X257259600Y-216269000D02*
G01*
X268765800Y-216269000D01*
X268765800Y-229781800D01*
X257259600Y-229807200D01*
X257259600Y-216269000D01*
G37*
X257259600Y-216269000D02*
X268765800Y-216269000D01*
X268765800Y-229781800D01*
X257259600Y-229807200D01*
X257259600Y-216269000D01*
G36*
X248740400Y-229731000D02*
G01*
X237234200Y-229731000D01*
X237234200Y-216218200D01*
X248740400Y-216192800D01*
X248740400Y-229731000D01*
G37*
X248740400Y-229731000D02*
X237234200Y-229731000D01*
X237234200Y-216218200D01*
X248740400Y-216192800D01*
X248740400Y-229731000D01*
G36*
X217259600Y-216269000D02*
G01*
X228765800Y-216269000D01*
X228765800Y-229781800D01*
X217259600Y-229807200D01*
X217259600Y-216269000D01*
G37*
X217259600Y-216269000D02*
X228765800Y-216269000D01*
X228765800Y-229781800D01*
X217259600Y-229807200D01*
X217259600Y-216269000D01*
G36*
X208740400Y-229731000D02*
G01*
X197234200Y-229731000D01*
X197234200Y-216218200D01*
X208740400Y-216192800D01*
X208740400Y-229731000D01*
G37*
X208740400Y-229731000D02*
X197234200Y-229731000D01*
X197234200Y-216218200D01*
X208740400Y-216192800D01*
X208740400Y-229731000D01*
G36*
X177259600Y-216269000D02*
G01*
X188765800Y-216269000D01*
X188765800Y-229781800D01*
X177259600Y-229807200D01*
X177259600Y-216269000D01*
G37*
X177259600Y-216269000D02*
X188765800Y-216269000D01*
X188765800Y-229781800D01*
X177259600Y-229807200D01*
X177259600Y-216269000D01*
G36*
X168740400Y-229731000D02*
G01*
X157234200Y-229731000D01*
X157234200Y-216218200D01*
X168740400Y-216192800D01*
X168740400Y-229731000D01*
G37*
X168740400Y-229731000D02*
X157234200Y-229731000D01*
X157234200Y-216218200D01*
X168740400Y-216192800D01*
X168740400Y-229731000D01*
G36*
X137259600Y-216269000D02*
G01*
X148765800Y-216269000D01*
X148765800Y-229781800D01*
X137259600Y-229807200D01*
X137259600Y-216269000D01*
G37*
X137259600Y-216269000D02*
X148765800Y-216269000D01*
X148765800Y-229781800D01*
X137259600Y-229807200D01*
X137259600Y-216269000D01*
G36*
X128740400Y-229731000D02*
G01*
X117234200Y-229731000D01*
X117234200Y-216218200D01*
X128740400Y-216192800D01*
X128740400Y-229731000D01*
G37*
X128740400Y-229731000D02*
X117234200Y-229731000D01*
X117234200Y-216218200D01*
X128740400Y-216192800D01*
X128740400Y-229731000D01*
G36*
X97259600Y-216269000D02*
G01*
X108765800Y-216269000D01*
X108765800Y-229781800D01*
X97259600Y-229807200D01*
X97259600Y-216269000D01*
G37*
X97259600Y-216269000D02*
X108765800Y-216269000D01*
X108765800Y-229781800D01*
X97259600Y-229807200D01*
X97259600Y-216269000D01*
G36*
X88740400Y-229731000D02*
G01*
X77234200Y-229731000D01*
X77234200Y-216218200D01*
X88740400Y-216192800D01*
X88740400Y-229731000D01*
G37*
X88740400Y-229731000D02*
X77234200Y-229731000D01*
X77234200Y-216218200D01*
X88740400Y-216192800D01*
X88740400Y-229731000D01*
G36*
X57259600Y-216269000D02*
G01*
X68765800Y-216269000D01*
X68765800Y-229781800D01*
X57259600Y-229807200D01*
X57259600Y-216269000D01*
G37*
X57259600Y-216269000D02*
X68765800Y-216269000D01*
X68765800Y-229781800D01*
X57259600Y-229807200D01*
X57259600Y-216269000D01*
G36*
X48740400Y-229731000D02*
G01*
X37234200Y-229731000D01*
X37234200Y-216218200D01*
X48740400Y-216192800D01*
X48740400Y-229731000D01*
G37*
X48740400Y-229731000D02*
X37234200Y-229731000D01*
X37234200Y-216218200D01*
X48740400Y-216192800D01*
X48740400Y-229731000D01*
G36*
X28740400Y-229731000D02*
G01*
X17234200Y-229731000D01*
X17234200Y-216218200D01*
X28740400Y-216192800D01*
X28740400Y-229731000D01*
G37*
X28740400Y-229731000D02*
X17234200Y-229731000D01*
X17234200Y-216218200D01*
X28740400Y-216192800D01*
X28740400Y-229731000D01*
G36*
X257259600Y-196269000D02*
G01*
X268765800Y-196269000D01*
X268765800Y-209781800D01*
X257259600Y-209807200D01*
X257259600Y-196269000D01*
G37*
X257259600Y-196269000D02*
X268765800Y-196269000D01*
X268765800Y-209781800D01*
X257259600Y-209807200D01*
X257259600Y-196269000D01*
G36*
X248740400Y-209731000D02*
G01*
X237234200Y-209731000D01*
X237234200Y-196218200D01*
X248740400Y-196192800D01*
X248740400Y-209731000D01*
G37*
X248740400Y-209731000D02*
X237234200Y-209731000D01*
X237234200Y-196218200D01*
X248740400Y-196192800D01*
X248740400Y-209731000D01*
G36*
X217259600Y-196269000D02*
G01*
X228765800Y-196269000D01*
X228765800Y-209781800D01*
X217259600Y-209807200D01*
X217259600Y-196269000D01*
G37*
X217259600Y-196269000D02*
X228765800Y-196269000D01*
X228765800Y-209781800D01*
X217259600Y-209807200D01*
X217259600Y-196269000D01*
G36*
X208740400Y-209731000D02*
G01*
X197234200Y-209731000D01*
X197234200Y-196218200D01*
X208740400Y-196192800D01*
X208740400Y-209731000D01*
G37*
X208740400Y-209731000D02*
X197234200Y-209731000D01*
X197234200Y-196218200D01*
X208740400Y-196192800D01*
X208740400Y-209731000D01*
G36*
X177259600Y-196269000D02*
G01*
X188765800Y-196269000D01*
X188765800Y-209781800D01*
X177259600Y-209807200D01*
X177259600Y-196269000D01*
G37*
X177259600Y-196269000D02*
X188765800Y-196269000D01*
X188765800Y-209781800D01*
X177259600Y-209807200D01*
X177259600Y-196269000D01*
G36*
X168554400Y-209677000D02*
G01*
X157048200Y-209677000D01*
X157048200Y-196164200D01*
X168554400Y-196138800D01*
X168554400Y-209677000D01*
G37*
X168554400Y-209677000D02*
X157048200Y-209677000D01*
X157048200Y-196164200D01*
X168554400Y-196138800D01*
X168554400Y-209677000D01*
G36*
X137007600Y-195961000D02*
G01*
X148513800Y-195961000D01*
X148513800Y-209473800D01*
X137007600Y-209499200D01*
X137007600Y-195961000D01*
G37*
X137007600Y-195961000D02*
X148513800Y-195961000D01*
X148513800Y-209473800D01*
X137007600Y-209499200D01*
X137007600Y-195961000D01*
G36*
X128930400Y-209931000D02*
G01*
X117424200Y-209931000D01*
X117424200Y-196418200D01*
X128930400Y-196392800D01*
X128930400Y-209931000D01*
G37*
X128930400Y-209931000D02*
X117424200Y-209931000D01*
X117424200Y-196418200D01*
X128930400Y-196392800D01*
X128930400Y-209931000D01*
G36*
X97259600Y-196269000D02*
G01*
X108765800Y-196269000D01*
X108765800Y-209781800D01*
X97259600Y-209807200D01*
X97259600Y-196269000D01*
G37*
X97259600Y-196269000D02*
X108765800Y-196269000D01*
X108765800Y-209781800D01*
X97259600Y-209807200D01*
X97259600Y-196269000D01*
G36*
X88740400Y-209731000D02*
G01*
X77234200Y-209731000D01*
X77234200Y-196218200D01*
X88740400Y-196192800D01*
X88740400Y-209731000D01*
G37*
X88740400Y-209731000D02*
X77234200Y-209731000D01*
X77234200Y-196218200D01*
X88740400Y-196192800D01*
X88740400Y-209731000D01*
G36*
X57259600Y-196269000D02*
G01*
X68765800Y-196269000D01*
X68765800Y-209781800D01*
X57259600Y-209807200D01*
X57259600Y-196269000D01*
G37*
X57259600Y-196269000D02*
X68765800Y-196269000D01*
X68765800Y-209781800D01*
X57259600Y-209807200D01*
X57259600Y-196269000D01*
G36*
X48412400Y-210185000D02*
G01*
X36906200Y-210185000D01*
X36906200Y-196672200D01*
X48412400Y-196646800D01*
X48412400Y-210185000D01*
G37*
X48412400Y-210185000D02*
X36906200Y-210185000D01*
X36906200Y-196672200D01*
X48412400Y-196646800D01*
X48412400Y-210185000D01*
G36*
X28740400Y-209731000D02*
G01*
X17234200Y-209731000D01*
X17234200Y-196218200D01*
X28740400Y-196192800D01*
X28740400Y-209731000D01*
G37*
X28740400Y-209731000D02*
X17234200Y-209731000D01*
X17234200Y-196218200D01*
X28740400Y-196192800D01*
X28740400Y-209731000D01*
G36*
X257259600Y-176269000D02*
G01*
X268765800Y-176269000D01*
X268765800Y-189781800D01*
X257259600Y-189807200D01*
X257259600Y-176269000D01*
G37*
X257259600Y-176269000D02*
X268765800Y-176269000D01*
X268765800Y-189781800D01*
X257259600Y-189807200D01*
X257259600Y-176269000D01*
G36*
X248564400Y-189865000D02*
G01*
X237058200Y-189865000D01*
X237058200Y-176352200D01*
X248564400Y-176326800D01*
X248564400Y-189865000D01*
G37*
X248564400Y-189865000D02*
X237058200Y-189865000D01*
X237058200Y-176352200D01*
X248564400Y-176326800D01*
X248564400Y-189865000D01*
G36*
X217259600Y-176269000D02*
G01*
X228765800Y-176269000D01*
X228765800Y-189781800D01*
X217259600Y-189807200D01*
X217259600Y-176269000D01*
G37*
X217259600Y-176269000D02*
X228765800Y-176269000D01*
X228765800Y-189781800D01*
X217259600Y-189807200D01*
X217259600Y-176269000D01*
G36*
X208432400Y-189865000D02*
G01*
X196926200Y-189865000D01*
X196926200Y-176352200D01*
X208432400Y-176326800D01*
X208432400Y-189865000D01*
G37*
X208432400Y-189865000D02*
X196926200Y-189865000D01*
X196926200Y-176352200D01*
X208432400Y-176326800D01*
X208432400Y-189865000D01*
G36*
X177259600Y-176269000D02*
G01*
X188765800Y-176269000D01*
X188765800Y-189781800D01*
X177259600Y-189807200D01*
X177259600Y-176269000D01*
G37*
X177259600Y-176269000D02*
X188765800Y-176269000D01*
X188765800Y-189781800D01*
X177259600Y-189807200D01*
X177259600Y-176269000D01*
G36*
X168740400Y-189731000D02*
G01*
X157234200Y-189731000D01*
X157234200Y-176218200D01*
X168740400Y-176192800D01*
X168740400Y-189731000D01*
G37*
X168740400Y-189731000D02*
X157234200Y-189731000D01*
X157234200Y-176218200D01*
X168740400Y-176192800D01*
X168740400Y-189731000D01*
G36*
X137259600Y-176269000D02*
G01*
X148765800Y-176269000D01*
X148765800Y-189781800D01*
X137259600Y-189807200D01*
X137259600Y-176269000D01*
G37*
X137259600Y-176269000D02*
X148765800Y-176269000D01*
X148765800Y-189781800D01*
X137259600Y-189807200D01*
X137259600Y-176269000D01*
G36*
X128740400Y-189731000D02*
G01*
X117234200Y-189731000D01*
X117234200Y-176218200D01*
X128740400Y-176192800D01*
X128740400Y-189731000D01*
G37*
X128740400Y-189731000D02*
X117234200Y-189731000D01*
X117234200Y-176218200D01*
X128740400Y-176192800D01*
X128740400Y-189731000D01*
G36*
X97259600Y-176269000D02*
G01*
X108765800Y-176269000D01*
X108765800Y-189781800D01*
X97259600Y-189807200D01*
X97259600Y-176269000D01*
G37*
X97259600Y-176269000D02*
X108765800Y-176269000D01*
X108765800Y-189781800D01*
X97259600Y-189807200D01*
X97259600Y-176269000D01*
G36*
X88740400Y-189731000D02*
G01*
X77234200Y-189731000D01*
X77234200Y-176218200D01*
X88740400Y-176192800D01*
X88740400Y-189731000D01*
G37*
X88740400Y-189731000D02*
X77234200Y-189731000D01*
X77234200Y-176218200D01*
X88740400Y-176192800D01*
X88740400Y-189731000D01*
G36*
X57259600Y-176269000D02*
G01*
X68765800Y-176269000D01*
X68765800Y-189781800D01*
X57259600Y-189807200D01*
X57259600Y-176269000D01*
G37*
X57259600Y-176269000D02*
X68765800Y-176269000D01*
X68765800Y-189781800D01*
X57259600Y-189807200D01*
X57259600Y-176269000D01*
G36*
X48740400Y-189731000D02*
G01*
X37234200Y-189731000D01*
X37234200Y-176218200D01*
X48740400Y-176192800D01*
X48740400Y-189731000D01*
G37*
X48740400Y-189731000D02*
X37234200Y-189731000D01*
X37234200Y-176218200D01*
X48740400Y-176192800D01*
X48740400Y-189731000D01*
G36*
X28740400Y-190231000D02*
G01*
X17234200Y-190231000D01*
X17234200Y-176718200D01*
X28740400Y-176692800D01*
X28740400Y-190231000D01*
G37*
X28740400Y-190231000D02*
X17234200Y-190231000D01*
X17234200Y-176718200D01*
X28740400Y-176692800D01*
X28740400Y-190231000D01*
G36*
X257259600Y-156269000D02*
G01*
X268765800Y-156269000D01*
X268765800Y-169781800D01*
X257259600Y-169807200D01*
X257259600Y-156269000D01*
G37*
X257259600Y-156269000D02*
X268765800Y-156269000D01*
X268765800Y-169781800D01*
X257259600Y-169807200D01*
X257259600Y-156269000D01*
G36*
X248740400Y-171231000D02*
G01*
X237234200Y-171231000D01*
X237234200Y-157718200D01*
X248740400Y-157692800D01*
X248740400Y-171231000D01*
G37*
X248740400Y-171231000D02*
X237234200Y-171231000D01*
X237234200Y-157718200D01*
X248740400Y-157692800D01*
X248740400Y-171231000D01*
G36*
X217259600Y-156269000D02*
G01*
X228765800Y-156269000D01*
X228765800Y-169781800D01*
X217259600Y-169807200D01*
X217259600Y-156269000D01*
G37*
X217259600Y-156269000D02*
X228765800Y-156269000D01*
X228765800Y-169781800D01*
X217259600Y-169807200D01*
X217259600Y-156269000D01*
G36*
X208740400Y-169731000D02*
G01*
X197234200Y-169731000D01*
X197234200Y-156218200D01*
X208740400Y-156192800D01*
X208740400Y-169731000D01*
G37*
X208740400Y-169731000D02*
X197234200Y-169731000D01*
X197234200Y-156218200D01*
X208740400Y-156192800D01*
X208740400Y-169731000D01*
G36*
X177259600Y-156269000D02*
G01*
X188765800Y-156269000D01*
X188765800Y-169781800D01*
X177259600Y-169807200D01*
X177259600Y-156269000D01*
G37*
X177259600Y-156269000D02*
X188765800Y-156269000D01*
X188765800Y-169781800D01*
X177259600Y-169807200D01*
X177259600Y-156269000D01*
G36*
X168740400Y-169731000D02*
G01*
X157234200Y-169731000D01*
X157234200Y-156218200D01*
X168740400Y-156192800D01*
X168740400Y-169731000D01*
G37*
X168740400Y-169731000D02*
X157234200Y-169731000D01*
X157234200Y-156218200D01*
X168740400Y-156192800D01*
X168740400Y-169731000D01*
G36*
X137259600Y-156269000D02*
G01*
X148765800Y-156269000D01*
X148765800Y-169781800D01*
X137259600Y-169807200D01*
X137259600Y-156269000D01*
G37*
X137259600Y-156269000D02*
X148765800Y-156269000D01*
X148765800Y-169781800D01*
X137259600Y-169807200D01*
X137259600Y-156269000D01*
G36*
X128740400Y-169731000D02*
G01*
X117234200Y-169731000D01*
X117234200Y-156218200D01*
X128740400Y-156192800D01*
X128740400Y-169731000D01*
G37*
X128740400Y-169731000D02*
X117234200Y-169731000D01*
X117234200Y-156218200D01*
X128740400Y-156192800D01*
X128740400Y-169731000D01*
G36*
X97259600Y-156269000D02*
G01*
X108765800Y-156269000D01*
X108765800Y-169781800D01*
X97259600Y-169807200D01*
X97259600Y-156269000D01*
G37*
X97259600Y-156269000D02*
X108765800Y-156269000D01*
X108765800Y-169781800D01*
X97259600Y-169807200D01*
X97259600Y-156269000D01*
G36*
X88740400Y-169731000D02*
G01*
X77234200Y-169731000D01*
X77234200Y-156218200D01*
X88740400Y-156192800D01*
X88740400Y-169731000D01*
G37*
X88740400Y-169731000D02*
X77234200Y-169731000D01*
X77234200Y-156218200D01*
X88740400Y-156192800D01*
X88740400Y-169731000D01*
G36*
X57259600Y-156269000D02*
G01*
X68765800Y-156269000D01*
X68765800Y-169781800D01*
X57259600Y-169807200D01*
X57259600Y-156269000D01*
G37*
X57259600Y-156269000D02*
X68765800Y-156269000D01*
X68765800Y-169781800D01*
X57259600Y-169807200D01*
X57259600Y-156269000D01*
G36*
X48740400Y-169731000D02*
G01*
X37234200Y-169731000D01*
X37234200Y-156218200D01*
X48740400Y-156192800D01*
X48740400Y-169731000D01*
G37*
X48740400Y-169731000D02*
X37234200Y-169731000D01*
X37234200Y-156218200D01*
X48740400Y-156192800D01*
X48740400Y-169731000D01*
G36*
X28740400Y-169731000D02*
G01*
X17234200Y-169731000D01*
X17234200Y-156218200D01*
X28740400Y-156192800D01*
X28740400Y-169731000D01*
G37*
X28740400Y-169731000D02*
X17234200Y-169731000D01*
X17234200Y-156218200D01*
X28740400Y-156192800D01*
X28740400Y-169731000D01*
G36*
X257259600Y-136269000D02*
G01*
X268765800Y-136269000D01*
X268765800Y-149781800D01*
X257259600Y-149807200D01*
X257259600Y-136269000D01*
G37*
X257259600Y-136269000D02*
X268765800Y-136269000D01*
X268765800Y-149781800D01*
X257259600Y-149807200D01*
X257259600Y-136269000D01*
G36*
X248740400Y-149731000D02*
G01*
X237234200Y-149731000D01*
X237234200Y-136218200D01*
X248740400Y-136192800D01*
X248740400Y-149731000D01*
G37*
X248740400Y-149731000D02*
X237234200Y-149731000D01*
X237234200Y-136218200D01*
X248740400Y-136192800D01*
X248740400Y-149731000D01*
G36*
X217259600Y-136269000D02*
G01*
X228765800Y-136269000D01*
X228765800Y-149781800D01*
X217259600Y-149807200D01*
X217259600Y-136269000D01*
G37*
X217259600Y-136269000D02*
X228765800Y-136269000D01*
X228765800Y-149781800D01*
X217259600Y-149807200D01*
X217259600Y-136269000D01*
G36*
X208740400Y-149731000D02*
G01*
X197234200Y-149731000D01*
X197234200Y-136218200D01*
X208740400Y-136192800D01*
X208740400Y-149731000D01*
G37*
X208740400Y-149731000D02*
X197234200Y-149731000D01*
X197234200Y-136218200D01*
X208740400Y-136192800D01*
X208740400Y-149731000D01*
G36*
X177259600Y-136269000D02*
G01*
X188765800Y-136269000D01*
X188765800Y-149781800D01*
X177259600Y-149807200D01*
X177259600Y-136269000D01*
G37*
X177259600Y-136269000D02*
X188765800Y-136269000D01*
X188765800Y-149781800D01*
X177259600Y-149807200D01*
X177259600Y-136269000D01*
G36*
X168740400Y-149731000D02*
G01*
X157234200Y-149731000D01*
X157234200Y-136218200D01*
X168740400Y-136192800D01*
X168740400Y-149731000D01*
G37*
X168740400Y-149731000D02*
X157234200Y-149731000D01*
X157234200Y-136218200D01*
X168740400Y-136192800D01*
X168740400Y-149731000D01*
G36*
X137259600Y-136269000D02*
G01*
X148765800Y-136269000D01*
X148765800Y-149781800D01*
X137259600Y-149807200D01*
X137259600Y-136269000D01*
G37*
X137259600Y-136269000D02*
X148765800Y-136269000D01*
X148765800Y-149781800D01*
X137259600Y-149807200D01*
X137259600Y-136269000D01*
G36*
X128740400Y-149731000D02*
G01*
X117234200Y-149731000D01*
X117234200Y-136218200D01*
X128740400Y-136192800D01*
X128740400Y-149731000D01*
G37*
X128740400Y-149731000D02*
X117234200Y-149731000D01*
X117234200Y-136218200D01*
X128740400Y-136192800D01*
X128740400Y-149731000D01*
G36*
X97259600Y-136269000D02*
G01*
X108765800Y-136269000D01*
X108765800Y-149781800D01*
X97259600Y-149807200D01*
X97259600Y-136269000D01*
G37*
X97259600Y-136269000D02*
X108765800Y-136269000D01*
X108765800Y-149781800D01*
X97259600Y-149807200D01*
X97259600Y-136269000D01*
G36*
X88740400Y-149731000D02*
G01*
X77234200Y-149731000D01*
X77234200Y-136218200D01*
X88740400Y-136192800D01*
X88740400Y-149731000D01*
G37*
X88740400Y-149731000D02*
X77234200Y-149731000D01*
X77234200Y-136218200D01*
X88740400Y-136192800D01*
X88740400Y-149731000D01*
G36*
X57259600Y-136269000D02*
G01*
X68765800Y-136269000D01*
X68765800Y-149781800D01*
X57259600Y-149807200D01*
X57259600Y-136269000D01*
G37*
X57259600Y-136269000D02*
X68765800Y-136269000D01*
X68765800Y-149781800D01*
X57259600Y-149807200D01*
X57259600Y-136269000D01*
G36*
X48740400Y-149731000D02*
G01*
X37234200Y-149731000D01*
X37234200Y-136218200D01*
X48740400Y-136192800D01*
X48740400Y-149731000D01*
G37*
X48740400Y-149731000D02*
X37234200Y-149731000D01*
X37234200Y-136218200D01*
X48740400Y-136192800D01*
X48740400Y-149731000D01*
G36*
X28740400Y-149731000D02*
G01*
X17234200Y-149731000D01*
X17234200Y-136218200D01*
X28740400Y-136192800D01*
X28740400Y-149731000D01*
G37*
X28740400Y-149731000D02*
X17234200Y-149731000D01*
X17234200Y-136218200D01*
X28740400Y-136192800D01*
X28740400Y-149731000D01*
G36*
X257259600Y-116269000D02*
G01*
X268765800Y-116269000D01*
X268765800Y-129781800D01*
X257259600Y-129807200D01*
X257259600Y-116269000D01*
G37*
X257259600Y-116269000D02*
X268765800Y-116269000D01*
X268765800Y-129781800D01*
X257259600Y-129807200D01*
X257259600Y-116269000D01*
G36*
X248740400Y-129731000D02*
G01*
X237234200Y-129731000D01*
X237234200Y-116218200D01*
X248740400Y-116192800D01*
X248740400Y-129731000D01*
G37*
X248740400Y-129731000D02*
X237234200Y-129731000D01*
X237234200Y-116218200D01*
X248740400Y-116192800D01*
X248740400Y-129731000D01*
G36*
X217259600Y-116269000D02*
G01*
X228765800Y-116269000D01*
X228765800Y-129781800D01*
X217259600Y-129807200D01*
X217259600Y-116269000D01*
G37*
X217259600Y-116269000D02*
X228765800Y-116269000D01*
X228765800Y-129781800D01*
X217259600Y-129807200D01*
X217259600Y-116269000D01*
G36*
X208740400Y-129731000D02*
G01*
X197234200Y-129731000D01*
X197234200Y-116218200D01*
X208740400Y-116192800D01*
X208740400Y-129731000D01*
G37*
X208740400Y-129731000D02*
X197234200Y-129731000D01*
X197234200Y-116218200D01*
X208740400Y-116192800D01*
X208740400Y-129731000D01*
G36*
X177259600Y-116269000D02*
G01*
X188765800Y-116269000D01*
X188765800Y-129781800D01*
X177259600Y-129807200D01*
X177259600Y-116269000D01*
G37*
X177259600Y-116269000D02*
X188765800Y-116269000D01*
X188765800Y-129781800D01*
X177259600Y-129807200D01*
X177259600Y-116269000D01*
G36*
X168740400Y-129731000D02*
G01*
X157234200Y-129731000D01*
X157234200Y-116218200D01*
X168740400Y-116192800D01*
X168740400Y-129731000D01*
G37*
X168740400Y-129731000D02*
X157234200Y-129731000D01*
X157234200Y-116218200D01*
X168740400Y-116192800D01*
X168740400Y-129731000D01*
G36*
X137259600Y-116269000D02*
G01*
X148765800Y-116269000D01*
X148765800Y-129781800D01*
X137259600Y-129807200D01*
X137259600Y-116269000D01*
G37*
X137259600Y-116269000D02*
X148765800Y-116269000D01*
X148765800Y-129781800D01*
X137259600Y-129807200D01*
X137259600Y-116269000D01*
G36*
X128740400Y-129731000D02*
G01*
X117234200Y-129731000D01*
X117234200Y-116218200D01*
X128740400Y-116192800D01*
X128740400Y-129731000D01*
G37*
X128740400Y-129731000D02*
X117234200Y-129731000D01*
X117234200Y-116218200D01*
X128740400Y-116192800D01*
X128740400Y-129731000D01*
G36*
X97259600Y-116269000D02*
G01*
X108765800Y-116269000D01*
X108765800Y-129781800D01*
X97259600Y-129807200D01*
X97259600Y-116269000D01*
G37*
X97259600Y-116269000D02*
X108765800Y-116269000D01*
X108765800Y-129781800D01*
X97259600Y-129807200D01*
X97259600Y-116269000D01*
G36*
X88740400Y-129731000D02*
G01*
X77234200Y-129731000D01*
X77234200Y-116218200D01*
X88740400Y-116192800D01*
X88740400Y-129731000D01*
G37*
X88740400Y-129731000D02*
X77234200Y-129731000D01*
X77234200Y-116218200D01*
X88740400Y-116192800D01*
X88740400Y-129731000D01*
G36*
X57259600Y-116269000D02*
G01*
X68765800Y-116269000D01*
X68765800Y-129781800D01*
X57259600Y-129807200D01*
X57259600Y-116269000D01*
G37*
X57259600Y-116269000D02*
X68765800Y-116269000D01*
X68765800Y-129781800D01*
X57259600Y-129807200D01*
X57259600Y-116269000D01*
G36*
X48740400Y-129731000D02*
G01*
X37234200Y-129731000D01*
X37234200Y-116218200D01*
X48740400Y-116192800D01*
X48740400Y-129731000D01*
G37*
X48740400Y-129731000D02*
X37234200Y-129731000D01*
X37234200Y-116218200D01*
X48740400Y-116192800D01*
X48740400Y-129731000D01*
G36*
X28740400Y-129731000D02*
G01*
X17234200Y-129731000D01*
X17234200Y-116218200D01*
X28740400Y-116192800D01*
X28740400Y-129731000D01*
G37*
X28740400Y-129731000D02*
X17234200Y-129731000D01*
X17234200Y-116218200D01*
X28740400Y-116192800D01*
X28740400Y-129731000D01*
G36*
X257259600Y-96269000D02*
G01*
X268765800Y-96269000D01*
X268765800Y-109781800D01*
X257259600Y-109807200D01*
X257259600Y-96269000D01*
G37*
X257259600Y-96269000D02*
X268765800Y-96269000D01*
X268765800Y-109781800D01*
X257259600Y-109807200D01*
X257259600Y-96269000D01*
G36*
X248740400Y-109731000D02*
G01*
X237234200Y-109731000D01*
X237234200Y-96218200D01*
X248740400Y-96192800D01*
X248740400Y-109731000D01*
G37*
X248740400Y-109731000D02*
X237234200Y-109731000D01*
X237234200Y-96218200D01*
X248740400Y-96192800D01*
X248740400Y-109731000D01*
G36*
X217259600Y-96269000D02*
G01*
X228765800Y-96269000D01*
X228765800Y-109781800D01*
X217259600Y-109807200D01*
X217259600Y-96269000D01*
G37*
X217259600Y-96269000D02*
X228765800Y-96269000D01*
X228765800Y-109781800D01*
X217259600Y-109807200D01*
X217259600Y-96269000D01*
G36*
X208740400Y-109731000D02*
G01*
X197234200Y-109731000D01*
X197234200Y-96218200D01*
X208740400Y-96192800D01*
X208740400Y-109731000D01*
G37*
X208740400Y-109731000D02*
X197234200Y-109731000D01*
X197234200Y-96218200D01*
X208740400Y-96192800D01*
X208740400Y-109731000D01*
G36*
X177259600Y-96269000D02*
G01*
X188765800Y-96269000D01*
X188765800Y-109781800D01*
X177259600Y-109807200D01*
X177259600Y-96269000D01*
G37*
X177259600Y-96269000D02*
X188765800Y-96269000D01*
X188765800Y-109781800D01*
X177259600Y-109807200D01*
X177259600Y-96269000D01*
G36*
X168740400Y-109731000D02*
G01*
X157234200Y-109731000D01*
X157234200Y-96218200D01*
X168740400Y-96192800D01*
X168740400Y-109731000D01*
G37*
X168740400Y-109731000D02*
X157234200Y-109731000D01*
X157234200Y-96218200D01*
X168740400Y-96192800D01*
X168740400Y-109731000D01*
G36*
X137259600Y-96269000D02*
G01*
X148765800Y-96269000D01*
X148765800Y-109781800D01*
X137259600Y-109807200D01*
X137259600Y-96269000D01*
G37*
X137259600Y-96269000D02*
X148765800Y-96269000D01*
X148765800Y-109781800D01*
X137259600Y-109807200D01*
X137259600Y-96269000D01*
G36*
X128240400Y-109731000D02*
G01*
X116734200Y-109731000D01*
X116734200Y-96218200D01*
X128240400Y-96192800D01*
X128240400Y-109731000D01*
G37*
X128240400Y-109731000D02*
X116734200Y-109731000D01*
X116734200Y-96218200D01*
X128240400Y-96192800D01*
X128240400Y-109731000D01*
G36*
X97259600Y-96269000D02*
G01*
X108765800Y-96269000D01*
X108765800Y-109781800D01*
X97259600Y-109807200D01*
X97259600Y-96269000D01*
G37*
X97259600Y-96269000D02*
X108765800Y-96269000D01*
X108765800Y-109781800D01*
X97259600Y-109807200D01*
X97259600Y-96269000D01*
G36*
X88740400Y-109731000D02*
G01*
X77234200Y-109731000D01*
X77234200Y-96218200D01*
X88740400Y-96192800D01*
X88740400Y-109731000D01*
G37*
X88740400Y-109731000D02*
X77234200Y-109731000D01*
X77234200Y-96218200D01*
X88740400Y-96192800D01*
X88740400Y-109731000D01*
G36*
X57259600Y-96269000D02*
G01*
X68765800Y-96269000D01*
X68765800Y-109781800D01*
X57259600Y-109807200D01*
X57259600Y-96269000D01*
G37*
X57259600Y-96269000D02*
X68765800Y-96269000D01*
X68765800Y-109781800D01*
X57259600Y-109807200D01*
X57259600Y-96269000D01*
G36*
X48740400Y-109731000D02*
G01*
X37234200Y-109731000D01*
X37234200Y-96218200D01*
X48740400Y-96192800D01*
X48740400Y-109731000D01*
G37*
X48740400Y-109731000D02*
X37234200Y-109731000D01*
X37234200Y-96218200D01*
X48740400Y-96192800D01*
X48740400Y-109731000D01*
G36*
X28740400Y-109731000D02*
G01*
X17234200Y-109731000D01*
X17234200Y-96218200D01*
X28740400Y-96192800D01*
X28740400Y-109731000D01*
G37*
X28740400Y-109731000D02*
X17234200Y-109731000D01*
X17234200Y-96218200D01*
X28740400Y-96192800D01*
X28740400Y-109731000D01*
G36*
X257259600Y-76269000D02*
G01*
X268765800Y-76269000D01*
X268765800Y-89781800D01*
X257259600Y-89807200D01*
X257259600Y-76269000D01*
G37*
X257259600Y-76269000D02*
X268765800Y-76269000D01*
X268765800Y-89781800D01*
X257259600Y-89807200D01*
X257259600Y-76269000D01*
G36*
X248740400Y-89731000D02*
G01*
X237234200Y-89731000D01*
X237234200Y-76218200D01*
X248740400Y-76192800D01*
X248740400Y-89731000D01*
G37*
X248740400Y-89731000D02*
X237234200Y-89731000D01*
X237234200Y-76218200D01*
X248740400Y-76192800D01*
X248740400Y-89731000D01*
G36*
X217259600Y-76269000D02*
G01*
X228765800Y-76269000D01*
X228765800Y-89781800D01*
X217259600Y-89807200D01*
X217259600Y-76269000D01*
G37*
X217259600Y-76269000D02*
X228765800Y-76269000D01*
X228765800Y-89781800D01*
X217259600Y-89807200D01*
X217259600Y-76269000D01*
G36*
X208740400Y-89731000D02*
G01*
X197234200Y-89731000D01*
X197234200Y-76218200D01*
X208740400Y-76192800D01*
X208740400Y-89731000D01*
G37*
X208740400Y-89731000D02*
X197234200Y-89731000D01*
X197234200Y-76218200D01*
X208740400Y-76192800D01*
X208740400Y-89731000D01*
G36*
X177259600Y-76269000D02*
G01*
X188765800Y-76269000D01*
X188765800Y-89781800D01*
X177259600Y-89807200D01*
X177259600Y-76269000D01*
G37*
X177259600Y-76269000D02*
X188765800Y-76269000D01*
X188765800Y-89781800D01*
X177259600Y-89807200D01*
X177259600Y-76269000D01*
G36*
X168740400Y-89731000D02*
G01*
X157234200Y-89731000D01*
X157234200Y-76218200D01*
X168740400Y-76192800D01*
X168740400Y-89731000D01*
G37*
X168740400Y-89731000D02*
X157234200Y-89731000D01*
X157234200Y-76218200D01*
X168740400Y-76192800D01*
X168740400Y-89731000D01*
G36*
X137259600Y-76269000D02*
G01*
X148765800Y-76269000D01*
X148765800Y-89781800D01*
X137259600Y-89807200D01*
X137259600Y-76269000D01*
G37*
X137259600Y-76269000D02*
X148765800Y-76269000D01*
X148765800Y-89781800D01*
X137259600Y-89807200D01*
X137259600Y-76269000D01*
G36*
X128740400Y-89731000D02*
G01*
X117234200Y-89731000D01*
X117234200Y-76218200D01*
X128740400Y-76192800D01*
X128740400Y-89731000D01*
G37*
X128740400Y-89731000D02*
X117234200Y-89731000D01*
X117234200Y-76218200D01*
X128740400Y-76192800D01*
X128740400Y-89731000D01*
G36*
X97259600Y-76269000D02*
G01*
X108765800Y-76269000D01*
X108765800Y-89781800D01*
X97259600Y-89807200D01*
X97259600Y-76269000D01*
G37*
X97259600Y-76269000D02*
X108765800Y-76269000D01*
X108765800Y-89781800D01*
X97259600Y-89807200D01*
X97259600Y-76269000D01*
G36*
X88740400Y-89731000D02*
G01*
X77234200Y-89731000D01*
X77234200Y-76218200D01*
X88740400Y-76192800D01*
X88740400Y-89731000D01*
G37*
X88740400Y-89731000D02*
X77234200Y-89731000D01*
X77234200Y-76218200D01*
X88740400Y-76192800D01*
X88740400Y-89731000D01*
G36*
X57259600Y-76269000D02*
G01*
X68765800Y-76269000D01*
X68765800Y-89781800D01*
X57259600Y-89807200D01*
X57259600Y-76269000D01*
G37*
X57259600Y-76269000D02*
X68765800Y-76269000D01*
X68765800Y-89781800D01*
X57259600Y-89807200D01*
X57259600Y-76269000D01*
G36*
X48740400Y-89731000D02*
G01*
X37234200Y-89731000D01*
X37234200Y-76218200D01*
X48740400Y-76192800D01*
X48740400Y-89731000D01*
G37*
X48740400Y-89731000D02*
X37234200Y-89731000D01*
X37234200Y-76218200D01*
X48740400Y-76192800D01*
X48740400Y-89731000D01*
G36*
X28854400Y-89789000D02*
G01*
X17348200Y-89789000D01*
X17348200Y-76276200D01*
X28854400Y-76250800D01*
X28854400Y-89789000D01*
G37*
X28854400Y-89789000D02*
X17348200Y-89789000D01*
X17348200Y-76276200D01*
X28854400Y-76250800D01*
X28854400Y-89789000D01*
G36*
X257259600Y-56269000D02*
G01*
X268765800Y-56269000D01*
X268765800Y-69781800D01*
X257259600Y-69807200D01*
X257259600Y-56269000D01*
G37*
X257259600Y-56269000D02*
X268765800Y-56269000D01*
X268765800Y-69781800D01*
X257259600Y-69807200D01*
X257259600Y-56269000D01*
G36*
X248740400Y-69731000D02*
G01*
X237234200Y-69731000D01*
X237234200Y-56218200D01*
X248740400Y-56192800D01*
X248740400Y-69731000D01*
G37*
X248740400Y-69731000D02*
X237234200Y-69731000D01*
X237234200Y-56218200D01*
X248740400Y-56192800D01*
X248740400Y-69731000D01*
G36*
X217259600Y-56269000D02*
G01*
X228765800Y-56269000D01*
X228765800Y-69781800D01*
X217259600Y-69807200D01*
X217259600Y-56269000D01*
G37*
X217259600Y-56269000D02*
X228765800Y-56269000D01*
X228765800Y-69781800D01*
X217259600Y-69807200D01*
X217259600Y-56269000D01*
G36*
X208740400Y-69731000D02*
G01*
X197234200Y-69731000D01*
X197234200Y-56218200D01*
X208740400Y-56192800D01*
X208740400Y-69731000D01*
G37*
X208740400Y-69731000D02*
X197234200Y-69731000D01*
X197234200Y-56218200D01*
X208740400Y-56192800D01*
X208740400Y-69731000D01*
G36*
X177259600Y-56269000D02*
G01*
X188765800Y-56269000D01*
X188765800Y-69781800D01*
X177259600Y-69807200D01*
X177259600Y-56269000D01*
G37*
X177259600Y-56269000D02*
X188765800Y-56269000D01*
X188765800Y-69781800D01*
X177259600Y-69807200D01*
X177259600Y-56269000D01*
G36*
X168740400Y-69731000D02*
G01*
X157234200Y-69731000D01*
X157234200Y-56218200D01*
X168740400Y-56192800D01*
X168740400Y-69731000D01*
G37*
X168740400Y-69731000D02*
X157234200Y-69731000D01*
X157234200Y-56218200D01*
X168740400Y-56192800D01*
X168740400Y-69731000D01*
G36*
X137259600Y-56269000D02*
G01*
X148765800Y-56269000D01*
X148765800Y-69781800D01*
X137259600Y-69807200D01*
X137259600Y-56269000D01*
G37*
X137259600Y-56269000D02*
X148765800Y-56269000D01*
X148765800Y-69781800D01*
X137259600Y-69807200D01*
X137259600Y-56269000D01*
G36*
X128740400Y-69731000D02*
G01*
X117234200Y-69731000D01*
X117234200Y-56218200D01*
X128740400Y-56192800D01*
X128740400Y-69731000D01*
G37*
X128740400Y-69731000D02*
X117234200Y-69731000D01*
X117234200Y-56218200D01*
X128740400Y-56192800D01*
X128740400Y-69731000D01*
G36*
X97259600Y-56269000D02*
G01*
X108765800Y-56269000D01*
X108765800Y-69781800D01*
X97259600Y-69807200D01*
X97259600Y-56269000D01*
G37*
X97259600Y-56269000D02*
X108765800Y-56269000D01*
X108765800Y-69781800D01*
X97259600Y-69807200D01*
X97259600Y-56269000D01*
G36*
X88740400Y-69731000D02*
G01*
X77234200Y-69731000D01*
X77234200Y-56218200D01*
X88740400Y-56192800D01*
X88740400Y-69731000D01*
G37*
X88740400Y-69731000D02*
X77234200Y-69731000D01*
X77234200Y-56218200D01*
X88740400Y-56192800D01*
X88740400Y-69731000D01*
G36*
X56939600Y-56199000D02*
G01*
X68445800Y-56199000D01*
X68445800Y-69711800D01*
X56939600Y-69737200D01*
X56939600Y-56199000D01*
G37*
X56939600Y-56199000D02*
X68445800Y-56199000D01*
X68445800Y-69711800D01*
X56939600Y-69737200D01*
X56939600Y-56199000D01*
G36*
X48740400Y-69731000D02*
G01*
X37234200Y-69731000D01*
X37234200Y-56218200D01*
X48740400Y-56192800D01*
X48740400Y-69731000D01*
G37*
X48740400Y-69731000D02*
X37234200Y-69731000D01*
X37234200Y-56218200D01*
X48740400Y-56192800D01*
X48740400Y-69731000D01*
G36*
X28740400Y-69731000D02*
G01*
X17234200Y-69731000D01*
X17234200Y-56218200D01*
X28740400Y-56192800D01*
X28740400Y-69731000D01*
G37*
X28740400Y-69731000D02*
X17234200Y-69731000D01*
X17234200Y-56218200D01*
X28740400Y-56192800D01*
X28740400Y-69731000D01*
G36*
X257259600Y-36269000D02*
G01*
X268765800Y-36269000D01*
X268765800Y-49781800D01*
X257259600Y-49807200D01*
X257259600Y-36269000D01*
G37*
X257259600Y-36269000D02*
X268765800Y-36269000D01*
X268765800Y-49781800D01*
X257259600Y-49807200D01*
X257259600Y-36269000D01*
G36*
X248740400Y-49731000D02*
G01*
X237234200Y-49731000D01*
X237234200Y-36218200D01*
X248740400Y-36192800D01*
X248740400Y-49731000D01*
G37*
X248740400Y-49731000D02*
X237234200Y-49731000D01*
X237234200Y-36218200D01*
X248740400Y-36192800D01*
X248740400Y-49731000D01*
G36*
X217259600Y-36269000D02*
G01*
X228765800Y-36269000D01*
X228765800Y-49781800D01*
X217259600Y-49807200D01*
X217259600Y-36269000D01*
G37*
X217259600Y-36269000D02*
X228765800Y-36269000D01*
X228765800Y-49781800D01*
X217259600Y-49807200D01*
X217259600Y-36269000D01*
G36*
X208740400Y-49731000D02*
G01*
X197234200Y-49731000D01*
X197234200Y-36218200D01*
X208740400Y-36192800D01*
X208740400Y-49731000D01*
G37*
X208740400Y-49731000D02*
X197234200Y-49731000D01*
X197234200Y-36218200D01*
X208740400Y-36192800D01*
X208740400Y-49731000D01*
G36*
X177259600Y-36269000D02*
G01*
X188765800Y-36269000D01*
X188765800Y-49781800D01*
X177259600Y-49807200D01*
X177259600Y-36269000D01*
G37*
X177259600Y-36269000D02*
X188765800Y-36269000D01*
X188765800Y-49781800D01*
X177259600Y-49807200D01*
X177259600Y-36269000D01*
G36*
X168740400Y-49731000D02*
G01*
X157234200Y-49731000D01*
X157234200Y-36218200D01*
X168740400Y-36192800D01*
X168740400Y-49731000D01*
G37*
X168740400Y-49731000D02*
X157234200Y-49731000D01*
X157234200Y-36218200D01*
X168740400Y-36192800D01*
X168740400Y-49731000D01*
G36*
X137259600Y-36269000D02*
G01*
X148765800Y-36269000D01*
X148765800Y-49781800D01*
X137259600Y-49807200D01*
X137259600Y-36269000D01*
G37*
X137259600Y-36269000D02*
X148765800Y-36269000D01*
X148765800Y-49781800D01*
X137259600Y-49807200D01*
X137259600Y-36269000D01*
G36*
X128740400Y-49731000D02*
G01*
X117234200Y-49731000D01*
X117234200Y-36218200D01*
X128740400Y-36192800D01*
X128740400Y-49731000D01*
G37*
X128740400Y-49731000D02*
X117234200Y-49731000D01*
X117234200Y-36218200D01*
X128740400Y-36192800D01*
X128740400Y-49731000D01*
G36*
X97259600Y-36269000D02*
G01*
X108765800Y-36269000D01*
X108765800Y-49781800D01*
X97259600Y-49807200D01*
X97259600Y-36269000D01*
G37*
X97259600Y-36269000D02*
X108765800Y-36269000D01*
X108765800Y-49781800D01*
X97259600Y-49807200D01*
X97259600Y-36269000D01*
G36*
X88740400Y-49731000D02*
G01*
X77234200Y-49731000D01*
X77234200Y-36218200D01*
X88740400Y-36192800D01*
X88740400Y-49731000D01*
G37*
X88740400Y-49731000D02*
X77234200Y-49731000D01*
X77234200Y-36218200D01*
X88740400Y-36192800D01*
X88740400Y-49731000D01*
G36*
X56939600Y-37149000D02*
G01*
X68445800Y-37149000D01*
X68445800Y-50661800D01*
X56939600Y-50687200D01*
X56939600Y-37149000D01*
G37*
X56939600Y-37149000D02*
X68445800Y-37149000D01*
X68445800Y-50661800D01*
X56939600Y-50687200D01*
X56939600Y-37149000D01*
G36*
X48740400Y-49731000D02*
G01*
X37234200Y-49731000D01*
X37234200Y-36218200D01*
X48740400Y-36192800D01*
X48740400Y-49731000D01*
G37*
X48740400Y-49731000D02*
X37234200Y-49731000D01*
X37234200Y-36218200D01*
X48740400Y-36192800D01*
X48740400Y-49731000D01*
G36*
X28740400Y-49731000D02*
G01*
X17234200Y-49731000D01*
X17234200Y-36218200D01*
X28740400Y-36192800D01*
X28740400Y-49731000D01*
G37*
X28740400Y-49731000D02*
X17234200Y-49731000D01*
X17234200Y-36218200D01*
X28740400Y-36192800D01*
X28740400Y-49731000D01*
G36*
X257259600Y-16269000D02*
G01*
X268765800Y-16269000D01*
X268765800Y-29781800D01*
X257259600Y-29807200D01*
X257259600Y-16269000D01*
G37*
X257259600Y-16269000D02*
X268765800Y-16269000D01*
X268765800Y-29781800D01*
X257259600Y-29807200D01*
X257259600Y-16269000D01*
G36*
X248740400Y-29731000D02*
G01*
X237234200Y-29731000D01*
X237234200Y-16218200D01*
X248740400Y-16192800D01*
X248740400Y-29731000D01*
G37*
X248740400Y-29731000D02*
X237234200Y-29731000D01*
X237234200Y-16218200D01*
X248740400Y-16192800D01*
X248740400Y-29731000D01*
G36*
X217259600Y-16269000D02*
G01*
X228765800Y-16269000D01*
X228765800Y-29781800D01*
X217259600Y-29807200D01*
X217259600Y-16269000D01*
G37*
X217259600Y-16269000D02*
X228765800Y-16269000D01*
X228765800Y-29781800D01*
X217259600Y-29807200D01*
X217259600Y-16269000D01*
G36*
X208740400Y-29731000D02*
G01*
X197234200Y-29731000D01*
X197234200Y-16218200D01*
X208740400Y-16192800D01*
X208740400Y-29731000D01*
G37*
X208740400Y-29731000D02*
X197234200Y-29731000D01*
X197234200Y-16218200D01*
X208740400Y-16192800D01*
X208740400Y-29731000D01*
G36*
X177259600Y-16269000D02*
G01*
X188765800Y-16269000D01*
X188765800Y-29781800D01*
X177259600Y-29807200D01*
X177259600Y-16269000D01*
G37*
X177259600Y-16269000D02*
X188765800Y-16269000D01*
X188765800Y-29781800D01*
X177259600Y-29807200D01*
X177259600Y-16269000D01*
G36*
X168740400Y-29731000D02*
G01*
X157234200Y-29731000D01*
X157234200Y-16218200D01*
X168740400Y-16192800D01*
X168740400Y-29731000D01*
G37*
X168740400Y-29731000D02*
X157234200Y-29731000D01*
X157234200Y-16218200D01*
X168740400Y-16192800D01*
X168740400Y-29731000D01*
G36*
X137259600Y-16269000D02*
G01*
X148765800Y-16269000D01*
X148765800Y-29781800D01*
X137259600Y-29807200D01*
X137259600Y-16269000D01*
G37*
X137259600Y-16269000D02*
X148765800Y-16269000D01*
X148765800Y-29781800D01*
X137259600Y-29807200D01*
X137259600Y-16269000D01*
G36*
X128740400Y-29731000D02*
G01*
X117234200Y-29731000D01*
X117234200Y-16218200D01*
X128740400Y-16192800D01*
X128740400Y-29731000D01*
G37*
X128740400Y-29731000D02*
X117234200Y-29731000D01*
X117234200Y-16218200D01*
X128740400Y-16192800D01*
X128740400Y-29731000D01*
G36*
X97259600Y-16269000D02*
G01*
X108765800Y-16269000D01*
X108765800Y-29781800D01*
X97259600Y-29807200D01*
X97259600Y-16269000D01*
G37*
X97259600Y-16269000D02*
X108765800Y-16269000D01*
X108765800Y-29781800D01*
X97259600Y-29807200D01*
X97259600Y-16269000D01*
G36*
X88740400Y-29731000D02*
G01*
X77234200Y-29731000D01*
X77234200Y-16218200D01*
X88740400Y-16192800D01*
X88740400Y-29731000D01*
G37*
X88740400Y-29731000D02*
X77234200Y-29731000D01*
X77234200Y-16218200D01*
X88740400Y-16192800D01*
X88740400Y-29731000D01*
G36*
X57259600Y-16269000D02*
G01*
X68765800Y-16269000D01*
X68765800Y-29781800D01*
X57259600Y-29807200D01*
X57259600Y-16269000D01*
G37*
X57259600Y-16269000D02*
X68765800Y-16269000D01*
X68765800Y-29781800D01*
X57259600Y-29807200D01*
X57259600Y-16269000D01*
G36*
X48740400Y-29731000D02*
G01*
X37234200Y-29731000D01*
X37234200Y-16218200D01*
X48740400Y-16192800D01*
X48740400Y-29731000D01*
G37*
X48740400Y-29731000D02*
X37234200Y-29731000D01*
X37234200Y-16218200D01*
X48740400Y-16192800D01*
X48740400Y-29731000D01*
D12*
X27060749Y-257439251D03*
X24250000Y-256275000D03*
X21439251Y-257439251D03*
X20275000Y-260250000D03*
X21439251Y-263060749D03*
X24250000Y-264225000D03*
X27060749Y-263060749D03*
X28225000Y-260250000D03*
D13*
X24250000Y-260250000D03*
D14*
X20790200Y-25032000D03*
X22974600Y-25032000D03*
X25159000Y-25057400D03*
X25184400Y-23076200D03*
X20714000Y-22974600D03*
X22974600Y-23000000D03*
X25159000Y-20917200D03*
X22974600Y-20891800D03*
X20764800Y-20891800D03*
X265209800Y-240968000D03*
X263025400Y-240968000D03*
X260841000Y-240942600D03*
X260815600Y-242923800D03*
X265286000Y-243025400D03*
X263025400Y-243000000D03*
X260841000Y-245082800D03*
X263025400Y-245108200D03*
X265235200Y-245108200D03*
X240790200Y-245032000D03*
X242974600Y-245032000D03*
X245159000Y-245057400D03*
X245184400Y-243076200D03*
X240714000Y-242974600D03*
X242974600Y-243000000D03*
X245159000Y-240917200D03*
X242974600Y-240891800D03*
X240764800Y-240891800D03*
X225209800Y-240968000D03*
X223025400Y-240968000D03*
X220841000Y-240942600D03*
X220815600Y-242923800D03*
X225286000Y-243025400D03*
X223025400Y-243000000D03*
X220841000Y-245082800D03*
X223025400Y-245108200D03*
X225235200Y-245108200D03*
X200790200Y-245032000D03*
X202974600Y-245032000D03*
X205159000Y-245057400D03*
X205184400Y-243076200D03*
X200714000Y-242974600D03*
X202974600Y-243000000D03*
X205159000Y-240917200D03*
X202974600Y-240891800D03*
X200764800Y-240891800D03*
X185209800Y-240968000D03*
X183025400Y-240968000D03*
X180841000Y-240942600D03*
X180815600Y-242923800D03*
X185286000Y-243025400D03*
X183025400Y-243000000D03*
X180841000Y-245082800D03*
X183025400Y-245108200D03*
X185235200Y-245108200D03*
X160790200Y-245032000D03*
X162974600Y-245032000D03*
X165159000Y-245057400D03*
X165184400Y-243076200D03*
X160714000Y-242974600D03*
X162974600Y-243000000D03*
X165159000Y-240917200D03*
X162974600Y-240891800D03*
X160764800Y-240891800D03*
X145209800Y-240968000D03*
X143025400Y-240968000D03*
X140841000Y-240942600D03*
X140815600Y-242923800D03*
X145286000Y-243025400D03*
X143025400Y-243000000D03*
X140841000Y-245082800D03*
X143025400Y-245108200D03*
X145235200Y-245108200D03*
X120790200Y-245032000D03*
X122974600Y-245032000D03*
X125159000Y-245057400D03*
X125184400Y-243076200D03*
X120714000Y-242974600D03*
X122974600Y-243000000D03*
X125159000Y-240917200D03*
X122974600Y-240891800D03*
X120764800Y-240891800D03*
X105209800Y-240968000D03*
X103025400Y-240968000D03*
X100841000Y-240942600D03*
X100815600Y-242923800D03*
X105286000Y-243025400D03*
X103025400Y-243000000D03*
X100841000Y-245082800D03*
X103025400Y-245108200D03*
X105235200Y-245108200D03*
X80790200Y-245032000D03*
X82974600Y-245032000D03*
X85159000Y-245057400D03*
X85184400Y-243076200D03*
X80714000Y-242974600D03*
X82974600Y-243000000D03*
X85159000Y-240917200D03*
X82974600Y-240891800D03*
X80764800Y-240891800D03*
X65209800Y-240968000D03*
X63025400Y-240968000D03*
X60841000Y-240942600D03*
X60815600Y-242923800D03*
X65286000Y-243025400D03*
X63025400Y-243000000D03*
X60841000Y-245082800D03*
X63025400Y-245108200D03*
X65235200Y-245108200D03*
X40790200Y-245032000D03*
X42974600Y-245032000D03*
X45159000Y-245057400D03*
X45184400Y-243076200D03*
X40714000Y-242974600D03*
X42974600Y-243000000D03*
X45159000Y-240917200D03*
X42974600Y-240891800D03*
X40764800Y-240891800D03*
X20790200Y-245032000D03*
X22974600Y-245032000D03*
X25159000Y-245057400D03*
X25184400Y-243076200D03*
X20714000Y-242974600D03*
X22974600Y-243000000D03*
X25159000Y-240917200D03*
X22974600Y-240891800D03*
X20764800Y-240891800D03*
X265209800Y-220968000D03*
X263025400Y-220968000D03*
X260841000Y-220942600D03*
X260815600Y-222923800D03*
X265286000Y-223025400D03*
X263025400Y-223000000D03*
X260841000Y-225082800D03*
X263025400Y-225108200D03*
X265235200Y-225108200D03*
X240790200Y-225032000D03*
X242974600Y-225032000D03*
X245159000Y-225057400D03*
X245184400Y-223076200D03*
X240714000Y-222974600D03*
X242974600Y-223000000D03*
X245159000Y-220917200D03*
X242974600Y-220891800D03*
X240764800Y-220891800D03*
X225209800Y-220968000D03*
X223025400Y-220968000D03*
X220841000Y-220942600D03*
X220815600Y-222923800D03*
X225286000Y-223025400D03*
X223025400Y-223000000D03*
X220841000Y-225082800D03*
X223025400Y-225108200D03*
X225235200Y-225108200D03*
X200790200Y-225032000D03*
X202974600Y-225032000D03*
X205159000Y-225057400D03*
X205184400Y-223076200D03*
X200714000Y-222974600D03*
X202974600Y-223000000D03*
X205159000Y-220917200D03*
X202974600Y-220891800D03*
X200764800Y-220891800D03*
X185209800Y-220968000D03*
X183025400Y-220968000D03*
X180841000Y-220942600D03*
X180815600Y-222923800D03*
X185286000Y-223025400D03*
X183025400Y-223000000D03*
X180841000Y-225082800D03*
X183025400Y-225108200D03*
X185235200Y-225108200D03*
X160790200Y-225032000D03*
X162974600Y-225032000D03*
X165159000Y-225057400D03*
X165184400Y-223076200D03*
X160714000Y-222974600D03*
X162974600Y-223000000D03*
X165159000Y-220917200D03*
X162974600Y-220891800D03*
X160764800Y-220891800D03*
X145209800Y-220968000D03*
X143025400Y-220968000D03*
X140841000Y-220942600D03*
X140815600Y-222923800D03*
X145286000Y-223025400D03*
X143025400Y-223000000D03*
X140841000Y-225082800D03*
X143025400Y-225108200D03*
X145235200Y-225108200D03*
X120790200Y-225032000D03*
X122974600Y-225032000D03*
X125159000Y-225057400D03*
X125184400Y-223076200D03*
X120714000Y-222974600D03*
X122974600Y-223000000D03*
X125159000Y-220917200D03*
X122974600Y-220891800D03*
X120764800Y-220891800D03*
X105209800Y-220968000D03*
X103025400Y-220968000D03*
X100841000Y-220942600D03*
X100815600Y-222923800D03*
X105286000Y-223025400D03*
X103025400Y-223000000D03*
X100841000Y-225082800D03*
X103025400Y-225108200D03*
X105235200Y-225108200D03*
X80790200Y-225032000D03*
X82974600Y-225032000D03*
X85159000Y-225057400D03*
X85184400Y-223076200D03*
X80714000Y-222974600D03*
X82974600Y-223000000D03*
X85159000Y-220917200D03*
X82974600Y-220891800D03*
X80764800Y-220891800D03*
X65209800Y-220968000D03*
X63025400Y-220968000D03*
X60841000Y-220942600D03*
X60815600Y-222923800D03*
X65286000Y-223025400D03*
X63025400Y-223000000D03*
X60841000Y-225082800D03*
X63025400Y-225108200D03*
X65235200Y-225108200D03*
X40790200Y-225032000D03*
X42974600Y-225032000D03*
X45159000Y-225057400D03*
X45184400Y-223076200D03*
X40714000Y-222974600D03*
X42974600Y-223000000D03*
X45159000Y-220917200D03*
X42974600Y-220891800D03*
X40764800Y-220891800D03*
X20790200Y-225032000D03*
X22974600Y-225032000D03*
X25159000Y-225057400D03*
X25184400Y-223076200D03*
X20714000Y-222974600D03*
X22974600Y-223000000D03*
X25159000Y-220917200D03*
X22974600Y-220891800D03*
X20764800Y-220891800D03*
X265209800Y-200968000D03*
X263025400Y-200968000D03*
X260841000Y-200942600D03*
X260815600Y-202923800D03*
X265286000Y-203025400D03*
X263025400Y-203000000D03*
X260841000Y-205082800D03*
X263025400Y-205108200D03*
X265235200Y-205108200D03*
X240790200Y-205032000D03*
X242974600Y-205032000D03*
X245159000Y-205057400D03*
X245184400Y-203076200D03*
X240714000Y-202974600D03*
X242974600Y-203000000D03*
X245159000Y-200917200D03*
X242974600Y-200891800D03*
X240764800Y-200891800D03*
X225209800Y-200968000D03*
X223025400Y-200968000D03*
X220841000Y-200942600D03*
X220815600Y-202923800D03*
X225286000Y-203025400D03*
X223025400Y-203000000D03*
X220841000Y-205082800D03*
X223025400Y-205108200D03*
X225235200Y-205108200D03*
X200790200Y-205032000D03*
X202974600Y-205032000D03*
X205159000Y-205057400D03*
X205184400Y-203076200D03*
X200714000Y-202974600D03*
X202974600Y-203000000D03*
X205159000Y-200917200D03*
X202974600Y-200891800D03*
X200764800Y-200891800D03*
X185209800Y-200968000D03*
X183025400Y-200968000D03*
X180841000Y-200942600D03*
X180815600Y-202923800D03*
X185286000Y-203025400D03*
X183025400Y-203000000D03*
X180841000Y-205082800D03*
X183025400Y-205108200D03*
X185235200Y-205108200D03*
X160604200Y-204978000D03*
X162788600Y-204978000D03*
X164973000Y-205003400D03*
X164998400Y-203022200D03*
X160528000Y-202920600D03*
X162788600Y-202946000D03*
X164973000Y-200863200D03*
X162788600Y-200837800D03*
X160578800Y-200837800D03*
X144957800Y-200660000D03*
X142773400Y-200660000D03*
X140589000Y-200634600D03*
X140563600Y-202615800D03*
X145034000Y-202717400D03*
X142773400Y-202692000D03*
X140589000Y-204774800D03*
X142773400Y-204800200D03*
X144983200Y-204800200D03*
X120980200Y-205232000D03*
X123164600Y-205232000D03*
X125349000Y-205257400D03*
X125374400Y-203276200D03*
X120904000Y-203174600D03*
X123164600Y-203200000D03*
X125349000Y-201117200D03*
X123164600Y-201091800D03*
X120954800Y-201091800D03*
X105209800Y-200968000D03*
X103025400Y-200968000D03*
X100841000Y-200942600D03*
X100815600Y-202923800D03*
X105286000Y-203025400D03*
X103025400Y-203000000D03*
X100841000Y-205082800D03*
X103025400Y-205108200D03*
X105235200Y-205108200D03*
X80790200Y-205032000D03*
X82974600Y-205032000D03*
X85159000Y-205057400D03*
X85184400Y-203076200D03*
X80714000Y-202974600D03*
X82974600Y-203000000D03*
X85159000Y-200917200D03*
X82974600Y-200891800D03*
X80764800Y-200891800D03*
X65209800Y-200968000D03*
X63025400Y-200968000D03*
X60841000Y-200942600D03*
X60815600Y-202923800D03*
X65286000Y-203025400D03*
X63025400Y-203000000D03*
X60841000Y-205082800D03*
X63025400Y-205108200D03*
X65235200Y-205108200D03*
X40462200Y-205486000D03*
X42646600Y-205486000D03*
X44831000Y-205511400D03*
X44856400Y-203530200D03*
X40386000Y-203428600D03*
X42646600Y-203454000D03*
X44831000Y-201371200D03*
X42646600Y-201345800D03*
X40436800Y-201345800D03*
X20790200Y-205032000D03*
X22974600Y-205032000D03*
X25159000Y-205057400D03*
X25184400Y-203076200D03*
X20714000Y-202974600D03*
X22974600Y-203000000D03*
X25159000Y-200917200D03*
X22974600Y-200891800D03*
X20764800Y-200891800D03*
X265209800Y-180968000D03*
X263025400Y-180968000D03*
X260841000Y-180942600D03*
X260815600Y-182923800D03*
X265286000Y-183025400D03*
X263025400Y-183000000D03*
X260841000Y-185082800D03*
X263025400Y-185108200D03*
X265235200Y-185108200D03*
X240614200Y-185166000D03*
X242798600Y-185166000D03*
X244983000Y-185191400D03*
X245008400Y-183210200D03*
X240538000Y-183108600D03*
X242798600Y-183134000D03*
X244983000Y-181051200D03*
X242798600Y-181025800D03*
X240588800Y-181025800D03*
X225209800Y-180968000D03*
X223025400Y-180968000D03*
X220841000Y-180942600D03*
X220815600Y-182923800D03*
X225286000Y-183025400D03*
X223025400Y-183000000D03*
X220841000Y-185082800D03*
X223025400Y-185108200D03*
X225235200Y-185108200D03*
X200482200Y-185166000D03*
X202666600Y-185166000D03*
X204851000Y-185191400D03*
X204876400Y-183210200D03*
X200406000Y-183108600D03*
X202666600Y-183134000D03*
X204851000Y-181051200D03*
X202666600Y-181025800D03*
X200456800Y-181025800D03*
X185209800Y-180968000D03*
X183025400Y-180968000D03*
X180841000Y-180942600D03*
X180815600Y-182923800D03*
X185286000Y-183025400D03*
X183025400Y-183000000D03*
X180841000Y-185082800D03*
X183025400Y-185108200D03*
X185235200Y-185108200D03*
X160790200Y-185032000D03*
X162974600Y-185032000D03*
X165159000Y-185057400D03*
X165184400Y-183076200D03*
X160714000Y-182974600D03*
X162974600Y-183000000D03*
X165159000Y-180917200D03*
X162974600Y-180891800D03*
X160764800Y-180891800D03*
X145209800Y-180968000D03*
X143025400Y-180968000D03*
X140841000Y-180942600D03*
X140815600Y-182923800D03*
X145286000Y-183025400D03*
X143025400Y-183000000D03*
X140841000Y-185082800D03*
X143025400Y-185108200D03*
X145235200Y-185108200D03*
X120790200Y-185032000D03*
X122974600Y-185032000D03*
X125159000Y-185057400D03*
X125184400Y-183076200D03*
X120714000Y-182974600D03*
X122974600Y-183000000D03*
X125159000Y-180917200D03*
X122974600Y-180891800D03*
X120764800Y-180891800D03*
X105209800Y-180968000D03*
X103025400Y-180968000D03*
X100841000Y-180942600D03*
X100815600Y-182923800D03*
X105286000Y-183025400D03*
X103025400Y-183000000D03*
X100841000Y-185082800D03*
X103025400Y-185108200D03*
X105235200Y-185108200D03*
X80790200Y-185032000D03*
X82974600Y-185032000D03*
X85159000Y-185057400D03*
X85184400Y-183076200D03*
X80714000Y-182974600D03*
X82974600Y-183000000D03*
X85159000Y-180917200D03*
X82974600Y-180891800D03*
X80764800Y-180891800D03*
X65209800Y-180968000D03*
X63025400Y-180968000D03*
X60841000Y-180942600D03*
X60815600Y-182923800D03*
X65286000Y-183025400D03*
X63025400Y-183000000D03*
X60841000Y-185082800D03*
X63025400Y-185108200D03*
X65235200Y-185108200D03*
X40790200Y-185032000D03*
X42974600Y-185032000D03*
X45159000Y-185057400D03*
X45184400Y-183076200D03*
X40714000Y-182974600D03*
X42974600Y-183000000D03*
X45159000Y-180917200D03*
X42974600Y-180891800D03*
X40764800Y-180891800D03*
X20790200Y-185532000D03*
X22974600Y-185532000D03*
X25159000Y-185557400D03*
X25184400Y-183576200D03*
X20714000Y-183474600D03*
X22974600Y-183500000D03*
X25159000Y-181417200D03*
X22974600Y-181391800D03*
X20764800Y-181391800D03*
X265209800Y-160968000D03*
X263025400Y-160968000D03*
X260841000Y-160942600D03*
X260815600Y-162923800D03*
X265286000Y-163025400D03*
X263025400Y-163000000D03*
X260841000Y-165082800D03*
X263025400Y-165108200D03*
X265235200Y-165108200D03*
X240790200Y-166532000D03*
X242974600Y-166532000D03*
X245159000Y-166557400D03*
X245184400Y-164576200D03*
X240714000Y-164474600D03*
X242974600Y-164500000D03*
X245159000Y-162417200D03*
X242974600Y-162391800D03*
X240764800Y-162391800D03*
X225209800Y-160968000D03*
X223025400Y-160968000D03*
X220841000Y-160942600D03*
X220815600Y-162923800D03*
X225286000Y-163025400D03*
X223025400Y-163000000D03*
X220841000Y-165082800D03*
X223025400Y-165108200D03*
X225235200Y-165108200D03*
X200790200Y-165032000D03*
X202974600Y-165032000D03*
X205159000Y-165057400D03*
X205184400Y-163076200D03*
X200714000Y-162974600D03*
X202974600Y-163000000D03*
X205159000Y-160917200D03*
X202974600Y-160891800D03*
X200764800Y-160891800D03*
X185209800Y-160968000D03*
X183025400Y-160968000D03*
X180841000Y-160942600D03*
X180815600Y-162923800D03*
X185286000Y-163025400D03*
X183025400Y-163000000D03*
X180841000Y-165082800D03*
X183025400Y-165108200D03*
X185235200Y-165108200D03*
X160790200Y-165032000D03*
X162974600Y-165032000D03*
X165159000Y-165057400D03*
X165184400Y-163076200D03*
X160714000Y-162974600D03*
X162974600Y-163000000D03*
X165159000Y-160917200D03*
X162974600Y-160891800D03*
X160764800Y-160891800D03*
X145209800Y-160968000D03*
X143025400Y-160968000D03*
X140841000Y-160942600D03*
X140815600Y-162923800D03*
X145286000Y-163025400D03*
X143025400Y-163000000D03*
X140841000Y-165082800D03*
X143025400Y-165108200D03*
X145235200Y-165108200D03*
X120790200Y-165032000D03*
X122974600Y-165032000D03*
X125159000Y-165057400D03*
X125184400Y-163076200D03*
X120714000Y-162974600D03*
X122974600Y-163000000D03*
X125159000Y-160917200D03*
X122974600Y-160891800D03*
X120764800Y-160891800D03*
X105209800Y-160968000D03*
X103025400Y-160968000D03*
X100841000Y-160942600D03*
X100815600Y-162923800D03*
X105286000Y-163025400D03*
X103025400Y-163000000D03*
X100841000Y-165082800D03*
X103025400Y-165108200D03*
X105235200Y-165108200D03*
X80790200Y-165032000D03*
X82974600Y-165032000D03*
X85159000Y-165057400D03*
X85184400Y-163076200D03*
X80714000Y-162974600D03*
X82974600Y-163000000D03*
X85159000Y-160917200D03*
X82974600Y-160891800D03*
X80764800Y-160891800D03*
X65209800Y-160968000D03*
X63025400Y-160968000D03*
X60841000Y-160942600D03*
X60815600Y-162923800D03*
X65286000Y-163025400D03*
X63025400Y-163000000D03*
X60841000Y-165082800D03*
X63025400Y-165108200D03*
X65235200Y-165108200D03*
X40790200Y-165032000D03*
X42974600Y-165032000D03*
X45159000Y-165057400D03*
X45184400Y-163076200D03*
X40714000Y-162974600D03*
X42974600Y-163000000D03*
X45159000Y-160917200D03*
X42974600Y-160891800D03*
X40764800Y-160891800D03*
X20790200Y-165032000D03*
X22974600Y-165032000D03*
X25159000Y-165057400D03*
X25184400Y-163076200D03*
X20714000Y-162974600D03*
X22974600Y-163000000D03*
X25159000Y-160917200D03*
X22974600Y-160891800D03*
X20764800Y-160891800D03*
X265209800Y-140968000D03*
X263025400Y-140968000D03*
X260841000Y-140942600D03*
X260815600Y-142923800D03*
X265286000Y-143025400D03*
X263025400Y-143000000D03*
X260841000Y-145082800D03*
X263025400Y-145108200D03*
X265235200Y-145108200D03*
X240790200Y-145032000D03*
X242974600Y-145032000D03*
X245159000Y-145057400D03*
X245184400Y-143076200D03*
X240714000Y-142974600D03*
X242974600Y-143000000D03*
X245159000Y-140917200D03*
X242974600Y-140891800D03*
X240764800Y-140891800D03*
X225209800Y-140968000D03*
X223025400Y-140968000D03*
X220841000Y-140942600D03*
X220815600Y-142923800D03*
X225286000Y-143025400D03*
X223025400Y-143000000D03*
X220841000Y-145082800D03*
X223025400Y-145108200D03*
X225235200Y-145108200D03*
X200790200Y-145032000D03*
X202974600Y-145032000D03*
X205159000Y-145057400D03*
X205184400Y-143076200D03*
X200714000Y-142974600D03*
X202974600Y-143000000D03*
X205159000Y-140917200D03*
X202974600Y-140891800D03*
X200764800Y-140891800D03*
X185209800Y-140968000D03*
X183025400Y-140968000D03*
X180841000Y-140942600D03*
X180815600Y-142923800D03*
X185286000Y-143025400D03*
X183025400Y-143000000D03*
X180841000Y-145082800D03*
X183025400Y-145108200D03*
X185235200Y-145108200D03*
X160790200Y-145032000D03*
X162974600Y-145032000D03*
X165159000Y-145057400D03*
X165184400Y-143076200D03*
X160714000Y-142974600D03*
X162974600Y-143000000D03*
X165159000Y-140917200D03*
X162974600Y-140891800D03*
X160764800Y-140891800D03*
X145209800Y-140968000D03*
X143025400Y-140968000D03*
X140841000Y-140942600D03*
X140815600Y-142923800D03*
X145286000Y-143025400D03*
X143025400Y-143000000D03*
X140841000Y-145082800D03*
X143025400Y-145108200D03*
X145235200Y-145108200D03*
X120790200Y-145032000D03*
X122974600Y-145032000D03*
X125159000Y-145057400D03*
X125184400Y-143076200D03*
X120714000Y-142974600D03*
X122974600Y-143000000D03*
X125159000Y-140917200D03*
X122974600Y-140891800D03*
X120764800Y-140891800D03*
X105209800Y-140968000D03*
X103025400Y-140968000D03*
X100841000Y-140942600D03*
X100815600Y-142923800D03*
X105286000Y-143025400D03*
X103025400Y-143000000D03*
X100841000Y-145082800D03*
X103025400Y-145108200D03*
X105235200Y-145108200D03*
X80790200Y-145032000D03*
X82974600Y-145032000D03*
X85159000Y-145057400D03*
X85184400Y-143076200D03*
X80714000Y-142974600D03*
X82974600Y-143000000D03*
X85159000Y-140917200D03*
X82974600Y-140891800D03*
X80764800Y-140891800D03*
X65209800Y-140968000D03*
X63025400Y-140968000D03*
X60841000Y-140942600D03*
X60815600Y-142923800D03*
X65286000Y-143025400D03*
X63025400Y-143000000D03*
X60841000Y-145082800D03*
X63025400Y-145108200D03*
X65235200Y-145108200D03*
X40790200Y-145032000D03*
X42974600Y-145032000D03*
X45159000Y-145057400D03*
X45184400Y-143076200D03*
X40714000Y-142974600D03*
X42974600Y-143000000D03*
X45159000Y-140917200D03*
X42974600Y-140891800D03*
X40764800Y-140891800D03*
X20790200Y-145032000D03*
X22974600Y-145032000D03*
X25159000Y-145057400D03*
X25184400Y-143076200D03*
X20714000Y-142974600D03*
X22974600Y-143000000D03*
X25159000Y-140917200D03*
X22974600Y-140891800D03*
X20764800Y-140891800D03*
X265209800Y-120968000D03*
X263025400Y-120968000D03*
X260841000Y-120942600D03*
X260815600Y-122923800D03*
X265286000Y-123025400D03*
X263025400Y-123000000D03*
X260841000Y-125082800D03*
X263025400Y-125108200D03*
X265235200Y-125108200D03*
X240790200Y-125032000D03*
X242974600Y-125032000D03*
X245159000Y-125057400D03*
X245184400Y-123076200D03*
X240714000Y-122974600D03*
X242974600Y-123000000D03*
X245159000Y-120917200D03*
X242974600Y-120891800D03*
X240764800Y-120891800D03*
X225209800Y-120968000D03*
X223025400Y-120968000D03*
X220841000Y-120942600D03*
X220815600Y-122923800D03*
X225286000Y-123025400D03*
X223025400Y-123000000D03*
X220841000Y-125082800D03*
X223025400Y-125108200D03*
X225235200Y-125108200D03*
X200790200Y-125032000D03*
X202974600Y-125032000D03*
X205159000Y-125057400D03*
X205184400Y-123076200D03*
X200714000Y-122974600D03*
X202974600Y-123000000D03*
X205159000Y-120917200D03*
X202974600Y-120891800D03*
X200764800Y-120891800D03*
X185209800Y-120968000D03*
X183025400Y-120968000D03*
X180841000Y-120942600D03*
X180815600Y-122923800D03*
X185286000Y-123025400D03*
X183025400Y-123000000D03*
X180841000Y-125082800D03*
X183025400Y-125108200D03*
X185235200Y-125108200D03*
X160790200Y-125032000D03*
X162974600Y-125032000D03*
X165159000Y-125057400D03*
X165184400Y-123076200D03*
X160714000Y-122974600D03*
X162974600Y-123000000D03*
X165159000Y-120917200D03*
X162974600Y-120891800D03*
X160764800Y-120891800D03*
X145209800Y-120968000D03*
X143025400Y-120968000D03*
X140841000Y-120942600D03*
X140815600Y-122923800D03*
X145286000Y-123025400D03*
X143025400Y-123000000D03*
X140841000Y-125082800D03*
X143025400Y-125108200D03*
X145235200Y-125108200D03*
X120790200Y-125032000D03*
X122974600Y-125032000D03*
X125159000Y-125057400D03*
X125184400Y-123076200D03*
X120714000Y-122974600D03*
X122974600Y-123000000D03*
X125159000Y-120917200D03*
X122974600Y-120891800D03*
X120764800Y-120891800D03*
X105209800Y-120968000D03*
X103025400Y-120968000D03*
X100841000Y-120942600D03*
X100815600Y-122923800D03*
X105286000Y-123025400D03*
X103025400Y-123000000D03*
X100841000Y-125082800D03*
X103025400Y-125108200D03*
X105235200Y-125108200D03*
X80790200Y-125032000D03*
X82974600Y-125032000D03*
X85159000Y-125057400D03*
X85184400Y-123076200D03*
X80714000Y-122974600D03*
X82974600Y-123000000D03*
X85159000Y-120917200D03*
X82974600Y-120891800D03*
X80764800Y-120891800D03*
X65209800Y-120968000D03*
X63025400Y-120968000D03*
X60841000Y-120942600D03*
X60815600Y-122923800D03*
X65286000Y-123025400D03*
X63025400Y-123000000D03*
X60841000Y-125082800D03*
X63025400Y-125108200D03*
X65235200Y-125108200D03*
X40790200Y-125032000D03*
X42974600Y-125032000D03*
X45159000Y-125057400D03*
X45184400Y-123076200D03*
X40714000Y-122974600D03*
X42974600Y-123000000D03*
X45159000Y-120917200D03*
X42974600Y-120891800D03*
X40764800Y-120891800D03*
X20790200Y-125032000D03*
X22974600Y-125032000D03*
X25159000Y-125057400D03*
X25184400Y-123076200D03*
X20714000Y-122974600D03*
X22974600Y-123000000D03*
X25159000Y-120917200D03*
X22974600Y-120891800D03*
X20764800Y-120891800D03*
X265209800Y-100968000D03*
X263025400Y-100968000D03*
X260841000Y-100942600D03*
X260815600Y-102923800D03*
X265286000Y-103025400D03*
X263025400Y-103000000D03*
X260841000Y-105082800D03*
X263025400Y-105108200D03*
X265235200Y-105108200D03*
X240790200Y-105032000D03*
X242974600Y-105032000D03*
X245159000Y-105057400D03*
X245184400Y-103076200D03*
X240714000Y-102974600D03*
X242974600Y-103000000D03*
X245159000Y-100917200D03*
X242974600Y-100891800D03*
X240764800Y-100891800D03*
X225209800Y-100968000D03*
X223025400Y-100968000D03*
X220841000Y-100942600D03*
X220815600Y-102923800D03*
X225286000Y-103025400D03*
X223025400Y-103000000D03*
X220841000Y-105082800D03*
X223025400Y-105108200D03*
X225235200Y-105108200D03*
X200790200Y-105032000D03*
X202974600Y-105032000D03*
X205159000Y-105057400D03*
X205184400Y-103076200D03*
X200714000Y-102974600D03*
X202974600Y-103000000D03*
X205159000Y-100917200D03*
X202974600Y-100891800D03*
X200764800Y-100891800D03*
X185209800Y-100968000D03*
X183025400Y-100968000D03*
X180841000Y-100942600D03*
X180815600Y-102923800D03*
X185286000Y-103025400D03*
X183025400Y-103000000D03*
X180841000Y-105082800D03*
X183025400Y-105108200D03*
X185235200Y-105108200D03*
X160790200Y-105032000D03*
X162974600Y-105032000D03*
X165159000Y-105057400D03*
X165184400Y-103076200D03*
X160714000Y-102974600D03*
X162974600Y-103000000D03*
X165159000Y-100917200D03*
X162974600Y-100891800D03*
X160764800Y-100891800D03*
X145209800Y-100968000D03*
X143025400Y-100968000D03*
X140841000Y-100942600D03*
X140815600Y-102923800D03*
X145286000Y-103025400D03*
X143025400Y-103000000D03*
X140841000Y-105082800D03*
X143025400Y-105108200D03*
X145235200Y-105108200D03*
X120290200Y-105032000D03*
X122474600Y-105032000D03*
X124659000Y-105057400D03*
X124684400Y-103076200D03*
X120214000Y-102974600D03*
X122474600Y-103000000D03*
X124659000Y-100917200D03*
X122474600Y-100891800D03*
X120264800Y-100891800D03*
X105209800Y-100968000D03*
X103025400Y-100968000D03*
X100841000Y-100942600D03*
X100815600Y-102923800D03*
X105286000Y-103025400D03*
X103025400Y-103000000D03*
X100841000Y-105082800D03*
X103025400Y-105108200D03*
X105235200Y-105108200D03*
X80790200Y-105032000D03*
X82974600Y-105032000D03*
X85159000Y-105057400D03*
X85184400Y-103076200D03*
X80714000Y-102974600D03*
X82974600Y-103000000D03*
X85159000Y-100917200D03*
X82974600Y-100891800D03*
X80764800Y-100891800D03*
X65209800Y-100968000D03*
X63025400Y-100968000D03*
X60841000Y-100942600D03*
X60815600Y-102923800D03*
X65286000Y-103025400D03*
X63025400Y-103000000D03*
X60841000Y-105082800D03*
X63025400Y-105108200D03*
X65235200Y-105108200D03*
X40790200Y-105032000D03*
X42974600Y-105032000D03*
X45159000Y-105057400D03*
X45184400Y-103076200D03*
X40714000Y-102974600D03*
X42974600Y-103000000D03*
X45159000Y-100917200D03*
X42974600Y-100891800D03*
X40764800Y-100891800D03*
X20790200Y-105032000D03*
X22974600Y-105032000D03*
X25159000Y-105057400D03*
X25184400Y-103076200D03*
X20714000Y-102974600D03*
X22974600Y-103000000D03*
X25159000Y-100917200D03*
X22974600Y-100891800D03*
X20764800Y-100891800D03*
X265209800Y-80968000D03*
X263025400Y-80968000D03*
X260841000Y-80942600D03*
X260815600Y-82923800D03*
X265286000Y-83025400D03*
X263025400Y-83000000D03*
X260841000Y-85082800D03*
X263025400Y-85108200D03*
X265235200Y-85108200D03*
X240790200Y-85032000D03*
X242974600Y-85032000D03*
X245159000Y-85057400D03*
X245184400Y-83076200D03*
X240714000Y-82974600D03*
X242974600Y-83000000D03*
X245159000Y-80917200D03*
X242974600Y-80891800D03*
X240764800Y-80891800D03*
X225209800Y-80968000D03*
X223025400Y-80968000D03*
X220841000Y-80942600D03*
X220815600Y-82923800D03*
X225286000Y-83025400D03*
X223025400Y-83000000D03*
X220841000Y-85082800D03*
X223025400Y-85108200D03*
X225235200Y-85108200D03*
X200790200Y-85032000D03*
X202974600Y-85032000D03*
X205159000Y-85057400D03*
X205184400Y-83076200D03*
X200714000Y-82974600D03*
X202974600Y-83000000D03*
X205159000Y-80917200D03*
X202974600Y-80891800D03*
X200764800Y-80891800D03*
X185209800Y-80968000D03*
X183025400Y-80968000D03*
X180841000Y-80942600D03*
X180815600Y-82923800D03*
X185286000Y-83025400D03*
X183025400Y-83000000D03*
X180841000Y-85082800D03*
X183025400Y-85108200D03*
X185235200Y-85108200D03*
X160790200Y-85032000D03*
X162974600Y-85032000D03*
X165159000Y-85057400D03*
X165184400Y-83076200D03*
X160714000Y-82974600D03*
X162974600Y-83000000D03*
X165159000Y-80917200D03*
X162974600Y-80891800D03*
X160764800Y-80891800D03*
X145209800Y-80968000D03*
X143025400Y-80968000D03*
X140841000Y-80942600D03*
X140815600Y-82923800D03*
X145286000Y-83025400D03*
X143025400Y-83000000D03*
X140841000Y-85082800D03*
X143025400Y-85108200D03*
X145235200Y-85108200D03*
X120790200Y-85032000D03*
X122974600Y-85032000D03*
X125159000Y-85057400D03*
X125184400Y-83076200D03*
X120714000Y-82974600D03*
X122974600Y-83000000D03*
X125159000Y-80917200D03*
X122974600Y-80891800D03*
X120764800Y-80891800D03*
X105209800Y-80968000D03*
X103025400Y-80968000D03*
X100841000Y-80942600D03*
X100815600Y-82923800D03*
X105286000Y-83025400D03*
X103025400Y-83000000D03*
X100841000Y-85082800D03*
X103025400Y-85108200D03*
X105235200Y-85108200D03*
X80790200Y-85032000D03*
X82974600Y-85032000D03*
X85159000Y-85057400D03*
X85184400Y-83076200D03*
X80714000Y-82974600D03*
X82974600Y-83000000D03*
X85159000Y-80917200D03*
X82974600Y-80891800D03*
X80764800Y-80891800D03*
X65209800Y-80968000D03*
X63025400Y-80968000D03*
X60841000Y-80942600D03*
X60815600Y-82923800D03*
X65286000Y-83025400D03*
X63025400Y-83000000D03*
X60841000Y-85082800D03*
X63025400Y-85108200D03*
X65235200Y-85108200D03*
X40790200Y-85032000D03*
X42974600Y-85032000D03*
X45159000Y-85057400D03*
X45184400Y-83076200D03*
X40714000Y-82974600D03*
X42974600Y-83000000D03*
X45159000Y-80917200D03*
X42974600Y-80891800D03*
X40764800Y-80891800D03*
X20904200Y-85090000D03*
X23088600Y-85090000D03*
X25273000Y-85115400D03*
X25298400Y-83134200D03*
X20828000Y-83032600D03*
X23088600Y-83058000D03*
X25273000Y-80975200D03*
X23088600Y-80949800D03*
X20878800Y-80949800D03*
D15*
X174260000Y-271000000D03*
X176800000Y-271000000D03*
X179340000Y-271000000D03*
X181880000Y-271000000D03*
X184420000Y-271000000D03*
X186960000Y-271000000D03*
D16*
X189500000Y-271000000D03*
D15*
X145980000Y-271050000D03*
X143440000Y-271050000D03*
X140900000Y-271050000D03*
X138360000Y-271050000D03*
X135820000Y-271050000D03*
X133280000Y-271050000D03*
X130740000Y-271050000D03*
X128200000Y-271050000D03*
X125660000Y-271050000D03*
X123120000Y-271050000D03*
X120580000Y-271050000D03*
X118040000Y-271050000D03*
X115500000Y-271050000D03*
D16*
X112960000Y-271050000D03*
D14*
X265209800Y-60968000D03*
X263025400Y-60968000D03*
X260841000Y-60942600D03*
X260815600Y-62923800D03*
X265286000Y-63025400D03*
X263025400Y-63000000D03*
X260841000Y-65082800D03*
X263025400Y-65108200D03*
X265235200Y-65108200D03*
X240790200Y-65032000D03*
X242974600Y-65032000D03*
X245159000Y-65057400D03*
X245184400Y-63076200D03*
X240714000Y-62974600D03*
X242974600Y-63000000D03*
X245159000Y-60917200D03*
X242974600Y-60891800D03*
X240764800Y-60891800D03*
X225209800Y-60968000D03*
X223025400Y-60968000D03*
X220841000Y-60942600D03*
X220815600Y-62923800D03*
X225286000Y-63025400D03*
X223025400Y-63000000D03*
X220841000Y-65082800D03*
X223025400Y-65108200D03*
X225235200Y-65108200D03*
X200790200Y-65032000D03*
X202974600Y-65032000D03*
X205159000Y-65057400D03*
X205184400Y-63076200D03*
X200714000Y-62974600D03*
X202974600Y-63000000D03*
X205159000Y-60917200D03*
X202974600Y-60891800D03*
X200764800Y-60891800D03*
X185209800Y-60968000D03*
X183025400Y-60968000D03*
X180841000Y-60942600D03*
X180815600Y-62923800D03*
X185286000Y-63025400D03*
X183025400Y-63000000D03*
X180841000Y-65082800D03*
X183025400Y-65108200D03*
X185235200Y-65108200D03*
X160790200Y-65032000D03*
X162974600Y-65032000D03*
X165159000Y-65057400D03*
X165184400Y-63076200D03*
X160714000Y-62974600D03*
X162974600Y-63000000D03*
X165159000Y-60917200D03*
X162974600Y-60891800D03*
X160764800Y-60891800D03*
X145209800Y-60968000D03*
X143025400Y-60968000D03*
X140841000Y-60942600D03*
X140815600Y-62923800D03*
X145286000Y-63025400D03*
X143025400Y-63000000D03*
X140841000Y-65082800D03*
X143025400Y-65108200D03*
X145235200Y-65108200D03*
X120790200Y-65032000D03*
X122974600Y-65032000D03*
X125159000Y-65057400D03*
X125184400Y-63076200D03*
X120714000Y-62974600D03*
X122974600Y-63000000D03*
X125159000Y-60917200D03*
X122974600Y-60891800D03*
X120764800Y-60891800D03*
X105209800Y-60968000D03*
X103025400Y-60968000D03*
X100841000Y-60942600D03*
X100815600Y-62923800D03*
X105286000Y-63025400D03*
X103025400Y-63000000D03*
X100841000Y-65082800D03*
X103025400Y-65108200D03*
X105235200Y-65108200D03*
X80790200Y-65032000D03*
X82974600Y-65032000D03*
X85159000Y-65057400D03*
X85184400Y-63076200D03*
X80714000Y-62974600D03*
X82974600Y-63000000D03*
X85159000Y-60917200D03*
X82974600Y-60891800D03*
X80764800Y-60891800D03*
X64889800Y-60898000D03*
X62705400Y-60898000D03*
X60521000Y-60872600D03*
X60495600Y-62853800D03*
X64966000Y-62955400D03*
X62705400Y-62930000D03*
X60521000Y-65012800D03*
X62705400Y-65038200D03*
X64915200Y-65038200D03*
X40790200Y-65032000D03*
X42974600Y-65032000D03*
X45159000Y-65057400D03*
X45184400Y-63076200D03*
X40714000Y-62974600D03*
X42974600Y-63000000D03*
X45159000Y-60917200D03*
X42974600Y-60891800D03*
X40764800Y-60891800D03*
X20790200Y-65032000D03*
X22974600Y-65032000D03*
X25159000Y-65057400D03*
X25184400Y-63076200D03*
X20714000Y-62974600D03*
X22974600Y-63000000D03*
X25159000Y-60917200D03*
X22974600Y-60891800D03*
X20764800Y-60891800D03*
X265209800Y-40968000D03*
X263025400Y-40968000D03*
X260841000Y-40942600D03*
X260815600Y-42923800D03*
X265286000Y-43025400D03*
X263025400Y-43000000D03*
X260841000Y-45082800D03*
X263025400Y-45108200D03*
X265235200Y-45108200D03*
X240790200Y-45032000D03*
X242974600Y-45032000D03*
X245159000Y-45057400D03*
X245184400Y-43076200D03*
X240714000Y-42974600D03*
X242974600Y-43000000D03*
X245159000Y-40917200D03*
X242974600Y-40891800D03*
X240764800Y-40891800D03*
X225209800Y-40968000D03*
X223025400Y-40968000D03*
X220841000Y-40942600D03*
X220815600Y-42923800D03*
X225286000Y-43025400D03*
X223025400Y-43000000D03*
X220841000Y-45082800D03*
X223025400Y-45108200D03*
X225235200Y-45108200D03*
X200790200Y-45032000D03*
X202974600Y-45032000D03*
X205159000Y-45057400D03*
X205184400Y-43076200D03*
X200714000Y-42974600D03*
X202974600Y-43000000D03*
X205159000Y-40917200D03*
X202974600Y-40891800D03*
X200764800Y-40891800D03*
X185209800Y-40968000D03*
X183025400Y-40968000D03*
X180841000Y-40942600D03*
X180815600Y-42923800D03*
X185286000Y-43025400D03*
X183025400Y-43000000D03*
X180841000Y-45082800D03*
X183025400Y-45108200D03*
X185235200Y-45108200D03*
X160790200Y-45032000D03*
X162974600Y-45032000D03*
X165159000Y-45057400D03*
X165184400Y-43076200D03*
X160714000Y-42974600D03*
X162974600Y-43000000D03*
X165159000Y-40917200D03*
X162974600Y-40891800D03*
X160764800Y-40891800D03*
X145209800Y-40968000D03*
X143025400Y-40968000D03*
X140841000Y-40942600D03*
X140815600Y-42923800D03*
X145286000Y-43025400D03*
X143025400Y-43000000D03*
X140841000Y-45082800D03*
X143025400Y-45108200D03*
X145235200Y-45108200D03*
X120790200Y-45032000D03*
X122974600Y-45032000D03*
X125159000Y-45057400D03*
X125184400Y-43076200D03*
X120714000Y-42974600D03*
X122974600Y-43000000D03*
X125159000Y-40917200D03*
X122974600Y-40891800D03*
X120764800Y-40891800D03*
X105209800Y-40968000D03*
X103025400Y-40968000D03*
X100841000Y-40942600D03*
X100815600Y-42923800D03*
X105286000Y-43025400D03*
X103025400Y-43000000D03*
X100841000Y-45082800D03*
X103025400Y-45108200D03*
X105235200Y-45108200D03*
X80790200Y-45032000D03*
X82974600Y-45032000D03*
X85159000Y-45057400D03*
X85184400Y-43076200D03*
X80714000Y-42974600D03*
X82974600Y-43000000D03*
X85159000Y-40917200D03*
X82974600Y-40891800D03*
X80764800Y-40891800D03*
X64889800Y-41848000D03*
X62705400Y-41848000D03*
X60521000Y-41822600D03*
X60495600Y-43803800D03*
X64966000Y-43905400D03*
X62705400Y-43880000D03*
X60521000Y-45962800D03*
X62705400Y-45988200D03*
X64915200Y-45988200D03*
X40790200Y-45032000D03*
X42974600Y-45032000D03*
X45159000Y-45057400D03*
X45184400Y-43076200D03*
X40714000Y-42974600D03*
X42974600Y-43000000D03*
X45159000Y-40917200D03*
X42974600Y-40891800D03*
X40764800Y-40891800D03*
X20790200Y-45032000D03*
X22974600Y-45032000D03*
X25159000Y-45057400D03*
X25184400Y-43076200D03*
X20714000Y-42974600D03*
X22974600Y-43000000D03*
X25159000Y-40917200D03*
X22974600Y-40891800D03*
X20764800Y-40891800D03*
X265209800Y-20968000D03*
X263025400Y-20968000D03*
X260841000Y-20942600D03*
X260815600Y-22923800D03*
X265286000Y-23025400D03*
X263025400Y-23000000D03*
X260841000Y-25082800D03*
X263025400Y-25108200D03*
X265235200Y-25108200D03*
X240790200Y-25032000D03*
X242974600Y-25032000D03*
X245159000Y-25057400D03*
X245184400Y-23076200D03*
X240714000Y-22974600D03*
X242974600Y-23000000D03*
X245159000Y-20917200D03*
X242974600Y-20891800D03*
X240764800Y-20891800D03*
X225209800Y-20968000D03*
X223025400Y-20968000D03*
X220841000Y-20942600D03*
X220815600Y-22923800D03*
X225286000Y-23025400D03*
X223025400Y-23000000D03*
X220841000Y-25082800D03*
X223025400Y-25108200D03*
X225235200Y-25108200D03*
X200790200Y-25032000D03*
X202974600Y-25032000D03*
X205159000Y-25057400D03*
X205184400Y-23076200D03*
X200714000Y-22974600D03*
X202974600Y-23000000D03*
X205159000Y-20917200D03*
X202974600Y-20891800D03*
X200764800Y-20891800D03*
X185209800Y-20968000D03*
X183025400Y-20968000D03*
X180841000Y-20942600D03*
X180815600Y-22923800D03*
X185286000Y-23025400D03*
X183025400Y-23000000D03*
X180841000Y-25082800D03*
X183025400Y-25108200D03*
X185235200Y-25108200D03*
X160790200Y-25032000D03*
X162974600Y-25032000D03*
X165159000Y-25057400D03*
X165184400Y-23076200D03*
X160714000Y-22974600D03*
X162974600Y-23000000D03*
X165159000Y-20917200D03*
X162974600Y-20891800D03*
X160764800Y-20891800D03*
X145209800Y-20968000D03*
X143025400Y-20968000D03*
X140841000Y-20942600D03*
X140815600Y-22923800D03*
X145286000Y-23025400D03*
X143025400Y-23000000D03*
X140841000Y-25082800D03*
X143025400Y-25108200D03*
X145235200Y-25108200D03*
X120790200Y-25032000D03*
X122974600Y-25032000D03*
X125159000Y-25057400D03*
X125184400Y-23076200D03*
X120714000Y-22974600D03*
X122974600Y-23000000D03*
X125159000Y-20917200D03*
X122974600Y-20891800D03*
X120764800Y-20891800D03*
X105209800Y-20968000D03*
X103025400Y-20968000D03*
X100841000Y-20942600D03*
X100815600Y-22923800D03*
X105286000Y-23025400D03*
X103025400Y-23000000D03*
X100841000Y-25082800D03*
X103025400Y-25108200D03*
X105235200Y-25108200D03*
X80790200Y-25032000D03*
X82974600Y-25032000D03*
X85159000Y-25057400D03*
X85184400Y-23076200D03*
X80714000Y-22974600D03*
X82974600Y-23000000D03*
X85159000Y-20917200D03*
X82974600Y-20891800D03*
X80764800Y-20891800D03*
X65209800Y-20968000D03*
X63025400Y-20968000D03*
X60841000Y-20942600D03*
X60815600Y-22923800D03*
X65286000Y-23025400D03*
X63025400Y-23000000D03*
X60841000Y-25082800D03*
X63025400Y-25108200D03*
X65235200Y-25108200D03*
X40790200Y-25032000D03*
X42974600Y-25032000D03*
X45159000Y-25057400D03*
X45184400Y-23076200D03*
X40714000Y-22974600D03*
X42974600Y-23000000D03*
X45159000Y-20917200D03*
X42974600Y-20891800D03*
X40764800Y-20891800D03*
D17*
X33250000Y-259250000D03*
X33250000Y-261500000D03*
X33250000Y-263750000D03*
X33250000Y-266000000D03*
X33250000Y-254250000D03*
X33239990Y-256739990D03*
D18*
X174260000Y-271000000D02*
X174260000Y-268260000D01*
X174260000Y-268260000D02*
X174250000Y-268250000D01*
X148780000Y-268250000D02*
X145980000Y-271050000D01*
X174250000Y-268250000D02*
X148780000Y-268250000D01*
X176800000Y-269797919D02*
X176750000Y-269747919D01*
X176800000Y-271000000D02*
X176800000Y-269797919D01*
X140900000Y-269847919D02*
X140900000Y-271050000D01*
X175161273Y-266049990D02*
X144697929Y-266049990D01*
X144697929Y-266049990D02*
X140900000Y-269847919D01*
X176750000Y-267638717D02*
X175161273Y-266049990D01*
X176750000Y-269747919D02*
X176750000Y-267638717D01*
X179340000Y-269797919D02*
X179250000Y-269707919D01*
X179340000Y-271000000D02*
X179340000Y-269797919D01*
X179250000Y-269707919D02*
X179250000Y-266750000D01*
X141817939Y-263849980D02*
X135820000Y-269847919D01*
X176349980Y-263849980D02*
X141817939Y-263849980D01*
X135820000Y-269847919D02*
X135820000Y-271050000D01*
X179250000Y-266750000D02*
X176349980Y-263849980D01*
X181880000Y-266268718D02*
X177261254Y-261649972D01*
X181880000Y-271000000D02*
X181880000Y-266268718D01*
X130740000Y-269847919D02*
X130740000Y-271050000D01*
X138937947Y-261649972D02*
X130740000Y-269847919D01*
X177261254Y-261649972D02*
X138937947Y-261649972D01*
X184420000Y-265697436D02*
X178172527Y-259449962D01*
X184420000Y-271000000D02*
X184420000Y-265697436D01*
X125660000Y-269840000D02*
X125660000Y-269847919D01*
X125660000Y-269847919D02*
X125660000Y-271050000D01*
X136050038Y-259449962D02*
X125660000Y-269840000D01*
X178172527Y-259449962D02*
X136050038Y-259449962D01*
X186960000Y-265126152D02*
X179083800Y-257249952D01*
X186960000Y-271000000D02*
X186960000Y-265126152D01*
X120580000Y-269847919D02*
X120580000Y-271050000D01*
X133177967Y-257249952D02*
X120580000Y-269847919D01*
X179083800Y-257249952D02*
X133177967Y-257249952D01*
X189500000Y-264554870D02*
X179995073Y-255049942D01*
X189500000Y-271000000D02*
X189500000Y-264554870D01*
X115500000Y-269847919D02*
X115500000Y-271050000D01*
X130297977Y-255049942D02*
X115500000Y-269847919D01*
X179995073Y-255049942D02*
X130297977Y-255049942D01*
M02*
