G04 #@! TF.GenerationSoftware,KiCad,Pcbnew,(5.1.5-0-10_14)*
G04 #@! TF.CreationDate,2020-03-21T16:44:53+01:00*
G04 #@! TF.ProjectId,easypowerwall,65617379-706f-4776-9572-77616c6c2e6b,rev?*
G04 #@! TF.SameCoordinates,Original*
G04 #@! TF.FileFunction,Legend,Bot*
G04 #@! TF.FilePolarity,Positive*
%FSLAX46Y46*%
G04 Gerber Fmt 4.6, Leading zero omitted, Abs format (unit mm)*
G04 Created by KiCad (PCBNEW (5.1.5-0-10_14)) date 2020-03-21 16:44:53*
%MOMM*%
%LPD*%
G04 APERTURE LIST*
%ADD10C,0.100000*%
%ADD11C,0.150000*%
%ADD12C,0.300000*%
G04 APERTURE END LIST*
D10*
G36*
X269750000Y-269250000D02*
G01*
X219250000Y-269250000D01*
X219250000Y-254250000D01*
X269750000Y-254250000D01*
X269750000Y-269250000D01*
G37*
X269750000Y-269250000D02*
X219250000Y-269250000D01*
X219250000Y-254250000D01*
X269750000Y-254250000D01*
X269750000Y-269250000D01*
D11*
X218416666Y-264460714D02*
X218416666Y-265270238D01*
X218464285Y-265365476D01*
X218511904Y-265413095D01*
X218607142Y-265460714D01*
X218750000Y-265460714D01*
X218845238Y-265413095D01*
X218416666Y-265079761D02*
X218511904Y-265127380D01*
X218702380Y-265127380D01*
X218797619Y-265079761D01*
X218845238Y-265032142D01*
X218892857Y-264936904D01*
X218892857Y-264651190D01*
X218845238Y-264555952D01*
X218797619Y-264508333D01*
X218702380Y-264460714D01*
X218511904Y-264460714D01*
X218416666Y-264508333D01*
X217940476Y-265127380D02*
X217940476Y-264460714D01*
X217940476Y-264127380D02*
X217988095Y-264175000D01*
X217940476Y-264222619D01*
X217892857Y-264175000D01*
X217940476Y-264127380D01*
X217940476Y-264222619D01*
X217607142Y-264460714D02*
X217226190Y-264460714D01*
X217464285Y-264127380D02*
X217464285Y-264984523D01*
X217416666Y-265079761D01*
X217321428Y-265127380D01*
X217226190Y-265127380D01*
X216892857Y-265127380D02*
X216892857Y-264127380D01*
X216464285Y-265127380D02*
X216464285Y-264603571D01*
X216511904Y-264508333D01*
X216607142Y-264460714D01*
X216750000Y-264460714D01*
X216845238Y-264508333D01*
X216892857Y-264555952D01*
X215559523Y-264460714D02*
X215559523Y-265127380D01*
X215988095Y-264460714D02*
X215988095Y-264984523D01*
X215940476Y-265079761D01*
X215845238Y-265127380D01*
X215702380Y-265127380D01*
X215607142Y-265079761D01*
X215559523Y-265032142D01*
X215083333Y-265127380D02*
X215083333Y-264127380D01*
X215083333Y-264508333D02*
X214988095Y-264460714D01*
X214797619Y-264460714D01*
X214702380Y-264508333D01*
X214654761Y-264555952D01*
X214607142Y-264651190D01*
X214607142Y-264936904D01*
X214654761Y-265032142D01*
X214702380Y-265079761D01*
X214797619Y-265127380D01*
X214988095Y-265127380D01*
X215083333Y-265079761D01*
X214178571Y-265032142D02*
X214130952Y-265079761D01*
X214178571Y-265127380D01*
X214226190Y-265079761D01*
X214178571Y-265032142D01*
X214178571Y-265127380D01*
X213273809Y-265079761D02*
X213369047Y-265127380D01*
X213559523Y-265127380D01*
X213654761Y-265079761D01*
X213702380Y-265032142D01*
X213750000Y-264936904D01*
X213750000Y-264651190D01*
X213702380Y-264555952D01*
X213654761Y-264508333D01*
X213559523Y-264460714D01*
X213369047Y-264460714D01*
X213273809Y-264508333D01*
X212702380Y-265127380D02*
X212797619Y-265079761D01*
X212845238Y-265032142D01*
X212892857Y-264936904D01*
X212892857Y-264651190D01*
X212845238Y-264555952D01*
X212797619Y-264508333D01*
X212702380Y-264460714D01*
X212559523Y-264460714D01*
X212464285Y-264508333D01*
X212416666Y-264555952D01*
X212369047Y-264651190D01*
X212369047Y-264936904D01*
X212416666Y-265032142D01*
X212464285Y-265079761D01*
X212559523Y-265127380D01*
X212702380Y-265127380D01*
X211940476Y-265127380D02*
X211940476Y-264460714D01*
X211940476Y-264555952D02*
X211892857Y-264508333D01*
X211797619Y-264460714D01*
X211654761Y-264460714D01*
X211559523Y-264508333D01*
X211511904Y-264603571D01*
X211511904Y-265127380D01*
X211511904Y-264603571D02*
X211464285Y-264508333D01*
X211369047Y-264460714D01*
X211226190Y-264460714D01*
X211130952Y-264508333D01*
X211083333Y-264603571D01*
X211083333Y-265127380D01*
X209892857Y-264079761D02*
X210750000Y-265365476D01*
X209559523Y-265127380D02*
X209559523Y-264460714D01*
X209559523Y-264555952D02*
X209511904Y-264508333D01*
X209416666Y-264460714D01*
X209273809Y-264460714D01*
X209178571Y-264508333D01*
X209130952Y-264603571D01*
X209130952Y-265127380D01*
X209130952Y-264603571D02*
X209083333Y-264508333D01*
X208988095Y-264460714D01*
X208845238Y-264460714D01*
X208750000Y-264508333D01*
X208702380Y-264603571D01*
X208702380Y-265127380D01*
X208226190Y-265127380D02*
X208226190Y-264460714D01*
X208226190Y-264127380D02*
X208273809Y-264175000D01*
X208226190Y-264222619D01*
X208178571Y-264175000D01*
X208226190Y-264127380D01*
X208226190Y-264222619D01*
X207892857Y-264460714D02*
X207511904Y-264460714D01*
X207750000Y-264127380D02*
X207750000Y-264984523D01*
X207702380Y-265079761D01*
X207607142Y-265127380D01*
X207511904Y-265127380D01*
X206750000Y-265079761D02*
X206845238Y-265127380D01*
X207035714Y-265127380D01*
X207130952Y-265079761D01*
X207178571Y-265032142D01*
X207226190Y-264936904D01*
X207226190Y-264651190D01*
X207178571Y-264555952D01*
X207130952Y-264508333D01*
X207035714Y-264460714D01*
X206845238Y-264460714D01*
X206750000Y-264508333D01*
X206321428Y-265127380D02*
X206321428Y-264127380D01*
X205892857Y-265127380D02*
X205892857Y-264603571D01*
X205940476Y-264508333D01*
X206035714Y-264460714D01*
X206178571Y-264460714D01*
X206273809Y-264508333D01*
X206321428Y-264555952D01*
X205035714Y-265079761D02*
X205130952Y-265127380D01*
X205321428Y-265127380D01*
X205416666Y-265079761D01*
X205464285Y-264984523D01*
X205464285Y-264603571D01*
X205416666Y-264508333D01*
X205321428Y-264460714D01*
X205130952Y-264460714D01*
X205035714Y-264508333D01*
X204988095Y-264603571D01*
X204988095Y-264698809D01*
X205464285Y-264794047D01*
X204607142Y-265079761D02*
X204511904Y-265127380D01*
X204321428Y-265127380D01*
X204226190Y-265079761D01*
X204178571Y-264984523D01*
X204178571Y-264936904D01*
X204226190Y-264841666D01*
X204321428Y-264794047D01*
X204464285Y-264794047D01*
X204559523Y-264746428D01*
X204607142Y-264651190D01*
X204607142Y-264603571D01*
X204559523Y-264508333D01*
X204464285Y-264460714D01*
X204321428Y-264460714D01*
X204226190Y-264508333D01*
X203369047Y-265079761D02*
X203464285Y-265127380D01*
X203654761Y-265127380D01*
X203750000Y-265079761D01*
X203797619Y-264984523D01*
X203797619Y-264603571D01*
X203750000Y-264508333D01*
X203654761Y-264460714D01*
X203464285Y-264460714D01*
X203369047Y-264508333D01*
X203321428Y-264603571D01*
X203321428Y-264698809D01*
X203797619Y-264794047D01*
X202178571Y-264079761D02*
X203035714Y-265365476D01*
X201464285Y-265079761D02*
X201559523Y-265127380D01*
X201750000Y-265127380D01*
X201845238Y-265079761D01*
X201892857Y-264984523D01*
X201892857Y-264603571D01*
X201845238Y-264508333D01*
X201750000Y-264460714D01*
X201559523Y-264460714D01*
X201464285Y-264508333D01*
X201416666Y-264603571D01*
X201416666Y-264698809D01*
X201892857Y-264794047D01*
X200559523Y-265127380D02*
X200559523Y-264603571D01*
X200607142Y-264508333D01*
X200702380Y-264460714D01*
X200892857Y-264460714D01*
X200988095Y-264508333D01*
X200559523Y-265079761D02*
X200654761Y-265127380D01*
X200892857Y-265127380D01*
X200988095Y-265079761D01*
X201035714Y-264984523D01*
X201035714Y-264889285D01*
X200988095Y-264794047D01*
X200892857Y-264746428D01*
X200654761Y-264746428D01*
X200559523Y-264698809D01*
X200130952Y-265079761D02*
X200035714Y-265127380D01*
X199845238Y-265127380D01*
X199750000Y-265079761D01*
X199702380Y-264984523D01*
X199702380Y-264936904D01*
X199750000Y-264841666D01*
X199845238Y-264794047D01*
X199988095Y-264794047D01*
X200083333Y-264746428D01*
X200130952Y-264651190D01*
X200130952Y-264603571D01*
X200083333Y-264508333D01*
X199988095Y-264460714D01*
X199845238Y-264460714D01*
X199750000Y-264508333D01*
X199369047Y-264460714D02*
X199130952Y-265127380D01*
X198892857Y-264460714D02*
X199130952Y-265127380D01*
X199226190Y-265365476D01*
X199273809Y-265413095D01*
X199369047Y-265460714D01*
X198511904Y-264460714D02*
X198511904Y-265460714D01*
X198511904Y-264508333D02*
X198416666Y-264460714D01*
X198226190Y-264460714D01*
X198130952Y-264508333D01*
X198083333Y-264555952D01*
X198035714Y-264651190D01*
X198035714Y-264936904D01*
X198083333Y-265032142D01*
X198130952Y-265079761D01*
X198226190Y-265127380D01*
X198416666Y-265127380D01*
X198511904Y-265079761D01*
X197464285Y-265127380D02*
X197559523Y-265079761D01*
X197607142Y-265032142D01*
X197654761Y-264936904D01*
X197654761Y-264651190D01*
X197607142Y-264555952D01*
X197559523Y-264508333D01*
X197464285Y-264460714D01*
X197321428Y-264460714D01*
X197226190Y-264508333D01*
X197178571Y-264555952D01*
X197130952Y-264651190D01*
X197130952Y-264936904D01*
X197178571Y-265032142D01*
X197226190Y-265079761D01*
X197321428Y-265127380D01*
X197464285Y-265127380D01*
X196797619Y-264460714D02*
X196607142Y-265127380D01*
X196416666Y-264651190D01*
X196226190Y-265127380D01*
X196035714Y-264460714D01*
X195273809Y-265079761D02*
X195369047Y-265127380D01*
X195559523Y-265127380D01*
X195654761Y-265079761D01*
X195702380Y-264984523D01*
X195702380Y-264603571D01*
X195654761Y-264508333D01*
X195559523Y-264460714D01*
X195369047Y-264460714D01*
X195273809Y-264508333D01*
X195226190Y-264603571D01*
X195226190Y-264698809D01*
X195702380Y-264794047D01*
X194797619Y-265127380D02*
X194797619Y-264460714D01*
X194797619Y-264651190D02*
X194750000Y-264555952D01*
X194702380Y-264508333D01*
X194607142Y-264460714D01*
X194511904Y-264460714D01*
X194273809Y-264460714D02*
X194083333Y-265127380D01*
X193892857Y-264651190D01*
X193702380Y-265127380D01*
X193511904Y-264460714D01*
X192702380Y-265127380D02*
X192702380Y-264603571D01*
X192750000Y-264508333D01*
X192845238Y-264460714D01*
X193035714Y-264460714D01*
X193130952Y-264508333D01*
X192702380Y-265079761D02*
X192797619Y-265127380D01*
X193035714Y-265127380D01*
X193130952Y-265079761D01*
X193178571Y-264984523D01*
X193178571Y-264889285D01*
X193130952Y-264794047D01*
X193035714Y-264746428D01*
X192797619Y-264746428D01*
X192702380Y-264698809D01*
X192083333Y-265127380D02*
X192178571Y-265079761D01*
X192226190Y-264984523D01*
X192226190Y-264127380D01*
X191559523Y-265127380D02*
X191654761Y-265079761D01*
X191702380Y-264984523D01*
X191702380Y-264127380D01*
X210892857Y-266777380D02*
X211226190Y-266301190D01*
X211464285Y-266777380D02*
X211464285Y-265777380D01*
X211083333Y-265777380D01*
X210988095Y-265825000D01*
X210940476Y-265872619D01*
X210892857Y-265967857D01*
X210892857Y-266110714D01*
X210940476Y-266205952D01*
X210988095Y-266253571D01*
X211083333Y-266301190D01*
X211464285Y-266301190D01*
X210083333Y-266729761D02*
X210178571Y-266777380D01*
X210369047Y-266777380D01*
X210464285Y-266729761D01*
X210511904Y-266634523D01*
X210511904Y-266253571D01*
X210464285Y-266158333D01*
X210369047Y-266110714D01*
X210178571Y-266110714D01*
X210083333Y-266158333D01*
X210035714Y-266253571D01*
X210035714Y-266348809D01*
X210511904Y-266444047D01*
X209464285Y-266777380D02*
X209559523Y-266729761D01*
X209607142Y-266634523D01*
X209607142Y-265777380D01*
X208702380Y-266729761D02*
X208797619Y-266777380D01*
X208988095Y-266777380D01*
X209083333Y-266729761D01*
X209130952Y-266634523D01*
X209130952Y-266253571D01*
X209083333Y-266158333D01*
X208988095Y-266110714D01*
X208797619Y-266110714D01*
X208702380Y-266158333D01*
X208654761Y-266253571D01*
X208654761Y-266348809D01*
X209130952Y-266444047D01*
X207797619Y-266777380D02*
X207797619Y-266253571D01*
X207845238Y-266158333D01*
X207940476Y-266110714D01*
X208130952Y-266110714D01*
X208226190Y-266158333D01*
X207797619Y-266729761D02*
X207892857Y-266777380D01*
X208130952Y-266777380D01*
X208226190Y-266729761D01*
X208273809Y-266634523D01*
X208273809Y-266539285D01*
X208226190Y-266444047D01*
X208130952Y-266396428D01*
X207892857Y-266396428D01*
X207797619Y-266348809D01*
X207369047Y-266729761D02*
X207273809Y-266777380D01*
X207083333Y-266777380D01*
X206988095Y-266729761D01*
X206940476Y-266634523D01*
X206940476Y-266586904D01*
X206988095Y-266491666D01*
X207083333Y-266444047D01*
X207226190Y-266444047D01*
X207321428Y-266396428D01*
X207369047Y-266301190D01*
X207369047Y-266253571D01*
X207321428Y-266158333D01*
X207226190Y-266110714D01*
X207083333Y-266110714D01*
X206988095Y-266158333D01*
X206130952Y-266729761D02*
X206226190Y-266777380D01*
X206416666Y-266777380D01*
X206511904Y-266729761D01*
X206559523Y-266634523D01*
X206559523Y-266253571D01*
X206511904Y-266158333D01*
X206416666Y-266110714D01*
X206226190Y-266110714D01*
X206130952Y-266158333D01*
X206083333Y-266253571D01*
X206083333Y-266348809D01*
X206559523Y-266444047D01*
X205654761Y-266682142D02*
X205607142Y-266729761D01*
X205654761Y-266777380D01*
X205702380Y-266729761D01*
X205654761Y-266682142D01*
X205654761Y-266777380D01*
X205654761Y-266158333D02*
X205607142Y-266205952D01*
X205654761Y-266253571D01*
X205702380Y-266205952D01*
X205654761Y-266158333D01*
X205654761Y-266253571D01*
X204511904Y-266110714D02*
X204273809Y-266777380D01*
X204035714Y-266110714D01*
X203464285Y-265777380D02*
X203369047Y-265777380D01*
X203273809Y-265825000D01*
X203226190Y-265872619D01*
X203178571Y-265967857D01*
X203130952Y-266158333D01*
X203130952Y-266396428D01*
X203178571Y-266586904D01*
X203226190Y-266682142D01*
X203273809Y-266729761D01*
X203369047Y-266777380D01*
X203464285Y-266777380D01*
X203559523Y-266729761D01*
X203607142Y-266682142D01*
X203654761Y-266586904D01*
X203702380Y-266396428D01*
X203702380Y-266158333D01*
X203654761Y-265967857D01*
X203607142Y-265872619D01*
X203559523Y-265825000D01*
X203464285Y-265777380D01*
X202702380Y-266682142D02*
X202654761Y-266729761D01*
X202702380Y-266777380D01*
X202750000Y-266729761D01*
X202702380Y-266682142D01*
X202702380Y-266777380D01*
X201702380Y-266777380D02*
X202273809Y-266777380D01*
X201988095Y-266777380D02*
X201988095Y-265777380D01*
X202083333Y-265920238D01*
X202178571Y-266015476D01*
X202273809Y-266063095D01*
X201273809Y-266396428D02*
X200511904Y-266396428D01*
X200035714Y-266777380D02*
X200035714Y-266110714D01*
X200035714Y-266301190D02*
X199988095Y-266205952D01*
X199940476Y-266158333D01*
X199845238Y-266110714D01*
X199750000Y-266110714D01*
X198988095Y-266729761D02*
X199083333Y-266777380D01*
X199273809Y-266777380D01*
X199369047Y-266729761D01*
X199416666Y-266682142D01*
X199464285Y-266586904D01*
X199464285Y-266301190D01*
X199416666Y-266205952D01*
X199369047Y-266158333D01*
X199273809Y-266110714D01*
X199083333Y-266110714D01*
X198988095Y-266158333D01*
X269130952Y-270702380D02*
X269130952Y-269702380D01*
X268654761Y-270035714D02*
X268654761Y-270702380D01*
X268654761Y-270130952D02*
X268607142Y-270083333D01*
X268511904Y-270035714D01*
X268369047Y-270035714D01*
X268273809Y-270083333D01*
X268226190Y-270178571D01*
X268226190Y-270702380D01*
X267797619Y-270654761D02*
X267702380Y-270702380D01*
X267511904Y-270702380D01*
X267416666Y-270654761D01*
X267369047Y-270559523D01*
X267369047Y-270511904D01*
X267416666Y-270416666D01*
X267511904Y-270369047D01*
X267654761Y-270369047D01*
X267750000Y-270321428D01*
X267797619Y-270226190D01*
X267797619Y-270178571D01*
X267750000Y-270083333D01*
X267654761Y-270035714D01*
X267511904Y-270035714D01*
X267416666Y-270083333D01*
X267083333Y-270035714D02*
X266702380Y-270035714D01*
X266940476Y-269702380D02*
X266940476Y-270559523D01*
X266892857Y-270654761D01*
X266797619Y-270702380D01*
X266702380Y-270702380D01*
X265940476Y-270702380D02*
X265940476Y-270178571D01*
X265988095Y-270083333D01*
X266083333Y-270035714D01*
X266273809Y-270035714D01*
X266369047Y-270083333D01*
X265940476Y-270654761D02*
X266035714Y-270702380D01*
X266273809Y-270702380D01*
X266369047Y-270654761D01*
X266416666Y-270559523D01*
X266416666Y-270464285D01*
X266369047Y-270369047D01*
X266273809Y-270321428D01*
X266035714Y-270321428D01*
X265940476Y-270273809D01*
X265321428Y-270702380D02*
X265416666Y-270654761D01*
X265464285Y-270559523D01*
X265464285Y-269702380D01*
X264797619Y-270702380D02*
X264892857Y-270654761D01*
X264940476Y-270559523D01*
X264940476Y-269702380D01*
X263988095Y-270702380D02*
X263988095Y-270178571D01*
X264035714Y-270083333D01*
X264130952Y-270035714D01*
X264321428Y-270035714D01*
X264416666Y-270083333D01*
X263988095Y-270654761D02*
X264083333Y-270702380D01*
X264321428Y-270702380D01*
X264416666Y-270654761D01*
X264464285Y-270559523D01*
X264464285Y-270464285D01*
X264416666Y-270369047D01*
X264321428Y-270321428D01*
X264083333Y-270321428D01*
X263988095Y-270273809D01*
X263654761Y-270035714D02*
X263273809Y-270035714D01*
X263511904Y-269702380D02*
X263511904Y-270559523D01*
X263464285Y-270654761D01*
X263369047Y-270702380D01*
X263273809Y-270702380D01*
X262940476Y-270702380D02*
X262940476Y-270035714D01*
X262940476Y-269702380D02*
X262988095Y-269750000D01*
X262940476Y-269797619D01*
X262892857Y-269750000D01*
X262940476Y-269702380D01*
X262940476Y-269797619D01*
X262321428Y-270702380D02*
X262416666Y-270654761D01*
X262464285Y-270607142D01*
X262511904Y-270511904D01*
X262511904Y-270226190D01*
X262464285Y-270130952D01*
X262416666Y-270083333D01*
X262321428Y-270035714D01*
X262178571Y-270035714D01*
X262083333Y-270083333D01*
X262035714Y-270130952D01*
X261988095Y-270226190D01*
X261988095Y-270511904D01*
X262035714Y-270607142D01*
X262083333Y-270654761D01*
X262178571Y-270702380D01*
X262321428Y-270702380D01*
X261559523Y-270035714D02*
X261559523Y-270702380D01*
X261559523Y-270130952D02*
X261511904Y-270083333D01*
X261416666Y-270035714D01*
X261273809Y-270035714D01*
X261178571Y-270083333D01*
X261130952Y-270178571D01*
X261130952Y-270702380D01*
X259416666Y-270702380D02*
X259892857Y-270702380D01*
X259892857Y-269702380D01*
X258654761Y-270702380D02*
X258654761Y-270178571D01*
X258702380Y-270083333D01*
X258797619Y-270035714D01*
X258988095Y-270035714D01*
X259083333Y-270083333D01*
X258654761Y-270654761D02*
X258750000Y-270702380D01*
X258988095Y-270702380D01*
X259083333Y-270654761D01*
X259130952Y-270559523D01*
X259130952Y-270464285D01*
X259083333Y-270369047D01*
X258988095Y-270321428D01*
X258750000Y-270321428D01*
X258654761Y-270273809D01*
X258178571Y-270702380D02*
X258178571Y-269702380D01*
X258178571Y-270083333D02*
X258083333Y-270035714D01*
X257892857Y-270035714D01*
X257797619Y-270083333D01*
X257750000Y-270130952D01*
X257702380Y-270226190D01*
X257702380Y-270511904D01*
X257750000Y-270607142D01*
X257797619Y-270654761D01*
X257892857Y-270702380D01*
X258083333Y-270702380D01*
X258178571Y-270654761D01*
X256892857Y-270654761D02*
X256988095Y-270702380D01*
X257178571Y-270702380D01*
X257273809Y-270654761D01*
X257321428Y-270559523D01*
X257321428Y-270178571D01*
X257273809Y-270083333D01*
X257178571Y-270035714D01*
X256988095Y-270035714D01*
X256892857Y-270083333D01*
X256845238Y-270178571D01*
X256845238Y-270273809D01*
X257321428Y-270369047D01*
X256273809Y-270702380D02*
X256369047Y-270654761D01*
X256416666Y-270559523D01*
X256416666Y-269702380D01*
D12*
X179928571Y-267714285D02*
X179928571Y-266857142D01*
X179928571Y-267285714D02*
X178428571Y-267285714D01*
X178642857Y-267142857D01*
X178785714Y-267000000D01*
X178857142Y-266857142D01*
X178428571Y-268642857D02*
X178428571Y-268785714D01*
X178500000Y-268928571D01*
X178571428Y-269000000D01*
X178714285Y-269071428D01*
X179000000Y-269142857D01*
X179357142Y-269142857D01*
X179642857Y-269071428D01*
X179785714Y-269000000D01*
X179857142Y-268928571D01*
X179928571Y-268785714D01*
X179928571Y-268642857D01*
X179857142Y-268500000D01*
X179785714Y-268428571D01*
X179642857Y-268357142D01*
X179357142Y-268285714D01*
X179000000Y-268285714D01*
X178714285Y-268357142D01*
X178571428Y-268428571D01*
X178500000Y-268500000D01*
X178428571Y-268642857D01*
X177678571Y-267714285D02*
X177678571Y-266857142D01*
X177678571Y-267285714D02*
X176178571Y-267285714D01*
X176392857Y-267142857D01*
X176535714Y-267000000D01*
X176607142Y-266857142D01*
X176321428Y-268285714D02*
X176250000Y-268357142D01*
X176178571Y-268500000D01*
X176178571Y-268857142D01*
X176250000Y-269000000D01*
X176321428Y-269071428D01*
X176464285Y-269142857D01*
X176607142Y-269142857D01*
X176821428Y-269071428D01*
X177678571Y-268214285D01*
X177678571Y-269142857D01*
X183964285Y-267178571D02*
X184250000Y-267178571D01*
X184392857Y-267250000D01*
X184464285Y-267321428D01*
X184607142Y-267535714D01*
X184678571Y-267821428D01*
X184678571Y-268392857D01*
X184607142Y-268535714D01*
X184535714Y-268607142D01*
X184392857Y-268678571D01*
X184107142Y-268678571D01*
X183964285Y-268607142D01*
X183892857Y-268535714D01*
X183821428Y-268392857D01*
X183821428Y-268035714D01*
X183892857Y-267892857D01*
X183964285Y-267821428D01*
X184107142Y-267750000D01*
X184392857Y-267750000D01*
X184535714Y-267821428D01*
X184607142Y-267892857D01*
X184678571Y-268035714D01*
X174928571Y-267714285D02*
X174928571Y-266857142D01*
X174928571Y-267285714D02*
X173428571Y-267285714D01*
X173642857Y-267142857D01*
X173785714Y-267000000D01*
X173857142Y-266857142D01*
X173928571Y-269000000D02*
X174928571Y-269000000D01*
X173357142Y-268642857D02*
X174428571Y-268285714D01*
X174428571Y-269214285D01*
X182142857Y-267821428D02*
X182285714Y-267750000D01*
X182357142Y-267678571D01*
X182428571Y-267535714D01*
X182428571Y-267464285D01*
X182357142Y-267321428D01*
X182285714Y-267250000D01*
X182142857Y-267178571D01*
X181857142Y-267178571D01*
X181714285Y-267250000D01*
X181642857Y-267321428D01*
X181571428Y-267464285D01*
X181571428Y-267535714D01*
X181642857Y-267678571D01*
X181714285Y-267750000D01*
X181857142Y-267821428D01*
X182142857Y-267821428D01*
X182285714Y-267892857D01*
X182357142Y-267964285D01*
X182428571Y-268107142D01*
X182428571Y-268392857D01*
X182357142Y-268535714D01*
X182285714Y-268607142D01*
X182142857Y-268678571D01*
X181857142Y-268678571D01*
X181714285Y-268607142D01*
X181642857Y-268535714D01*
X181571428Y-268392857D01*
X181571428Y-268107142D01*
X181642857Y-267964285D01*
X181714285Y-267892857D01*
X181857142Y-267821428D01*
X189928571Y-267321428D02*
X189857142Y-267250000D01*
X189714285Y-267178571D01*
X189357142Y-267178571D01*
X189214285Y-267250000D01*
X189142857Y-267321428D01*
X189071428Y-267464285D01*
X189071428Y-267607142D01*
X189142857Y-267821428D01*
X190000000Y-268678571D01*
X189071428Y-268678571D01*
X186464285Y-267678571D02*
X186464285Y-268678571D01*
X186821428Y-267107142D02*
X187178571Y-268178571D01*
X186250000Y-268178571D01*
X115928571Y-267571428D02*
X115857142Y-267500000D01*
X115714285Y-267428571D01*
X115357142Y-267428571D01*
X115214285Y-267500000D01*
X115142857Y-267571428D01*
X115071428Y-267714285D01*
X115071428Y-267857142D01*
X115142857Y-268071428D01*
X116000000Y-268928571D01*
X115071428Y-268928571D01*
X130892857Y-268071428D02*
X131035714Y-268000000D01*
X131107142Y-267928571D01*
X131178571Y-267785714D01*
X131178571Y-267714285D01*
X131107142Y-267571428D01*
X131035714Y-267500000D01*
X130892857Y-267428571D01*
X130607142Y-267428571D01*
X130464285Y-267500000D01*
X130392857Y-267571428D01*
X130321428Y-267714285D01*
X130321428Y-267785714D01*
X130392857Y-267928571D01*
X130464285Y-268000000D01*
X130607142Y-268071428D01*
X130892857Y-268071428D01*
X131035714Y-268142857D01*
X131107142Y-268214285D01*
X131178571Y-268357142D01*
X131178571Y-268642857D01*
X131107142Y-268785714D01*
X131035714Y-268857142D01*
X130892857Y-268928571D01*
X130607142Y-268928571D01*
X130464285Y-268857142D01*
X130392857Y-268785714D01*
X130321428Y-268642857D01*
X130321428Y-268357142D01*
X130392857Y-268214285D01*
X130464285Y-268142857D01*
X130607142Y-268071428D01*
X120214285Y-267928571D02*
X120214285Y-268928571D01*
X120571428Y-267357142D02*
X120928571Y-268428571D01*
X120000000Y-268428571D01*
X112571428Y-268928571D02*
X113428571Y-268928571D01*
X113000000Y-268928571D02*
X113000000Y-267428571D01*
X113142857Y-267642857D01*
X113285714Y-267785714D01*
X113428571Y-267857142D01*
X122892857Y-267428571D02*
X123607142Y-267428571D01*
X123678571Y-268142857D01*
X123607142Y-268071428D01*
X123464285Y-268000000D01*
X123107142Y-268000000D01*
X122964285Y-268071428D01*
X122892857Y-268142857D01*
X122821428Y-268285714D01*
X122821428Y-268642857D01*
X122892857Y-268785714D01*
X122964285Y-268857142D01*
X123107142Y-268928571D01*
X123464285Y-268928571D01*
X123607142Y-268857142D01*
X123678571Y-268785714D01*
X118500000Y-267428571D02*
X117571428Y-267428571D01*
X118071428Y-268000000D01*
X117857142Y-268000000D01*
X117714285Y-268071428D01*
X117642857Y-268142857D01*
X117571428Y-268285714D01*
X117571428Y-268642857D01*
X117642857Y-268785714D01*
X117714285Y-268857142D01*
X117857142Y-268928571D01*
X118285714Y-268928571D01*
X118428571Y-268857142D01*
X118500000Y-268785714D01*
X125464285Y-267428571D02*
X125750000Y-267428571D01*
X125892857Y-267500000D01*
X125964285Y-267571428D01*
X126107142Y-267785714D01*
X126178571Y-268071428D01*
X126178571Y-268642857D01*
X126107142Y-268785714D01*
X126035714Y-268857142D01*
X125892857Y-268928571D01*
X125607142Y-268928571D01*
X125464285Y-268857142D01*
X125392857Y-268785714D01*
X125321428Y-268642857D01*
X125321428Y-268285714D01*
X125392857Y-268142857D01*
X125464285Y-268071428D01*
X125607142Y-268000000D01*
X125892857Y-268000000D01*
X126035714Y-268071428D01*
X126107142Y-268142857D01*
X126178571Y-268285714D01*
X146678571Y-267964285D02*
X146678571Y-267107142D01*
X146678571Y-267535714D02*
X145178571Y-267535714D01*
X145392857Y-267392857D01*
X145535714Y-267250000D01*
X145607142Y-267107142D01*
X145678571Y-269250000D02*
X146678571Y-269250000D01*
X145107142Y-268892857D02*
X146178571Y-268535714D01*
X146178571Y-269464285D01*
X136428571Y-267964285D02*
X136428571Y-267107142D01*
X136428571Y-267535714D02*
X134928571Y-267535714D01*
X135142857Y-267392857D01*
X135285714Y-267250000D01*
X135357142Y-267107142D01*
X134928571Y-268892857D02*
X134928571Y-269035714D01*
X135000000Y-269178571D01*
X135071428Y-269250000D01*
X135214285Y-269321428D01*
X135500000Y-269392857D01*
X135857142Y-269392857D01*
X136142857Y-269321428D01*
X136285714Y-269250000D01*
X136357142Y-269178571D01*
X136428571Y-269035714D01*
X136428571Y-268892857D01*
X136357142Y-268750000D01*
X136285714Y-268678571D01*
X136142857Y-268607142D01*
X135857142Y-268535714D01*
X135500000Y-268535714D01*
X135214285Y-268607142D01*
X135071428Y-268678571D01*
X135000000Y-268750000D01*
X134928571Y-268892857D01*
X144178571Y-267964285D02*
X144178571Y-267107142D01*
X144178571Y-267535714D02*
X142678571Y-267535714D01*
X142892857Y-267392857D01*
X143035714Y-267250000D01*
X143107142Y-267107142D01*
X142678571Y-268464285D02*
X142678571Y-269392857D01*
X143250000Y-268892857D01*
X143250000Y-269107142D01*
X143321428Y-269250000D01*
X143392857Y-269321428D01*
X143535714Y-269392857D01*
X143892857Y-269392857D01*
X144035714Y-269321428D01*
X144107142Y-269250000D01*
X144178571Y-269107142D01*
X144178571Y-268678571D01*
X144107142Y-268535714D01*
X144035714Y-268464285D01*
X128750000Y-267428571D02*
X127750000Y-267428571D01*
X128392857Y-268928571D01*
X139178571Y-267964285D02*
X139178571Y-267107142D01*
X139178571Y-267535714D02*
X137678571Y-267535714D01*
X137892857Y-267392857D01*
X138035714Y-267250000D01*
X138107142Y-267107142D01*
X139178571Y-269392857D02*
X139178571Y-268535714D01*
X139178571Y-268964285D02*
X137678571Y-268964285D01*
X137892857Y-268821428D01*
X138035714Y-268678571D01*
X138107142Y-268535714D01*
X141678571Y-267964285D02*
X141678571Y-267107142D01*
X141678571Y-267535714D02*
X140178571Y-267535714D01*
X140392857Y-267392857D01*
X140535714Y-267250000D01*
X140607142Y-267107142D01*
X140321428Y-268535714D02*
X140250000Y-268607142D01*
X140178571Y-268750000D01*
X140178571Y-269107142D01*
X140250000Y-269250000D01*
X140321428Y-269321428D01*
X140464285Y-269392857D01*
X140607142Y-269392857D01*
X140821428Y-269321428D01*
X141678571Y-268464285D01*
X141678571Y-269392857D01*
X133535714Y-268928571D02*
X133250000Y-268928571D01*
X133107142Y-268857142D01*
X133035714Y-268785714D01*
X132892857Y-268571428D01*
X132821428Y-268285714D01*
X132821428Y-267714285D01*
X132892857Y-267571428D01*
X132964285Y-267500000D01*
X133107142Y-267428571D01*
X133392857Y-267428571D01*
X133535714Y-267500000D01*
X133607142Y-267571428D01*
X133678571Y-267714285D01*
X133678571Y-268071428D01*
X133607142Y-268214285D01*
X133535714Y-268285714D01*
X133392857Y-268357142D01*
X133107142Y-268357142D01*
X132964285Y-268285714D01*
X132892857Y-268214285D01*
X132821428Y-268071428D01*
D10*
G36*
X60000000Y-267750000D02*
G01*
X44000000Y-267750000D01*
X44000000Y-252750000D01*
X60000000Y-252750000D01*
X60000000Y-267750000D01*
G37*
X60000000Y-267750000D02*
X44000000Y-267750000D01*
X44000000Y-252750000D01*
X60000000Y-252750000D01*
X60000000Y-267750000D01*
D11*
X59166666Y-269452380D02*
X59166666Y-268452380D01*
X58785714Y-268452380D01*
X58690476Y-268500000D01*
X58642857Y-268547619D01*
X58595238Y-268642857D01*
X58595238Y-268785714D01*
X58642857Y-268880952D01*
X58690476Y-268928571D01*
X58785714Y-268976190D01*
X59166666Y-268976190D01*
X58023809Y-269452380D02*
X58119047Y-269404761D01*
X58166666Y-269357142D01*
X58214285Y-269261904D01*
X58214285Y-268976190D01*
X58166666Y-268880952D01*
X58119047Y-268833333D01*
X58023809Y-268785714D01*
X57880952Y-268785714D01*
X57785714Y-268833333D01*
X57738095Y-268880952D01*
X57690476Y-268976190D01*
X57690476Y-269261904D01*
X57738095Y-269357142D01*
X57785714Y-269404761D01*
X57880952Y-269452380D01*
X58023809Y-269452380D01*
X57309523Y-269404761D02*
X57214285Y-269452380D01*
X57023809Y-269452380D01*
X56928571Y-269404761D01*
X56880952Y-269309523D01*
X56880952Y-269261904D01*
X56928571Y-269166666D01*
X57023809Y-269119047D01*
X57166666Y-269119047D01*
X57261904Y-269071428D01*
X57309523Y-268976190D01*
X57309523Y-268928571D01*
X57261904Y-268833333D01*
X57166666Y-268785714D01*
X57023809Y-268785714D01*
X56928571Y-268833333D01*
X56452380Y-269452380D02*
X56452380Y-268785714D01*
X56452380Y-268452380D02*
X56500000Y-268500000D01*
X56452380Y-268547619D01*
X56404761Y-268500000D01*
X56452380Y-268452380D01*
X56452380Y-268547619D01*
X56119047Y-268785714D02*
X55738095Y-268785714D01*
X55976190Y-268452380D02*
X55976190Y-269309523D01*
X55928571Y-269404761D01*
X55833333Y-269452380D01*
X55738095Y-269452380D01*
X55404761Y-269452380D02*
X55404761Y-268785714D01*
X55404761Y-268452380D02*
X55452380Y-268500000D01*
X55404761Y-268547619D01*
X55357142Y-268500000D01*
X55404761Y-268452380D01*
X55404761Y-268547619D01*
X55023809Y-268785714D02*
X54785714Y-269452380D01*
X54547619Y-268785714D01*
X53785714Y-269404761D02*
X53880952Y-269452380D01*
X54071428Y-269452380D01*
X54166666Y-269404761D01*
X54214285Y-269309523D01*
X54214285Y-268928571D01*
X54166666Y-268833333D01*
X54071428Y-268785714D01*
X53880952Y-268785714D01*
X53785714Y-268833333D01*
X53738095Y-268928571D01*
X53738095Y-269023809D01*
X54214285Y-269119047D01*
X51833333Y-268404761D02*
X52690476Y-269690476D01*
X50738095Y-269452380D02*
X50738095Y-268452380D01*
X50166666Y-269452380D01*
X50166666Y-268452380D01*
X49309523Y-269404761D02*
X49404761Y-269452380D01*
X49595238Y-269452380D01*
X49690476Y-269404761D01*
X49738095Y-269309523D01*
X49738095Y-268928571D01*
X49690476Y-268833333D01*
X49595238Y-268785714D01*
X49404761Y-268785714D01*
X49309523Y-268833333D01*
X49261904Y-268928571D01*
X49261904Y-269023809D01*
X49738095Y-269119047D01*
X48404761Y-268785714D02*
X48404761Y-269595238D01*
X48452380Y-269690476D01*
X48500000Y-269738095D01*
X48595238Y-269785714D01*
X48738095Y-269785714D01*
X48833333Y-269738095D01*
X48404761Y-269404761D02*
X48500000Y-269452380D01*
X48690476Y-269452380D01*
X48785714Y-269404761D01*
X48833333Y-269357142D01*
X48880952Y-269261904D01*
X48880952Y-268976190D01*
X48833333Y-268880952D01*
X48785714Y-268833333D01*
X48690476Y-268785714D01*
X48500000Y-268785714D01*
X48404761Y-268833333D01*
X47500000Y-269452380D02*
X47500000Y-268928571D01*
X47547619Y-268833333D01*
X47642857Y-268785714D01*
X47833333Y-268785714D01*
X47928571Y-268833333D01*
X47500000Y-269404761D02*
X47595238Y-269452380D01*
X47833333Y-269452380D01*
X47928571Y-269404761D01*
X47976190Y-269309523D01*
X47976190Y-269214285D01*
X47928571Y-269119047D01*
X47833333Y-269071428D01*
X47595238Y-269071428D01*
X47500000Y-269023809D01*
X47166666Y-268785714D02*
X46785714Y-268785714D01*
X47023809Y-268452380D02*
X47023809Y-269309523D01*
X46976190Y-269404761D01*
X46880952Y-269452380D01*
X46785714Y-269452380D01*
X46452380Y-269452380D02*
X46452380Y-268785714D01*
X46452380Y-268452380D02*
X46500000Y-268500000D01*
X46452380Y-268547619D01*
X46404761Y-268500000D01*
X46452380Y-268452380D01*
X46452380Y-268547619D01*
X46071428Y-268785714D02*
X45833333Y-269452380D01*
X45595238Y-268785714D01*
X44833333Y-269404761D02*
X44928571Y-269452380D01*
X45119047Y-269452380D01*
X45214285Y-269404761D01*
X45261904Y-269309523D01*
X45261904Y-268928571D01*
X45214285Y-268833333D01*
X45119047Y-268785714D01*
X44928571Y-268785714D01*
X44833333Y-268833333D01*
X44785714Y-268928571D01*
X44785714Y-269023809D01*
X45261904Y-269119047D01*
M02*
